<svg width="1440" height="1073" viewBox="0 0 1440 1073" fill="none" xmlns="http://www.w3.org/2000/svg">
<g clip-path="url(#clip0_358_1846)">
<rect width="1440" height="1073" fill="white"/>
<path d="M1080.96 767.42C1086.81 760.349 1094.52 752.884 1103.86 745.229C1113.54 737.372 1123.64 730.162 1134.1 723.647C1145.04 716.785 1156.3 710.6 1167.82 705.131C1178.68 699.904 1189.82 695.533 1201.14 692.058C1211.47 688.932 1220.41 687.319 1227.63 687.216C1234.6 687.109 1239.69 688.431 1242.77 691.127C1245.86 693.823 1246.77 697.753 1245.47 702.848C1244.15 708.079 1240.49 714.352 1234.65 721.424C1228.8 728.495 1221.07 735.995 1211.75 743.615C1202.07 751.473 1191.97 758.682 1181.5 765.192C1170.57 772.064 1159.31 778.255 1147.79 783.728C1136.93 788.952 1125.79 793.322 1114.48 796.801C1104.11 799.902 1095.19 801.528 1087.97 801.635C1081 801.738 1075.91 800.416 1072.83 797.724C1069.75 795.032 1068.84 791.098 1070.13 786.003C1071.45 780.768 1075.11 774.498 1080.96 767.427L1080.96 767.42ZM1080.1 767.679C1055.89 796.912 1071.09 810.227 1114 797.375C1156.91 784.524 1211.31 750.417 1235.49 721.168C1259.68 691.919 1244.51 678.624 1201.63 691.496C1158.75 704.368 1104.33 738.454 1080.14 767.699L1080.1 767.679Z" stroke="#F2F2F2"/>
<path d="M1077.28 763.823C1084.39 756.513 1093.44 748.885 1104.11 741.233C1115.08 733.409 1126.44 726.275 1138.11 719.874C1150.14 713.223 1162.46 707.294 1175 702.118C1186.6 697.243 1198.46 693.288 1210.45 690.288C1221.32 687.669 1230.47 686.56 1237.65 686.996C1244.57 687.4 1249.4 689.242 1251.96 692.428C1254.51 695.613 1254.69 700.006 1252.47 705.471C1250.19 711.1 1245.4 717.705 1238.29 725.007C1231.18 732.31 1222.13 739.945 1211.46 747.598C1200.49 755.423 1189.13 762.556 1177.45 768.952C1165.43 775.604 1153.11 781.535 1140.57 786.713C1128.95 791.578 1117.09 795.525 1105.09 798.517C1094.22 801.136 1085.06 802.246 1077.89 801.813C1070.97 801.41 1066.14 799.568 1063.58 796.382C1061.03 793.196 1060.85 788.804 1063.07 783.339C1065.35 777.71 1070.13 771.101 1077.25 763.803L1077.28 763.823ZM1076.36 764.018C1046.94 794.231 1059.54 809.955 1104.5 799.115C1149.47 788.275 1209.77 755.011 1239.18 724.792C1268.6 694.572 1256 678.855 1211.03 689.69C1166.06 700.526 1105.77 733.799 1076.36 764.018Z" stroke="#F2F2F2"/>
<path d="M1074.3 759.59C1084.01 751.15 1094.32 743.542 1105.1 736.852C1117.36 729.169 1129.96 722.219 1142.84 716.039C1155.91 709.699 1169.23 704.129 1182.74 699.357C1195.04 694.946 1207.54 691.522 1220.13 689.117C1231.41 687.064 1240.7 686.546 1247.74 687.555C1254.55 688.535 1258.99 690.905 1260.94 694.594C1262.89 698.284 1262.25 703.101 1259.04 708.921C1255.71 714.949 1249.76 721.791 1241.35 729.26C1231.64 737.702 1221.33 745.311 1210.55 751.998C1198.32 759.692 1185.74 766.652 1172.89 772.842C1159.82 779.178 1146.5 784.748 1132.99 789.523C1120.69 793.935 1108.19 797.359 1095.59 799.764C1084.32 801.816 1075.03 802.335 1067.98 801.322C1061.18 800.346 1056.74 797.976 1054.79 794.286C1052.84 790.597 1053.48 785.78 1056.69 779.96C1060.02 773.931 1065.97 767.089 1074.38 759.621L1074.3 759.59ZM1073.45 759.787C1038.67 790.675 1048.28 808.846 1094.89 800.377C1141.51 791.908 1207.45 759.976 1242.23 729.095C1277.01 698.214 1267.41 680.036 1220.79 688.505C1174.17 696.974 1108.15 728.871 1073.39 759.764L1073.45 759.787Z" stroke="#F2F2F2"/>
<path d="M1072.13 754.74C1083.23 746.301 1094.86 738.753 1106.91 732.17C1133.9 717.299 1162.05 705.483 1190.85 696.942C1203.74 693.064 1216.78 690.254 1229.86 688.539C1241.43 687.15 1250.75 687.273 1257.56 688.918C1264.13 690.509 1268.11 693.443 1269.35 697.63C1270.6 701.818 1269.08 707.052 1264.81 713.186C1260.4 719.542 1253.23 726.591 1243.51 734.136C1232.41 742.574 1220.78 750.122 1208.73 756.705C1195.27 764.154 1181.49 770.824 1167.47 776.682C1153.44 782.594 1139.19 787.686 1124.79 791.934C1111.9 795.81 1098.86 798.619 1085.77 800.333C1074.21 801.726 1064.89 801.603 1058.08 799.953C1051.51 798.366 1047.53 795.428 1046.29 791.245C1045.05 787.062 1046.57 781.823 1050.82 775.686C1055.24 769.334 1062.41 762.284 1072.13 754.74V754.74ZM1071.17 754.84C1030.94 786.054 1037.11 806.694 1084.96 800.943C1132.81 795.192 1204.21 765.218 1244.43 734.011C1284.66 702.804 1278.49 682.157 1230.64 687.908C1182.8 693.659 1111.4 723.626 1071.17 754.84V754.84Z" stroke="#F2F2F2"/>
<path d="M1070.85 749.231C1083.3 740.899 1096.23 733.513 1109.53 727.137C1124.16 720.039 1139.07 713.771 1154.19 708.362C1169.08 702.978 1184.17 698.477 1199.36 694.88C1214.36 691.36 1227.9 689.272 1239.64 688.621C1251.38 687.971 1260.6 688.813 1267.06 691.133C1273.29 693.373 1276.69 696.879 1277.16 701.56C1277.62 706.241 1275.14 711.869 1269.78 718.27C1264.22 724.897 1255.8 732.079 1244.73 739.645C1232.28 747.982 1219.35 755.368 1206.05 761.738C1191.42 768.84 1176.51 775.11 1161.4 780.517C1146.5 785.901 1131.42 790.403 1116.22 793.999C1101.22 797.519 1087.69 799.607 1075.95 800.258C1064.21 800.909 1054.98 800.066 1048.53 797.746C1042.3 795.506 1038.9 792 1038.43 787.319C1037.96 782.638 1040.45 777.01 1045.81 770.609C1051.36 763.978 1059.78 756.8 1070.85 749.231V749.231ZM1069.91 749.302C1024.21 780.461 1026.53 803.546 1075.07 800.861C1123.62 798.177 1200.02 770.72 1245.72 739.561C1291.41 708.401 1289.1 685.317 1240.55 688.002C1192 690.686 1115.59 718.13 1069.89 749.29L1069.91 749.302Z" stroke="#F2F2F2"/>
<path d="M1070.63 743.137C1084.39 735.011 1098.59 727.893 1113.12 721.841C1128.82 715.213 1144.77 709.474 1160.89 704.653C1176.54 699.9 1192.35 696.096 1208.22 693.262C1223.74 690.557 1237.58 689.275 1249.35 689.444C1261.12 689.613 1270.12 691.27 1276.09 694.287C1281.86 697.21 1284.58 701.317 1284.18 706.482C1283.78 711.648 1280.28 717.622 1273.78 724.231C1267.05 731.05 1257.35 738.306 1245 745.726C1231.23 753.849 1217.03 760.966 1202.51 767.022C1186.8 773.644 1170.85 779.383 1154.73 784.21C1139.07 788.961 1123.26 792.759 1107.38 795.584C1091.86 798.293 1078.02 799.576 1066.24 799.403C1054.47 799.23 1045.48 797.599 1039.5 794.578C1033.73 791.655 1031.01 787.548 1031.41 782.383C1031.81 777.217 1035.31 771.239 1041.82 764.634C1048.54 757.815 1058.24 750.559 1070.6 743.139L1070.63 743.137ZM1069.63 743.123C1018.53 773.845 1016.53 799.25 1065.24 799.995C1113.95 800.74 1194.84 776.436 1245.96 745.738C1297.08 715.039 1299.04 689.58 1250.36 688.856C1201.68 688.131 1120.77 712.414 1069.64 743.109L1069.63 743.123Z" stroke="#F2F2F2"/>
<path d="M1071.51 736.404C1086.52 728.606 1101.92 721.883 1117.6 716.285C1134.29 710.247 1151.19 705.164 1168.21 701.061C1184.49 697.067 1200.88 694.104 1217.28 692.188C1233.2 690.395 1247.17 690.034 1258.82 691.122C1270.47 692.209 1279.1 694.663 1284.48 698.43C1289.66 702.073 1291.6 706.77 1290.25 712.408C1288.9 718.046 1284.33 724.314 1276.64 731.062C1268.67 738.092 1257.74 745.246 1244.1 752.447C1229.09 760.245 1213.69 766.97 1198.01 772.57C1181.32 778.612 1164.43 783.696 1147.41 787.798C1131.12 791.793 1114.73 794.755 1098.33 796.666C1082.42 798.464 1068.44 798.821 1056.8 797.737C1045.15 796.654 1036.52 794.196 1031.14 790.429C1025.95 786.786 1024.01 782.085 1025.36 776.451C1026.72 770.817 1031.29 764.545 1038.98 757.796C1046.93 750.803 1057.88 743.613 1071.52 736.412L1071.51 736.404ZM1070.56 736.323C1014.15 766.089 1007.48 793.846 1055.68 798.327C1103.88 802.807 1188.65 782.302 1245.03 752.524C1301.42 722.745 1308.12 695.001 1259.92 690.52C1211.72 686.04 1126.96 706.549 1070.54 736.307L1070.56 736.323Z" stroke="#F2F2F2"/>
<path d="M1073.63 729.112C1089.81 721.761 1106.35 715.56 1123.1 710.555C1140.65 705.232 1158.36 700.939 1176.15 697.698C1192.91 694.569 1209.73 692.56 1226.5 691.685C1242.62 690.918 1256.55 691.588 1267.92 693.655C1279.28 695.722 1287.38 699.093 1292.03 703.609C1296.51 707.985 1297.58 713.266 1295.19 719.356C1292.79 725.446 1287.08 731.946 1278.2 738.759C1269.01 745.817 1256.82 752.876 1241.96 759.727C1225.78 767.081 1209.26 773.291 1192.52 778.309C1174.97 783.629 1157.26 787.921 1139.48 791.165C1122.71 794.294 1105.9 796.303 1089.13 797.179C1073 797.946 1059.07 797.275 1047.71 795.208C1036.34 793.141 1028.24 789.77 1023.59 785.254C1019.11 780.878 1018.03 775.593 1020.43 769.503C1022.83 763.413 1028.54 756.913 1037.41 750.1C1046.6 743.042 1058.8 735.983 1073.66 729.133L1073.63 729.112ZM1072.73 728.96C1011.26 757.289 999.5 787.226 1046.49 795.777C1093.49 804.328 1181.45 788.28 1242.94 759.932C1304.43 731.585 1316.17 701.666 1269.17 693.111C1222.16 684.556 1134.19 700.592 1072.7 728.939L1072.73 728.96Z" stroke="#F2F2F2"/>
<path d="M1077.06 721.321C1094.32 714.541 1111.87 708.995 1129.6 704.722C1147.86 700.245 1166.23 696.879 1184.62 694.642C1201.71 692.48 1218.79 691.538 1235.74 691.825C1251.87 692.211 1265.58 693.995 1276.48 697.12C1287.37 700.245 1294.8 704.521 1298.54 709.869C1302.17 715.012 1302.22 720.878 1298.76 727.363C1295.29 733.848 1288.4 740.561 1278.33 747.367C1267.91 754.403 1254.51 761.208 1238.48 767.594C1221.23 774.373 1203.67 779.92 1185.95 784.193C1167.69 788.667 1149.32 792.033 1130.92 794.272C1113.87 796.416 1096.82 797.343 1079.9 797.046C1063.76 796.656 1050.06 794.877 1039.16 791.751C1028.26 788.626 1020.77 784.309 1017.01 778.998C1013.38 773.854 1013.33 767.989 1016.79 761.5C1020.25 755.01 1027.15 748.306 1037.22 741.499C1047.66 734.476 1061.06 727.67 1077.06 721.321ZM1076.17 721.061C1009.9 747.475 992.717 779.37 1037.78 792.296C1082.85 805.221 1173.1 794.291 1239.37 767.85C1305.63 741.408 1322.82 709.54 1277.75 696.614C1232.69 683.689 1142.43 694.615 1076.17 721.061V721.061Z" stroke="#F2F2F2"/>
<path d="M1081.98 712.968C1100.18 706.893 1118.63 702.143 1137.19 698.756C1156 695.249 1174.87 692.957 1193.68 691.892C1210.88 690.814 1228 691.079 1244.88 692.685C1260.82 694.327 1274.1 697.312 1284.34 701.562C1294.57 705.813 1301.16 711.058 1303.89 717.198C1306.55 723.107 1305.54 729.56 1300.88 736.392C1296.22 743.224 1288.16 750.07 1276.91 756.759C1265.26 763.686 1250.7 770.131 1233.62 775.915C1215.41 781.992 1196.96 786.743 1178.4 790.132C1159.6 793.636 1140.73 795.928 1121.91 796.996C1104.7 798.068 1087.58 797.797 1070.69 796.183C1054.74 794.54 1041.47 791.555 1031.23 787.305C1020.99 783.055 1014.4 777.805 1011.67 771.669C1009.02 765.764 1010.03 759.311 1014.69 752.479C1019.35 745.647 1027.42 738.809 1038.69 732.088C1050.33 725.161 1064.9 718.72 1081.98 712.932L1081.98 712.968ZM1081.14 712.585C1010.49 736.522 987.513 770.15 1029.88 787.736C1072.26 805.321 1163.84 800.145 1234.5 776.208C1305.15 752.271 1328.13 718.643 1285.76 701.058C1243.38 683.472 1151.78 688.677 1081.13 712.614L1081.14 712.585Z" stroke="#F2F2F2"/>
<path d="M1088.33 704.247C1107.34 699 1126.53 695.19 1145.76 692.846C1164.92 690.429 1184.06 689.334 1203.08 689.569C1220.23 689.678 1237.19 691.264 1253.79 694.312C1269.32 697.316 1281.95 701.594 1291.32 707.025C1300.7 712.455 1306.26 718.675 1307.86 725.615C1309.41 732.288 1307.21 739.285 1301.33 746.414C1295.44 753.542 1286.17 760.436 1273.76 766.91C1260.92 773.622 1245.27 779.579 1227.26 784.607C1208.26 789.849 1189.06 793.659 1169.84 796.007C1150.68 798.423 1131.53 799.518 1112.51 799.284C1095.37 799.167 1078.41 797.571 1061.82 794.514C1046.3 791.513 1033.67 787.235 1024.3 781.805C1014.92 776.374 1009.35 770.155 1007.75 763.215C1006.21 756.542 1008.41 749.544 1014.29 742.416C1020.17 735.287 1029.44 728.393 1041.85 721.92C1054.7 715.208 1070.34 709.246 1088.35 704.222L1088.33 704.247ZM1087.61 703.74C1013.01 724.674 984.022 759.792 1022.81 782.246C1061.59 804.7 1153.45 805.992 1228.02 785.087C1302.6 764.181 1331.55 729.102 1292.79 706.612C1254.03 684.122 1162.15 682.855 1087.58 703.764L1087.61 703.74Z" stroke="#F2F2F2"/>
<path d="M1096.29 695.113C1115.94 690.833 1135.7 688.11 1155.41 686.967C1174.72 685.768 1193.93 686.019 1212.91 687.719C1231.37 689.407 1248 692.454 1262.34 696.776C1277.18 701.261 1288.94 706.878 1297.24 713.539C1305.53 720.201 1309.91 727.47 1310.24 735.172C1310.55 742.598 1307.07 750.101 1299.91 757.464C1292.76 764.827 1282.28 771.691 1268.77 777.855C1254.79 784.23 1238.16 789.569 1219.33 793.75C1199.69 798.033 1179.92 800.756 1160.22 801.896C1140.91 803.099 1121.69 802.849 1102.72 801.149C1084.26 799.46 1067.63 796.414 1053.29 792.091C1038.45 787.603 1026.69 781.989 1018.39 775.324C1010.08 768.659 1005.72 761.398 1005.39 753.691C1005.08 746.269 1008.56 738.766 1015.72 731.403C1022.87 724.041 1033.35 717.176 1046.86 711.012C1060.84 704.637 1077.47 699.298 1096.29 695.113V695.113ZM1095.62 694.568C1017.76 711.814 982.478 748.123 1016.83 775.657C1051.17 803.19 1142.12 811.533 1219.98 794.283C1297.84 777.032 1333.13 740.728 1298.75 713.23C1264.38 685.733 1173.47 677.314 1095.62 694.568Z" stroke="#F2F2F2"/>
<path d="M1105.87 685.739C1145.37 679.551 1184.87 679.786 1222.96 686.434C1240.96 689.683 1256.9 694.277 1270.34 700.093C1284.26 706.115 1294.87 713.182 1301.88 721.103C1308.89 729.023 1311.88 737.327 1310.78 745.778C1309.7 753.941 1304.88 761.909 1296.4 769.425C1287.93 776.942 1276.27 783.685 1261.72 789.414C1246.67 795.35 1229.17 799.947 1209.71 803.096C1189.63 806.287 1169.52 807.776 1149.57 807.55C1130.32 807.424 1111.28 805.701 1092.62 802.396C1074.61 799.143 1058.67 794.553 1045.22 788.733C1031.31 782.715 1020.7 775.648 1013.68 767.723C1006.67 759.799 1003.69 751.503 1004.79 743.052C1005.87 734.885 1010.69 726.921 1019.17 719.405C1027.65 711.889 1039.33 705.132 1053.88 699.437C1068.94 693.501 1086.43 688.903 1105.89 685.751L1105.87 685.739ZM1105.31 685.108C1024.82 698.149 983.123 735.229 1012.11 768.018C1041.1 800.808 1129.85 816.798 1210.32 803.781C1290.78 790.765 1332.5 753.657 1303.52 720.871C1274.54 688.086 1185.76 672.079 1105.31 685.104L1105.31 685.108Z" stroke="#F2F2F2"/>
<path d="M1117.1 676.197C1137.43 674.214 1157.69 674.101 1177.65 675.859C1196.59 677.426 1215.17 680.757 1233.19 685.815C1250.45 690.731 1265.43 696.971 1277.7 704.347C1290.4 711.996 1299.63 720.492 1305.13 729.752C1310.63 739.012 1312.05 748.28 1309.39 757.462C1306.81 766.326 1300.54 774.677 1290.75 782.288C1280.95 789.898 1268.13 796.381 1252.64 801.567C1236.61 806.938 1218.38 810.649 1198.49 812.627C1178.16 814.606 1157.9 814.719 1137.94 812.965C1119.01 811.397 1100.43 808.066 1082.41 803.01C1065.14 798.093 1050.16 791.853 1037.89 784.478C1025.19 776.824 1015.99 768.296 1010.47 759.072C1004.94 749.848 1003.55 740.545 1006.2 731.358C1008.78 722.495 1015.05 714.147 1024.87 706.553C1034.69 698.958 1047.48 692.455 1062.98 687.273C1079.01 681.903 1097.23 678.192 1117.13 676.214L1117.1 676.197ZM1116.71 675.475C1034.44 683.652 986.167 721.163 1008.88 759.259C1031.6 797.355 1116.73 821.613 1198.99 813.437C1281.26 805.26 1329.53 767.75 1306.82 729.653C1284.1 691.557 1198.97 667.299 1116.7 675.471L1116.71 675.475Z" stroke="#F2F2F2"/>
<path d="M1130.02 666.583C1150.36 665.937 1170.5 667.344 1190.16 670.785C1208.56 673.895 1226.42 678.948 1243.49 685.868C1259.71 692.567 1273.42 700.536 1284.23 709.555C1295.4 718.933 1302.99 729.007 1306.76 739.489C1310.52 749.971 1310.21 760.323 1305.86 770.162C1301.69 779.643 1293.9 788.359 1282.77 795.963C1271.64 803.566 1257.75 809.715 1241.39 814.211C1224.48 818.873 1205.71 821.574 1185.6 822.239C1165.26 822.885 1145.12 821.478 1125.47 818.037C1107.07 814.913 1089.22 809.849 1072.16 802.918C1055.93 796.219 1042.22 788.25 1031.41 779.227C1020.18 769.897 1012.59 759.88 1008.84 749.358C1005.09 738.836 1005.39 728.527 1009.74 718.685C1013.91 709.208 1021.7 700.488 1032.84 692.888C1043.97 685.289 1057.88 679.156 1074.21 674.639C1091.13 669.982 1109.9 667.28 1130.01 666.616L1130.02 666.583ZM1129.67 665.741C1046.54 668.462 991.712 705.889 1007.21 749.381C1022.71 792.874 1102.73 825.867 1185.89 823.126C1269.06 820.384 1323.89 782.958 1308.39 739.465C1292.89 695.972 1212.91 663.004 1129.71 665.725L1129.67 665.741Z" stroke="#F2F2F2"/>
<path d="M1144.61 657.032C1164.74 657.833 1184.49 660.901 1203.54 666.186C1221.13 670.967 1237.94 677.878 1253.65 686.787C1268.52 695.352 1280.65 705.121 1289.71 715.829C1299.08 726.932 1304.74 738.494 1306.54 750.308C1308.34 762.122 1306.14 773.364 1299.98 783.867C1294.07 793.974 1284.75 802.895 1272.3 810.384C1259.84 817.873 1244.9 823.545 1227.85 827.247C1210.2 831.084 1191.07 832.612 1171.03 831.839C1150.9 831.038 1131.14 827.97 1112.09 822.685C1094.5 817.904 1077.69 810.994 1061.99 802.084C1047.11 793.519 1034.98 783.746 1025.93 773.042C1016.56 761.94 1010.89 750.377 1009.1 738.567C1007.31 726.758 1009.46 715.435 1015.62 704.984C1021.54 694.876 1030.85 685.956 1043.3 678.462C1055.75 670.969 1070.71 665.306 1087.75 661.604C1105.41 657.767 1124.53 656.234 1144.61 657.032V657.032ZM1144.46 656.058C1061.41 652.776 1000.03 689.661 1007.42 738.477C1014.81 787.292 1088.08 829.505 1171.14 832.763C1254.2 836.022 1315.55 799.169 1308.19 750.374C1300.83 701.579 1227.52 659.346 1144.46 656.087L1144.46 656.058Z" stroke="#F2F2F2"/>
<path d="M1160.85 647.652C1180.51 650.013 1199.58 654.878 1217.65 662.142C1234.19 668.69 1249.63 677.55 1263.57 688.507C1276.75 699.016 1287 710.687 1294.01 723.056C1301.26 735.902 1304.74 749.047 1304.31 762.132C1303.99 774.941 1299.51 787.734 1291.61 798.403C1283.86 809.036 1272.97 818.107 1259.23 825.369C1245.5 832.631 1229.6 837.712 1211.99 840.481C1193.77 843.352 1174.49 843.59 1154.72 841.203C1135.05 838.841 1115.98 833.977 1097.92 826.714C1081.37 820.166 1065.94 811.306 1051.99 800.349C1038.81 789.835 1028.57 778.169 1021.56 765.799C1014.29 752.95 1010.82 739.809 1011.25 726.724C1011.58 713.915 1016.06 701.124 1023.97 690.461C1031.71 679.828 1042.61 670.75 1056.37 663.512C1070.12 656.273 1086 651.169 1103.6 648.395C1122.85 645.509 1142.09 645.26 1160.85 647.652V647.652ZM1160.9 646.574C1079.07 636.711 1011.35 672.501 1009.63 726.551C1007.91 780.601 1072.86 832.395 1154.7 842.277C1236.53 852.158 1304.25 816.368 1305.97 762.3C1307.69 708.231 1242.72 656.466 1160.9 646.574Z" stroke="#F2F2F2"/>
<path d="M1178.73 638.628C1197.68 642.65 1215.75 649.437 1232.42 658.803C1247.65 667.243 1261.37 678.145 1273.12 691.159C1284.26 703.673 1292.28 717.18 1296.95 731.316C1301.78 745.946 1302.8 760.609 1299.98 774.889C1297.17 789.136 1290.44 802.642 1280.66 813.674C1271.01 824.743 1258.51 833.876 1243.54 840.776C1228.56 847.676 1211.85 852.066 1193.87 853.77C1174.52 855.487 1155.33 854.297 1136.9 850.235C1117.94 846.213 1099.87 839.426 1083.2 830.06C1067.97 821.619 1054.25 810.715 1042.49 797.7C1031.36 785.186 1023.34 771.679 1018.68 757.547C1013.82 742.905 1012.8 728.238 1015.62 713.957C1018.43 699.71 1025.16 686.205 1034.94 675.176C1044.59 664.108 1057.09 654.975 1072.06 648.071C1087.03 641.166 1103.75 636.785 1121.72 635.077C1141.08 633.358 1160.27 634.548 1178.7 638.612L1178.73 638.628ZM1178.93 637.439C1099.56 620.442 1025.73 654.545 1014.05 713.624C1002.37 772.703 1057.26 834.385 1136.66 851.377C1216.06 868.369 1289.88 834.291 1301.56 775.212C1313.24 716.133 1258.36 654.452 1178.95 637.456L1178.93 637.439Z" stroke="#F2F2F2"/>
<path d="M1198.12 630.075C1216.13 635.885 1232.85 644.714 1247.7 656.247C1261.35 666.754 1272.99 679.78 1282.13 694.792C1290.87 709.34 1296.33 724.757 1298.35 740.594C1300.51 756.339 1298.76 772.847 1293.27 788.582C1287.8 804.059 1278.72 818.205 1266.93 829.623C1255.3 841.023 1241.2 850.055 1225.07 856.516C1208.94 862.977 1191.53 866.494 1173.37 866.994C1154.11 867.446 1135.24 864.682 1117.46 858.804C1099.46 852.995 1082.73 844.166 1067.88 832.632C1054.23 822.125 1042.6 809.1 1033.45 794.088C1024.71 779.539 1019.25 764.123 1017.23 748.285C1015.17 731.873 1016.87 715.725 1022.33 700.264C1027.8 684.79 1036.88 670.644 1048.67 659.223C1060.3 647.828 1074.4 638.791 1090.53 632.33C1106.65 625.869 1124.05 622.385 1142.21 621.886C1161.47 621.431 1180.34 624.195 1198.12 630.075V630.075ZM1198.57 628.811C1122.91 604.165 1043.33 635.948 1020.81 699.804C998.292 763.66 1041.38 835.393 1117.04 860.039C1192.69 884.686 1272.27 852.902 1294.81 789.018C1317.35 725.134 1274.22 653.458 1198.57 628.811V628.811Z" stroke="#F2F2F2"/>
<path d="M1218.96 622.175C1235.76 629.9 1250.78 640.877 1263.31 654.592C1275.06 667.351 1284.23 682.535 1290.38 699.394C1296.28 715.426 1298.88 732.915 1298.01 750.807C1297.13 768.66 1292.38 786.517 1284.13 803.014C1275.87 819.511 1264.33 834.213 1250.37 845.999C1236.38 857.805 1220.56 866.752 1203.87 872.298C1186.34 878.191 1168.29 880.757 1150.61 879.867C1112.44 877.947 1077.62 861.796 1052.27 834.247C1040.53 821.489 1031.35 806.306 1025.21 789.448C1019.31 773.417 1016.71 755.927 1017.58 738.035C1018.45 720.182 1023.2 702.324 1031.45 685.825C1039.71 669.326 1051.25 654.621 1065.2 642.831C1079.2 631.029 1095.04 622.09 1111.74 616.557C1129.27 610.664 1147.32 608.098 1165 608.988C1183.95 609.882 1202.23 614.352 1218.98 622.187L1218.96 622.175ZM1219.65 620.836C1149.14 588.122 1064.25 616.92 1030.08 685.175C995.912 753.429 1025.44 835.304 1095.97 868.027C1166.51 900.75 1251.37 871.943 1285.54 803.688C1319.71 735.434 1290.16 653.547 1219.63 620.824L1219.65 620.836Z" stroke="#F2F2F2"/>
<path d="M1241.08 615.081C1267.49 632.118 1286.44 658.942 1294.73 691.008C1303.01 723.075 1300.11 758.412 1286.53 791.035C1272.94 823.658 1249.5 851.56 1220.18 870.015C1190.85 888.47 1157.45 896.344 1125.62 892.302C1089.26 887.372 1057.83 867.217 1038.2 836.232C1018.56 805.248 1012.31 765.948 1020.8 726.906C1029.29 687.865 1051.84 652.248 1083.54 627.826C1115.23 603.404 1153.49 592.158 1189.97 596.54C1208.4 598.884 1225.79 605.19 1241.08 615.081V615.081ZM1242 613.648C1219.09 598.897 1191.76 592.147 1163.46 594.25C1135.17 596.354 1107.17 607.217 1083.02 625.467C1058.86 643.717 1039.64 668.532 1027.77 696.777C1015.9 725.021 1011.93 755.424 1016.35 784.143C1020.76 812.862 1033.38 838.606 1052.6 858.119C1071.81 877.632 1096.77 890.039 1124.3 893.77C1151.84 897.501 1180.72 892.388 1207.29 879.079C1233.87 865.77 1256.94 844.861 1273.6 818.998C1284.66 801.826 1292.61 782.892 1297.01 763.279C1301.41 743.665 1302.16 723.756 1299.23 704.687C1296.29 685.619 1289.73 667.764 1279.91 652.144C1270.09 636.523 1257.21 623.443 1242 613.648V613.648Z" stroke="#F2F2F2"/>
<path d="M6.01706 521.444C-6.32297 508.394 -15.6357 492.299 -21.6548 473.611C-27.4697 455.554 -29.9821 435.863 -29.1298 415.063C-28.199 393.888 -24.0068 372.984 -16.701 353.087C-9.11325 332.167 1.69378 312.56 15.3298 294.974C28.9216 277.458 44.5375 263.014 61.7159 252.068C78.3172 241.485 95.682 234.579 113.331 231.542C130.98 228.506 148.025 229.492 163.987 234.472C180.622 239.691 195.613 249.148 207.488 261.913C219.828 274.963 229.132 291.085 235.151 309.728C240.966 327.777 243.487 347.477 242.626 368.321C241.699 389.497 237.507 410.402 230.197 430.297C222.615 451.215 211.81 470.819 198.175 488.401C184.601 505.926 168.976 520.335 151.754 531.29C135.152 541.872 117.788 548.779 100.139 551.815C82.4897 554.851 65.4534 553.866 49.5356 548.885C32.9023 543.663 17.9119 534.207 6.03481 521.444H6.01706ZM5.51103 522.128C56.2561 575.812 142.743 560.968 198.664 488.881C254.584 416.794 258.766 314.878 208.012 261.229C157.258 207.581 70.7623 222.425 14.8415 294.468C-41.0792 366.51 -45.2695 468.471 5.49328 522.128H5.51103Z" stroke="#F2F2F2"/>
<path d="M22.5102 542.902C8.30588 531.21 -3.10199 516.18 -11.3672 498.221C-19.3571 480.882 -24.1067 461.556 -25.4916 440.773C-26.8305 419.605 -24.7623 398.36 -19.366 377.848C-13.7471 356.162 -4.68298 335.519 7.48023 316.707C19.0929 298.48 33.7711 282.399 50.8656 269.175C66.9166 256.924 84.1482 248.233 102.108 243.368C120.067 238.503 137.814 237.704 154.895 240.989C172.577 244.39 189.109 252.215 202.95 263.733C217.154 275.425 228.562 290.455 236.827 308.415C244.817 325.762 249.567 345.089 250.952 365.863C252.29 387.033 250.222 408.282 244.826 428.797C239.214 450.488 230.15 471.135 217.98 489.947C206.367 508.174 191.689 524.255 174.594 537.478C158.544 549.72 141.312 558.403 123.343 563.268C105.375 568.133 87.6283 568.932 70.5476 565.647C52.8644 562.248 36.3312 554.423 22.4925 542.902H22.5102ZM22.0219 543.639C80.4551 591.721 168.424 567.884 218.513 490.373C268.601 412.861 261.836 311.043 203.42 262.997C145.005 214.95 57.009 238.751 6.92093 316.263C-43.1672 393.774 -36.4023 495.593 22.0131 543.648L22.0219 543.639Z" stroke="#F2F2F2"/>
<path d="M41.9262 562.521C25.6712 552.109 12.0076 538.123 1.97644 521.63C-8.18855 505.216 -15.2197 486.484 -18.904 465.967C-22.6028 445.068 -22.7769 423.697 -19.4189 402.74C-15.9409 380.514 -8.79789 359.018 1.71898 339.131C11.8575 319.679 25.3174 302.148 41.4912 287.33C56.1113 273.87 73.1779 263.34 91.7657 256.311C109.106 249.704 127.692 247.009 146.195 248.419C164.792 249.927 182.736 255.968 198.458 266.014C214.709 276.435 228.372 290.422 238.408 306.914C248.573 323.329 255.595 342.052 259.288 362.568C262.983 383.468 263.157 404.838 259.803 425.795C256.316 448.022 249.167 469.517 238.648 489.404C228.51 508.86 215.047 526.391 198.867 541.206C184.248 554.666 167.185 565.199 148.601 572.233C131.261 578.842 112.674 581.534 94.1716 580.117C75.5728 578.618 57.6265 572.576 41.9084 562.521H41.9262ZM41.5 563.302C107.266 605.028 195.813 572.109 239.26 489.804C282.708 407.498 264.624 306.923 198.858 265.197C133.091 223.472 44.5629 256.462 1.10641 338.741C-42.35 421.019 -24.2484 521.622 41.5178 563.302H41.5Z" stroke="#F2F2F2"/>
<path d="M64.1839 580.002C46.3402 571.454 30.6638 558.977 18.3305 543.506C5.74715 527.74 -3.65931 509.684 -9.36801 490.337C-15.4638 469.983 -17.9722 448.724 -16.7809 427.51C-15.5904 404.989 -10.5332 382.842 -1.83084 362.036C6.62656 341.516 18.6691 322.664 33.7333 306.364C47.56 291.351 64.1111 279.099 82.5075 270.259C99.8448 261.85 118.776 257.235 138.038 256.72C157.413 256.261 176.622 260.386 194.1 268.758C211.931 277.324 227.591 289.813 239.909 305.29C252.493 321.056 261.899 339.112 267.608 358.459C273.703 378.813 276.211 400.072 275.021 421.286C273.829 443.796 268.768 465.932 260.062 486.724C251.601 507.251 239.546 526.104 224.462 542.396C210.646 557.406 194.107 569.658 175.724 578.502C158.4 586.904 139.485 591.52 120.238 592.04C100.866 592.5 81.659 588.376 64.1839 580.002V580.002ZM63.8377 580.819C136.52 615.442 224.658 573.451 260.71 487.053C296.762 400.655 267.075 302.556 194.367 267.942C121.658 233.327 33.5469 275.319 -2.50555 361.717C-38.558 448.115 -8.83535 546.205 63.8643 580.819H63.8377Z" stroke="#F2F2F2"/>
<path d="M89.1395 595.058C69.8516 588.509 52.2628 577.75 37.6487 563.56C22.9845 549.325 11.2678 532.342 3.16763 513.579C-5.35043 494.051 -10.2708 473.146 -11.3563 451.87C-12.555 429.318 -9.70154 406.734 -2.93136 385.189C3.6504 363.785 14.0807 343.76 27.8477 326.099C40.6343 309.626 56.4173 295.716 74.3669 285.102C91.531 274.879 110.625 268.32 130.448 265.837C150.449 263.353 170.754 265.441 189.831 271.945C209.117 278.502 226.705 289.264 241.321 303.452C255.982 317.688 267.695 334.671 275.794 353.433C284.287 372.965 289.183 393.87 290.246 415.142C291.449 437.692 288.605 460.276 281.848 481.823C275.263 503.228 264.83 523.252 251.06 540.913C238.28 557.379 222.51 571.288 204.576 581.91C187.416 592.121 168.334 598.679 148.523 601.175C128.52 603.661 108.215 601.569 89.1395 595.058V595.058ZM88.8732 595.946C167.885 622.766 254.673 571.808 282.621 482.107C310.568 392.407 269.117 297.93 190.061 271.101C111.005 244.273 24.2611 295.24 -3.67708 384.932C-31.6153 474.623 9.81705 569.082 88.8732 595.911V595.946Z" stroke="#F2F2F2"/>
<path d="M116.632 607.435C96.0628 602.982 76.701 594.13 59.877 581.485C43.2465 568.982 29.2556 553.311 18.7111 535.374C7.80019 516.949 0.420942 496.651 -3.04825 475.521C-10.4351 430.617 -0.846305 384.572 23.8512 346.35C35.4152 328.514 50.2506 313.028 67.574 300.709C84.3543 288.71 103.374 280.203 123.504 275.692C143.977 271.128 165.2 271.086 185.692 275.568C206.263 280.016 225.626 288.869 242.447 301.517C259.075 314.018 273.063 329.686 283.604 347.619C294.529 366.042 301.924 386.34 305.408 407.473C312.786 452.376 303.197 498.418 278.509 536.644C266.944 554.476 252.109 569.959 234.786 582.275C217.993 594.281 198.958 602.788 178.812 607.293C158.353 611.85 137.146 611.895 116.668 607.426L116.632 607.435ZM116.481 608.314C201.272 626.717 285.584 566.961 304.76 474.855C323.936 382.748 270.714 293.11 185.905 274.698C101.096 256.285 16.8112 316.032 -2.40904 408.156C-21.6293 500.281 31.6282 589.883 116.446 608.296L116.481 608.314Z" stroke="#F2F2F2"/>
<path d="M146.427 616.853C124.722 614.606 103.729 607.838 84.7982 596.985C66.3387 586.396 50.1453 572.275 37.1427 555.428C23.899 538.371 14.0338 518.942 8.077 498.185C-4.44048 454.278 0.519348 407.232 21.9174 366.901C32.0535 347.833 45.7398 330.877 62.24 316.946C78.4646 303.172 97.2432 292.728 117.504 286.211C138.287 279.558 160.226 277.3 181.928 279.581C203.63 281.861 224.621 288.63 243.567 299.457C262.026 310.043 278.22 324.161 291.223 341.005C304.456 358.067 314.309 377.499 320.253 398.257C332.791 442.157 327.847 489.206 306.457 529.541C296.313 548.606 282.624 565.56 266.126 579.496C249.902 593.266 231.127 603.71 210.871 610.23C190.088 616.916 168.135 619.172 146.427 616.853V616.853ZM146.33 617.741C236.243 627.187 317.084 558.944 326.92 465.328C336.757 371.713 271.878 288.147 182 278.656C92.1224 269.166 11.2907 337.445 1.44535 431.069C-8.40005 524.693 56.4872 608.295 146.365 617.741H146.33Z" stroke="#F2F2F2"/>
<path d="M178.386 623.112C139.235 623.144 101.28 609.627 70.9628 584.856C40.6453 560.085 19.8336 525.586 12.0601 487.216C4.28662 448.845 10.0304 408.966 28.3164 374.349C46.6025 339.731 76.3041 312.508 112.38 297.3C153.819 279.794 200.516 279.467 242.196 296.391C283.877 313.314 317.128 346.102 334.634 387.542C352.139 428.981 352.466 475.678 335.543 517.359C318.619 559.039 285.831 592.29 244.391 609.796C223.51 618.63 201.059 623.159 178.386 623.112V623.112ZM178.386 624C272.489 624 348.838 547.652 348.838 453.548C348.838 359.444 272.489 283.095 178.386 283.095C84.2818 283.095 7.93339 359.444 7.93339 453.548C7.93339 547.652 84.2818 624 178.386 624Z" stroke="#F2F2F2"/>
<path d="M1214.98 87.7749C1213.16 71.2503 1214.8 57.3014 1219.86 46.2946C1222.07 41.2407 1225.27 36.6833 1229.28 32.8945C1233.29 29.1057 1238.02 26.1632 1243.19 24.2425C1253.8 20.2199 1266.59 19.8051 1281.25 23.0078C1296.43 26.3744 1312.95 33.4068 1330.34 44.0277C1348.86 55.5031 1366.05 68.994 1381.6 84.2539C1397.76 99.9462 1412.44 117.097 1425.45 135.487C1437.95 152.946 1448.63 171.631 1457.35 191.254C1465.73 210.451 1470.85 228.557 1472.73 245.082C1474.6 261.606 1472.9 275.555 1467.85 286.562C1462.95 297.173 1455.11 304.601 1444.51 308.614C1433.91 312.627 1421.11 313.052 1406.44 309.849C1391.27 306.54 1374.75 299.469 1357.35 288.858C1338.85 277.371 1321.68 263.878 1306.14 248.622C1289.98 232.93 1275.3 215.779 1262.3 197.389C1249.8 179.931 1239.11 161.246 1230.39 141.622C1222.02 122.435 1216.89 104.319 1215.03 87.7942L1214.98 87.7749ZM1214.41 87.4276C1221.9 155.349 1285.92 245.796 1357.42 289.437C1428.92 333.078 1480.77 313.38 1473.25 245.458C1465.72 177.536 1401.79 87.09 1330.28 43.4392C1258.78 -0.21158 1206.89 19.4771 1214.36 87.4084L1214.41 87.4276Z" stroke="#F2F2F2"/>
<path d="M1212.09 83.1736C1211.38 66.5622 1214.13 52.7579 1220.25 42.1563C1223.03 37.1959 1226.77 32.8394 1231.25 29.3413C1235.74 25.8432 1240.87 23.2737 1246.36 21.7827C1257.78 18.5125 1271.27 18.9949 1286.43 23.2104C1302.13 27.5707 1318.95 35.751 1336.44 47.5777C1354.93 60.2421 1371.97 74.8996 1387.26 91.2864C1403.01 107.982 1417.17 126.117 1429.54 145.452C1441.34 163.663 1451.19 183.063 1458.94 203.331C1466.33 223.059 1470.43 241.493 1471.13 258.105C1471.82 274.716 1469.08 288.511 1462.96 299.122C1460.18 304.084 1456.44 308.441 1451.95 311.939C1447.47 315.438 1442.33 318.006 1436.84 319.496C1425.43 322.766 1411.94 322.284 1396.78 318.068C1381.08 313.708 1364.26 305.527 1346.77 293.701C1328.28 281.036 1311.24 266.379 1295.95 249.992C1280.2 233.296 1266.04 215.162 1253.67 195.826C1241.87 177.615 1232.02 158.216 1224.27 137.947C1216.88 118.22 1212.78 99.785 1212.09 83.1736V83.1736ZM1211.47 82.7588C1214.36 151.037 1274.92 245.728 1346.8 294.26C1418.68 342.792 1474.62 326.769 1471.74 258.491C1468.87 190.212 1408.29 95.5116 1336.41 46.9893C1264.53 -1.53305 1208.59 14.4803 1211.47 82.7588V82.7588Z" stroke="#F2F2F2"/>
<path d="M1209.38 78.3793C1209.87 61.7679 1213.76 48.1855 1220.95 38.0276C1227.91 28.2171 1237.63 21.995 1249.89 19.5255C1262.15 17.056 1276.25 18.4836 1291.86 23.7507C1308.02 29.1914 1325.09 38.5485 1342.58 51.5425C1360.98 65.3769 1377.8 81.1891 1392.75 98.695C1407.99 116.348 1421.52 135.416 1433.15 155.639C1444.16 174.55 1453.08 194.604 1459.74 215.448C1466.06 235.648 1469.01 254.314 1468.52 270.935C1468.03 287.556 1464.14 301.129 1456.95 311.286C1449.99 321.097 1440.26 327.319 1428.01 329.789C1415.75 332.258 1401.65 330.83 1386.04 325.573C1369.88 320.123 1352.81 310.766 1335.32 297.772C1316.93 283.935 1300.11 268.127 1285.16 250.629C1269.91 232.956 1256.37 213.873 1244.74 193.637C1233.73 174.74 1224.8 154.702 1218.11 133.876C1211.81 113.676 1208.85 95.01 1209.34 78.389L1209.38 78.3793ZM1208.72 77.9356C1206.72 146.253 1263.39 244.937 1335.3 298.36C1407.22 351.783 1467.17 339.696 1469.17 271.398C1471.16 203.1 1414.5 104.377 1342.59 50.9541C1270.69 -2.46873 1210.76 9.60879 1208.76 77.9645L1208.72 77.9356Z" stroke="#F2F2F2"/>
<path d="M1206.89 73.4109C1208.62 56.867 1213.72 43.5933 1222.02 33.966C1230.05 24.6667 1240.72 19.1295 1253.75 17.5668C1266.78 16.004 1281.49 18.3578 1297.51 24.7053C1314.08 31.2649 1331.27 41.7894 1348.73 55.9698C1366.93 70.9632 1383.42 87.9075 1397.93 106.499C1412.59 125.098 1425.4 145.08 1436.19 166.163C1446.86 187.028 1454.79 207.73 1459.74 227.602C1464.88 248.188 1466.62 267.018 1464.88 283.552C1463.15 300.086 1458.06 313.37 1449.75 322.997C1441.73 332.306 1431.05 337.833 1418.03 339.396C1405.01 340.959 1390.28 338.605 1374.27 332.267C1357.7 325.698 1340.46 315.183 1323.05 300.993C1304.85 286.005 1288.35 269.06 1273.85 250.464C1259.19 231.867 1246.38 211.885 1235.59 190.8C1224.93 169.896 1217 149.214 1212.03 129.322C1206.88 108.737 1205.15 89.9065 1206.88 73.3723L1206.89 73.4109ZM1206.27 72.8707C1199.15 140.879 1251.41 243.278 1322.99 301.591C1394.58 359.905 1458.4 352.072 1465.53 284.063C1472.66 216.055 1420.37 113.656 1348.81 55.3139C1277.24 -3.02868 1213.4 4.90081 1206.28 72.9092L1206.27 72.8707Z" stroke="#F2F2F2"/>
<path d="M1204.64 68.279C1207.68 51.8798 1214 39.0113 1223.43 29.9821C1232.54 21.3001 1244.15 16.4768 1257.95 15.8016C1271.74 15.1263 1287.07 18.5316 1303.37 25.9691C1320.29 33.6864 1337.62 45.3684 1354.86 60.6968C1372.79 76.8319 1388.88 94.9006 1402.83 114.573C1416.8 134.059 1428.79 154.893 1438.62 176.765C1448.26 198.363 1455.09 219.547 1458.87 239.737C1462.73 260.632 1463.2 279.53 1460.17 295.919C1457.14 312.309 1450.81 325.187 1441.38 334.216C1432.27 342.898 1420.65 347.721 1406.86 348.397C1393.06 349.072 1377.75 345.676 1361.41 338.229C1344.49 330.512 1327.17 318.83 1309.92 303.501C1292.01 287.362 1275.93 269.294 1261.99 249.625C1248.01 230.153 1236.01 209.332 1226.17 187.472C1216.52 165.874 1209.69 144.69 1205.91 124.509C1202.05 103.605 1201.59 84.7071 1204.62 68.3176L1204.64 68.279ZM1204.01 67.7774C1191.55 135.12 1238.9 240.924 1309.8 304.119C1380.69 367.314 1448.26 363.928 1460.74 296.537C1473.21 229.145 1425.86 123.322 1354.97 60.1373C1284.08 -3.04784 1216.5 0.395987 1204.03 67.7388L1204.01 67.7774Z" stroke="#F2F2F2"/>
<path d="M1202.66 63.0315C1207.05 46.9024 1214.63 34.4872 1225.2 26.1429C1235.4 18.0784 1247.95 14.1329 1262.49 14.403C1277.03 14.6731 1292.83 19.1491 1309.44 27.7153C1326.62 36.5516 1343.98 49.4298 1360.96 65.9254C1378.51 83.1542 1394.07 102.293 1407.36 122.985C1420.57 143.3 1431.63 164.927 1440.38 187.521C1448.95 209.708 1454.54 231.345 1457.01 251.748C1459.56 272.864 1458.62 291.752 1454.24 307.881C1449.86 324.01 1442.26 336.425 1431.7 344.77C1421.49 352.834 1408.94 356.789 1394.41 356.519C1379.87 356.249 1364.08 351.763 1347.46 343.207C1330.26 334.342 1312.92 321.464 1295.94 304.929C1278.4 287.702 1262.83 268.567 1249.53 247.879C1236.34 227.56 1225.27 205.934 1216.51 183.344C1207.95 161.157 1202.35 139.51 1199.89 119.117C1197.36 98.0293 1198.32 79.1413 1202.66 63.0315ZM1202.06 62.4527C1184.02 128.763 1225.99 237.606 1295.79 305.547C1365.59 373.488 1436.8 374.828 1454.84 308.508C1472.88 242.188 1430.92 133.355 1361.12 65.4142C1291.31 -2.52674 1220.1 -3.88691 1202.06 62.4237V62.4527Z" stroke="#F2F2F2"/>
<path d="M1200.96 57.6098C1206.75 41.8183 1215.64 29.9627 1227.34 22.3708C1238.65 15.049 1252.12 11.9814 1267.36 13.2644C1282.6 14.5474 1298.87 20.1135 1315.69 29.818C1333.1 39.8601 1350.35 53.9344 1366.97 71.5877C1384.05 89.8901 1398.99 110.071 1411.51 131.744C1423.82 152.841 1433.85 175.193 1441.41 198.421C1448.78 221.187 1453.07 243.133 1454.16 263.651C1455.29 284.874 1452.92 303.675 1447.12 319.466C1441.33 335.258 1432.46 347.104 1420.75 354.696C1409.44 362.027 1395.98 365.085 1380.74 363.802C1365.49 362.519 1349.23 356.953 1332.41 347.249C1315.04 337.206 1297.74 323.132 1281.13 305.479C1264.06 287.187 1249.12 267.015 1236.61 245.352C1224.3 224.253 1214.27 201.9 1206.7 178.674C1199.34 155.908 1195.06 133.963 1193.97 113.444C1192.84 92.2217 1195.2 73.4205 1200.99 57.6387L1200.96 57.6098ZM1200.41 57.0117C1176.57 121.875 1212.64 233.38 1280.94 306.029C1349.25 378.677 1423.93 384.976 1447.74 320.084C1471.55 255.191 1435.48 143.686 1367.13 71.0378C1298.79 -1.6106 1224.19 -7.90982 1200.38 56.9828L1200.41 57.0117Z" stroke="#F2F2F2"/>
<path d="M1199.59 52.1016C1206.83 36.7539 1217.02 25.5542 1229.87 18.792C1242.28 12.2709 1256.65 10.11 1272.56 12.4927C1288.48 14.8754 1305.14 21.5509 1322.09 32.384C1339.63 43.6126 1356.72 58.8446 1372.93 77.6361C1389.44 96.9636 1403.65 118.141 1415.28 140.744C1426.64 162.561 1435.53 185.571 1441.81 209.351C1447.88 232.57 1450.76 254.767 1450.41 275.314C1450.03 296.585 1446.16 315.145 1438.93 330.492C1431.69 345.84 1421.45 357.04 1408.62 363.792C1396.21 370.323 1381.84 372.474 1365.93 370.092C1350.02 367.709 1333.32 361.111 1316.37 350.21C1298.82 338.972 1281.74 323.75 1265.59 304.958C1249.07 285.633 1234.86 264.455 1223.23 241.85C1211.87 220.033 1202.97 197.023 1196.69 173.243C1190.63 150.014 1187.74 127.827 1188.11 107.28C1188.48 86.0094 1192.34 67.4397 1199.59 52.1016V52.1016ZM1199.02 51.436C1169.25 114.505 1198.94 228.258 1265.33 305.498C1331.72 382.738 1409.68 394.227 1439.49 331.206C1469.29 268.185 1439.56 154.384 1373.17 77.1345C1306.77 -0.11535 1228.79 -11.6334 1199.02 51.4553V51.436Z" stroke="#F2F2F2"/>
<path d="M1198.53 46.507C1207.26 31.7091 1218.79 21.2426 1232.78 15.3968C1246.28 9.75351 1261.53 8.64416 1278.12 12.0976C1294.7 15.5511 1311.66 23.3841 1328.65 35.3845C1346.26 47.8189 1363.08 64.1988 1378.66 84.0708C1394.51 104.382 1407.89 126.509 1418.5 149.986C1428.79 172.454 1436.44 196.04 1441.3 220.271C1445.96 243.857 1447.36 266.198 1445.48 286.668C1443.55 307.891 1438.1 326.113 1429.37 340.921C1420.64 355.728 1409.11 366.185 1395.12 372.031C1381.61 377.665 1366.36 378.784 1349.83 375.33C1333.29 371.877 1316.28 364.044 1299.28 352.043C1281.68 339.609 1264.85 323.229 1249.27 303.357C1233.42 283.044 1220.05 260.916 1209.43 237.442C1199.14 214.974 1191.48 191.388 1186.61 167.157C1181.95 143.571 1180.54 121.229 1182.43 100.759C1184.36 79.5369 1189.8 61.3145 1198.53 46.507V46.507ZM1197.98 45.8124C1162.1 106.653 1184.92 222.2 1248.96 303.878C1313.01 385.556 1394.02 402.456 1429.92 341.615C1465.81 280.774 1442.98 165.285 1378.93 83.5499C1314.89 1.81437 1233.88 -15.0286 1197.98 45.8124V45.8124Z" stroke="#F2F2F2"/>
<path d="M1197.85 40.844C1208.1 26.6828 1221 17.0459 1236.09 12.1936C1250.69 7.51504 1266.78 7.46681 1283.9 12.0586C1301.01 16.6504 1318.29 25.6796 1335.3 38.8375C1352.87 52.4681 1369.34 69.9767 1384.24 90.9291C1399.32 112.166 1411.74 135.167 1421.23 159.42C1430.38 182.476 1436.69 206.556 1440.04 231.133C1443.2 254.989 1443.04 277.369 1439.55 297.694C1435.94 318.695 1428.94 336.522 1418.66 350.683C1408.38 364.844 1395.51 374.481 1380.41 379.323C1365.8 384.012 1349.72 384.06 1332.61 379.468C1315.5 374.876 1298.21 365.866 1281.24 352.699C1263.63 339.049 1247.16 321.56 1232.27 300.627C1217.18 279.375 1204.76 256.358 1195.26 232.088C1186.12 209.034 1179.81 184.957 1176.46 160.384C1173.3 136.528 1173.46 114.139 1176.95 93.823C1180.56 72.8224 1187.56 54.9859 1197.85 40.8344V40.844ZM1197.32 40.0916C1155.16 98.2894 1170.64 215.139 1231.9 301.09C1293.16 387.041 1376.99 409.556 1419.14 351.358C1461.3 293.16 1445.81 176.321 1384.56 90.3599C1323.3 4.39919 1239.47 -18.0677 1197.36 40.1205L1197.32 40.0916Z" stroke="#F2F2F2"/>
<path d="M1197.54 35.1819C1209.35 21.7731 1223.59 13.0526 1239.8 9.27115C1255.48 5.61509 1272.37 6.69551 1289.96 12.4642C1307.56 18.2328 1325.13 28.4293 1341.98 42.7737C1359.42 57.5716 1375.43 76.1895 1389.55 98.0873C1403.76 120.215 1415.13 144.051 1423.37 169.028C1431.25 192.602 1436.11 217.081 1437.84 241.879C1439.4 265.899 1437.59 288.183 1432.44 308.209C1427.1 328.911 1418.41 346.207 1406.6 359.616C1394.79 373.025 1380.56 381.735 1364.34 385.527C1348.66 389.183 1331.77 388.102 1314.18 382.324C1296.58 376.546 1279.05 366.359 1262.2 352.043C1244.75 337.226 1228.75 318.608 1214.63 296.71C1200.41 274.581 1189.05 250.741 1180.81 225.76C1172.93 202.189 1168.07 177.713 1166.34 152.918C1164.78 128.898 1166.59 106.615 1171.75 86.5789C1177.04 65.9256 1185.78 48.5617 1197.54 35.1819ZM1197.04 34.4102C1148.5 89.5114 1156.18 207.161 1214.19 297.183C1272.21 387.205 1358.57 415.499 1407.12 360.388C1455.67 305.277 1447.99 187.627 1389.97 97.6146C1331.96 7.60229 1245.59 -20.7008 1197.04 34.4102V34.4102Z" stroke="#F2F2F2"/>
<path d="M1197.62 29.4898C1211.01 16.9493 1226.56 9.23201 1243.93 6.58885C1260.66 4.04215 1278.32 6.28981 1296.41 13.2836C1314.51 20.2774 1332.11 31.6121 1348.77 47.1142C1366 63.1178 1381.44 82.8065 1394.65 105.64C1407.91 128.589 1418.09 153.183 1424.93 178.79C1431.49 202.8 1434.8 227.581 1434.79 252.471C1434.67 276.539 1431.12 298.668 1424.25 318.26C1417.13 338.518 1406.73 355.187 1393.38 367.738C1380.03 380.288 1364.44 387.996 1347.08 390.639C1330.34 393.185 1312.68 390.938 1294.59 383.944C1276.5 376.95 1258.9 365.615 1242.24 350.113C1225 334.11 1209.57 314.421 1196.35 291.588C1183.1 268.641 1172.91 244.054 1166.05 218.457C1159.5 194.445 1156.19 169.666 1156.19 144.776C1156.32 120.708 1159.86 98.569 1166.74 78.9865C1173.85 58.7286 1184.25 42.0593 1197.6 29.5091L1197.62 29.4898ZM1197.14 28.6988C1142.16 80.2888 1141.55 198.189 1195.85 292.051C1250.15 385.912 1338.78 420.148 1393.8 368.558C1448.81 316.968 1449.41 199.048 1395.11 105.196C1340.81 11.3446 1252.18 -22.9104 1197.16 28.6795L1197.14 28.6988Z" stroke="#F2F2F2"/>
<path d="M1198.15 23.8178C1212.59 12.4317 1230.09 5.59838 1248.42 4.18705C1266.18 2.80759 1284.56 6.28036 1303.04 14.5185C1321.53 22.7567 1339.16 35.3648 1355.56 51.9473C1372.49 69.1086 1387.25 89.8294 1399.44 113.521C1411.64 137.221 1420.54 162.479 1425.89 188.591C1431.01 212.965 1432.67 237.937 1430.83 262.773C1428.9 286.784 1423.6 308.614 1414.93 327.676C1405.97 347.413 1393.83 363.291 1378.86 374.876C1364.4 386.261 1346.89 393.088 1328.55 394.488C1310.79 395.867 1292.41 392.395 1273.93 384.156C1255.45 375.918 1237.78 363.329 1221.47 346.747C1204.55 329.586 1189.79 308.865 1177.59 285.173C1165.39 261.473 1156.5 236.215 1151.15 210.103C1146.03 185.73 1144.37 160.758 1146.2 135.921C1148.13 111.91 1153.44 90.0802 1162.1 71.0186C1171.07 51.2817 1183.2 35.4034 1198.19 23.8178H1198.15ZM1197.75 22.9786C1136.16 70.6038 1126.94 188.176 1177.02 285.578C1227.11 382.98 1317.7 423.341 1379.26 375.716C1440.83 328.09 1450.1 210.518 1399.93 113.116C1349.77 15.7147 1259.27 -24.6466 1197.71 22.9786H1197.75Z" stroke="#F2F2F2"/>
<path d="M1199.1 18.194C1215.28 7.7998 1234.08 2.23161 1253.31 2.14213C1272.06 1.99743 1291.1 6.7532 1309.9 16.2647C1328.7 25.7763 1346.36 39.5516 1362.31 57.2434C1378.83 75.5719 1392.81 97.2478 1403.87 121.731C1414.91 146.115 1422.41 171.953 1426.13 198.46C1429.72 223.122 1429.63 248.179 1425.87 272.816C1422.13 296.623 1414.91 318.039 1404.42 336.483C1393.55 355.545 1379.64 370.536 1363.07 381.05C1346.88 391.447 1328.06 397.018 1308.82 397.112C1290.08 397.247 1271.04 392.501 1252.23 382.989C1233.42 373.478 1215.8 359.693 1199.85 342.02C1183.35 323.692 1169.36 302.016 1158.3 277.523C1147.26 253.138 1139.77 227.3 1136.04 200.794C1132.46 176.135 1132.55 151.082 1136.29 126.448C1140.05 102.631 1147.26 81.2248 1157.76 62.7806C1168.62 43.7286 1182.53 28.7281 1199.11 18.2133L1199.1 18.194ZM1198.72 17.3548C1130.58 60.5715 1112.22 177.208 1157.72 277.87C1203.21 378.533 1295.31 425.087 1363.44 381.87C1431.58 338.654 1449.94 222.017 1404.45 121.355C1358.96 20.6925 1266.81 -25.8812 1198.71 17.3355L1198.72 17.3548Z" stroke="#F2F2F2"/>
<path d="M1200.52 12.6566C1218.43 3.38283 1238.52 -0.845378 1258.65 0.424768C1278.35 1.59201 1298 7.65971 1317.04 18.4542C1336.08 29.2488 1353.63 44.2299 1369.07 63.0311C1385.52 83.2331 1398.65 105.926 1407.97 130.258C1417.75 155.273 1423.73 181.61 1425.71 208.396C1427.66 233.261 1425.72 258.278 1419.98 282.549C1414.3 306.038 1405.14 326.923 1392.78 344.528C1379.97 362.789 1364.25 376.777 1346.08 386.105C1328.17 395.379 1308.08 399.607 1287.95 398.337C1268.25 397.17 1248.6 391.102 1229.56 380.307C1210.51 369.513 1193.02 354.532 1177.57 335.779C1161.1 315.566 1147.95 292.855 1138.63 268.503C1128.84 243.491 1122.86 217.152 1120.89 190.366C1118.94 165.501 1120.87 140.483 1126.62 116.213C1132.3 92.7137 1141.45 71.8384 1153.82 54.2334C1166.63 35.9724 1182.34 21.9849 1200.52 12.6566V12.6566ZM1200.17 11.7692C1125.45 50.124 1097.61 165.198 1137.98 268.793C1178.35 372.387 1271.64 425.26 1346.39 386.906C1421.14 348.551 1448.95 233.477 1408.62 129.882C1368.28 26.2873 1274.9 -26.5857 1200.17 11.7692V11.7692Z" stroke="#F2F2F2"/>
<path d="M1202.41 7.22562C1222.01 -0.790196 1243.35 -3.59834 1264.35 -0.925746C1284.96 1.62095 1305.14 9.04883 1324.34 21.1456C1343.55 33.2425 1360.83 49.4101 1375.66 69.1856C1391.37 90.3249 1403.5 113.899 1411.58 138.969C1419.99 164.498 1424.35 191.191 1424.47 218.071C1424.69 243.059 1420.82 267.915 1413.01 291.655C1405.3 314.691 1394.17 334.862 1379.89 351.589C1365.1 368.905 1347.58 381.764 1327.8 389.8C1308.2 397.832 1286.86 400.65 1265.85 397.98C1245.25 395.443 1225.06 388.015 1205.85 375.918C1186.65 363.821 1169.37 347.654 1154.53 327.878C1138.83 306.739 1126.69 283.164 1118.62 258.095C1110.21 232.565 1105.85 205.873 1105.72 178.993C1105.51 154.011 1109.38 129.162 1117.18 105.428C1124.9 82.3822 1136.02 62.2208 1150.31 45.4936C1165.1 28.178 1182.62 15.3191 1202.4 7.27385L1202.41 7.22562ZM1202.1 6.36707C1120.84 39.368 1083.15 152.223 1117.94 258.375C1152.72 364.526 1246.82 423.813 1328.11 390.745C1409.39 357.676 1447.07 244.84 1412.28 138.689C1377.5 32.5383 1283.39 -26.6821 1202.11 6.31884L1202.1 6.36707Z" stroke="#F2F2F2"/>
<path d="M1204.8 1.94884C1226.02 -4.68489 1248.55 -5.99351 1270.4 -1.86156C1291.89 2.11283 1312.53 10.9395 1331.82 24.3289C1351.62 38.2681 1368.69 55.7293 1382.17 75.8417C1397.04 97.8493 1408.06 122.222 1414.77 147.921C1421.72 173.93 1424.33 200.907 1422.49 227.766C1420.86 252.78 1414.96 277.332 1405.05 300.356C1395.27 322.804 1382.1 342.145 1365.87 357.831C1349.69 373.702 1329.99 385.523 1308.37 392.327C1287.15 398.967 1264.62 400.292 1242.77 396.186C1221.33 392.211 1200.67 383.394 1181.39 369.985C1161.59 356.05 1144.51 338.592 1131.02 318.482C1116.14 296.449 1105.11 272.046 1098.41 246.316C1091.45 220.305 1088.85 193.323 1090.69 166.462C1092.32 141.458 1098.22 116.917 1108.12 93.9001C1117.89 71.4525 1131.07 52.1207 1147.3 36.4257C1163.48 20.5532 1183.18 8.73552 1204.8 1.93919V1.94884ZM1204.55 0.974532C1116.78 28.3033 1068.92 138.274 1097.66 246.586C1126.39 354.898 1220.84 420.591 1308.63 393.292C1396.41 365.992 1444.31 256.05 1415.52 147.718C1386.74 39.3872 1292.33 -26.2867 1204.55 1.01312V0.974532Z" stroke="#F2F2F2"/>
<path d="M1207.7 -3.15394C1230.51 -8.29634 1254.21 -8.03206 1276.9 -2.38221C1299.63 3.31936 1320.92 13.6765 1339.43 28.0335C1359.05 43.1476 1375.69 61.7605 1388.53 82.9322C1402.47 105.773 1412.27 130.895 1417.47 157.143C1422.87 183.541 1423.63 210.676 1419.73 237.335C1416.14 262.286 1408.13 286.397 1396.08 308.537C1384.74 329.568 1369.33 348.129 1350.74 363.137C1332.37 377.949 1310.84 388.348 1287.82 393.533C1265.01 398.67 1241.31 398.406 1218.62 392.761C1195.89 387.06 1174.6 376.703 1156.09 362.346C1136.48 347.231 1119.83 328.619 1106.99 307.447C1093.05 284.606 1083.25 259.484 1078.05 233.236C1072.66 206.837 1071.9 179.702 1075.81 153.044C1079.39 128.095 1087.39 103.984 1099.42 81.8421C1110.76 60.8113 1126.17 42.2501 1144.76 27.2425C1163.13 12.43 1184.66 2.031 1207.68 -3.15394H1207.7ZM1207.49 -4.1186C1113.34 17.0074 1055 123.351 1077.23 233.419C1099.45 343.486 1193.81 415.595 1288.03 394.478C1382.26 373.362 1440.45 267.028 1418.26 156.96C1396.08 46.8926 1301.68 -25.2157 1207.51 -4.0993L1207.49 -4.1186Z" stroke="#F2F2F2"/>
<path d="M1211.11 -8.04502C1235.44 -11.582 1260.24 -9.66763 1283.73 -2.44035C1307 4.7416 1328.57 16.5543 1347.15 32.2874C1366.49 48.546 1382.61 68.2823 1394.68 90.4756C1420.56 138.213 1428.17 193.743 1416.08 246.683C1410.42 271.464 1400.23 294.985 1386.02 316.061C1372.4 336.426 1354.84 353.867 1334.39 367.362C1313.84 380.904 1290.56 389.746 1266.21 393.256C1241.86 396.766 1217.03 394.858 1193.5 387.668C1170.23 380.483 1148.66 368.671 1130.07 352.94C1110.75 336.686 1094.63 316.96 1082.56 294.781C1056.68 247.042 1049.06 191.511 1061.13 138.564C1066.79 113.788 1076.97 90.2706 1091.18 69.1952C1104.81 48.8292 1122.37 31.3859 1142.82 17.885C1163.4 4.31756 1186.72 -4.53677 1211.11 -8.04502V-8.04502ZM1210.99 -9.00968C1110.54 5.48914 1041.49 107.502 1056.74 218.852C1071.99 330.203 1165.74 408.716 1266.22 394.218C1366.7 379.719 1435.72 277.716 1420.46 166.375C1405.2 55.034 1311.43 -23.4892 1210.99 -9.00003V-9.00968Z" stroke="#F2F2F2"/>
<path d="M1215.06 -12.6848C1240.8 -14.5365 1266.65 -10.9203 1290.9 -2.0736C1314.61 6.59952 1336.38 19.8734 1354.95 36.9854C1373.91 54.3569 1389.4 75.1779 1400.58 98.3377C1424.22 147.445 1428.16 203.743 1411.59 255.664C1403.74 280.157 1391.29 302.933 1374.93 322.775C1358.94 342.308 1339.24 358.486 1316.97 370.381C1294.17 382.507 1269.08 389.704 1243.32 391.503C1217.56 393.303 1191.71 389.666 1167.45 380.828C1143.75 372.166 1121.99 358.909 1103.43 341.818C1084.46 324.442 1068.98 303.618 1057.8 280.456C1034.15 231.343 1030.21 175.037 1046.79 123.11C1054.64 98.6182 1067.08 75.8432 1083.45 55.9988C1099.44 36.4768 1119.14 20.3081 1141.4 8.42189C1164.19 -3.73184 1189.29 -10.925 1215.06 -12.6848V-12.6848ZM1214.99 -13.6495C1108.46 -6.19269 1028.45 90.7459 1036.26 202.907C1044.06 315.068 1136.85 399.9 1243.39 392.452C1349.92 385.005 1429.92 288.057 1422.12 175.896C1414.32 63.7354 1321.52 -21.0967 1214.99 -13.6495Z" stroke="#F2F2F2"/>
<path d="M1219.54 -17.0353C1259.62 -17.0667 1298.81 -5.20426 1332.14 17.05C1365.48 39.3042 1391.46 70.9494 1406.8 107.978C1422.14 145.008 1426.14 185.755 1418.31 225.062C1410.47 264.369 1391.15 300.467 1362.79 328.785C1341.64 349.898 1316.08 366.071 1287.95 376.145C1259.82 386.22 1229.81 389.946 1200.07 387.056C1170.32 384.167 1141.59 374.734 1115.92 359.433C1090.26 344.132 1068.29 323.343 1051.61 298.555C1034.92 273.767 1023.92 245.594 1019.4 216.056C1014.89 186.518 1016.96 156.347 1025.47 127.704C1033.99 99.0614 1048.73 72.657 1068.65 50.3835C1088.57 28.1101 1113.17 10.5193 1140.69 -1.12812C1165.64 -11.6814 1192.46 -17.0918 1219.54 -17.0353V-17.0353ZM1219.54 -18C1107.13 -18 1016 73.1313 1016 185.543C1016 297.955 1107.13 389.086 1219.54 389.086C1331.95 389.086 1423.09 297.955 1423.09 185.543C1423.09 73.1313 1331.95 -18 1219.54 -18Z" stroke="#F2F2F2"/>
</g>
<defs>
<clipPath id="clip0_358_1846">
<rect width="1440" height="1073" fill="white"/>
</clipPath>
</defs>
</svg>
