<svg width="714" height="161" viewBox="0 0 714 161" fill="none" xmlns="http://www.w3.org/2000/svg">
<rect x="2.5" y="0.5" width="709" height="160" stroke="#A4A4A4"/>
<line y1="-2" x2="725.505" y2="-2" transform="matrix(0.975254 0.221086 -0.997803 0.0662525 2 0.300293)" stroke="#7C7C7C" stroke-width="4"/>
<line y1="-2" x2="725.505" y2="-2" transform="matrix(-0.975254 0.221086 0.997803 0.0662525 712 0.300293)" stroke="#7C7C7C" stroke-width="4"/>
<path d="M251.874 73V61.8H255.578C256.351 61.8 257.077 61.9467 257.754 62.24C258.431 62.528 259.026 62.9307 259.538 63.448C260.05 63.96 260.45 64.5547 260.738 65.232C261.031 65.904 261.178 66.6267 261.178 67.4C261.178 68.1733 261.031 68.8987 260.738 69.576C260.45 70.248 260.05 70.8427 259.538 71.36C259.026 71.872 258.431 72.2747 257.754 72.568C257.077 72.856 256.351 73 255.578 73H251.874ZM252.994 71.88H255.578C256.197 71.88 256.775 71.7653 257.314 71.536C257.858 71.3013 258.335 70.9787 258.746 70.568C259.157 70.1573 259.477 69.6827 259.706 69.144C259.941 68.6 260.058 68.0187 260.058 67.4C260.058 66.7813 259.941 66.2027 259.706 65.664C259.477 65.12 259.154 64.6427 258.738 64.232C258.327 63.8213 257.853 63.5013 257.314 63.272C256.775 63.0373 256.197 62.92 255.578 62.92H252.994V71.88ZM269.091 65H270.211V73H269.091L269.051 71.512C268.789 72.0187 268.424 72.4293 267.955 72.744C267.485 73.0533 266.925 73.208 266.275 73.208C265.688 73.208 265.139 73.0987 264.627 72.88C264.115 72.656 263.664 72.3493 263.275 71.96C262.885 71.5707 262.581 71.12 262.363 70.608C262.144 70.096 262.035 69.5467 262.035 68.96C262.035 68.384 262.141 67.8427 262.355 67.336C262.573 66.8293 262.872 66.384 263.251 66C263.635 65.616 264.077 65.3173 264.579 65.104C265.085 64.8853 265.627 64.776 266.203 64.776C266.869 64.776 267.451 64.936 267.947 65.256C268.443 65.5707 268.837 65.984 269.131 66.496L269.091 65ZM266.251 72.12C266.821 72.12 267.312 71.9813 267.723 71.704C268.133 71.4213 268.448 71.0427 268.667 70.568C268.891 70.0933 269.003 69.5707 269.003 69C269.003 68.4133 268.891 67.8853 268.667 67.416C268.443 66.9413 268.125 66.5653 267.715 66.288C267.304 66.0107 266.816 65.872 266.251 65.872C265.685 65.872 265.168 66.0133 264.699 66.296C264.235 66.5733 263.864 66.9493 263.587 67.424C263.315 67.8987 263.179 68.424 263.179 69C263.179 69.5813 263.32 70.1093 263.603 70.584C263.885 71.0533 264.259 71.4267 264.723 71.704C265.192 71.9813 265.701 72.12 266.251 72.12ZM275.9 66.12H273.988L273.98 73H272.86L272.868 66.12H271.42V65H272.868L272.86 62.488H273.98L273.988 65H275.9V66.12ZM283.684 65H284.804V73H283.684L283.644 71.512C283.383 72.0187 283.018 72.4293 282.548 72.744C282.079 73.0533 281.519 73.208 280.868 73.208C280.282 73.208 279.732 73.0987 279.22 72.88C278.708 72.656 278.258 72.3493 277.868 71.96C277.479 71.5707 277.175 71.12 276.956 70.608C276.738 70.096 276.628 69.5467 276.628 68.96C276.628 68.384 276.735 67.8427 276.948 67.336C277.167 66.8293 277.466 66.384 277.844 66C278.228 65.616 278.671 65.3173 279.172 65.104C279.679 64.8853 280.22 64.776 280.796 64.776C281.463 64.776 282.044 64.936 282.54 65.256C283.036 65.5707 283.431 65.984 283.724 66.496L283.684 65ZM280.844 72.12C281.415 72.12 281.906 71.9813 282.316 71.704C282.727 71.4213 283.042 71.0427 283.26 70.568C283.484 70.0933 283.596 69.5707 283.596 69C283.596 68.4133 283.484 67.8853 283.26 67.416C283.036 66.9413 282.719 66.5653 282.308 66.288C281.898 66.0107 281.41 65.872 280.844 65.872C280.279 65.872 279.762 66.0133 279.292 66.296C278.828 66.5733 278.458 66.9493 278.18 67.424C277.908 67.8987 277.772 68.424 277.772 69C277.772 69.5813 277.914 70.1093 278.196 70.584C278.479 71.0533 278.852 71.4267 279.316 71.704C279.786 71.9813 280.295 72.12 280.844 72.12ZM291.905 62.912V65H294.305V66.12H291.905V73H290.785V66.12H289.689V65H290.785V62.912C290.785 62.5227 290.878 62.1707 291.065 61.856C291.257 61.536 291.513 61.2827 291.833 61.096C292.153 60.904 292.508 60.808 292.897 60.808C293.18 60.808 293.452 60.864 293.713 60.976C293.98 61.088 294.217 61.2533 294.425 61.472L293.625 62.264C293.54 62.1573 293.43 62.0747 293.297 62.016C293.169 61.9573 293.036 61.928 292.897 61.928C292.625 61.928 292.39 62.024 292.193 62.216C292.001 62.408 291.905 62.64 291.905 62.912ZM295.671 73V61H296.791V73H295.671ZM302.175 73.208C301.439 73.208 300.767 73.0187 300.159 72.64C299.557 72.2613 299.074 71.7547 298.711 71.12C298.354 70.48 298.175 69.7733 298.175 69C298.175 68.4133 298.279 67.8667 298.487 67.36C298.695 66.848 298.981 66.4 299.343 66.016C299.711 65.6267 300.138 65.3227 300.623 65.104C301.109 64.8853 301.626 64.776 302.175 64.776C302.911 64.776 303.581 64.9653 304.183 65.344C304.791 65.7227 305.274 66.232 305.631 66.872C305.994 67.512 306.175 68.2213 306.175 69C306.175 69.5813 306.071 70.1253 305.863 70.632C305.655 71.1387 305.367 71.5867 304.999 71.976C304.637 72.36 304.213 72.6613 303.727 72.88C303.247 73.0987 302.73 73.208 302.175 73.208ZM302.175 72.088C302.719 72.088 303.207 71.9467 303.639 71.664C304.077 71.376 304.421 70.9973 304.671 70.528C304.927 70.0587 305.055 69.5493 305.055 69C305.055 68.44 304.927 67.9253 304.671 67.456C304.415 66.9813 304.069 66.6027 303.631 66.32C303.199 66.0373 302.714 65.896 302.175 65.896C301.631 65.896 301.141 66.04 300.703 66.328C300.271 66.6107 299.927 66.9867 299.671 67.456C299.421 67.9253 299.295 68.44 299.295 69C299.295 69.576 299.426 70.0987 299.687 70.568C299.949 71.032 300.298 71.4027 300.735 71.68C301.173 71.952 301.653 72.088 302.175 72.088ZM310.539 73H309.387L306.707 65H307.803L309.979 71.448L312.139 65H313.323L315.483 71.448L317.643 65H318.747L316.067 73H314.907L312.715 66.488L310.539 73ZM324.03 65H325.15V73H324.03V65ZM324.598 63.6C324.417 63.6 324.262 63.5413 324.134 63.424C324.012 63.3013 323.95 63.1493 323.95 62.968C323.95 62.7867 324.012 62.6373 324.134 62.52C324.262 62.3973 324.417 62.336 324.598 62.336C324.774 62.336 324.924 62.3973 325.046 62.52C325.174 62.6373 325.238 62.7867 325.238 62.968C325.238 63.1493 325.177 63.3013 325.054 63.424C324.932 63.5413 324.78 63.6 324.598 63.6ZM334.022 68.048V73H332.902V68.272C332.902 67.8347 332.795 67.4373 332.582 67.08C332.369 66.7227 332.083 66.4373 331.726 66.224C331.369 66.0107 330.971 65.904 330.534 65.904C330.102 65.904 329.705 66.0107 329.342 66.224C328.985 66.4373 328.699 66.7227 328.486 67.08C328.273 67.4373 328.166 67.8347 328.166 68.272V73H327.046V65H328.166V66.104C328.449 65.6987 328.817 65.376 329.27 65.136C329.723 64.896 330.217 64.776 330.75 64.776C331.353 64.776 331.902 64.9227 332.398 65.216C332.894 65.5093 333.289 65.904 333.582 66.4C333.875 66.896 334.022 67.4453 334.022 68.048ZM337.28 62.912V65H339.68V66.12H337.28V73H336.16V66.12H335.064V65H336.16V62.912C336.16 62.5227 336.253 62.1707 336.44 61.856C336.632 61.536 336.888 61.2827 337.208 61.096C337.528 60.904 337.883 60.808 338.272 60.808C338.555 60.808 338.827 60.864 339.088 60.976C339.355 61.088 339.592 61.2533 339.8 61.472L339 62.264C338.915 62.1573 338.805 62.0747 338.672 62.016C338.544 61.9573 338.411 61.928 338.272 61.928C338 61.928 337.765 62.024 337.568 62.216C337.376 62.408 337.28 62.64 337.28 62.912ZM344.3 73.208C343.564 73.208 342.892 73.0187 342.284 72.64C341.682 72.2613 341.199 71.7547 340.836 71.12C340.479 70.48 340.3 69.7733 340.3 69C340.3 68.4133 340.404 67.8667 340.612 67.36C340.82 66.848 341.106 66.4 341.468 66.016C341.836 65.6267 342.263 65.3227 342.748 65.104C343.234 64.8853 343.751 64.776 344.3 64.776C345.036 64.776 345.706 64.9653 346.308 65.344C346.916 65.7227 347.399 66.232 347.756 66.872C348.119 67.512 348.3 68.2213 348.3 69C348.3 69.5813 348.196 70.1253 347.988 70.632C347.78 71.1387 347.492 71.5867 347.124 71.976C346.762 72.36 346.338 72.6613 345.852 72.88C345.372 73.0987 344.855 73.208 344.3 73.208ZM344.3 72.088C344.844 72.088 345.332 71.9467 345.764 71.664C346.202 71.376 346.546 70.9973 346.796 70.528C347.052 70.0587 347.18 69.5493 347.18 69C347.18 68.44 347.052 67.9253 346.796 67.456C346.54 66.9813 346.194 66.6027 345.756 66.32C345.324 66.0373 344.839 65.896 344.3 65.896C343.756 65.896 343.266 66.04 342.828 66.328C342.396 66.6107 342.052 66.9867 341.796 67.456C341.546 67.9253 341.42 68.44 341.42 69C341.42 69.576 341.551 70.0987 341.812 70.568C342.074 71.032 342.423 71.4027 342.86 71.68C343.298 71.952 343.778 72.088 344.3 72.088ZM355.937 65H357.057V73.296C357.057 73.808 356.945 74.288 356.721 74.736C356.503 75.184 356.204 75.576 355.825 75.912C355.452 76.2533 355.025 76.52 354.545 76.712C354.065 76.904 353.567 77 353.049 77C352.495 77 351.959 76.872 351.441 76.616C350.924 76.3653 350.473 76.0293 350.089 75.608C349.711 75.1867 349.441 74.72 349.281 74.208L350.313 73.736C350.415 74.136 350.604 74.496 350.881 74.816C351.164 75.1413 351.495 75.3973 351.873 75.584C352.257 75.776 352.649 75.872 353.049 75.872C353.417 75.872 353.772 75.8027 354.113 75.664C354.46 75.5307 354.769 75.3467 355.041 75.112C355.319 74.8773 355.537 74.6027 355.697 74.288C355.857 73.9787 355.937 73.648 355.937 73.296V71.528C355.66 72.0293 355.284 72.4347 354.809 72.744C354.34 73.0533 353.793 73.208 353.169 73.208C352.609 73.208 352.081 73.0987 351.585 72.88C351.095 72.6613 350.663 72.36 350.289 71.976C349.916 71.5867 349.623 71.1387 349.409 70.632C349.201 70.1253 349.097 69.5813 349.097 69C349.097 68.4187 349.201 67.8747 349.409 67.368C349.623 66.856 349.916 66.408 350.289 66.024C350.663 65.6347 351.095 65.3307 351.585 65.112C352.081 64.8933 352.609 64.784 353.169 64.784C353.793 64.784 354.34 64.9387 354.809 65.248C355.284 65.552 355.66 65.9573 355.937 66.464V65ZM353.177 72.12C353.732 72.12 354.209 71.976 354.609 71.688C355.015 71.4 355.327 71.0187 355.545 70.544C355.764 70.0693 355.873 69.5547 355.873 69C355.873 68.4293 355.761 67.9093 355.537 67.44C355.319 66.9653 355.007 66.5867 354.601 66.304C354.196 66.016 353.721 65.872 353.177 65.872C352.633 65.872 352.137 66.0133 351.689 66.296C351.247 66.5733 350.895 66.9493 350.633 67.424C350.372 67.8987 350.241 68.424 350.241 69C350.241 69.576 350.375 70.1013 350.641 70.576C350.908 71.0453 351.263 71.4213 351.705 71.704C352.153 71.9813 352.644 72.12 353.177 72.12ZM358.983 73V65H360.103V66.104C360.386 65.6987 360.754 65.376 361.207 65.136C361.661 64.896 362.154 64.776 362.687 64.776C362.997 64.776 363.295 64.816 363.583 64.896L363.127 66.008C362.903 65.9387 362.685 65.904 362.471 65.904C362.039 65.904 361.642 66.0107 361.279 66.224C360.922 66.4373 360.637 66.7227 360.423 67.08C360.21 67.4373 360.103 67.8347 360.103 68.272V73H358.983ZM370.747 65H371.867V73H370.747L370.707 71.512C370.446 72.0187 370.08 72.4293 369.611 72.744C369.142 73.0533 368.582 73.208 367.931 73.208C367.344 73.208 366.795 73.0987 366.283 72.88C365.771 72.656 365.32 72.3493 364.931 71.96C364.542 71.5707 364.238 71.12 364.019 70.608C363.8 70.096 363.691 69.5467 363.691 68.96C363.691 68.384 363.798 67.8427 364.011 67.336C364.23 66.8293 364.528 66.384 364.907 66C365.291 65.616 365.734 65.3173 366.235 65.104C366.742 64.8853 367.283 64.776 367.859 64.776C368.526 64.776 369.107 64.936 369.603 65.256C370.099 65.5707 370.494 65.984 370.787 66.496L370.747 65ZM367.907 72.12C368.478 72.12 368.968 71.9813 369.379 71.704C369.79 71.4213 370.104 71.0427 370.323 70.568C370.547 70.0933 370.659 69.5707 370.659 69C370.659 68.4133 370.547 67.8853 370.323 67.416C370.099 66.9413 369.782 66.5653 369.371 66.288C368.96 66.0107 368.472 65.872 367.907 65.872C367.342 65.872 366.824 66.0133 366.355 66.296C365.891 66.5733 365.52 66.9493 365.243 67.424C364.971 67.8987 364.835 68.424 364.835 69C364.835 69.5813 364.976 70.1093 365.259 70.584C365.542 71.0533 365.915 71.4267 366.379 71.704C366.848 71.9813 367.358 72.12 367.907 72.12ZM374.588 77H373.468V65H374.588V66.496C374.865 65.9893 375.244 65.5787 375.724 65.264C376.204 64.9493 376.774 64.792 377.436 64.792C378.017 64.792 378.561 64.9013 379.068 65.12C379.58 65.3387 380.028 65.6427 380.412 66.032C380.796 66.416 381.097 66.8613 381.316 67.368C381.534 67.8747 381.644 68.4187 381.644 69C381.644 69.5813 381.534 70.128 381.316 70.64C381.097 71.152 380.796 71.6027 380.412 71.992C380.028 72.376 379.58 72.6773 379.068 72.896C378.561 73.1147 378.017 73.224 377.436 73.224C376.774 73.224 376.204 73.0667 375.724 72.752C375.244 72.4373 374.865 72.0267 374.588 71.52V77ZM377.428 65.88C376.868 65.88 376.38 66.0213 375.964 66.304C375.553 66.5813 375.236 66.9547 375.012 67.424C374.788 67.8933 374.676 68.4187 374.676 69C374.676 69.5707 374.785 70.0933 375.004 70.568C375.228 71.0427 375.545 71.4213 375.956 71.704C376.372 71.9867 376.862 72.128 377.428 72.128C377.982 72.128 378.492 71.9893 378.956 71.712C379.425 71.4347 379.801 71.0613 380.084 70.592C380.366 70.1173 380.508 69.5867 380.508 69C380.508 68.4293 380.369 67.9093 380.092 67.44C379.814 66.9653 379.444 66.5867 378.98 66.304C378.516 66.0213 377.998 65.88 377.428 65.88ZM389.913 68.048V73H388.793V68.272C388.793 67.8347 388.686 67.4373 388.473 67.08C388.259 66.7227 387.974 66.4373 387.617 66.224C387.259 66.0107 386.862 65.904 386.425 65.904C385.993 65.904 385.595 66.0107 385.233 66.224C384.875 66.4373 384.59 66.7227 384.377 67.08C384.163 67.4373 384.057 67.8347 384.057 68.272V73H382.937V61H384.057V66.104C384.339 65.6987 384.707 65.376 385.161 65.136C385.614 64.896 386.107 64.776 386.641 64.776C387.243 64.776 387.793 64.9227 388.289 65.216C388.785 65.5093 389.179 65.904 389.473 66.4C389.766 66.896 389.913 67.4453 389.913 68.048ZM391.515 65H392.635V73H391.515V65ZM392.083 63.6C391.901 63.6 391.747 63.5413 391.619 63.424C391.496 63.3013 391.435 63.1493 391.435 62.968C391.435 62.7867 391.496 62.6373 391.619 62.52C391.747 62.3973 391.901 62.336 392.083 62.336C392.259 62.336 392.408 62.3973 392.531 62.52C392.659 62.6373 392.723 62.7867 392.723 62.968C392.723 63.1493 392.661 63.3013 392.539 63.424C392.416 63.5413 392.264 63.6 392.083 63.6ZM400.195 70.992L401.195 71.536C400.833 72.0427 400.371 72.448 399.811 72.752C399.257 73.056 398.654 73.208 398.003 73.208C397.267 73.208 396.595 73.0187 395.987 72.64C395.385 72.2613 394.902 71.7547 394.539 71.12C394.182 70.48 394.003 69.7733 394.003 69C394.003 68.4133 394.107 67.8667 394.315 67.36C394.523 66.848 394.809 66.4 395.171 66.016C395.539 65.6267 395.966 65.3227 396.451 65.104C396.937 64.8853 397.454 64.776 398.003 64.776C398.654 64.776 399.257 64.928 399.811 65.232C400.371 65.536 400.833 65.944 401.195 66.456L400.195 66.992C399.918 66.64 399.585 66.3707 399.195 66.184C398.806 65.992 398.409 65.896 398.003 65.896C397.465 65.896 396.977 66.04 396.539 66.328C396.102 66.6107 395.755 66.9867 395.499 67.456C395.249 67.9253 395.123 68.44 395.123 69C395.123 69.56 395.251 70.0747 395.507 70.544C395.769 71.0133 396.118 71.3893 396.555 71.672C396.993 71.9493 397.475 72.088 398.003 72.088C398.441 72.088 398.851 71.9867 399.235 71.784C399.619 71.5813 399.939 71.3173 400.195 70.992ZM408.955 73.152C408.518 73.1413 408.091 73.0613 407.675 72.912C407.259 72.7627 406.897 72.56 406.587 72.304C406.278 72.048 406.057 71.7573 405.923 71.432L406.891 71.016C406.977 71.224 407.134 71.416 407.363 71.592C407.598 71.7627 407.865 71.9013 408.163 72.008C408.462 72.1093 408.758 72.16 409.051 72.16C409.377 72.16 409.681 72.1067 409.963 72C410.246 71.8933 410.475 71.7413 410.651 71.544C410.833 71.3413 410.923 71.104 410.923 70.832C410.923 70.5387 410.827 70.3093 410.635 70.144C410.443 69.9733 410.201 69.84 409.907 69.744C409.614 69.6427 409.313 69.5467 409.003 69.456C408.438 69.3013 407.939 69.1307 407.507 68.944C407.075 68.7573 406.737 68.52 406.491 68.232C406.251 67.9387 406.131 67.5627 406.131 67.104C406.131 66.6187 406.267 66.2 406.539 65.848C406.817 65.4907 407.177 65.216 407.619 65.024C408.067 64.8267 408.545 64.728 409.051 64.728C409.702 64.728 410.294 64.8693 410.827 65.152C411.366 65.4347 411.755 65.8107 411.995 66.28L411.091 66.816C410.995 66.5973 410.843 66.408 410.635 66.248C410.427 66.088 410.19 65.9627 409.923 65.872C409.662 65.7813 409.395 65.7333 409.123 65.728C408.782 65.7227 408.465 65.7733 408.171 65.88C407.878 65.9813 407.641 66.1333 407.459 66.336C407.283 66.5387 407.195 66.7867 407.195 67.08C407.195 67.3733 407.283 67.5973 407.459 67.752C407.635 67.9013 407.873 68.024 408.171 68.12C408.475 68.2107 408.817 68.3173 409.195 68.44C409.681 68.5947 410.137 68.7707 410.563 68.968C410.99 69.1653 411.334 69.4107 411.595 69.704C411.857 69.9973 411.985 70.368 411.979 70.816C411.979 71.296 411.835 71.7147 411.547 72.072C411.259 72.4293 410.886 72.704 410.427 72.896C409.969 73.0827 409.478 73.168 408.955 73.152ZM420.334 68.048V73H419.214V68.272C419.214 67.8347 419.108 67.4373 418.894 67.08C418.681 66.7227 418.396 66.4373 418.038 66.224C417.681 66.0107 417.284 65.904 416.846 65.904C416.414 65.904 416.017 66.0107 415.654 66.224C415.297 66.4373 415.012 66.7227 414.798 67.08C414.585 67.4373 414.478 67.8347 414.478 68.272V73H413.358V61H414.478V66.104C414.761 65.6987 415.129 65.376 415.582 65.136C416.036 64.896 416.529 64.776 417.062 64.776C417.665 64.776 418.214 64.9227 418.71 65.216C419.206 65.5093 419.601 65.904 419.894 66.4C420.188 66.896 420.334 67.4453 420.334 68.048ZM425.3 73.208C424.564 73.208 423.892 73.0187 423.284 72.64C422.682 72.2613 422.199 71.7547 421.836 71.12C421.479 70.48 421.3 69.7733 421.3 69C421.3 68.4133 421.404 67.8667 421.612 67.36C421.82 66.848 422.106 66.4 422.468 66.016C422.836 65.6267 423.263 65.3227 423.748 65.104C424.234 64.8853 424.751 64.776 425.3 64.776C426.036 64.776 426.706 64.9653 427.308 65.344C427.916 65.7227 428.399 66.232 428.756 66.872C429.119 67.512 429.3 68.2213 429.3 69C429.3 69.5813 429.196 70.1253 428.988 70.632C428.78 71.1387 428.492 71.5867 428.124 71.976C427.762 72.36 427.338 72.6613 426.852 72.88C426.372 73.0987 425.855 73.208 425.3 73.208ZM425.3 72.088C425.844 72.088 426.332 71.9467 426.764 71.664C427.202 71.376 427.546 70.9973 427.796 70.528C428.052 70.0587 428.18 69.5493 428.18 69C428.18 68.44 428.052 67.9253 427.796 67.456C427.54 66.9813 427.194 66.6027 426.756 66.32C426.324 66.0373 425.839 65.896 425.3 65.896C424.756 65.896 424.266 66.04 423.828 66.328C423.396 66.6107 423.052 66.9867 422.796 67.456C422.546 67.9253 422.42 68.44 422.42 69C422.42 69.576 422.551 70.0987 422.812 70.568C423.074 71.032 423.423 71.4027 423.86 71.68C424.298 71.952 424.778 72.088 425.3 72.088ZM433.664 73H432.512L429.832 65H430.928L433.104 71.448L435.264 65H436.448L438.608 71.448L440.768 65H441.872L439.192 73H438.032L435.84 66.488L433.664 73ZM443.202 65H444.322V73H443.202V65ZM443.77 63.6C443.589 63.6 443.434 63.5413 443.306 63.424C443.184 63.3013 443.122 63.1493 443.122 62.968C443.122 62.7867 443.184 62.6373 443.306 62.52C443.434 62.3973 443.589 62.336 443.77 62.336C443.946 62.336 444.096 62.3973 444.218 62.52C444.346 62.6373 444.41 62.7867 444.41 62.968C444.41 63.1493 444.349 63.3013 444.226 63.424C444.104 63.5413 443.952 63.6 443.77 63.6ZM453.194 68.048V73H452.074V68.272C452.074 67.8347 451.967 67.4373 451.754 67.08C451.54 66.7227 451.255 66.4373 450.898 66.224C450.54 66.0107 450.143 65.904 449.706 65.904C449.274 65.904 448.876 66.0107 448.514 66.224C448.156 66.4373 447.871 66.7227 447.658 67.08C447.444 67.4373 447.338 67.8347 447.338 68.272V73H446.218V65H447.338V66.104C447.62 65.6987 447.988 65.376 448.442 65.136C448.895 64.896 449.388 64.776 449.922 64.776C450.524 64.776 451.074 64.9227 451.57 65.216C452.066 65.5093 452.46 65.904 452.754 66.4C453.047 66.896 453.194 67.4453 453.194 68.048ZM461 65H462.12V73.296C462.12 73.808 462.008 74.288 461.784 74.736C461.565 75.184 461.266 75.576 460.888 75.912C460.514 76.2533 460.088 76.52 459.608 76.712C459.128 76.904 458.629 77 458.112 77C457.557 77 457.021 76.872 456.504 76.616C455.986 76.3653 455.536 76.0293 455.152 75.608C454.773 75.1867 454.504 74.72 454.344 74.208L455.376 73.736C455.477 74.136 455.666 74.496 455.944 74.816C456.226 75.1413 456.557 75.3973 456.936 75.584C457.32 75.776 457.712 75.872 458.112 75.872C458.48 75.872 458.834 75.8027 459.176 75.664C459.522 75.5307 459.832 75.3467 460.104 75.112C460.381 74.8773 460.6 74.6027 460.76 74.288C460.92 73.9787 461 73.648 461 73.296V71.528C460.722 72.0293 460.346 72.4347 459.872 72.744C459.402 73.0533 458.856 73.208 458.232 73.208C457.672 73.208 457.144 73.0987 456.648 72.88C456.157 72.6613 455.725 72.36 455.352 71.976C454.978 71.5867 454.685 71.1387 454.472 70.632C454.264 70.1253 454.16 69.5813 454.16 69C454.16 68.4187 454.264 67.8747 454.472 67.368C454.685 66.856 454.978 66.408 455.352 66.024C455.725 65.6347 456.157 65.3307 456.648 65.112C457.144 64.8933 457.672 64.784 458.232 64.784C458.856 64.784 459.402 64.9387 459.872 65.248C460.346 65.552 460.722 65.9573 461 66.464V65ZM458.24 72.12C458.794 72.12 459.272 71.976 459.672 71.688C460.077 71.4 460.389 71.0187 460.608 70.544C460.826 70.0693 460.936 69.5547 460.936 69C460.936 68.4293 460.824 67.9093 460.6 67.44C460.381 66.9653 460.069 66.5867 459.664 66.304C459.258 66.016 458.784 65.872 458.24 65.872C457.696 65.872 457.2 66.0133 456.752 66.296C456.309 66.5733 455.957 66.9493 455.696 67.424C455.434 67.8987 455.304 68.424 455.304 69C455.304 69.576 455.437 70.1013 455.704 70.576C455.97 71.0453 456.325 71.4213 456.768 71.704C457.216 71.9813 457.706 72.12 458.24 72.12ZM229.038 91H230.158V99H229.038V91ZM229.606 89.6C229.425 89.6 229.27 89.5413 229.142 89.424C229.019 89.3013 228.958 89.1493 228.958 88.968C228.958 88.7867 229.019 88.6373 229.142 88.52C229.27 88.3973 229.425 88.336 229.606 88.336C229.782 88.336 229.931 88.3973 230.054 88.52C230.182 88.6373 230.246 88.7867 230.246 88.968C230.246 89.1493 230.185 89.3013 230.062 89.424C229.939 89.5413 229.787 89.6 229.606 89.6ZM239.03 94.048V99H237.91V94.272C237.91 93.8347 237.803 93.4373 237.59 93.08C237.376 92.7227 237.091 92.4373 236.734 92.224C236.376 92.0107 235.979 91.904 235.542 91.904C235.11 91.904 234.712 92.0107 234.35 92.224C233.992 92.4373 233.707 92.7227 233.494 93.08C233.28 93.4373 233.174 93.8347 233.174 94.272V99H232.054V91H233.174V92.104C233.456 91.6987 233.824 91.376 234.278 91.136C234.731 90.896 235.224 90.776 235.758 90.776C236.36 90.776 236.91 90.9227 237.406 91.216C237.902 91.5093 238.296 91.904 238.59 92.4C238.883 92.896 239.03 93.4453 239.03 94.048ZM243.996 99.208C243.26 99.208 242.588 99.0187 241.98 98.64C241.377 98.2613 240.894 97.7547 240.532 97.12C240.174 96.48 239.996 95.7733 239.996 95C239.996 94.4133 240.1 93.8667 240.308 93.36C240.516 92.848 240.801 92.4 241.164 92.016C241.532 91.6267 241.958 91.3227 242.444 91.104C242.929 90.8853 243.446 90.776 243.996 90.776C244.588 90.776 245.132 90.8933 245.628 91.128C246.129 91.3627 246.558 91.6907 246.916 92.112C247.278 92.5333 247.55 93.0267 247.732 93.592C247.918 94.1573 247.996 94.768 247.964 95.424H241.18C241.244 95.9307 241.404 96.384 241.66 96.784C241.921 97.184 242.252 97.5013 242.652 97.736C243.057 97.9653 243.505 98.0827 243.996 98.088C244.529 98.088 245.009 97.9493 245.436 97.672C245.868 97.3947 246.214 97.0133 246.476 96.528L247.612 96.792C247.292 97.5013 246.809 98.0827 246.164 98.536C245.518 98.984 244.796 99.208 243.996 99.208ZM241.148 94.52H246.836C246.798 94.024 246.646 93.5707 246.38 93.16C246.118 92.744 245.78 92.4133 245.364 92.168C244.948 91.9173 244.492 91.792 243.996 91.792C243.5 91.792 243.046 91.9147 242.636 92.16C242.225 92.4 241.889 92.728 241.628 93.144C241.366 93.5547 241.206 94.0133 241.148 94.52ZM251.069 88.912V91H253.469V92.12H251.069V99H249.949V92.12H248.853V91H249.949V88.912C249.949 88.5227 250.042 88.1707 250.229 87.856C250.421 87.536 250.677 87.2827 250.997 87.096C251.317 86.904 251.672 86.808 252.061 86.808C252.344 86.808 252.616 86.864 252.877 86.976C253.144 87.088 253.381 87.2533 253.589 87.472L252.789 88.264C252.704 88.1573 252.594 88.0747 252.461 88.016C252.333 87.9573 252.2 87.928 252.061 87.928C251.789 87.928 251.554 88.024 251.357 88.216C251.165 88.408 251.069 88.64 251.069 88.912ZM256.632 88.912V91H259.032V92.12H256.632V99H255.512V92.12H254.416V91H255.512V88.912C255.512 88.5227 255.605 88.1707 255.792 87.856C255.984 87.536 256.24 87.2827 256.56 87.096C256.88 86.904 257.234 86.808 257.624 86.808C257.906 86.808 258.178 86.864 258.44 86.976C258.706 87.088 258.944 87.2533 259.152 87.472L258.352 88.264C258.266 88.1573 258.157 88.0747 258.024 88.016C257.896 87.9573 257.762 87.928 257.624 87.928C257.352 87.928 257.117 88.024 256.92 88.216C256.728 88.408 256.632 88.64 256.632 88.912ZM260.257 91H261.377V99H260.257V91ZM260.825 89.6C260.644 89.6 260.489 89.5413 260.361 89.424C260.238 89.3013 260.177 89.1493 260.177 88.968C260.177 88.7867 260.238 88.6373 260.361 88.52C260.489 88.3973 260.644 88.336 260.825 88.336C261.001 88.336 261.15 88.3973 261.273 88.52C261.401 88.6373 261.465 88.7867 261.465 88.968C261.465 89.1493 261.404 89.3013 261.281 89.424C261.158 89.5413 261.006 89.6 260.825 89.6ZM268.938 96.992L269.938 97.536C269.575 98.0427 269.114 98.448 268.554 98.752C267.999 99.056 267.396 99.208 266.746 99.208C266.01 99.208 265.338 99.0187 264.73 98.64C264.127 98.2613 263.644 97.7547 263.282 97.12C262.924 96.48 262.746 95.7733 262.746 95C262.746 94.4133 262.85 93.8667 263.058 93.36C263.266 92.848 263.551 92.4 263.914 92.016C264.282 91.6267 264.708 91.3227 265.194 91.104C265.679 90.8853 266.196 90.776 266.746 90.776C267.396 90.776 267.999 90.928 268.554 91.232C269.114 91.536 269.575 91.944 269.938 92.456L268.938 92.992C268.66 92.64 268.327 92.3707 267.938 92.184C267.548 91.992 267.151 91.896 266.746 91.896C266.207 91.896 265.719 92.04 265.282 92.328C264.844 92.6107 264.498 92.9867 264.242 93.456C263.991 93.9253 263.866 94.44 263.866 95C263.866 95.56 263.994 96.0747 264.25 96.544C264.511 97.0133 264.86 97.3893 265.298 97.672C265.735 97.9493 266.218 98.088 266.746 98.088C267.183 98.088 267.594 97.9867 267.978 97.784C268.362 97.5813 268.682 97.3173 268.938 96.992ZM271.241 91H272.361V99H271.241V91ZM271.809 89.6C271.628 89.6 271.473 89.5413 271.345 89.424C271.223 89.3013 271.161 89.1493 271.161 88.968C271.161 88.7867 271.223 88.6373 271.345 88.52C271.473 88.3973 271.628 88.336 271.809 88.336C271.985 88.336 272.135 88.3973 272.257 88.52C272.385 88.6373 272.449 88.7867 272.449 88.968C272.449 89.1493 272.388 89.3013 272.265 89.424C272.143 89.5413 271.991 89.6 271.809 89.6ZM277.73 99.208C276.994 99.208 276.322 99.0187 275.714 98.64C275.111 98.2613 274.629 97.7547 274.266 97.12C273.909 96.48 273.73 95.7733 273.73 95C273.73 94.4133 273.834 93.8667 274.042 93.36C274.25 92.848 274.535 92.4 274.898 92.016C275.266 91.6267 275.693 91.3227 276.178 91.104C276.663 90.8853 277.181 90.776 277.73 90.776C278.322 90.776 278.866 90.8933 279.362 91.128C279.863 91.3627 280.293 91.6907 280.65 92.112C281.013 92.5333 281.285 93.0267 281.466 93.592C281.653 94.1573 281.73 94.768 281.698 95.424H274.914C274.978 95.9307 275.138 96.384 275.394 96.784C275.655 97.184 275.986 97.5013 276.386 97.736C276.791 97.9653 277.239 98.0827 277.73 98.088C278.263 98.088 278.743 97.9493 279.17 97.672C279.602 97.3947 279.949 97.0133 280.21 96.528L281.346 96.792C281.026 97.5013 280.543 98.0827 279.898 98.536C279.253 98.984 278.53 99.208 277.73 99.208ZM274.882 94.52H280.57C280.533 94.024 280.381 93.5707 280.114 93.16C279.853 92.744 279.514 92.4133 279.098 92.168C278.682 91.9173 278.226 91.792 277.73 91.792C277.234 91.792 276.781 91.9147 276.37 92.16C275.959 92.4 275.623 92.728 275.362 93.144C275.101 93.5547 274.941 94.0133 274.882 94.52ZM290.045 94.048V99H288.925V94.272C288.925 93.8347 288.819 93.4373 288.605 93.08C288.392 92.7227 288.107 92.4373 287.749 92.224C287.392 92.0107 286.995 91.904 286.557 91.904C286.125 91.904 285.728 92.0107 285.365 92.224C285.008 92.4373 284.723 92.7227 284.509 93.08C284.296 93.4373 284.189 93.8347 284.189 94.272V99H283.069V91H284.189V92.104C284.472 91.6987 284.84 91.376 285.293 91.136C285.747 90.896 286.24 90.776 286.773 90.776C287.376 90.776 287.925 90.9227 288.421 91.216C288.917 91.5093 289.312 91.904 289.605 92.4C289.899 92.896 290.045 93.4453 290.045 94.048ZM297.203 96.992L298.203 97.536C297.841 98.0427 297.379 98.448 296.819 98.752C296.265 99.056 295.662 99.208 295.011 99.208C294.275 99.208 293.603 99.0187 292.995 98.64C292.393 98.2613 291.91 97.7547 291.547 97.12C291.19 96.48 291.011 95.7733 291.011 95C291.011 94.4133 291.115 93.8667 291.323 93.36C291.531 92.848 291.817 92.4 292.179 92.016C292.547 91.6267 292.974 91.3227 293.459 91.104C293.945 90.8853 294.462 90.776 295.011 90.776C295.662 90.776 296.265 90.928 296.819 91.232C297.379 91.536 297.841 91.944 298.203 92.456L297.203 92.992C296.926 92.64 296.593 92.3707 296.203 92.184C295.814 91.992 295.417 91.896 295.011 91.896C294.473 91.896 293.985 92.04 293.547 92.328C293.11 92.6107 292.763 92.9867 292.507 93.456C292.257 93.9253 292.131 94.44 292.131 95C292.131 95.56 292.259 96.0747 292.515 96.544C292.777 97.0133 293.126 97.3893 293.563 97.672C294.001 97.9493 294.483 98.088 295.011 98.088C295.449 98.088 295.859 97.9867 296.243 97.784C296.627 97.5813 296.947 97.3173 297.203 96.992ZM299.507 91H300.627V99H299.507V91ZM300.075 89.6C299.894 89.6 299.739 89.5413 299.611 89.424C299.488 89.3013 299.427 89.1493 299.427 88.968C299.427 88.7867 299.488 88.6373 299.611 88.52C299.739 88.3973 299.894 88.336 300.075 88.336C300.251 88.336 300.4 88.3973 300.523 88.52C300.651 88.6373 300.715 88.7867 300.715 88.968C300.715 89.1493 300.654 89.3013 300.531 89.424C300.408 89.5413 300.256 89.6 300.075 89.6ZM305.996 99.208C305.26 99.208 304.588 99.0187 303.98 98.64C303.377 98.2613 302.894 97.7547 302.532 97.12C302.174 96.48 301.996 95.7733 301.996 95C301.996 94.4133 302.1 93.8667 302.308 93.36C302.516 92.848 302.801 92.4 303.164 92.016C303.532 91.6267 303.958 91.3227 304.444 91.104C304.929 90.8853 305.446 90.776 305.996 90.776C306.588 90.776 307.132 90.8933 307.628 91.128C308.129 91.3627 308.558 91.6907 308.916 92.112C309.278 92.5333 309.55 93.0267 309.732 93.592C309.918 94.1573 309.996 94.768 309.964 95.424H303.18C303.244 95.9307 303.404 96.384 303.66 96.784C303.921 97.184 304.252 97.5013 304.652 97.736C305.057 97.9653 305.505 98.0827 305.996 98.088C306.529 98.088 307.009 97.9493 307.436 97.672C307.868 97.3947 308.214 97.0133 308.476 96.528L309.612 96.792C309.292 97.5013 308.809 98.0827 308.164 98.536C307.518 98.984 306.796 99.208 305.996 99.208ZM303.148 94.52H308.836C308.798 94.024 308.646 93.5707 308.38 93.16C308.118 92.744 307.78 92.4133 307.364 92.168C306.948 91.9173 306.492 91.792 305.996 91.792C305.5 91.792 305.046 91.9147 304.636 92.16C304.225 92.4 303.889 92.728 303.628 93.144C303.366 93.5547 303.206 94.0133 303.148 94.52ZM313.823 99.152C313.385 99.1413 312.959 99.0613 312.543 98.912C312.127 98.7627 311.764 98.56 311.455 98.304C311.145 98.048 310.924 97.7573 310.791 97.432L311.759 97.016C311.844 97.224 312.001 97.416 312.231 97.592C312.465 97.7627 312.732 97.9013 313.031 98.008C313.329 98.1093 313.625 98.16 313.919 98.16C314.244 98.16 314.548 98.1067 314.831 98C315.113 97.8933 315.343 97.7413 315.519 97.544C315.7 97.3413 315.791 97.104 315.791 96.832C315.791 96.5387 315.695 96.3093 315.503 96.144C315.311 95.9733 315.068 95.84 314.775 95.744C314.481 95.6427 314.18 95.5467 313.871 95.456C313.305 95.3013 312.807 95.1307 312.375 94.944C311.943 94.7573 311.604 94.52 311.359 94.232C311.119 93.9387 310.999 93.5627 310.999 93.104C310.999 92.6187 311.135 92.2 311.407 91.848C311.684 91.4907 312.044 91.216 312.487 91.024C312.935 90.8267 313.412 90.728 313.919 90.728C314.569 90.728 315.161 90.8693 315.695 91.152C316.233 91.4347 316.623 91.8107 316.863 92.28L315.959 92.816C315.863 92.5973 315.711 92.408 315.503 92.248C315.295 92.088 315.057 91.9627 314.791 91.872C314.529 91.7813 314.263 91.7333 313.991 91.728C313.649 91.7227 313.332 91.7733 313.039 91.88C312.745 91.9813 312.508 92.1333 312.327 92.336C312.151 92.5387 312.063 92.7867 312.063 93.08C312.063 93.3733 312.151 93.5973 312.327 93.752C312.503 93.9013 312.74 94.024 313.039 94.12C313.343 94.2107 313.684 94.3173 314.063 94.44C314.548 94.5947 315.004 94.7707 315.431 94.968C315.857 95.1653 316.201 95.4107 316.463 95.704C316.724 95.9973 316.852 96.368 316.847 96.816C316.847 97.296 316.703 97.7147 316.415 98.072C316.127 98.4293 315.753 98.704 315.295 98.896C314.836 99.0827 314.345 99.168 313.823 99.152ZM322.069 91H323.189V99H322.069V91ZM322.637 89.6C322.456 89.6 322.301 89.5413 322.173 89.424C322.051 89.3013 321.989 89.1493 321.989 88.968C321.989 88.7867 322.051 88.6373 322.173 88.52C322.301 88.3973 322.456 88.336 322.637 88.336C322.813 88.336 322.963 88.3973 323.085 88.52C323.213 88.6373 323.277 88.7867 323.277 88.968C323.277 89.1493 323.216 89.3013 323.093 89.424C322.971 89.5413 322.819 89.6 322.637 89.6ZM332.061 94.048V99H330.941V94.272C330.941 93.8347 330.834 93.4373 330.621 93.08C330.408 92.7227 330.122 92.4373 329.765 92.224C329.408 92.0107 329.01 91.904 328.573 91.904C328.141 91.904 327.744 92.0107 327.381 92.224C327.024 92.4373 326.738 92.7227 326.525 93.08C326.312 93.4373 326.205 93.8347 326.205 94.272V99H325.085V91H326.205V92.104C326.488 91.6987 326.856 91.376 327.309 91.136C327.762 90.896 328.256 90.776 328.789 90.776C329.392 90.776 329.941 90.9227 330.437 91.216C330.933 91.5093 331.328 91.904 331.621 92.4C331.914 92.896 332.061 93.4453 332.061 94.048ZM341.595 92.12H339.683L339.675 99H338.555L338.563 92.12H337.115V91H338.563L338.555 88.488H339.675L339.683 91H341.595V92.12ZM343.023 99V91H344.143V92.104C344.425 91.6987 344.793 91.376 345.247 91.136C345.7 90.896 346.193 90.776 346.727 90.776C347.036 90.776 347.335 90.816 347.623 90.896L347.167 92.008C346.943 91.9387 346.724 91.904 346.511 91.904C346.079 91.904 345.681 92.0107 345.319 92.224C344.961 92.4373 344.676 92.7227 344.463 93.08C344.249 93.4373 344.143 93.8347 344.143 94.272V99H343.023ZM354.786 91H355.906V99H354.786L354.746 97.512C354.485 98.0187 354.119 98.4293 353.65 98.744C353.181 99.0533 352.621 99.208 351.97 99.208C351.383 99.208 350.834 99.0987 350.322 98.88C349.81 98.656 349.359 98.3493 348.97 97.96C348.581 97.5707 348.277 97.12 348.058 96.608C347.839 96.096 347.73 95.5467 347.73 94.96C347.73 94.384 347.837 93.8427 348.05 93.336C348.269 92.8293 348.567 92.384 348.946 92C349.33 91.616 349.773 91.3173 350.274 91.104C350.781 90.8853 351.322 90.776 351.898 90.776C352.565 90.776 353.146 90.936 353.642 91.256C354.138 91.5707 354.533 91.984 354.826 92.496L354.786 91ZM351.946 98.12C352.517 98.12 353.007 97.9813 353.418 97.704C353.829 97.4213 354.143 97.0427 354.362 96.568C354.586 96.0933 354.698 95.5707 354.698 95C354.698 94.4133 354.586 93.8853 354.362 93.416C354.138 92.9413 353.821 92.5653 353.41 92.288C352.999 92.0107 352.511 91.872 351.946 91.872C351.381 91.872 350.863 92.0133 350.394 92.296C349.93 92.5733 349.559 92.9493 349.282 93.424C349.01 93.8987 348.874 94.424 348.874 95C348.874 95.5813 349.015 96.1093 349.298 96.584C349.581 97.0533 349.954 97.4267 350.418 97.704C350.887 97.9813 351.397 98.12 351.946 98.12ZM363.935 87H365.055V99H363.935V97.504C363.657 98.016 363.276 98.4293 362.791 98.744C362.311 99.0533 361.74 99.208 361.079 99.208C360.497 99.208 359.953 99.0987 359.447 98.88C358.94 98.6613 358.492 98.36 358.103 97.976C357.719 97.5867 357.417 97.1387 357.199 96.632C356.98 96.1253 356.871 95.5813 356.871 95C356.871 94.4187 356.98 93.8747 357.199 93.368C357.417 92.856 357.719 92.408 358.103 92.024C358.492 91.6347 358.94 91.3307 359.447 91.112C359.953 90.8933 360.497 90.784 361.079 90.784C361.74 90.784 362.311 90.9413 362.791 91.256C363.276 91.5653 363.657 91.9733 363.935 92.48V87ZM361.087 98.12C361.657 98.12 362.148 97.9813 362.559 97.704C362.969 97.4213 363.284 97.0427 363.503 96.568C363.727 96.0933 363.839 95.5707 363.839 95C363.839 94.4133 363.727 93.8853 363.503 93.416C363.279 92.9413 362.961 92.5653 362.551 92.288C362.14 92.0107 361.652 91.872 361.087 91.872C360.521 91.872 360.007 92.0133 359.543 92.296C359.079 92.5733 358.708 92.9493 358.431 93.424C358.153 93.8987 358.015 94.424 358.015 95C358.015 95.5813 358.156 96.1093 358.439 96.584C358.721 97.0533 359.095 97.4267 359.559 97.704C360.028 97.9813 360.537 98.12 361.087 98.12ZM366.976 91H368.096V99H366.976V91ZM367.544 89.6C367.362 89.6 367.208 89.5413 367.08 89.424C366.957 89.3013 366.896 89.1493 366.896 88.968C366.896 88.7867 366.957 88.6373 367.08 88.52C367.208 88.3973 367.362 88.336 367.544 88.336C367.72 88.336 367.869 88.3973 367.992 88.52C368.12 88.6373 368.184 88.7867 368.184 88.968C368.184 89.1493 368.122 89.3013 368 89.424C367.877 89.5413 367.725 89.6 367.544 89.6ZM374.111 92.12H372.199L372.191 99H371.071L371.079 92.12H369.631V91H371.079L371.071 88.488H372.191L372.199 91H374.111V92.12ZM375.476 91H376.596V99H375.476V91ZM376.044 89.6C375.862 89.6 375.708 89.5413 375.58 89.424C375.457 89.3013 375.396 89.1493 375.396 88.968C375.396 88.7867 375.457 88.6373 375.58 88.52C375.708 88.3973 375.862 88.336 376.044 88.336C376.22 88.336 376.369 88.3973 376.492 88.52C376.62 88.6373 376.684 88.7867 376.684 88.968C376.684 89.1493 376.622 89.3013 376.5 89.424C376.377 89.5413 376.225 89.6 376.044 89.6ZM381.964 99.208C381.228 99.208 380.556 99.0187 379.948 98.64C379.346 98.2613 378.863 97.7547 378.5 97.12C378.143 96.48 377.964 95.7733 377.964 95C377.964 94.4133 378.068 93.8667 378.276 93.36C378.484 92.848 378.77 92.4 379.132 92.016C379.5 91.6267 379.927 91.3227 380.412 91.104C380.898 90.8853 381.415 90.776 381.964 90.776C382.7 90.776 383.37 90.9653 383.972 91.344C384.58 91.7227 385.063 92.232 385.42 92.872C385.783 93.512 385.964 94.2213 385.964 95C385.964 95.5813 385.86 96.1253 385.652 96.632C385.444 97.1387 385.156 97.5867 384.788 97.976C384.426 98.36 384.002 98.6613 383.516 98.88C383.036 99.0987 382.519 99.208 381.964 99.208ZM381.964 98.088C382.508 98.088 382.996 97.9467 383.428 97.664C383.866 97.376 384.21 96.9973 384.46 96.528C384.716 96.0587 384.844 95.5493 384.844 95C384.844 94.44 384.716 93.9253 384.46 93.456C384.204 92.9813 383.858 92.6027 383.42 92.32C382.988 92.0373 382.503 91.896 381.964 91.896C381.42 91.896 380.93 92.04 380.492 92.328C380.06 92.6107 379.716 92.9867 379.46 93.456C379.21 93.9253 379.084 94.44 379.084 95C379.084 95.576 379.215 96.0987 379.476 96.568C379.738 97.032 380.087 97.4027 380.524 97.68C380.962 97.952 381.442 98.088 381.964 98.088ZM394.295 94.048V99H393.175V94.272C393.175 93.8347 393.069 93.4373 392.855 93.08C392.642 92.7227 392.357 92.4373 391.999 92.224C391.642 92.0107 391.245 91.904 390.807 91.904C390.375 91.904 389.978 92.0107 389.615 92.224C389.258 92.4373 388.973 92.7227 388.759 93.08C388.546 93.4373 388.439 93.8347 388.439 94.272V99H387.319V91H388.439V92.104C388.722 91.6987 389.09 91.376 389.543 91.136C389.997 90.896 390.49 90.776 391.023 90.776C391.626 90.776 392.175 90.9227 392.671 91.216C393.167 91.5093 393.562 91.904 393.855 92.4C394.149 92.896 394.295 93.4453 394.295 94.048ZM402.317 91H403.437V99H402.317L402.277 97.512C402.016 98.0187 401.651 98.4293 401.181 98.744C400.712 99.0533 400.152 99.208 399.501 99.208C398.915 99.208 398.365 99.0987 397.853 98.88C397.341 98.656 396.891 98.3493 396.501 97.96C396.112 97.5707 395.808 97.12 395.589 96.608C395.371 96.096 395.261 95.5467 395.261 94.96C395.261 94.384 395.368 93.8427 395.581 93.336C395.8 92.8293 396.099 92.384 396.477 92C396.861 91.616 397.304 91.3173 397.805 91.104C398.312 90.8853 398.853 90.776 399.429 90.776C400.096 90.776 400.677 90.936 401.173 91.256C401.669 91.5707 402.064 91.984 402.357 92.496L402.317 91ZM399.477 98.12C400.048 98.12 400.539 97.9813 400.949 97.704C401.36 97.4213 401.675 97.0427 401.893 96.568C402.117 96.0933 402.229 95.5707 402.229 95C402.229 94.4133 402.117 93.8853 401.893 93.416C401.669 92.9413 401.352 92.5653 400.941 92.288C400.531 92.0107 400.043 91.872 399.477 91.872C398.912 91.872 398.395 92.0133 397.925 92.296C397.461 92.5733 397.091 92.9493 396.813 93.424C396.541 93.8987 396.405 94.424 396.405 95C396.405 95.5813 396.547 96.1093 396.829 96.584C397.112 97.0533 397.485 97.4267 397.949 97.704C398.419 97.9813 398.928 98.12 399.477 98.12ZM405.148 99V87H406.268V99H405.148ZM412.038 99V91H413.158V92.104C413.441 91.6987 413.809 91.376 414.262 91.136C414.715 90.896 415.209 90.776 415.742 90.776C416.051 90.776 416.35 90.816 416.638 90.896L416.182 92.008C415.958 91.9387 415.739 91.904 415.526 91.904C415.094 91.904 414.697 92.0107 414.334 92.224C413.977 92.4373 413.691 92.7227 413.478 93.08C413.265 93.4373 413.158 93.8347 413.158 94.272V99H412.038ZM420.746 99.208C420.01 99.208 419.338 99.0187 418.73 98.64C418.127 98.2613 417.644 97.7547 417.282 97.12C416.924 96.48 416.746 95.7733 416.746 95C416.746 94.4133 416.85 93.8667 417.058 93.36C417.266 92.848 417.551 92.4 417.914 92.016C418.282 91.6267 418.708 91.3227 419.194 91.104C419.679 90.8853 420.196 90.776 420.746 90.776C421.338 90.776 421.882 90.8933 422.378 91.128C422.879 91.3627 423.308 91.6907 423.666 92.112C424.028 92.5333 424.3 93.0267 424.482 93.592C424.668 94.1573 424.746 94.768 424.714 95.424H417.93C417.994 95.9307 418.154 96.384 418.41 96.784C418.671 97.184 419.002 97.5013 419.402 97.736C419.807 97.9653 420.255 98.0827 420.746 98.088C421.279 98.088 421.759 97.9493 422.186 97.672C422.618 97.3947 422.964 97.0133 423.226 96.528L424.362 96.792C424.042 97.5013 423.559 98.0827 422.914 98.536C422.268 98.984 421.546 99.208 420.746 99.208ZM417.898 94.52H423.586C423.548 94.024 423.396 93.5707 423.13 93.16C422.868 92.744 422.53 92.4133 422.114 92.168C421.698 91.9173 421.242 91.792 420.746 91.792C420.25 91.792 419.796 91.9147 419.386 92.16C418.975 92.4 418.639 92.728 418.378 93.144C418.116 93.5547 417.956 94.0133 417.898 94.52ZM432.583 91H433.703V99H432.583L432.543 97.512C432.282 98.0187 431.916 98.4293 431.447 98.744C430.978 99.0533 430.418 99.208 429.767 99.208C429.18 99.208 428.631 99.0987 428.119 98.88C427.607 98.656 427.156 98.3493 426.767 97.96C426.378 97.5707 426.074 97.12 425.855 96.608C425.636 96.096 425.527 95.5467 425.527 94.96C425.527 94.384 425.634 93.8427 425.847 93.336C426.066 92.8293 426.364 92.384 426.743 92C427.127 91.616 427.57 91.3173 428.071 91.104C428.578 90.8853 429.119 90.776 429.695 90.776C430.362 90.776 430.943 90.936 431.439 91.256C431.935 91.5707 432.33 91.984 432.623 92.496L432.583 91ZM429.743 98.12C430.314 98.12 430.804 97.9813 431.215 97.704C431.626 97.4213 431.94 97.0427 432.159 96.568C432.383 96.0933 432.495 95.5707 432.495 95C432.495 94.4133 432.383 93.8853 432.159 93.416C431.935 92.9413 431.618 92.5653 431.207 92.288C430.796 92.0107 430.308 91.872 429.743 91.872C429.178 91.872 428.66 92.0133 428.191 92.296C427.727 92.5733 427.356 92.9493 427.079 93.424C426.807 93.8987 426.671 94.424 426.671 95C426.671 95.5813 426.812 96.1093 427.095 96.584C427.378 97.0533 427.751 97.4267 428.215 97.704C428.684 97.9813 429.194 98.12 429.743 98.12ZM435.413 99V87H436.533V99H435.413ZM445.824 99.208C445.088 99.208 444.416 99.0187 443.808 98.64C443.205 98.2613 442.722 97.7547 442.36 97.12C442.002 96.48 441.824 95.7733 441.824 95C441.824 94.4133 441.928 93.8667 442.136 93.36C442.344 92.848 442.629 92.4 442.992 92.016C443.36 91.6267 443.786 91.3227 444.272 91.104C444.757 90.8853 445.274 90.776 445.824 90.776C446.416 90.776 446.96 90.8933 447.456 91.128C447.957 91.3627 448.386 91.6907 448.744 92.112C449.106 92.5333 449.378 93.0267 449.56 93.592C449.746 94.1573 449.824 94.768 449.792 95.424H443.008C443.072 95.9307 443.232 96.384 443.488 96.784C443.749 97.184 444.08 97.5013 444.48 97.736C444.885 97.9653 445.333 98.0827 445.824 98.088C446.357 98.088 446.837 97.9493 447.264 97.672C447.696 97.3947 448.042 97.0133 448.304 96.528L449.44 96.792C449.12 97.5013 448.637 98.0827 447.992 98.536C447.346 98.984 446.624 99.208 445.824 99.208ZM442.976 94.52H448.664C448.626 94.024 448.474 93.5707 448.208 93.16C447.946 92.744 447.608 92.4133 447.192 92.168C446.776 91.9173 446.32 91.792 445.824 91.792C445.328 91.792 444.874 91.9147 444.464 92.16C444.053 92.4 443.717 92.728 443.456 93.144C443.194 93.5547 443.034 94.0133 442.976 94.52ZM453.651 99.152C453.213 99.1413 452.787 99.0613 452.371 98.912C451.955 98.7627 451.592 98.56 451.283 98.304C450.973 98.048 450.752 97.7573 450.619 97.432L451.587 97.016C451.672 97.224 451.829 97.416 452.059 97.592C452.293 97.7627 452.56 97.9013 452.859 98.008C453.157 98.1093 453.453 98.16 453.747 98.16C454.072 98.16 454.376 98.1067 454.659 98C454.941 97.8933 455.171 97.7413 455.347 97.544C455.528 97.3413 455.619 97.104 455.619 96.832C455.619 96.5387 455.523 96.3093 455.331 96.144C455.139 95.9733 454.896 95.84 454.603 95.744C454.309 95.6427 454.008 95.5467 453.699 95.456C453.133 95.3013 452.635 95.1307 452.203 94.944C451.771 94.7573 451.432 94.52 451.187 94.232C450.947 93.9387 450.827 93.5627 450.827 93.104C450.827 92.6187 450.963 92.2 451.235 91.848C451.512 91.4907 451.872 91.216 452.315 91.024C452.763 90.8267 453.24 90.728 453.747 90.728C454.397 90.728 454.989 90.8693 455.523 91.152C456.061 91.4347 456.451 91.8107 456.691 92.28L455.787 92.816C455.691 92.5973 455.539 92.408 455.331 92.248C455.123 92.088 454.885 91.9627 454.619 91.872C454.357 91.7813 454.091 91.7333 453.819 91.728C453.477 91.7227 453.16 91.7733 452.867 91.88C452.573 91.9813 452.336 92.1333 452.155 92.336C451.979 92.5387 451.891 92.7867 451.891 93.08C451.891 93.3733 451.979 93.5973 452.155 93.752C452.331 93.9013 452.568 94.024 452.867 94.12C453.171 94.2107 453.512 94.3173 453.891 94.44C454.376 94.5947 454.832 94.7707 455.259 94.968C455.685 95.1653 456.029 95.4107 456.291 95.704C456.552 95.9973 456.68 96.368 456.675 96.816C456.675 97.296 456.531 97.7147 456.243 98.072C455.955 98.4293 455.581 98.704 455.123 98.896C454.664 99.0827 454.173 99.168 453.651 99.152ZM462.142 92.12H460.23L460.222 99H459.102L459.11 92.12H457.662V91H459.11L459.102 88.488H460.222L460.23 91H462.142V92.12ZM469.927 91H471.047V99H469.927L469.887 97.512C469.625 98.0187 469.26 98.4293 468.791 98.744C468.321 99.0533 467.761 99.208 467.111 99.208C466.524 99.208 465.975 99.0987 465.463 98.88C464.951 98.656 464.5 98.3493 464.111 97.96C463.721 97.5707 463.417 97.12 463.199 96.608C462.98 96.096 462.871 95.5467 462.871 94.96C462.871 94.384 462.977 93.8427 463.191 93.336C463.409 92.8293 463.708 92.384 464.087 92C464.471 91.616 464.913 91.3173 465.415 91.104C465.921 90.8853 466.463 90.776 467.039 90.776C467.705 90.776 468.287 90.936 468.783 91.256C469.279 91.5707 469.673 91.984 469.967 92.496L469.927 91ZM467.087 98.12C467.657 98.12 468.148 97.9813 468.559 97.704C468.969 97.4213 469.284 97.0427 469.503 96.568C469.727 96.0933 469.839 95.5707 469.839 95C469.839 94.4133 469.727 93.8853 469.503 93.416C469.279 92.9413 468.961 92.5653 468.551 92.288C468.14 92.0107 467.652 91.872 467.087 91.872C466.521 91.872 466.004 92.0133 465.535 92.296C465.071 92.5733 464.7 92.9493 464.423 93.424C464.151 93.8987 464.015 94.424 464.015 95C464.015 95.5813 464.156 96.1093 464.439 96.584C464.721 97.0533 465.095 97.4267 465.559 97.704C466.028 97.9813 466.537 98.12 467.087 98.12ZM476.736 92.12H474.824L474.816 99H473.696L473.704 92.12H472.256V91H473.704L473.696 88.488H474.816L474.824 91H476.736V92.12ZM481.464 99.208C480.728 99.208 480.056 99.0187 479.448 98.64C478.846 98.2613 478.363 97.7547 478 97.12C477.643 96.48 477.464 95.7733 477.464 95C477.464 94.4133 477.568 93.8667 477.776 93.36C477.984 92.848 478.27 92.4 478.632 92.016C479 91.6267 479.427 91.3227 479.912 91.104C480.398 90.8853 480.915 90.776 481.464 90.776C482.056 90.776 482.6 90.8933 483.096 91.128C483.598 91.3627 484.027 91.6907 484.384 92.112C484.747 92.5333 485.019 93.0267 485.2 93.592C485.387 94.1573 485.464 94.768 485.432 95.424H478.648C478.712 95.9307 478.872 96.384 479.128 96.784C479.39 97.184 479.72 97.5013 480.12 97.736C480.526 97.9653 480.974 98.0827 481.464 98.088C481.998 98.088 482.478 97.9493 482.904 97.672C483.336 97.3947 483.683 97.0133 483.944 96.528L485.08 96.792C484.76 97.5013 484.278 98.0827 483.632 98.536C482.987 98.984 482.264 99.208 481.464 99.208ZM478.616 94.52H484.304C484.267 94.024 484.115 93.5707 483.848 93.16C483.587 92.744 483.248 92.4133 482.832 92.168C482.416 91.9173 481.96 91.792 481.464 91.792C480.968 91.792 480.515 91.9147 480.104 92.16C479.694 92.4 479.358 92.728 479.096 93.144C478.835 93.5547 478.675 94.0133 478.616 94.52Z" fill="black"/>
</svg>
