<svg width="532" height="53" viewBox="0 0 532 53" fill="none" xmlns="http://www.w3.org/2000/svg">
<path d="M0.584 40V0.799997H7.752V16.2H25.336V0.799997H32.504V40H25.336V22.304H7.752V40H0.584ZM51.3533 40.672C48.5533 40.672 46.0519 40.0747 43.8493 38.88C41.6839 37.648 39.9853 35.9307 38.7533 33.728C37.5213 31.5253 36.9053 28.9867 36.9053 26.112C36.9053 23.088 37.5586 20.4933 38.8653 18.328C40.2093 16.1253 41.9826 14.4453 44.1853 13.288C46.4253 12.1307 48.8893 11.552 51.5773 11.552C54.3773 11.552 56.8786 12.168 59.0813 13.4C61.2839 14.5947 63.0199 16.2747 64.2893 18.44C65.5959 20.6053 66.2493 23.1627 66.2493 26.112C66.2493 28.912 65.6146 31.4133 64.3453 33.616C63.0759 35.8187 61.3213 37.5547 59.0813 38.824C56.8786 40.056 54.3026 40.672 51.3533 40.672ZM51.4653 34.456C52.9586 34.456 54.2466 34.0827 55.3293 33.336C56.4493 32.552 57.3266 31.5253 57.9613 30.256C58.5959 28.9493 58.9133 27.5307 58.9133 26C58.9133 24.2453 58.5586 22.752 57.8493 21.52C57.1773 20.288 56.2813 19.3547 55.1613 18.72C54.0413 18.0853 52.8093 17.768 51.4653 17.768C50.0093 17.768 48.7213 18.1227 47.6013 18.832C46.5186 19.5413 45.6599 20.5307 45.0253 21.8C44.4279 23.032 44.1293 24.4693 44.1293 26.112C44.1293 27.7547 44.4466 29.2107 45.0813 30.48C45.7533 31.7493 46.6493 32.7387 47.7693 33.448C48.8893 34.12 50.1213 34.456 51.4653 34.456ZM75.0106 40L66.7226 12.224H73.9466L78.9306 33.336L84.3066 12.224H91.8666L97.1306 33.28L102.115 12.224H108.947L100.715 39.944H93.0426L87.8906 20.568L82.7386 40H75.0106ZM135.155 40L121.547 0.799997H128.883L139.467 33.224L143.667 20.12L136.891 0.799997H144.115L148.483 14.52L152.795 0.799997H160.075L153.243 20.12L157.443 33.224L168.027 0.799997H175.363L161.755 40H153.243L148.483 25.776L143.667 40H135.155ZM186.589 40.672C183.677 40.672 181.157 40.0373 179.029 38.768C176.938 37.4987 175.314 35.7627 174.157 33.56C173 31.3573 172.421 28.8747 172.421 26.112C172.421 23.1627 173.018 20.6053 174.213 18.44C175.408 16.2747 177.069 14.5947 179.197 13.4C181.325 12.168 183.789 11.552 186.589 11.552C189.352 11.552 191.76 12.1493 193.813 13.344C195.904 14.5387 197.528 16.1813 198.685 18.272C199.88 20.3627 200.477 22.7707 200.477 25.496C200.477 25.9813 200.458 26.4667 200.421 26.952C200.384 27.4 200.328 27.8293 200.253 28.24H179.645C179.757 29.5467 180.093 30.704 180.653 31.712C181.25 32.6827 182.034 33.448 183.005 34.008C184.013 34.5307 185.152 34.792 186.421 34.792C187.728 34.792 188.848 34.512 189.781 33.952C190.752 33.392 191.517 32.5333 192.077 31.376H199.749C199.226 33.0187 198.386 34.5493 197.229 35.968C196.072 37.3867 194.597 38.5253 192.805 39.384C191.05 40.2427 188.978 40.672 186.589 40.672ZM179.701 23.48H193.085C193.048 21.6133 192.357 20.1387 191.013 19.056C189.706 17.9733 188.157 17.432 186.365 17.432C184.834 17.432 183.416 17.9173 182.109 18.888C180.802 19.8213 180 21.352 179.701 23.48ZM218.24 40V0.799997H226.752L237.896 26.112L248.872 0.799997H257.384V40H250.216V13.568L240.64 35.016H234.984L225.408 13.568V40H218.24ZM271.462 40.672C269.819 40.672 268.288 40.336 266.87 39.664C265.451 38.992 264.294 38.04 263.398 36.808C262.539 35.5387 262.11 34.0453 262.11 32.328C262.11 30.2747 262.614 28.5947 263.622 27.288C264.63 25.9813 266.011 25.0107 267.766 24.376C269.558 23.7413 271.555 23.424 273.758 23.424H280.366C280.366 22.1547 280.16 21.0907 279.75 20.232C279.376 19.3733 278.798 18.72 278.014 18.272C277.267 17.7867 276.334 17.544 275.214 17.544C273.907 17.544 272.731 17.8427 271.686 18.44C270.678 19 270.062 19.952 269.838 21.296H262.67C262.856 19.28 263.547 17.544 264.742 16.088C265.936 14.632 267.467 13.512 269.334 12.728C271.2 11.944 273.198 11.552 275.326 11.552C277.939 11.552 280.142 12.0373 281.934 13.008C283.763 13.9787 285.163 15.36 286.134 17.152C287.104 18.9067 287.59 20.9973 287.59 23.424V31.88C287.664 32.7013 287.963 33.2613 288.486 33.56C289.008 33.8587 289.699 34.008 290.558 34.008V40C288.803 40 287.328 39.832 286.134 39.496C284.976 39.16 284.024 38.6747 283.278 38.04C282.531 37.368 281.896 36.528 281.374 35.52C280.515 36.976 279.171 38.208 277.342 39.216C275.55 40.1867 273.59 40.672 271.462 40.672ZM273.534 34.904C274.766 34.904 275.886 34.624 276.894 34.064C277.939 33.504 278.779 32.72 279.414 31.712C280.048 30.704 280.366 29.5467 280.366 28.24V28.016H274.206C273.384 28.016 272.6 28.1467 271.854 28.408C271.107 28.632 270.51 29.0053 270.062 29.528C269.614 30.0133 269.39 30.6853 269.39 31.544C269.39 32.7013 269.782 33.56 270.566 34.12C271.387 34.6427 272.376 34.904 273.534 34.904ZM294.012 40V0.799997H301.18V23.984L310.42 12.224H319.66L307.452 26.168L319.828 40H310.588L301.18 28.184V40H294.012ZM334.3 40.672C331.388 40.672 328.868 40.0373 326.74 38.768C324.649 37.4987 323.025 35.7627 321.868 33.56C320.71 31.3573 320.132 28.8747 320.132 26.112C320.132 23.1627 320.729 20.6053 321.924 18.44C323.118 16.2747 324.78 14.5947 326.908 13.4C329.036 12.168 331.5 11.552 334.3 11.552C337.062 11.552 339.47 12.1493 341.524 13.344C343.614 14.5387 345.238 16.1813 346.396 18.272C347.59 20.3627 348.188 22.7707 348.188 25.496C348.188 25.9813 348.169 26.4667 348.132 26.952C348.094 27.4 348.038 27.8293 347.964 28.24H327.356C327.468 29.5467 327.804 30.704 328.364 31.712C328.961 32.6827 329.745 33.448 330.716 34.008C331.724 34.5307 332.862 34.792 334.132 34.792C335.438 34.792 336.558 34.512 337.492 33.952C338.462 33.392 339.228 32.5333 339.788 31.376H347.46C346.937 33.0187 346.097 34.5493 344.94 35.968C343.782 37.3867 342.308 38.5253 340.516 39.384C338.761 40.2427 336.689 40.672 334.3 40.672ZM327.412 23.48H340.796C340.758 21.6133 340.068 20.1387 338.724 19.056C337.417 17.9733 335.868 17.432 334.076 17.432C332.545 17.432 331.126 17.9173 329.82 18.888C328.513 19.8213 327.71 21.352 327.412 23.48ZM365.951 40V0.799997H374.463L385.607 26.112L396.583 0.799997H405.095V40H397.927V13.568L388.351 35.016H382.695L373.119 13.568V40H365.951ZM423.939 40.672C421.139 40.672 418.638 40.0747 416.435 38.88C414.27 37.648 412.571 35.9307 411.339 33.728C410.107 31.5253 409.491 28.9867 409.491 26.112C409.491 23.088 410.145 20.4933 411.451 18.328C412.795 16.1253 414.569 14.4453 416.771 13.288C419.011 12.1307 421.475 11.552 424.163 11.552C426.963 11.552 429.465 12.168 431.667 13.4C433.87 14.5947 435.606 16.2747 436.875 18.44C438.182 20.6053 438.835 23.1627 438.835 26.112C438.835 28.912 438.201 31.4133 436.931 33.616C435.662 35.8187 433.907 37.5547 431.667 38.824C429.465 40.056 426.889 40.672 423.939 40.672ZM424.051 34.456C425.545 34.456 426.833 34.0827 427.915 33.336C429.035 32.552 429.913 31.5253 430.547 30.256C431.182 28.9493 431.499 27.5307 431.499 26C431.499 24.2453 431.145 22.752 430.435 21.52C429.763 20.288 428.867 19.3547 427.747 18.72C426.627 18.0853 425.395 17.768 424.051 17.768C422.595 17.768 421.307 18.1227 420.187 18.832C419.105 19.5413 418.246 20.5307 417.611 21.8C417.014 23.032 416.715 24.4693 416.715 26.112C416.715 27.7547 417.033 29.2107 417.667 30.48C418.339 31.7493 419.235 32.7387 420.355 33.448C421.475 34.12 422.707 34.456 424.051 34.456ZM442.981 40V12.224H450.093V15.472C451.064 14.1653 452.352 13.1947 453.957 12.56C455.6 11.888 457.242 11.552 458.885 11.552C462.096 11.552 464.728 12.5973 466.781 14.688C468.834 16.7413 469.861 19.728 469.861 23.648V40H462.749V24.6C462.749 22.5093 462.208 20.8293 461.125 19.56C460.08 18.2533 458.53 17.6 456.477 17.6C454.424 17.6 452.837 18.2533 451.717 19.56C450.634 20.8293 450.093 22.5093 450.093 24.6V40H442.981ZM487.698 40.672C484.786 40.672 482.266 40.0373 480.138 38.768C478.048 37.4987 476.424 35.7627 475.266 33.56C474.109 31.3573 473.53 28.8747 473.53 26.112C473.53 23.1627 474.128 20.6053 475.322 18.44C476.517 16.2747 478.178 14.5947 480.306 13.4C482.434 12.168 484.898 11.552 487.698 11.552C490.461 11.552 492.869 12.1493 494.922 13.344C497.013 14.5387 498.637 16.1813 499.794 18.272C500.989 20.3627 501.586 22.7707 501.586 25.496C501.586 25.9813 501.568 26.4667 501.53 26.952C501.493 27.4 501.437 27.8293 501.362 28.24H480.754C480.866 29.5467 481.202 30.704 481.762 31.712C482.36 32.6827 483.144 33.448 484.114 34.008C485.122 34.5307 486.261 34.792 487.53 34.792C488.837 34.792 489.957 34.512 490.89 33.952C491.861 33.392 492.626 32.5333 493.186 31.376H500.858C500.336 33.0187 499.496 34.5493 498.338 35.968C497.181 37.3867 495.706 38.5253 493.914 39.384C492.16 40.2427 490.088 40.672 487.698 40.672ZM480.81 23.48H494.194C494.157 21.6133 493.466 20.1387 492.122 19.056C490.816 17.9733 489.266 17.432 487.474 17.432C485.944 17.432 484.525 17.9173 483.218 18.888C481.912 19.8213 481.109 21.352 480.81 23.48ZM506.643 52.32L512.747 38.712L501.491 12.224H509.499L516.667 31.152L524.003 12.224H531.563L514.203 52.32H506.643Z" fill="url(#paint0_linear_337_8535)"/>
<defs>
<linearGradient id="paint0_linear_337_8535" x1="1.5169" y1="-3.29688" x2="47.4971" y2="171.564" gradientUnits="userSpaceOnUse">
<stop stop-color="#FF6F2D"/>
<stop offset="1" stop-color="#1001A0"/>
</linearGradient>
</defs>
</svg>
