<svg width="1440" height="520" viewBox="0 0 1440 520" fill="none" xmlns="http://www.w3.org/2000/svg">
<path d="M19.7023 48.5613C70.887 74.1228 116.235 109.912 152.92 153.696C206.986 219.03 204.045 259.056 255.974 296.379C306.446 332.626 375.719 342.614 431.922 328.921C508.61 310.222 512.078 259.332 610.383 178.728C668.194 131.368 776.603 42.4534 904.466 51.0645C969.064 55.4201 1033.28 84.3072 1092.98 111.142C1166.15 144.034 1176.66 160.931 1216.14 168.715C1263.05 177.977 1335.56 171.394 1439.85 88.6127" stroke="#F2F2F2" stroke-miterlimit="10"/>
<path d="M18.2705 57.9229C64.3928 80.3789 105.972 111.096 140.931 148.539C144.274 152.169 147.617 155.899 150.985 159.729C205.604 223.01 203.443 261.234 254.719 297.631C277.07 313.557 302.377 324.9 329.17 330.998C348.36 335.349 368.043 337.167 387.71 336.405C402.417 335.828 417.012 333.602 431.219 329.772C447.05 325.719 462.1 319.088 475.759 310.147C500.894 293.625 518.489 271.322 545.56 243.336C565.951 222.274 588.136 203.01 611.867 185.762C624.434 176.5 639.113 165.336 656.08 153.896C701.474 123.207 759.562 89.8638 829.262 78.3491C852.913 74.3301 876.944 72.9865 900.898 74.3439C904.568 74.5442 908.212 74.8446 911.807 75.195C947.398 78.6244 981.306 87.7111 1015.94 99.7766C1041.86 108.688 1066.36 119.802 1090.67 130.241C1100.85 134.696 1109.95 138.752 1118.17 142.556C1167.81 165.611 1180.7 177.977 1214.61 183.384C1240.38 187.489 1273.71 186.763 1316.01 172.144C1350.69 160.179 1391.77 138.626 1439.85 102.981" stroke="#F2F2F2" stroke-miterlimit="10"/>
<path d="M16.9384 67.3352C62.583 88.9427 103.906 118.629 138.895 154.948C142.246 158.452 145.598 162.04 148.949 165.711C204.247 226.965 202.915 263.337 253.487 298.882C275.891 315.017 301.28 326.579 328.189 332.901C347.493 337.28 367.305 339.032 387.081 338.108C401.811 337.36 416.395 334.838 430.515 330.598C446.268 326.064 461.236 319.168 474.904 310.147C501.045 293.125 519.595 271.547 546.364 245.414C566.851 225.579 589.293 207.85 613.35 192.496C625.917 184.285 640.27 174.222 657.06 164.26C701.801 137.701 756.345 109.84 825.341 100.753C849.178 97.4823 873.268 96.4097 897.304 97.549C901.024 97.7492 904.693 97.9996 908.313 98.325C944.508 101.479 977.561 109.264 1012.9 120.003C1039.52 128.113 1063.8 139.027 1088.31 149.315C1098.49 153.571 1107.69 157.451 1116.11 161.081C1165.9 182.633 1179.25 193.998 1213.03 198.003C1238.77 201.057 1271.85 199.38 1314.37 184.586C1349.11 172.47 1390.71 151.318 1439.85 117.399" stroke="#F2F2F2" stroke-miterlimit="10"/>
<path d="M15.3546 76.5969C60.626 97.3862 101.781 126.103 136.859 161.381C140.202 164.785 143.57 168.24 146.913 171.769C202.94 230.97 202.311 265.539 252.205 300.134C275.832 316.505 299.107 328.295 327.133 334.828C346.567 339.244 366.525 340.929 386.428 339.835C401.185 338.911 415.759 336.084 429.786 331.424C445.468 326.412 460.374 319.25 474.075 310.147C501.17 292.624 520.65 271.822 547.143 247.566C567.744 228.947 590.462 212.792 614.832 199.43C627.526 192.27 641.451 183.309 658.04 174.823C702.354 152.144 753.127 129.94 821.42 123.232C845.445 120.719 869.62 119.924 893.759 120.854C897.505 121.029 901.3 121.254 904.819 121.555C940.332 124.451 975.483 130.747 1009.78 140.354C1037.11 147.638 1061.19 158.452 1085.99 168.465C1096.17 172.57 1105.45 176.25 1114.1 179.704C1164.01 199.73 1177.84 210.043 1211.47 212.722C1237.21 214.774 1270.11 212.071 1312.79 197.102C1347.6 184.986 1389.65 163.984 1439.85 131.668" stroke="#F2F2F2" stroke-miterlimit="10"/>
<path d="M13.8965 85.9341C58.7304 105.915 99.668 133.626 134.823 167.789C138.166 171.093 141.559 174.398 144.877 177.802C201.507 235.05 201.758 267.592 250.948 301.411C275.103 317.957 297.599 330.072 326.128 336.756C345.673 341.215 365.764 342.825 385.774 341.537C400.598 340.466 415.2 337.341 429.157 332.25C444.734 326.8 459.563 319.425 473.295 310.297C501.346 292.249 521.882 272.298 547.997 249.694C566.422 233.774 588.214 219.856 616.391 206.339C629.185 200.181 642.808 192.296 659.121 185.312C703.258 166.412 750.01 150.016 817.473 145.686C841.652 143.91 865.906 143.383 890.14 144.109C893.935 144.259 897.68 144.459 901.274 144.71C936.853 147.033 972.169 152.359 1006.84 160.63C1034.92 167.088 1058.65 177.827 1083.71 187.489C1093.76 191.444 1103.29 194.999 1112.13 198.228C1162.15 216.852 1176.46 225.989 1209.99 227.316C1235.73 228.342 1268.4 224.662 1311.26 209.543C1346.07 197.252 1388.62 176.625 1439.85 145.961" stroke="#F2F2F2" stroke-miterlimit="10"/>
<path d="M12.4641 95.2708C56.8502 114.457 97.5606 141.161 132.787 174.197C136.13 177.376 139.523 180.53 142.841 183.784C200.15 238.855 201.18 269.77 249.641 302.637C274.324 319.383 296.041 331.824 325.047 338.658C344.722 343.155 364.963 344.691 385.096 343.214C399.923 341.988 414.486 338.572 428.303 333.076C443.787 327.166 458.551 319.532 472.315 310.322C501.346 291.798 522.963 272.774 548.651 251.822C567.628 236.402 589.898 224.286 617.748 213.222C630.693 208.066 644.015 201.307 659.976 195.7C704.289 180.43 746.743 169.992 813.502 167.989C836.702 167.288 862.365 166.412 886.52 167.238C890.366 167.363 894.061 167.538 897.731 167.739C933.319 169.487 968.729 173.837 1003.68 180.755C1032.46 186.388 1056.01 197.051 1081.34 206.514C1091.52 210.318 1101 213.598 1110.07 216.702C1160.19 234.049 1175.05 242.56 1208.35 242.034C1234.09 241.634 1266.57 237.353 1309.57 222.008C1344.41 209.492 1387.49 189.291 1439.75 160.304" stroke="#F2F2F2" stroke-miterlimit="10"/>
<path d="M11.006 104.583C54.9525 122.994 95.4424 148.7 130.751 180.605C134.094 183.659 137.512 186.688 140.805 189.792C198.817 242.86 200.627 271.872 248.359 303.889C273.494 320.785 294.482 333.577 324.016 340.586C343.784 345.093 364.129 346.554 384.341 344.916C399.218 343.52 413.781 339.803 427.499 333.902C442.856 327.506 457.547 319.624 471.36 310.372C501.346 291.322 524.144 273.124 549.279 253.924C568.835 238.905 591.607 228.742 619.08 220.106C632.226 215.951 646.528 213.548 660.805 206.313C707.129 204.386 743.575 186.288 809.405 190.543C832.655 192.07 858.72 189.942 882.775 190.543C886.671 190.668 890.441 190.793 894.061 190.969C932.819 192.796 962.479 194.924 1000.48 200.981C1029.97 205.763 1053.27 216.376 1078.88 225.538C1088.93 229.193 1098.61 232.297 1107.91 235.225C1158.06 251.046 1173.44 257.754 1206.69 256.503C1232.46 255.476 1264.73 249.819 1307.89 234.349C1342.78 221.833 1386.31 201.808 1439.65 174.497" stroke="#F2F2F2" stroke-miterlimit="10"/>
<path d="M9.54846 113.92C53.0504 131.555 93.3179 156.245 128.715 186.989C132.083 189.943 135.502 192.821 138.769 195.775C197.611 246.791 200.175 273.951 247.178 305.141C272.942 322.212 293.05 335.329 323.062 342.514C343 347.077 363.541 348.455 383.914 346.594C400.478 345.217 414.077 340.261 426.996 334.704C442.24 327.834 456.878 319.703 470.757 310.397C501.698 290.847 525.778 273.6 550.335 256.028C570.444 241.584 593.819 233.248 620.714 226.965C634.137 223.836 648.112 223.11 661.961 216.802C708.286 220.357 740.459 210.419 805.635 212.947C829.011 213.873 855.378 213.323 879.357 213.848C883.278 213.848 887.099 214.024 890.693 214.149C930.105 215.626 958.91 216.377 997.594 221.408C1027.76 225.363 1050.83 235.902 1076.72 244.788C1086.77 248.293 1096.53 251.196 1106.05 253.95C1156.32 268.418 1172.18 273.976 1205.31 271.297C1231.08 269.27 1263.12 262.636 1306.46 246.991C1341.37 234.475 1385.41 214.649 1439.8 189.017" stroke="#F2F2F2" stroke-miterlimit="10"/>
<path d="M8.11511 123.232C51.1523 140.117 91.1842 163.782 126.679 193.322C130.047 196.176 133.49 198.929 136.883 201.708C196.329 250.67 199.722 275.953 245.921 306.292C272.212 323.539 291.541 337.006 322.056 344.316C342.09 348.93 362.748 350.249 383.21 348.221C400 346.694 413.372 341.337 426.216 335.454C442.077 328.195 455.122 319.684 469.826 310.422C501.748 290.396 530.629 278.356 551.064 258.13C574.213 248.292 595.855 229.518 622.222 233.849C635.946 236.102 649.619 232.647 662.991 227.29C709.341 236.302 737.417 230.62 801.764 235.376C825.24 237.103 852.034 236.703 875.812 237.078C879.809 237.078 883.629 237.078 887.249 237.303C927.264 238.43 955.24 237.729 994.577 241.684C1025.52 244.763 1048.29 255.251 1074.43 263.862C1084.49 267.217 1094.34 269.945 1104.07 272.498C1154.34 285.64 1170.83 289.871 1203.83 285.941C1229.62 282.862 1261.46 275.252 1304.92 259.432C1339.89 246.765 1384.3 227.29 1439.85 203.335" stroke="#F2F2F2" stroke-miterlimit="10"/>
<path d="M6.65771 132.544C49.2552 148.715 89.0614 171.399 124.643 199.78C128.011 202.509 131.455 205.012 134.873 207.74C195.198 254.651 199.144 278.056 244.664 307.569C271.509 324.966 290.034 338.784 321.025 346.268C341.186 350.904 361.984 352.148 382.557 349.948C399.573 348.271 412.719 342.438 425.513 336.305C441.072 328.796 453.966 319.884 468.972 310.447C501.849 289.871 532.238 279.257 551.919 260.208C575.873 251.447 598.871 233.874 623.781 240.708C637.404 244.438 651.153 242.21 663.997 237.779C710.372 252.248 734.376 250.871 797.868 257.805C821.445 260.308 848.44 260.108 872.269 260.308H883.755C924.424 261.059 951.621 258.981 991.561 261.81C1023.23 264.038 1045.73 274.501 1072.14 282.812C1082.2 286.016 1092.13 288.544 1102.08 290.897C1152.35 302.762 1169.44 305.691 1202.32 300.459C1228.11 296.329 1259.76 287.743 1303.36 271.773C1338.35 258.981 1383.37 239.832 1439.87 217.528" stroke="#F2F2F2" stroke-miterlimit="10"/>
<path d="M5.2002 141.831C47.3068 157.314 86.8475 178.991 122.507 206.139C125.9 208.642 129.344 211.145 132.762 213.648C193.74 258.481 198.541 280.008 243.358 308.77C270.755 326.293 288.601 340.486 319.97 348.121C340.243 352.816 361.178 353.993 381.853 351.6C399.121 349.773 412.016 343.615 424.734 337.082C439.991 329.172 452.76 320.035 468.067 310.447C501.925 289.37 533.796 280.134 552.573 262.286C577.356 254.576 600.33 251.822 625.138 247.542C639.365 250.245 652.486 251.722 664.902 248.243C711.277 268.268 731.159 271.122 793.847 280.159C817.524 283.588 844.871 283.763 868.599 283.488C872.671 283.488 876.567 283.488 880.161 283.488C921.484 282.962 947.776 280.359 988.419 282.111C1020.84 283.488 1043.04 293.901 1069.76 301.937C1079.81 304.965 1089.87 307.344 1099.92 309.446C1150.19 320.035 1167.79 321.612 1200.61 315.078C1226.43 309.922 1257.84 300.36 1301.66 284.214C1336.67 271.322 1382.09 252.473 1439.72 231.822" stroke="#F2F2F2" stroke-miterlimit="10"/>
<path d="M3.76721 151.143C45.4585 165.93 84.8027 186.601 120.596 212.522C123.964 215.025 127.433 217.353 130.851 219.706C192.634 262.436 198.139 282.111 242.151 309.997C270.101 327.719 287.017 342.238 318.99 350.048C339.437 354.799 360.569 355.892 381.401 353.277C398.995 351.3 411.689 344.766 424.131 337.908C439.212 329.672 451.78 320.235 467.338 310.372C502.126 288.794 535.53 280.934 553.452 264.288C579.04 257.655 602.365 256.778 626.722 254.275C641.124 258.28 654.044 261.134 666.008 258.581C712.383 283.988 728.168 291.298 790.026 302.437C813.804 306.717 841.478 307.018 865.13 306.592C869.252 306.592 873.148 306.592 876.768 306.592C918.694 305.666 944.181 301.586 985.478 302.312C1018.61 302.838 1040.55 313.226 1067.55 320.961C1077.6 323.865 1087.65 325.967 1098.08 327.995C1148.36 337.357 1166.65 337.557 1199.25 329.722C1225.07 323.514 1256.29 313.001 1300.25 296.68C1335.29 283.688 1381.31 265.139 1439.9 246.165" stroke="#F2F2F2" stroke-miterlimit="10"/>
<path d="M2.30969 160.429C43.5532 174.558 82.6652 194.231 118.561 218.904C121.954 221.408 125.423 223.46 128.841 225.688C191.453 266.29 197.662 284.113 240.894 311.223C269.398 329.071 285.51 343.94 317.984 351.925C338.507 356.706 359.731 357.732 380.622 354.954C398.216 352.801 410.985 345.892 423.352 338.683C438.031 330.122 450.498 320.385 466.434 310.497C502.201 288.394 537.089 281.935 554.181 266.466C580.598 260.883 604.175 261.734 628.155 261.284C642.708 266.566 655.451 270.821 666.938 269.194C713.338 300.084 725.001 311.749 786.055 324.991C809.933 330.147 837.934 330.197 861.461 329.997C865.633 329.997 869.554 329.997 873.174 329.997C915.753 328.67 940.411 324.265 982.362 322.838C1016.19 321.686 1037.89 332.851 1065.16 340.36C1075.31 343.087 1085.61 345.26 1096 346.869C1146.27 355.029 1165.17 353.828 1197.65 344.691C1223.48 337.432 1254.48 325.967 1298.59 309.471C1333.78 296.379 1380.18 278.105 1439.82 260.808" stroke="#F2F2F2" stroke-miterlimit="10"/>
<path d="M0.851562 164.36C41.6526 177.886 80.5311 196.597 116.524 220.031C119.918 222.284 123.411 224.337 126.855 226.414C190.271 264.889 197.234 280.859 239.637 307.168C268.694 325.191 284.001 340.411 316.954 348.546C337.6 353.374 358.969 354.333 379.968 351.375C397.914 349.047 410.407 341.787 422.698 334.228C437 325.166 449.266 315.153 465.579 305.14C502.302 282.611 538.723 277.43 554.96 263.186C582.182 258.656 606.035 261.309 629.637 262.761C644.341 269.344 656.884 274.977 667.918 274.301C714.343 310.647 721.909 326.868 782.108 341.887C806.112 347.92 834.44 348.045 857.916 347.67L869.68 347.445C912.912 346.694 936.716 338.934 979.32 337.432C1013.93 336.18 1035.3 346.568 1062.84 353.703C1073.11 356.289 1083.52 358.286 1094.01 359.685C1144.16 366.644 1163.79 363.991 1196.11 353.577C1221.98 345.267 1252.77 332.851 1297.03 316.179C1332.22 302.988 1379.15 285.014 1439.85 269.394" stroke="#F2F2F2" stroke-miterlimit="10"/>
<path d="M-0.656738 165.937C39.6874 178.776 78.3244 196.426 114.413 218.504C117.831 220.657 121.325 222.559 124.769 224.487C189.115 260.884 196.681 275.102 238.38 300.535C268.015 318.683 282.493 334.278 315.948 342.588C336.727 347.424 358.241 348.274 379.339 345.092C397.487 342.588 409.829 335.079 421.944 327.069C435.994 317.882 448.185 307.518 464.674 297.33C502.377 274.226 540.281 270.496 555.689 257.454C583.74 253.975 608.75 254.525 631.095 261.81C647.106 267.042 658.317 276.829 668.798 276.829C715.223 318.633 718.667 339.409 778.061 356.456C802.141 363.415 830.846 363.59 854.196 363.065C858.469 363.065 862.441 362.865 866.035 362.764C909.921 361.613 932.87 352.426 976.153 349.823C1011.47 347.695 1032.58 358.083 1060.41 364.842C1070.77 367.319 1081.28 369.142 1091.88 370.299C1142 376.106 1162.26 371.976 1194.45 360.286C1220.32 350.899 1250.91 337.532 1295.32 320.71C1330.51 307.418 1377.97 289.746 1439.72 275.653" stroke="#F2F2F2" stroke-miterlimit="10"/>
<path d="M-2.03967 167.464C37.8639 179.694 76.267 196.336 112.452 217.077C115.895 219.105 119.414 220.857 122.833 222.659C187.984 256.803 196.228 269.119 237.123 293.901C267.286 312.174 280.959 328.145 315.043 336.606C335.93 341.585 357.595 342.436 378.811 339.109C397.21 336.43 409.376 328.47 421.34 320.235C435.114 310.748 447.154 300.034 464.07 289.696C502.703 266.09 542.115 263.762 556.719 251.897C585.549 249.394 611.062 252.172 632.779 261.034C649.091 267.692 659.975 278.556 670.079 279.783C716.504 327.068 715.826 352.376 774.441 371.35C798.621 379.235 827.602 379.436 850.928 378.86L862.842 378.459C907.357 376.932 929.476 366.294 973.438 362.639C1009.51 359.61 1030.32 370.149 1058.45 376.532C1068.91 378.922 1079.52 380.594 1090.22 381.538C1140.29 386.219 1161.2 380.587 1193.27 367.621C1219.14 357.182 1249.5 342.864 1294.09 325.867C1341.29 307.165 1390.07 292.689 1439.85 282.611" stroke="#F2F2F2" stroke-miterlimit="10"/>
<path d="M-3.49683 167.965C35.9745 179.646 74.1439 195.314 110.417 214.725C113.885 216.627 117.404 218.254 120.823 219.906C186.853 251.872 195.751 262.461 235.867 286.392C266.633 304.79 279.452 321.136 313.912 329.772C334.932 334.774 356.748 335.506 378.058 331.925C396.658 329.071 408.672 320.761 420.511 312.175C433.984 302.387 445.873 291.348 463.04 280.86C502.654 256.754 543.473 255.827 557.323 245.139C586.983 243.787 612.897 248.643 634.086 259.031C650.676 267.167 661.258 279.282 670.884 281.41C717.335 334.153 712.509 364.016 770.32 384.918C794.601 393.729 823.933 393.93 847.158 393.154C851.507 393.003 855.554 392.803 859.148 392.653C904.392 390.726 925.581 378.685 970.171 373.954C1006.94 370.049 1027.5 380.487 1055.91 386.67C1066.48 388.918 1077.2 390.391 1087.98 391.076C1138.02 394.656 1159.57 387.471 1191.51 373.253C1217.38 361.738 1247.54 346.494 1292.28 329.297C1339.9 310.494 1389.36 296.693 1439.85 288.119" stroke="#F2F2F2" stroke-miterlimit="10"/>
<path d="M-4.9552 166.538C34.0914 177.66 72.0293 192.333 108.38 210.369C111.849 212.146 115.393 213.648 118.811 215.175C185.747 244.888 195.399 253.599 234.61 276.879C265.953 295.403 277.943 312.149 312.906 320.911C334.042 325.97 355.998 326.634 377.404 322.863C396.23 319.809 408.094 311.173 419.782 302.237C432.978 292.224 444.716 280.784 462.185 270.146C502.754 245.539 545.132 245.965 558.102 236.502C588.566 236.202 614.832 243.261 635.569 255.176C652.359 264.839 662.715 278.106 671.889 281.16C718.339 339.384 709.341 373.779 766.398 396.583C790.729 406.345 820.439 406.596 843.589 405.644C847.962 405.469 852.034 405.244 855.629 405.069C901.45 402.766 921.81 389.248 967.054 383.466C1004.56 378.66 1024.86 389.123 1053.49 395.006C1064.18 397.121 1075.01 398.418 1085.89 398.886C1135.91 401.389 1158.06 392.628 1189.88 377.158C1215.74 364.642 1245.73 348.371 1290.62 331.024C1338.58 312.031 1388.66 298.828 1439.77 291.698" stroke="#F2F2F2" stroke-miterlimit="10"/>
<path d="M-6.38733 165.11C32.2315 175.719 69.9304 189.406 106.345 206.038C109.838 207.69 113.383 209.017 116.801 210.419C184.666 237.954 194.721 244.838 233.354 267.367C265.25 285.99 276.436 303.137 311.876 312.074C333.136 317.206 355.246 317.795 376.751 313.801C395.803 310.522 407.516 301.611 419.079 292.299C431.998 281.91 443.56 270.22 461.331 259.431C502.88 234.399 546.791 236.101 558.881 227.841C586.629 228.17 613.718 236.3 637.027 251.296C653.994 262.51 664.173 276.904 672.87 280.909C719.345 344.591 706.149 383.541 762.478 408.247C786.859 418.986 816.946 419.186 839.995 418.135C844.444 417.935 848.516 417.684 852.135 417.459C898.56 414.706 918.166 399.937 964.063 392.978C1002.24 387.295 1022.35 397.759 1051.26 403.341C1061.31 405.269 1071.92 405.569 1083.93 406.67C1133.75 411.251 1156.7 397.784 1188.4 381.037C1214.26 367.37 1244.05 350.248 1289.09 332.725C1337.44 313.544 1388.17 300.915 1439.9 295.177" stroke="#F2F2F2" stroke-miterlimit="10"/>
<path d="M-7.84558 163.684C30.3641 173.793 67.8359 186.489 104.308 201.683C107.827 203.185 111.371 204.411 114.815 205.663C183.535 230.695 194.368 236.077 232.096 257.855C264.596 276.604 274.826 294.126 310.871 303.238C332.289 308.437 354.586 308.95 376.222 304.74C395.476 301.236 407.038 292.024 418.475 282.361C431.043 271.673 442.504 259.657 460.577 248.718C503.106 223.085 548.55 226.189 559.761 219.205C588.249 220.693 615.655 230.563 638.51 247.567C655.577 260.308 665.631 275.853 673.85 280.784C720.35 349.923 702.932 393.429 758.531 420.063C782.988 431.753 813.427 431.928 836.45 430.752C840.925 430.527 845.047 430.226 848.641 430.001C895.72 426.822 914.471 410.526 961.046 402.616C999.981 396.032 1019.71 406.571 1049.02 411.803C1059.96 413.319 1070.98 414.255 1082.02 414.606C1131.92 417.835 1155.37 403.066 1186.96 385.068C1212.8 370.324 1242.41 352.276 1287.5 334.578C1336.22 315.248 1387.56 303.251 1439.82 298.983" stroke="#F2F2F2" stroke-miterlimit="10"/>
<path d="M-9.3031 162.257C28.5147 171.89 65.7713 183.59 102.298 197.302C105.817 198.679 109.361 199.805 112.804 200.881C182.429 223.711 193.916 227.265 230.94 248.442C263.918 267.166 273.319 285.115 309.84 294.376C331.349 299.65 353.766 300.095 375.469 295.678C394.949 291.948 406.385 282.436 417.646 272.423C430.012 261.459 441.248 249.093 459.647 238.004C503.106 211.871 550.134 216.426 560.44 210.469C589.751 213.059 617.54 224.618 639.993 243.561C657.11 257.88 667.064 274.526 674.831 280.383C721.331 355.004 699.689 403.216 754.61 431.603C779.117 444.269 809.908 444.419 832.831 443.117C837.356 442.867 841.503 442.542 845.097 442.266C892.855 438.662 910.726 420.964 957.98 412.002C997.644 404.493 1017.1 415.106 1046.63 420.013C1057.68 421.446 1068.8 422.207 1079.94 422.291C1129.91 424.168 1153.86 408.097 1185.33 388.823C1211.19 373.027 1240.63 354.028 1285.87 336.255C1334.98 316.752 1386.96 305.363 1439.75 302.537" stroke="#F2F2F2" stroke-miterlimit="10"/>
<path d="M-10.7111 160.83C32.3458 171.719 70.9788 182.808 100.287 192.971C103.856 194.223 107.4 195.174 110.818 196.175C181.373 216.601 193.488 218.504 229.608 238.73C263.264 257.654 271.936 276.003 308.86 285.44C330.486 290.777 353.049 291.146 374.84 286.516C394.546 282.536 405.857 272.774 416.967 262.385C429.032 251.121 440.116 238.429 458.817 227.19C503.256 200.556 551.818 206.488 561.244 201.832C591.359 205.553 619.485 218.782 641.501 239.581C658.643 255.476 669.627 272.248 675.861 280.033C733.672 352.451 696.447 412.978 750.714 443.167C775.246 456.835 806.464 456.935 829.287 455.508C833.862 455.233 838.009 454.857 841.628 454.557C889.964 450.527 906.98 431.427 954.938 421.439C995.331 413.004 1014.51 423.667 1044.34 428.223C1055.47 429.866 1066.72 430.461 1077.95 430C1127.94 428.298 1152.45 413.129 1183.82 392.627C1209.66 375.731 1238.87 355.805 1284.36 337.782C1333.89 318.117 1386.52 307.329 1439.82 305.916" stroke="#F2F2F2" stroke-miterlimit="10"/>
<path d="M-12.1932 159.403C31.3412 169.967 69.7228 179.98 98.2263 188.616C101.821 189.717 105.365 190.543 108.783 191.419C180.318 209.443 193.012 209.718 228.327 229.293C262.586 248.317 270.403 267.117 307.805 276.704C329.566 282.112 352.293 282.403 374.187 277.555C394.094 273.3 405.255 263.287 416.214 252.523C428.027 240.958 438.835 227.941 457.938 216.552C503.333 189.392 553.277 196.726 562.024 193.247C596.56 198.253 623.706 216.176 642.959 235.801C660.077 253.324 670.91 271.422 676.817 279.858C732.743 359.635 693.155 422.917 746.743 454.933C771.301 469.576 802.946 469.626 825.668 468.074C830.293 467.749 834.491 467.374 838.085 467.048C887.074 462.567 903.261 442.016 951.873 431.027C992.969 421.69 1011.87 432.429 1041.98 436.634C1053.22 438.151 1064.58 438.561 1075.89 437.861C1125.91 435.182 1151 418.361 1182.26 396.583C1208.08 378.61 1237.11 357.758 1282.8 339.56C1318.22 325.466 1369.7 310.172 1439.85 309.521" stroke="#F2F2F2" stroke-miterlimit="10"/>
<path d="M-13.6522 157.976C30.3346 168.29 68.4649 177.101 96.1892 184.285C99.8087 185.211 103.353 185.912 106.771 186.788C179.136 202.233 192.558 200.906 227.069 219.781C261.58 238.655 268.894 258.105 306.798 267.842C328.674 273.342 351.552 273.565 373.533 268.493C393.641 263.937 404.7 253.724 415.509 242.61C427.046 230.77 437.778 217.403 457.082 205.863C503.457 178.327 554.909 186.913 562.802 184.636C598.167 190.693 625.338 210.719 644.441 231.946C661.508 250.921 672.09 270.471 677.796 279.507C731.56 366.494 689.836 432.704 742.821 466.497C767.378 482.167 799.426 482.142 822.098 480.465C826.748 480.115 830.971 479.689 834.665 479.339C884.283 474.332 899.64 452.504 948.906 440.439C990.731 430.201 1009.38 441.015 1039.77 444.87C1051.12 446.267 1062.58 446.502 1073.98 445.57C1124.02 441.891 1149.64 423.417 1180.83 400.387C1206.62 381.338 1235.47 359.56 1281.37 341.186C1316.84 326.993 1368.79 311.974 1440 313.05" stroke="#F2F2F2" stroke-miterlimit="10"/>
<path d="M-15.0844 156.549C29.3298 166.562 67.2088 174.222 94.1538 179.979C97.7985 180.755 101.343 181.356 104.761 181.957C178.005 194.999 192.106 192.095 225.813 210.293C261.279 229.418 267.361 249.093 305.768 259.006C327.768 264.602 350.81 264.748 372.88 259.431C393.189 254.55 404.148 244.137 414.805 232.697C426.066 220.531 436.623 206.864 456.254 195.149C503.558 166.988 556.921 173.421 563.581 175.999C597.967 189.241 626.948 205.212 645.925 228.091C662.916 248.592 673.398 269.494 678.802 279.382C730.204 373.378 686.493 442.742 738.9 478.312C763.458 494.984 795.933 494.859 818.504 493.081C823.229 492.706 827.452 492.255 831.072 491.88C881.342 486.523 895.82 463.193 945.764 450.076C988.293 438.912 1006.67 449.826 1037.36 453.33C1048.82 454.606 1060.39 454.665 1071.87 453.505C1121.94 448.85 1148.1 428.699 1179.17 404.417C1204.96 384.392 1233.64 361.562 1279.71 343.014C1315.2 328.72 1367.69 314.026 1439.93 316.755" stroke="#F2F2F2" stroke-miterlimit="10"/>
<path d="M-16.5425 155.123C28.3241 164.96 65.9266 171.269 92.1176 175.574C95.7874 176.175 99.3314 176.675 102.775 177.151C176.874 187.715 191.679 183.284 224.556 200.756C260.751 220.031 265.778 240.057 304.763 250.07C326.89 255.737 350.09 255.806 372.251 250.27C392.711 245.038 403.595 234.475 414.076 222.735C425.085 210.219 435.466 196.276 455.399 184.435C503.684 155.774 558.177 166.613 564.36 167.338C602.063 171.819 628.531 199.68 647.307 224.211C660.007 241.325 670.858 259.726 679.681 279.107C728.695 379.936 683.05 452.63 734.979 489.978C759.511 507.65 792.439 507.5 814.935 505.573C819.685 505.172 823.958 504.671 827.502 504.271C878.376 498.388 892.025 473.682 942.672 459.589C985.88 447.473 1004.03 458.562 1034.99 461.666C1046.58 462.819 1058.25 462.693 1069.81 461.291C1119.93 455.659 1146.57 433.755 1177.59 408.298C1203.33 387.045 1231.83 363.44 1278.13 344.741C1313.67 330.348 1366.61 315.929 1439.92 320.335" stroke="#F2F2F2" stroke-miterlimit="10"/>
<path d="M-18 153.696C27.2436 163.108 64.6199 168.265 90.082 171.218C174.336 180.981 189.769 173.722 223.299 191.244C259.997 210.444 264.345 231.07 303.732 241.308C325.984 247.071 349.346 247.071 371.598 241.308C413.775 229.793 414.931 197.202 454.544 173.722C503.785 144.534 559.761 157.376 565.14 158.702C636.826 176.225 670.256 254.6 680.762 278.856C727.338 386.294 679.757 462.517 731.033 501.642C760.793 524.347 803.624 519.165 824.034 516.662C875.536 510.404 888.355 484.27 939.656 469.101C997.468 451.979 1010.21 476.61 1067.85 469.101C1159.79 457.01 1174.55 387.997 1276.47 346.443C1312.04 331.95 1365.47 317.831 1439.85 323.914" stroke="#F2F2F2" stroke-miterlimit="10"/>
<path d="M-16.6426 156.825C27.7967 166.237 64.5446 171.844 90.0067 174.948C172.023 185.262 188.034 178.453 221.364 196C257.383 215.025 262.184 235.051 300.591 245.364C322.377 251.096 345.247 251.388 367.174 246.215C408.798 236.427 410.407 204.637 449.417 182.058C497.601 153.972 551.894 165.662 558.177 166.688C616.969 176.175 649.394 233.874 665.355 264.664C668.622 270.947 670.985 276.354 672.895 280.259C720.652 381.964 675.559 455.208 726.082 492.156C756.244 514.159 799.426 508.627 820.691 506.249C840.177 504.118 859.066 498.253 876.315 488.976C893.91 480.19 910.374 470.277 937.445 463.694C945.739 461.691 953.129 460.59 959.765 459.639C999.981 453.856 1015.49 468.1 1063.95 459.514C1082.7 456.236 1100.75 449.811 1117.34 440.514C1162.36 415.482 1190.51 370.424 1260.21 337.532C1264.3 335.596 1268.57 333.711 1273.03 331.875C1308.92 317.006 1363.16 302.212 1438.67 307.894" stroke="#F2F2F2" stroke-miterlimit="10"/>
<path d="M-15.2853 159.954C28.2491 169.366 64.4692 175.198 89.9564 178.653C169.686 189.492 186.2 183.184 219.429 200.781C254.794 219.405 260.022 239.256 297.348 249.394C318.687 255.11 341.083 255.711 362.7 251.146C403.696 242.96 405.882 212.196 444.264 190.368C491.418 163.558 544.278 172.195 551.165 174.673C605.558 194.073 640.848 237.879 657.286 266.891C660.629 272.799 662.942 277.98 664.827 281.635C713.69 377.733 671.261 447.823 720.979 482.668C751.393 503.945 795.053 498.088 817.172 495.81C836.812 493.802 855.954 488.424 873.752 479.915C891.623 471.979 908.338 463.393 935.082 458.312C943.402 456.71 950.842 456.109 957.478 455.158C997.568 449.375 1012.4 460.615 1059.88 449.901C1078.41 445.648 1096.16 438.518 1112.46 428.774C1155.8 403.742 1185.35 357.107 1256.46 323.113C1260.61 321.161 1264.93 319.208 1269.43 317.306C1305.63 302.061 1360.67 286.591 1437.34 291.848" stroke="#F2F2F2" stroke-miterlimit="10"/>
<path d="M-13.928 163.083C28.7016 172.47 64.3686 178.653 89.8307 182.483C167.298 193.773 184.365 188.04 217.443 205.638C252.13 223.961 257.81 243.436 294.231 253.524C315.112 259.192 337.014 260.048 358.276 256.028C398.493 249.394 401.383 219.656 439.137 198.679C485.26 173.046 536.435 179.604 544.202 182.608C587.393 199.848 624.11 230.071 649.243 269.069C652.661 274.601 654.949 279.558 656.783 282.987C706.702 373.278 666.988 440.489 715.826 473.231C746.592 493.808 790.654 487.575 813.628 485.447C833.426 483.523 852.817 478.62 871.138 470.903C889.336 463.819 906.327 456.585 932.669 452.955C941.064 451.804 948.529 451.679 955.165 450.727C995.206 444.92 1009.23 453.231 1055.71 440.339C1073.99 435.088 1091.42 427.266 1107.49 417.109C1149.13 391.902 1180.23 343.94 1252.59 308.745C1256.76 306.743 1261.14 304.748 1265.71 302.763C1302.21 287.168 1358.08 271.022 1435.88 275.878" stroke="#F2F2F2" stroke-miterlimit="10"/>
<path d="M-12.5704 166.187C29.1542 175.599 64.2934 182.108 89.8058 186.213C165.011 197.953 182.656 192.796 215.482 210.419C249.465 228.467 255.699 247.517 291.014 257.58C311.457 263.276 332.899 264.472 353.853 261.084C393.491 256.078 396.884 227.291 434.034 207.14C479.127 182.483 528.015 192.296 537.24 190.619C590.401 201.307 623.831 245.689 641.225 271.322C644.719 276.454 646.956 281.16 648.916 284.389C699.941 368.947 662.942 433.105 710.875 463.694C742.043 483.57 786.432 476.986 810.285 474.959C830.259 473.128 849.905 468.702 868.725 461.792C887.275 455.559 904.467 449.701 930.482 447.498C938.928 446.772 946.418 447.148 953.104 446.197C993.094 440.389 1006.32 445.671 1051.94 430.702C1071.27 424.344 1087.13 415.232 1102.91 405.319C1142.93 380.062 1175.4 330.498 1249.15 294.277C1253.34 292.224 1257.76 290.18 1262.42 288.144C1299.24 272.148 1355.92 255.327 1434.85 259.782" stroke="#F2F2F2" stroke-miterlimit="10"/>
<path d="M-11.2386 169.316C29.5057 178.703 64.1925 185.537 89.8306 189.792C162.723 201.958 180.82 197.502 213.647 215.025C246.926 232.847 253.537 251.446 287.972 261.459C307.939 267.152 328.879 268.636 349.453 265.815C388.338 262.11 392.41 234.6 428.931 215.3C472.969 192.045 520.072 200.982 530.327 198.553C581.905 208.266 615.31 249.569 633.231 273.5C636.801 278.256 639.013 282.737 641.023 285.74C693.129 364.516 658.92 425.645 705.898 454.157C737.468 473.331 782.209 466.372 806.892 464.495C832.027 462.592 849.747 457.411 866.286 452.705C885.188 447.323 902.783 439.513 928.245 442.041C935.772 442.849 943.371 442.723 950.867 441.665C990.832 435.858 1003.2 438.236 1047.94 421.039C1066.67 413.855 1082.25 403.967 1098.21 393.504C1136.59 368.271 1170.45 317.181 1245.55 279.783C1249.79 277.68 1254.27 275.577 1258.98 273.475C1296.1 257.129 1353.59 239.631 1433.67 243.661" stroke="#F2F2F2" stroke-miterlimit="10"/>
<path d="M-9.88196 172.47C30.0581 181.857 64.1165 189.016 89.654 193.547C160.36 206.063 179.035 202.258 211.711 219.831C244.387 237.404 251.4 255.527 284.805 265.565C313.911 274.301 338.167 272.423 345.13 270.796C382.255 262.035 387.985 242.135 423.904 223.686C466.885 201.608 512.254 209.743 523.465 206.589C573.434 215.35 606.789 253.474 625.313 275.753C628.933 280.133 631.12 284.389 633.155 287.192C686.342 360.186 654.998 418.211 701.021 444.745C733.043 463.218 778.061 455.884 803.623 454.132C829.186 452.379 847.108 447.673 863.948 443.693C883.177 439.163 901.375 432.379 926.108 436.709C933.572 438.084 941.209 438.262 948.73 437.235C988.645 431.428 1000.18 430.902 1044.02 411.502C1062.17 403.492 1077.4 392.803 1093.38 381.889C1130.16 356.857 1165.42 304.039 1241.86 265.465C1246.13 263.312 1250.66 261.159 1255.43 259.006C1292.88 242.285 1351.17 224.111 1432.38 227.716" stroke="#F2F2F2" stroke-miterlimit="10"/>
<path d="M-8.52466 175.524C30.5105 184.986 64.0159 192.496 89.5786 197.202C158.022 210.018 177.251 206.939 209.776 224.512C241.698 241.784 249.238 259.557 281.663 269.57C309.965 278.306 333.542 277.229 340.605 275.677C377.001 267.617 383.335 249.594 418.676 231.996C460.601 211.07 504.136 218.454 516.402 214.474C564.787 222.259 598.016 257.029 617.169 277.88C619.997 281.273 622.648 284.807 625.112 288.469C679.329 355.68 650.926 410.576 695.843 435.157C728.343 452.905 773.637 445.17 800.054 443.593C825.466 442.041 844.141 437.76 861.309 434.531C880.889 430.852 899.691 425.269 923.67 431.202C931.093 433.16 938.829 433.653 946.442 432.654C986.332 426.821 997.015 423.442 1039.97 401.789C1057.57 392.953 1072.4 381.513 1088.51 370.049C1123.7 345.016 1160.34 290.697 1238.11 250.946C1242.42 248.743 1246.99 246.54 1251.84 244.337C1289.54 227.24 1348.68 208.391 1431.05 211.595" stroke="#F2F2F2" stroke-miterlimit="10"/>
<path d="M-7.16699 178.603C30.9633 188.015 63.9158 195.775 89.5287 200.882C155.685 214.049 175.466 211.67 207.966 229.243C239.21 246.24 247.203 263.562 278.622 273.525C306.271 282.261 329.043 281.986 336.307 280.509C372 273.224 379.037 257.004 413.674 240.232C454.544 220.482 496.394 227.09 509.565 222.434C556.342 229.243 589.395 260.909 609.277 280.008C612.13 283.12 614.807 286.388 617.295 289.796C672.593 351.2 647.131 402.916 690.942 425.595C723.92 442.642 769.465 434.557 796.737 433.105C822.375 431.703 841.477 427.873 858.947 425.395C879.711 422.551 900.775 422.66 921.508 425.72C930.356 426.847 937.796 429.049 944.356 428.223C984.196 422.366 994.024 416.183 1036.1 392.252C1053.04 382.615 1067.6 370.349 1083.86 358.384C1117.51 333.552 1155.47 277.505 1234.67 236.577C1238.99 234.35 1243.64 232.072 1248.57 229.794C1286.62 212.271 1346.6 192.796 1430.02 195.6" stroke="#F2F2F2" stroke-miterlimit="10"/>
<path d="M-5.68359 182.909C31.5418 192.296 63.9664 200.431 89.5793 205.763C153.373 219.205 173.707 217.528 205.906 235.176C236.495 251.897 244.916 268.794 275.355 278.732C302.099 287.468 324.268 287.968 331.733 286.592C366.772 280.158 374.338 265.64 408.446 249.719C448.235 231.145 488.351 236.978 502.478 231.596C547.721 237.429 580.397 265.79 601.109 283.463C603.988 286.29 606.699 289.282 609.227 292.424C665.405 348.02 643.135 396.533 685.79 417.334C719.295 433.68 765.041 425.245 793.193 423.918C819.007 422.691 838.562 419.312 856.333 417.585C876.592 415.607 895.469 417.284 919.171 421.565C928.145 423.192 935.559 425.82 942.095 424.869C981.884 419.012 990.882 410.025 1032.08 383.766C1048.42 373.328 1062.62 360.286 1079.01 347.77C1111.15 323.189 1150.42 265.414 1230.85 223.285C1235.22 220.982 1239.9 218.679 1244.9 216.326C1283.26 198.504 1343.96 178.303 1428.61 180.681" stroke="#F2F2F2" stroke-miterlimit="10"/>
<path d="M-4.45227 193.747C31.8683 203.134 63.7399 211.52 89.378 217.202C151.035 230.895 171.922 230.044 203.97 247.566C233.881 264.012 242.754 280.509 272.212 290.396C298.152 299.133 319.618 300.409 327.309 299.132C361.694 293.6 369.813 280.734 403.318 265.665C442.027 248.142 480.408 253.349 495.515 247.191C539.099 252.197 569.036 281.134 593.09 293.325C596.282 296.729 599.047 299.483 601.259 301.435C658.392 351.199 639.314 396.558 680.762 415.482C714.821 431.077 760.768 422.291 789.774 421.114C815.764 420.063 835.772 417.134 853.844 416.108C874.455 414.981 893.684 418.31 916.808 423.742C925.907 425.87 933.297 428.924 939.807 427.948C979.571 422.09 987.715 410.425 1028.01 381.739C1043.77 370.549 1057.62 356.706 1074.13 343.615C1104.8 319.308 1145.34 259.757 1227.1 216.451C1231.51 214.132 1236.25 211.762 1241.31 209.342C1279.99 191.269 1341.57 170.392 1427.28 172.47" stroke="#F2F2F2" stroke-miterlimit="10"/>
<path d="M-3.16968 203.51C32.3214 212.897 63.6401 221.558 89.3032 227.541C148.723 241.459 170.264 241.459 202.035 259.081C231.268 275.227 240.593 291.323 269.046 301.185C294.181 309.897 314.943 311.849 322.886 310.773C356.643 306.192 365.289 294.952 398.292 280.734C435.995 264.463 472.567 268.794 488.653 261.91C530.629 265.815 560.264 292.124 585.148 302.262C587.756 304.852 590.517 307.285 593.418 309.546C651.43 353.528 635.62 395.481 675.836 412.729C710.473 427.573 756.571 418.436 786.432 417.435C812.623 416.533 833.083 414.055 851.432 413.83C872.395 413.555 892 418.586 914.622 425.119C923.822 427.773 931.211 431.227 937.721 430.126C977.41 424.243 984.75 409.8 1024.14 378.785C1039.22 366.845 1052.82 352.226 1069.38 338.558C1098.56 314.578 1140.36 253.199 1223.46 208.692C1227.88 206.188 1232.68 203.886 1237.81 201.432C1276.8 182.834 1339.11 161.381 1426.05 162.858" stroke="#F2F2F2" stroke-miterlimit="10"/>
<path d="M-1.76245 213.272C32.7986 222.659 63.5894 231.596 89.2275 237.929C146.41 251.997 168.354 252.823 200.099 270.471C228.653 286.341 238.431 302.036 265.904 311.849C290.285 320.56 310.293 321.286 318.462 322.312C351.515 326.518 360.765 309.045 393.063 295.703C429.635 280.684 464.523 284.163 481.59 276.529C521.983 279.457 551.265 303.038 577.104 311.123C579.738 313.459 582.526 315.617 585.449 317.581C644.316 355.755 631.824 394.33 670.909 409.875C706.099 423.943 752.373 414.506 783.114 413.63C809.506 412.904 830.393 410.901 849.044 411.402C870.358 411.977 890.291 418.761 912.435 426.421C921.76 429.6 929.1 433.43 935.61 432.479C975.273 426.571 981.808 409.424 1020.24 376.006C1034.84 363.315 1048.01 347.895 1064.76 333.652C1092.4 310.022 1135.54 246.79 1219.97 200.982C1224.44 198.579 1229.27 196.075 1234.47 193.472C1273.76 174.498 1336.9 152.269 1424.97 153.421" stroke="#F2F2F2" stroke-miterlimit="10"/>
<path d="M-0.405029 223.06C33.2512 232.547 63.4639 241.634 89.1522 248.293C144.098 262.511 166.569 264.213 198.164 281.886C226.039 297.456 236.269 312.65 262.737 322.663C286.339 331.374 305.668 332.676 314.013 334.003C346.236 339.009 356.215 323.289 387.936 310.798C423.427 296.805 456.606 299.658 474.628 291.273C513.412 293.25 542.493 314.052 568.986 320.11C571.645 322.198 574.46 324.081 577.406 325.742C637.077 358.133 628.054 393.329 665.681 407.171C701.55 420.413 747.899 410.676 779.469 409.975C806.062 409.399 827.402 407.872 846.354 409.124C868.021 410.551 888.28 419.137 909.947 427.723C919.372 431.478 926.712 435.683 933.197 434.707C972.81 428.799 978.591 408.974 1016.14 373.128C1030.17 359.686 1042.99 343.49 1059.83 328.646C1086.17 305.391 1130.41 240.282 1216.17 193.472C1220.68 190.986 1225.56 188.482 1230.82 185.963C1270.44 166.638 1334.36 143.733 1423.59 144.484" stroke="#F2F2F2" stroke-miterlimit="10"/>
<path d="M0.952271 232.823C33.6282 242.185 63.3633 251.647 89.0768 258.656C141.861 272.974 164.784 275.628 196.229 293.275C223.45 308.57 234.108 323.489 259.595 333.327C282.393 342.038 301.043 343.915 309.589 345.542C340.958 351.475 351.691 337.357 382.808 325.742C417.219 312.901 448.663 315.003 467.665 305.867C504.866 306.868 533.52 324.941 560.968 328.946C563.659 330.777 566.501 332.376 569.463 333.727C629.788 360.437 624.359 391.977 660.654 404.293C696.95 416.609 743.601 406.796 776.051 406.17C802.82 405.745 824.612 404.668 843.916 406.671C865.91 408.949 886.495 419.187 907.71 428.95C917.236 433.28 924.575 437.811 931.035 436.86C970.598 430.927 975.65 408.473 1012.12 370.149C1025.62 355.981 1038.09 339.009 1055.03 323.539C1079.96 300.735 1125.41 233.699 1212.48 185.587C1217 183.084 1221.95 180.581 1227.28 177.852C1267.15 158.052 1331.89 134.472 1422.26 134.922" stroke="#F2F2F2" stroke-miterlimit="10"/>
<path d="M2.30969 242.56C34.1562 251.922 63.288 261.634 89.0266 268.969C139.498 283.387 163 286.967 194.293 304.64C220.836 319.659 231.996 334.152 256.428 343.865C278.472 352.576 296.443 355.029 305.165 356.957C335.705 363.69 347.141 351.324 377.706 340.561C411.01 328.846 440.72 330.247 460.653 320.36C496.244 320.36 524.572 335.704 552.874 337.657C555.618 339.23 558.495 340.561 561.471 341.637C622.7 362.714 620.689 390.55 655.628 401.364C692.803 412.853 739.303 402.665 772.633 402.315C799.578 402.015 821.822 401.414 841.378 404.167C863.723 407.296 884.585 419.462 905.372 430.101C914.999 435.107 922.314 439.888 928.773 438.912C968.311 433.004 972.634 407.897 1008.1 367.095C1021.05 352.201 1033.24 334.553 1050.18 318.357C1073.75 296.003 1120.35 227.04 1208.76 177.727C1213.33 175.173 1218.32 172.537 1223.71 169.817C1263.93 149.791 1329.48 125.51 1421 125.435" stroke="#F2F2F2" stroke-miterlimit="10"/>
<path d="M3.66724 252.373C34.6088 261.735 63.1877 271.672 88.9515 279.382C137.211 293.851 161.241 298.407 192.358 316.129C218.223 330.823 229.785 344.941 253.286 354.604C268.671 360.612 284.549 365.285 300.742 368.572C330.452 376.081 342.592 365.468 372.579 355.58C404.777 344.991 432.903 345.567 453.741 335.029C487.724 334.102 515.75 346.669 544.907 346.594C547.694 347.901 550.597 348.948 553.578 349.723C615.361 365.142 617.07 389.198 650.601 398.535C688.48 409.074 735.03 399.336 769.189 398.535C796.335 397.909 819.008 398.285 838.89 401.764C861.511 405.744 882.726 419.762 903.085 431.352C912.787 436.859 920.127 442.066 926.562 441.09C966.049 435.157 969.694 407.447 1004.13 364.141C1016.52 348.546 1028.33 330.072 1045.4 313.276C1067.6 291.398 1115.35 220.482 1205.09 169.967C1209.69 167.464 1214.71 164.685 1220.17 161.906C1260.71 141.455 1327.07 116.523 1419.72 116.048" stroke="#F2F2F2" stroke-miterlimit="10"/>
<path d="M5.02466 262.16C35.1871 271.522 63.1124 281.66 88.8762 289.695C134.924 304.164 159.456 309.721 190.448 327.469C215.583 341.862 227.623 355.605 250.119 365.217C265.113 371.387 280.557 376.408 296.318 380.236C325.249 388.472 338.043 379.636 367.451 370.674C398.544 361.162 424.86 361.137 446.778 349.772C479.178 347.845 506.877 357.683 536.863 355.555C539.702 356.587 542.63 357.358 545.61 357.858C608.097 367.745 613.476 387.896 645.574 395.806C684.182 405.319 730.732 395.456 765.771 394.855C793.118 394.405 816.217 395.231 836.401 399.461C859.425 404.292 880.815 420.163 900.823 432.704C910.55 438.812 917.94 444.344 924.35 443.368C963.812 437.41 966.778 407.096 1000.13 361.287C1012.02 344.966 1023.51 325.767 1040.6 308.319C1061.51 286.942 1110.38 214.048 1201.47 162.307C1206.09 159.678 1211.19 156.925 1216.72 154.071C1257.59 133.27 1324.81 107.662 1418.54 106.76" stroke="#F2F2F2" stroke-miterlimit="10"/>
<path d="M6.35645 271.948C35.5134 281.285 63.0366 291.648 88.8004 300.134C132.561 314.627 157.696 321.186 188.512 338.959C213.019 353.077 225.461 366.494 246.977 375.981C261.578 382.197 276.575 387.448 291.869 391.701C320.045 400.638 333.493 393.629 362.248 385.543C392.259 377.158 416.842 376.432 439.74 364.291C470.531 361.412 497.903 368.497 528.769 364.291C531.657 365.057 534.611 365.552 537.592 365.768C600.782 370.174 609.755 386.244 640.471 392.828C679.808 401.289 726.358 391.326 762.277 390.975C789.8 390.675 813.352 391.952 833.837 396.933C857.213 402.615 878.829 420.338 898.46 433.83C908.238 440.564 915.653 446.346 922.062 445.42C961.474 439.463 963.837 406.52 996.086 358.208C1007.45 341.186 1018.71 321.286 1035.72 303.138C1055.43 282.286 1105.3 207.515 1197.75 154.447C1202.4 151.768 1207.55 148.965 1213.15 146.061C1254.33 124.909 1322.29 98.6001 1417.23 97.3735" stroke="#F2F2F2" stroke-miterlimit="10"/>
<path d="M7.71411 281.735C35.9662 291.097 63.0119 301.611 88.7253 310.547C130.4 324.991 155.912 332.625 186.577 350.398C210.431 364.216 223.3 377.208 243.81 386.695C258.025 393.052 272.594 398.593 287.445 403.291C314.868 412.929 328.919 407.722 357.196 400.538C386.102 393.228 408.975 391.826 432.853 378.96C462.061 375.105 489.106 379.435 520.827 373.228C523.777 373.62 526.749 373.829 529.725 373.853C593.569 376.682 606.237 384.742 635.52 390.049C675.585 397.308 722.161 386.895 758.909 387.246C786.558 387.521 810.637 388.848 831.424 394.58C855.152 401.113 876.944 420.713 896.248 435.132C906.076 442.491 913.542 448.599 919.926 447.648C959.313 441.69 961.072 406.17 992.165 355.355C1003.02 337.607 1013.96 317.005 1031.02 298.106C1049.37 277.78 1100.42 200.906 1194.08 146.737C1198.79 144 1203.97 141.155 1209.64 138.201C1251.11 116.623 1319.9 89.6636 1415.97 87.9614" stroke="#F2F2F2" stroke-miterlimit="10"/>
<path d="M9.07129 291.498C36.4185 300.835 62.9363 311.523 88.6498 320.885C128.163 335.254 154.127 343.965 184.642 361.788C207.816 375.305 221.113 387.922 240.668 397.359C258.766 406.12 273.344 411.126 283.021 414.881C309.715 425.169 324.369 421.79 352.068 415.557C377.124 409.827 401.783 402.494 425.891 393.604C452.333 384.342 479.932 375.13 512.783 382.114C515.766 382.527 518.796 382.46 521.757 381.914C586.455 375.556 602.617 383.165 630.492 387.246C671.312 393.203 717.863 382.94 755.49 383.491C783.416 383.891 807.847 385.719 828.936 392.177C852.99 399.687 874.984 421.064 893.961 436.409C903.814 444.394 911.355 450.802 917.739 449.826C957.051 443.843 958.257 405.719 988.118 352.401C998.474 333.927 1009.16 312.675 1026.15 293.05C1043.14 273.425 1095.45 194.523 1190.33 138.952C1195.06 136.223 1200.39 133.295 1206.04 130.266C1247.84 108.338 1317.42 80.7022 1414.66 78.5745" stroke="#F2F2F2" stroke-miterlimit="10"/>
<path d="M10.428 301.286C36.8704 310.623 62.8854 321.311 88.5989 331.324C125.925 345.618 152.367 355.43 182.706 373.278C205.327 386.495 218.951 398.736 237.501 408.123C254.819 416.909 268.895 422.391 278.597 426.471C304.587 437.41 319.794 435.833 346.94 430.552C373.608 425.37 391.304 418.761 418.928 408.273C443.811 398.811 470.304 396.983 504.765 391.001C507.932 390.45 510.973 390.5 513.813 389.999C579.316 378.284 598.997 381.539 625.465 384.442C667.013 388.973 713.589 379.01 752.046 379.736C780.173 380.287 805.057 382.59 826.447 389.749C850.853 398.01 872.997 421.34 891.673 437.636C901.551 446.247 909.268 452.955 915.526 451.979C954.788 445.996 955.467 405.244 984.196 349.347C994.074 330.148 1004.53 308.295 1021.42 287.868C1037.33 268.644 1090.54 187.865 1186.74 131.092C1191.51 128.314 1196.79 125.335 1202.6 122.231C1244.7 99.9523 1315.1 71.6409 1413.46 69.0876" stroke="#F2F2F2" stroke-miterlimit="10"/>
<path d="M11.9108 311.048C37.4483 320.385 62.9858 331.274 88.649 341.612C123.838 355.805 150.708 366.644 180.896 384.617C202.738 397.534 216.915 409.399 234.484 418.761C250.998 427.522 264.471 433.455 274.299 437.961C299.61 449.551 315.37 449.776 341.963 445.47C367.5 441.315 383.663 434.581 412.091 422.942C435.492 413.279 461.507 408.748 496.847 399.912C499.989 399.136 503.106 398.811 505.996 398.085C572.354 381.038 595.579 384.492 620.563 381.639C663.124 376.983 705.946 375.11 748.753 376.031C777.081 376.707 802.392 379.486 824.159 387.446C848.918 396.558 871.188 421.765 889.511 438.987C899.389 448.224 907.106 455.208 913.44 454.257C952.676 448.249 952.802 404.893 980.35 346.619C989.751 326.718 1000.03 304.264 1016.77 283.012C1031.48 264.363 1085.67 181.507 1183.19 123.557C1187.99 120.729 1193.25 117.7 1199.2 114.546C1241.63 91.8666 1312.82 62.8794 1412.33 59.9507" stroke="#F2F2F2" stroke-miterlimit="10"/>
<path d="M13.1427 318.082C37.7753 327.419 62.8353 338.383 88.5487 349.247C121.627 363.29 148.874 375.381 179.036 393.279C200.225 405.795 214.829 417.41 231.418 426.696C247.128 435.483 260.022 441.866 269.925 446.722C294.633 458.938 310.871 460.965 336.911 457.636C361.343 454.507 376.047 447.774 405.204 434.657C427.172 424.769 452.81 417.635 488.904 405.87C492.046 404.843 495.163 404.168 498.129 403.191C565.391 380.863 592.06 378.76 615.612 375.906C658.665 370.63 702.042 368.43 745.411 369.323C773.914 370.149 799.678 373.403 821.646 382.114C846.781 392.127 869.152 419.137 887.299 437.185C897.153 447.048 904.894 454.357 911.304 453.381C950.49 447.348 950.138 401.389 976.429 340.586C985.353 319.934 995.532 296.93 1012.05 274.852C1025.59 256.753 1080.74 171.844 1179.6 112.693C1184.42 109.815 1189.83 106.736 1195.76 103.532C1238.49 80.4771 1310.5 50.814 1411.15 47.4597" stroke="#F2F2F2" stroke-miterlimit="10"/>
<path d="M14.4247 321.862C38.1524 331.199 62.7851 342.163 88.2974 353.603C119.264 367.496 147.014 380.687 176.824 398.661C197.36 410.951 212.365 422.141 227.975 431.352C242.905 440.164 255.221 446.947 265.225 452.304C289.33 465.146 306.045 468.951 331.507 466.623C354.833 464.495 368.179 457.937 397.965 443.293C418.526 433.28 443.862 423.467 480.585 408.748C483.752 407.497 486.894 406.471 489.885 405.244C558.152 377.583 588.063 369.849 610.308 367.07C653.616 361.688 700.645 358.234 741.691 359.56C770.395 360.487 796.586 364.241 818.881 373.704C844.343 384.517 866.814 413.429 884.736 432.554C894.589 443.068 902.506 450.627 908.815 449.651C947.976 443.643 947.122 395.031 972.182 331.75C980.627 310.372 990.757 286.842 1006.97 263.888C1019.39 246.365 1075.46 159.403 1175.65 99.051C1180.53 96.1473 1185.96 92.9932 1191.97 89.714C1235.02 66.309 1307.81 35.9701 1409.61 32.1401" stroke="#F2F2F2" stroke-miterlimit="10"/>
<path d="M15.8322 325.467C38.6802 334.779 62.9106 345.743 88.2973 357.808C117.976 371.658 146.905 387.049 174.964 403.917C194.846 415.933 210.153 426.772 224.908 435.883C239.009 444.77 250.772 451.929 260.877 457.711C284.403 471.204 301.571 476.761 326.455 475.459C348.699 474.308 360.764 468.075 391.078 451.779C410.331 441.44 435.391 429.125 472.642 411.477C475.809 409.975 478.976 408.598 482.017 407.146C551.265 374.154 584.192 359.46 605.356 358.083C649.569 355.28 696.422 348.071 738.347 349.648C767.253 350.674 793.871 354.979 816.468 365.168C842.282 376.833 864.828 407.722 882.524 427.748C892.327 438.887 900.37 446.747 906.679 445.796C945.789 439.738 944.382 388.497 968.26 322.738C976.693 298.105 988.104 274.585 1002.24 252.698C1013.55 235.701 1070.54 146.712 1172.03 85.1582C1176.93 82.2044 1182.41 79.0003 1188.5 75.671C1231.85 51.8905 1305.48 20.8757 1408.41 16.6953" stroke="#F2F2F2" stroke-miterlimit="10"/>
<path d="M17.1895 328.921C71.0355 351.785 123.122 378.558 173.029 409.024C253.311 458.062 275.254 484.546 321.327 484.12C354.883 483.795 362.8 469.576 464.599 414.03C541.161 372.251 579.442 351.45 600.329 348.947C675.383 340.21 757.425 329.396 813.98 356.456C854.749 375.956 886.872 444.269 904.467 441.565C956.623 433.505 936.037 340.185 997.468 241.308C1007.7 224.837 1065.56 133.845 1168.39 71.0899C1208.3 46.7337 1288.43 6.23171 1407.17 1" stroke="#F2F2F2" stroke-miterlimit="10"/>
</svg>
