            <svg
              width="1137"
              height="85"
              viewBox="0 0 1137 85"
              fill="none"
              xmlns="http://www.w3.org/2000/svg"
            >
              <mask
                id="path-1-outside-1_333_8175"
                maskUnits="userSpaceOnUse"
                x="0"
                y="0"
                width="1137"
                height="85"
                fill="black"
              >
                <rect fill="white" width="1137" height="85" />
                <path
                  d="M63.9628 3.59999V20.4H41.5628V82H24.7628V20.4H2.36281V3.59999H63.9628ZM119.726 3.59999H136.526V82H119.726V48.4H91.9497V82H75.1497V3.59999H91.9497V31.6H119.726V3.59999ZM149.962 82V3.59999H199.914V20.4H166.762V31.6H192.298V48.4H166.762V65.2H199.914V82H149.962ZM275.391 83.456C269.903 83.456 264.807 82.392 260.103 80.264C255.436 78.136 251.367 75.2053 247.895 71.472C244.423 67.7013 241.716 63.352 239.775 58.424C237.833 53.496 236.863 48.2507 236.863 42.688C236.863 36.6773 237.927 31.208 240.055 26.28C242.22 21.352 245.132 17.096 248.791 13.512C252.487 9.89066 256.649 7.10933 261.279 5.16799C265.945 3.22666 270.761 2.256 275.727 2.256C281.177 2.256 286.553 3.52533 291.855 6.064C297.156 8.60266 301.935 12.7093 306.191 18.384L291.183 26.448C288.905 23.872 286.404 21.9867 283.679 20.792C280.991 19.56 278.265 18.944 275.503 18.944C272.703 18.944 269.996 19.5227 267.383 20.68C264.769 21.8373 262.436 23.48 260.383 25.608C258.329 27.736 256.687 30.2747 255.455 33.224C254.26 36.1733 253.663 39.44 253.663 43.024C253.663 46.3093 254.223 49.3893 255.343 52.264C256.5 55.1387 258.087 57.6587 260.103 59.824C262.119 61.952 264.452 63.632 267.103 64.864C269.753 66.0587 272.591 66.656 275.615 66.656C277.332 66.656 279.031 66.432 280.711 65.984C282.428 65.4987 284.089 64.7893 285.695 63.856C287.3 62.9227 288.812 61.728 290.231 60.272C291.649 58.816 292.937 57.0987 294.095 55.12H283.567V40.56H313.919C314.217 46.4213 313.415 51.9467 311.511 57.136C309.644 62.288 306.937 66.8427 303.391 70.8C299.844 74.7573 295.681 77.856 290.903 80.096C286.124 82.336 280.953 83.456 275.391 83.456ZM344.717 3.59999H363.645L392.093 82H374.285L369.805 69.68H338.557L334.077 82H316.269L344.717 3.59999ZM344.717 52.88H363.645L354.125 26.896L344.717 52.88ZM398.79 82L414.022 3.59999H428.358L445.942 49.856L463.526 3.59999H477.862L493.094 82H475.958L467.782 39.664L451.766 82H440.118L424.102 39.664L415.926 82H398.79ZM504.228 82V3.59999H554.18V20.4H521.028V31.6H546.564V48.4H521.028V65.2H554.18V82H504.228ZM566.462 40H602.302V56.8H566.462V40ZM652.078 83.456C646.777 83.456 641.793 82.4107 637.126 80.32C632.46 78.192 628.353 75.2613 624.806 71.528C621.297 67.7947 618.534 63.4827 616.518 58.592C614.54 53.664 613.55 48.4 613.55 42.8C613.55 37.1627 614.54 31.8987 616.518 27.008C618.534 22.08 621.297 17.768 624.806 14.072C628.353 10.3387 632.46 7.42666 637.126 5.336C641.793 3.20799 646.777 2.14399 652.078 2.14399C658.425 2.14399 664.268 3.61866 669.606 6.56799C674.945 9.48 679.369 13.3813 682.878 18.272L667.87 26.336C665.929 24.096 663.596 22.304 660.87 20.96C658.145 19.616 655.214 18.944 652.078 18.944C649.092 18.944 646.273 19.56 643.622 20.792C641.009 22.024 638.694 23.7413 636.678 25.944C634.7 28.1093 633.15 30.6293 632.03 33.504C630.91 36.3787 630.35 39.4773 630.35 42.8C630.35 46.0853 630.91 49.1653 632.03 52.04C633.15 54.9147 634.7 57.4533 636.678 59.656C638.694 61.8213 641.009 63.5387 643.622 64.808C646.273 66.04 649.092 66.656 652.078 66.656C655.214 66.656 658.145 65.984 660.87 64.64C663.596 63.2587 665.929 61.4293 667.87 59.152L682.878 67.328C679.369 72.1813 674.945 76.0827 669.606 79.032C664.268 81.9813 658.425 83.456 652.078 83.456ZM737.476 3.59999H754.276V82H737.476V48.4H709.7V82H692.9V3.59999H709.7V31.6H737.476V3.59999ZM793.92 3.59999H812.848L841.296 82H823.488L819.008 69.68H787.76L783.28 82H765.472L793.92 3.59999ZM793.92 52.88H812.848L803.328 26.896L793.92 52.88ZM850.181 82V3.59999H868.325L896.997 51.648V3.59999H913.797V82H895.653L866.981 33.952V82H850.181ZM963.578 83.456C958.09 83.456 952.994 82.392 948.29 80.264C943.624 78.136 939.554 75.2053 936.082 71.472C932.61 67.7013 929.904 63.352 927.962 58.424C926.021 53.496 925.05 48.2507 925.05 42.688C925.05 36.6773 926.114 31.208 928.242 26.28C930.408 21.352 933.32 17.096 936.978 13.512C940.674 9.89066 944.837 7.10933 949.466 5.16799C954.133 3.22666 958.949 2.256 963.914 2.256C969.365 2.256 974.741 3.52533 980.042 6.064C985.344 8.60266 990.122 12.7093 994.378 18.384L979.37 26.448C977.093 23.872 974.592 21.9867 971.866 20.792C969.178 19.56 966.453 18.944 963.69 18.944C960.89 18.944 958.184 19.5227 955.57 20.68C952.957 21.8373 950.624 23.48 948.57 25.608C946.517 27.736 944.874 30.2747 943.642 33.224C942.448 36.1733 941.85 39.44 941.85 43.024C941.85 46.3093 942.41 49.3893 943.53 52.264C944.688 55.1387 946.274 57.6587 948.29 59.824C950.306 61.952 952.64 63.632 955.29 64.864C957.941 66.0587 960.778 66.656 963.802 66.656C965.52 66.656 967.218 66.432 968.898 65.984C970.616 65.4987 972.277 64.7893 973.882 63.856C975.488 62.9227 977 61.728 978.418 60.272C979.837 58.816 981.125 57.0987 982.282 55.12H971.754V40.56H1002.11C1002.4 46.4213 1001.6 51.9467 999.698 57.136C997.832 62.288 995.125 66.8427 991.578 70.8C988.032 74.7573 983.869 77.856 979.09 80.096C974.312 82.336 969.141 83.456 963.578 83.456ZM1011.73 82V3.59999H1061.68V20.4H1028.53V31.6H1054.06V48.4H1028.53V65.2H1061.68V82H1011.73ZM1073.96 82V3.59999H1105.88C1110.18 3.59999 1114.06 4.68266 1117.53 6.848C1121 9.01333 1123.75 11.9253 1125.76 15.584C1127.82 19.2053 1128.84 23.2 1128.84 27.568C1128.84 30.928 1128.28 34.064 1127.16 36.976C1126.04 39.8507 1124.44 42.408 1122.35 44.648C1120.29 46.8507 1117.87 48.624 1115.07 49.968L1133.66 82H1114.28L1096.59 51.536H1090.76V82H1073.96ZM1090.76 34.736H1103.87C1105.36 34.736 1106.72 34.3627 1107.95 33.616C1109.19 32.832 1110.18 31.8053 1110.92 30.536C1111.67 29.2667 1112.04 27.8667 1112.04 26.336C1112.04 24.8053 1111.67 23.4053 1110.92 22.136C1110.18 20.8667 1109.19 19.8587 1107.95 19.112C1106.72 18.328 1105.36 17.936 1103.87 17.936H1090.76V34.736Z"
                />
              </mask>
              <path
                d="M63.9628 3.59999H65.4628V2.09999H63.9628V3.59999ZM63.9628 20.4V21.9H65.4628V20.4H63.9628ZM41.5628 20.4V18.9H40.0628V20.4H41.5628ZM41.5628 82V83.5H43.0628V82H41.5628ZM24.7628 82H23.2628V83.5H24.7628V82ZM24.7628 20.4H26.2628V18.9H24.7628V20.4ZM2.36281 20.4H0.862812V21.9H2.36281V20.4ZM2.36281 3.59999V2.09999H0.862812V3.59999H2.36281ZM62.4628 3.59999V20.4H65.4628V3.59999H62.4628ZM63.9628 18.9H41.5628V21.9H63.9628V18.9ZM40.0628 20.4V82H43.0628V20.4H40.0628ZM41.5628 80.5H24.7628V83.5H41.5628V80.5ZM26.2628 82V20.4H23.2628V82H26.2628ZM24.7628 18.9H2.36281V21.9H24.7628V18.9ZM3.86281 20.4V3.59999H0.862812V20.4H3.86281ZM2.36281 5.09999H63.9628V2.09999H2.36281V5.09999ZM119.726 3.59999V2.09999H118.226V3.59999H119.726ZM136.526 3.59999H138.026V2.09999H136.526V3.59999ZM136.526 82V83.5H138.026V82H136.526ZM119.726 82H118.226V83.5H119.726V82ZM119.726 48.4H121.226V46.9H119.726V48.4ZM91.9497 48.4V46.9H90.4497V48.4H91.9497ZM91.9497 82V83.5H93.4497V82H91.9497ZM75.1497 82H73.6497V83.5H75.1497V82ZM75.1497 3.59999V2.09999H73.6497V3.59999H75.1497ZM91.9497 3.59999H93.4497V2.09999H91.9497V3.59999ZM91.9497 31.6H90.4497V33.1H91.9497V31.6ZM119.726 31.6V33.1H121.226V31.6H119.726ZM119.726 5.09999H136.526V2.09999H119.726V5.09999ZM135.026 3.59999V82H138.026V3.59999H135.026ZM136.526 80.5H119.726V83.5H136.526V80.5ZM121.226 82V48.4H118.226V82H121.226ZM119.726 46.9H91.9497V49.9H119.726V46.9ZM90.4497 48.4V82H93.4497V48.4H90.4497ZM91.9497 80.5H75.1497V83.5H91.9497V80.5ZM76.6497 82V3.59999H73.6497V82H76.6497ZM75.1497 5.09999H91.9497V2.09999H75.1497V5.09999ZM90.4497 3.59999V31.6H93.4497V3.59999H90.4497ZM91.9497 33.1H119.726V30.1H91.9497V33.1ZM121.226 31.6V3.59999H118.226V31.6H121.226ZM149.962 82H148.462V83.5H149.962V82ZM149.962 3.59999V2.09999H148.462V3.59999H149.962ZM199.914 3.59999H201.414V2.09999H199.914V3.59999ZM199.914 20.4V21.9H201.414V20.4H199.914ZM166.762 20.4V18.9H165.262V20.4H166.762ZM166.762 31.6H165.262V33.1H166.762V31.6ZM192.298 31.6H193.798V30.1H192.298V31.6ZM192.298 48.4V49.9H193.798V48.4H192.298ZM166.762 48.4V46.9H165.262V48.4H166.762ZM166.762 65.2H165.262V66.7H166.762V65.2ZM199.914 65.2H201.414V63.7H199.914V65.2ZM199.914 82V83.5H201.414V82H199.914ZM151.462 82V3.59999H148.462V82H151.462ZM149.962 5.09999H199.914V2.09999H149.962V5.09999ZM198.414 3.59999V20.4H201.414V3.59999H198.414ZM199.914 18.9H166.762V21.9H199.914V18.9ZM165.262 20.4V31.6H168.262V20.4H165.262ZM166.762 33.1H192.298V30.1H166.762V33.1ZM190.798 31.6V48.4H193.798V31.6H190.798ZM192.298 46.9H166.762V49.9H192.298V46.9ZM165.262 48.4V65.2H168.262V48.4H165.262ZM166.762 66.7H199.914V63.7H166.762V66.7ZM198.414 65.2V82H201.414V65.2H198.414ZM199.914 80.5H149.962V83.5H199.914V80.5ZM260.103 80.264L259.48 81.6288L259.485 81.6307L260.103 80.264ZM247.895 71.472L246.791 72.4881L246.796 72.4935L247.895 71.472ZM239.775 58.424L238.379 58.9738L239.775 58.424ZM240.055 26.28L238.682 25.6766L238.678 25.6853L240.055 26.28ZM248.791 13.512L249.84 14.5835L249.841 14.5834L248.791 13.512ZM261.279 5.168L260.703 3.78305L260.699 3.7847L261.279 5.168ZM291.855 6.064L291.207 7.41687L291.855 6.064ZM306.191 18.384L306.901 19.7053L308.438 18.8796L307.391 17.484L306.191 18.384ZM291.183 26.448L290.059 27.4415L290.846 28.3318L291.893 27.7693L291.183 26.448ZM283.679 20.792L283.054 22.1556L283.065 22.1608L283.077 22.1658L283.679 20.792ZM267.383 20.68L266.775 19.3085L267.383 20.68ZM260.383 25.608L259.303 24.5664L260.383 25.608ZM255.455 33.224L254.071 32.6458L254.068 32.6533L254.065 32.6609L255.455 33.224ZM255.343 52.264L253.945 52.8085L253.948 52.8164L253.951 52.8242L255.343 52.264ZM260.103 59.824L259.005 60.8462L259.014 60.8556L260.103 59.824ZM267.103 64.864L266.471 66.2243L266.479 66.2279L266.486 66.2315L267.103 64.864ZM280.711 65.984L281.097 67.4333L281.108 67.4305L281.119 67.4275L280.711 65.984ZM285.695 63.856L284.941 62.5592L285.695 63.856ZM290.231 60.272L289.156 59.2252L290.231 60.272ZM294.095 55.12L295.39 55.8773L296.71 53.62H294.095V55.12ZM283.567 55.12H282.067V56.62H283.567V55.12ZM283.567 40.56V39.06H282.067V40.56H283.567ZM313.919 40.56L315.417 40.4837L315.344 39.06H313.919V40.56ZM311.511 57.136L310.103 56.6193L310.101 56.625L311.511 57.136ZM303.391 70.8L302.274 69.7989L303.391 70.8ZM275.391 81.956C270.102 81.956 265.219 80.932 260.721 78.8973L259.485 81.6307C264.395 83.852 269.703 84.956 275.391 84.956V81.956ZM260.725 78.8992C256.237 76.8527 252.33 74.0383 248.993 70.4505L246.796 72.4935C250.404 76.3724 254.635 79.4193 259.48 81.6288L260.725 78.8992ZM248.998 70.4559C245.656 66.8259 243.046 62.6359 241.17 57.8742L238.379 58.9738C240.386 64.0681 243.19 68.5768 246.791 72.4881L248.998 70.4559ZM241.17 57.8742C239.301 53.13 238.363 48.0721 238.363 42.688H235.363C235.363 48.4293 236.365 53.862 238.379 58.9738L241.17 57.8742ZM238.363 42.688C238.363 36.8573 239.394 31.5936 241.432 26.8746L238.678 25.6853C236.459 30.8224 235.363 36.4973 235.363 42.688H238.363ZM241.428 26.8834C243.52 22.1216 246.325 18.0268 249.84 14.5835L247.741 12.4405C243.939 16.1652 240.92 20.5824 238.682 25.6766L241.428 26.8834ZM249.841 14.5834C253.405 11.0906 257.41 8.41702 261.859 6.55128L260.699 3.7847C255.889 5.80164 251.568 8.69069 247.741 12.4406L249.841 14.5834ZM261.855 6.55294C266.342 4.68616 270.963 3.756 275.727 3.756V0.755997C270.56 0.755997 265.549 1.76716 260.703 3.78305L261.855 6.55294ZM275.727 3.756C280.936 3.756 286.092 4.96733 291.207 7.41687L292.503 4.71112C287.015 2.08333 281.419 0.755997 275.727 0.755997V3.756ZM291.207 7.41687C296.25 9.83177 300.85 13.7629 304.991 19.284L307.391 17.484C303.02 11.6557 298.062 7.37355 292.503 4.71112L291.207 7.41687ZM305.481 17.0627L290.473 25.1267L291.893 27.7693L306.901 19.7053L305.481 17.0627ZM292.307 25.4545C289.907 22.7406 287.234 20.7129 284.281 19.4182L283.077 22.1658C285.574 23.2605 287.904 25.0034 290.059 27.4415L292.307 25.4545ZM284.304 19.4284C281.434 18.1129 278.496 17.444 275.503 17.444V20.444C278.035 20.444 280.548 21.007 283.054 22.1556L284.304 19.4284ZM275.503 17.444C272.489 17.444 269.576 18.0682 266.775 19.3085L267.99 22.0515C270.416 20.9771 272.916 20.444 275.503 20.444V17.444ZM266.775 19.3085C263.979 20.547 261.487 22.3039 259.303 24.5664L261.462 26.6496C263.386 24.6561 265.56 23.1277 267.99 22.0515L266.775 19.3085ZM259.303 24.5664C257.11 26.8391 255.369 29.5384 254.071 32.6458L256.839 33.8022C258.005 31.0109 259.549 28.6329 261.462 26.6495L259.303 24.5664ZM254.065 32.6609C252.789 35.8103 252.163 39.2712 252.163 43.024H255.163C255.163 39.6087 255.731 36.5364 256.845 33.7871L254.065 32.6609ZM252.163 43.024C252.163 46.4834 252.753 49.7493 253.945 52.8085L256.74 51.7195C255.692 49.0294 255.163 46.1352 255.163 43.024H252.163ZM253.951 52.8242C255.174 55.8613 256.858 58.5398 259.005 60.8461L261.201 58.8019C259.316 56.7775 257.826 54.416 256.734 51.7038L253.951 52.8242ZM259.014 60.8556C261.16 63.1206 263.648 64.9123 266.471 66.2243L267.735 63.5037C265.256 62.3517 263.078 60.7834 261.192 58.7924L259.014 60.8556ZM266.486 66.2315C269.339 67.517 272.387 68.156 275.615 68.156V65.156C272.795 65.156 270.168 64.6003 267.719 63.4965L266.486 66.2315ZM275.615 68.156C277.464 68.156 279.293 67.9146 281.097 67.4333L280.324 64.5346C278.769 64.9494 277.2 65.156 275.615 65.156V68.156ZM281.119 67.4275C282.962 66.9066 284.739 66.1467 286.449 65.1528L284.941 62.5592C283.44 63.4319 281.894 64.0908 280.303 64.5405L281.119 67.4275ZM286.449 65.1528C288.182 64.1449 289.8 62.8631 291.305 61.3188L289.156 59.2252C287.824 60.5929 286.418 61.7004 284.941 62.5592L286.449 65.1528ZM291.305 61.3188C292.819 59.7654 294.178 57.9479 295.39 55.8773L292.8 54.3627C291.696 56.2494 290.48 57.8666 289.156 59.2252L291.305 61.3188ZM294.095 53.62H283.567V56.62H294.095V53.62ZM285.067 55.12V40.56H282.067V55.12H285.067ZM283.567 42.06H313.919V39.06H283.567V42.06ZM312.421 40.6363C312.71 46.3086 311.933 51.6311 310.103 56.6193L312.919 57.6527C314.897 52.2622 315.725 46.5341 315.417 40.4837L312.421 40.6363ZM310.101 56.625C308.297 61.6021 305.688 65.9891 302.274 69.7989L304.508 71.8011C308.187 67.6962 310.991 62.9739 312.921 57.647L310.101 56.625ZM302.274 69.7989C298.861 73.6072 294.861 76.584 290.266 78.7378L291.539 81.4542C296.502 79.128 300.828 75.9075 304.508 71.8011L302.274 69.7989ZM290.266 78.7378C285.697 80.8794 280.746 81.956 275.391 81.956V84.956C281.161 84.956 286.551 83.7926 291.539 81.4542L290.266 78.7378ZM344.717 3.59999V2.09999H343.666L343.307 3.08835L344.717 3.59999ZM363.645 3.59999L365.055 3.08835L364.696 2.09999H363.645V3.59999ZM392.093 82V83.5H394.233L393.503 81.4884L392.093 82ZM374.285 82L372.875 82.5126L373.234 83.5H374.285V82ZM369.805 69.68L371.215 69.1674L370.856 68.18H369.805V69.68ZM338.557 69.68V68.18H337.506L337.147 69.1674L338.557 69.68ZM334.077 82V83.5H335.128L335.487 82.5126L334.077 82ZM316.269 82L314.859 81.4884L314.129 83.5H316.269V82ZM344.717 52.88L343.307 52.3693L342.579 54.38H344.717V52.88ZM363.645 52.88V54.38H365.792L365.053 52.364L363.645 52.88ZM354.125 26.896L355.534 26.38L354.117 22.513L352.715 26.3853L354.125 26.896ZM344.717 5.09999H363.645V2.09999H344.717V5.09999ZM362.235 4.11164L390.683 82.5116L393.503 81.4884L365.055 3.08835L362.235 4.11164ZM392.093 80.5H374.285V83.5H392.093V80.5ZM375.695 81.4874L371.215 69.1674L368.395 70.1926L372.875 82.5126L375.695 81.4874ZM369.805 68.18H338.557V71.18H369.805V68.18ZM337.147 69.1674L332.667 81.4874L335.487 82.5126L339.967 70.1926L337.147 69.1674ZM334.077 80.5H316.269V83.5H334.077V80.5ZM317.679 82.5116L346.127 4.11164L343.307 3.08835L314.859 81.4884L317.679 82.5116ZM344.717 54.38H363.645V51.38H344.717V54.38ZM365.053 52.364L355.534 26.38L352.717 27.412L362.237 53.396L365.053 52.364ZM352.715 26.3853L343.307 52.3693L346.127 53.3907L355.535 27.4067L352.715 26.3853ZM398.79 82L397.318 81.7139L396.971 83.5H398.79V82ZM414.022 3.59999V2.09999H412.786L412.55 3.31392L414.022 3.59999ZM428.358 3.59999L429.76 3.06699L429.393 2.09999H428.358V3.59999ZM445.942 49.856L444.54 50.389L445.942 54.0774L447.344 50.389L445.942 49.856ZM463.526 3.59999V2.09999H462.492L462.124 3.06699L463.526 3.59999ZM477.862 3.59999L479.335 3.31392L479.099 2.09999H477.862V3.59999ZM493.094 82V83.5H494.914L494.567 81.7139L493.094 82ZM475.958 82L474.486 82.2844L474.72 83.5H475.958V82ZM467.782 39.664L469.255 39.3796L468.252 34.1839L466.379 39.1332L467.782 39.664ZM451.766 82V83.5H452.803L453.169 82.5308L451.766 82ZM440.118 82L438.715 82.5308L439.082 83.5H440.118V82ZM424.102 39.664L425.505 39.1332L423.633 34.1839L422.63 39.3796L424.102 39.664ZM415.926 82V83.5H417.164L417.399 82.2844L415.926 82ZM400.263 82.2861L415.495 3.88607L412.55 3.31392L397.318 81.7139L400.263 82.2861ZM414.022 5.09999H428.358V2.09999H414.022V5.09999ZM426.956 4.133L444.54 50.389L447.344 49.323L429.76 3.06699L426.956 4.133ZM447.344 50.389L464.928 4.133L462.124 3.06699L444.54 49.323L447.344 50.389ZM463.526 5.09999H477.862V2.09999H463.526V5.09999ZM476.39 3.88607L491.622 82.2861L494.567 81.7139L479.335 3.31392L476.39 3.88607ZM493.094 80.5H475.958V83.5H493.094V80.5ZM477.431 81.7156L469.255 39.3796L466.31 39.9484L474.486 82.2844L477.431 81.7156ZM466.379 39.1332L450.363 81.4692L453.169 82.5308L469.185 40.1947L466.379 39.1332ZM451.766 80.5H440.118V83.5H451.766V80.5ZM441.521 81.4692L425.505 39.1332L422.699 40.1947L438.715 82.5308L441.521 81.4692ZM422.63 39.3796L414.454 81.7156L417.399 82.2844L425.575 39.9484L422.63 39.3796ZM415.926 80.5H398.79V83.5H415.926V80.5ZM504.228 82H502.728V83.5H504.228V82ZM504.228 3.59999V2.09999H502.728V3.59999H504.228ZM554.18 3.59999H555.68V2.09999H554.18V3.59999ZM554.18 20.4V21.9H555.68V20.4H554.18ZM521.028 20.4V18.9H519.528V20.4H521.028ZM521.028 31.6H519.528V33.1H521.028V31.6ZM546.564 31.6H548.064V30.1H546.564V31.6ZM546.564 48.4V49.9H548.064V48.4H546.564ZM521.028 48.4V46.9H519.528V48.4H521.028ZM521.028 65.2H519.528V66.7H521.028V65.2ZM554.18 65.2H555.68V63.7H554.18V65.2ZM554.18 82V83.5H555.68V82H554.18ZM505.728 82V3.59999H502.728V82H505.728ZM504.228 5.09999H554.18V2.09999H504.228V5.09999ZM552.68 3.59999V20.4H555.68V3.59999H552.68ZM554.18 18.9H521.028V21.9H554.18V18.9ZM519.528 20.4V31.6H522.528V20.4H519.528ZM521.028 33.1H546.564V30.1H521.028V33.1ZM545.064 31.6V48.4H548.064V31.6H545.064ZM546.564 46.9H521.028V49.9H546.564V46.9ZM519.528 48.4V65.2H522.528V48.4H519.528ZM521.028 66.7H554.18V63.7H521.028V66.7ZM552.68 65.2V82H555.68V65.2H552.68ZM554.18 80.5H504.228V83.5H554.18V80.5ZM566.462 40V38.5H564.962V40H566.462ZM602.302 40H603.802V38.5H602.302V40ZM602.302 56.8V58.3H603.802V56.8H602.302ZM566.462 56.8H564.962V58.3H566.462V56.8ZM566.462 41.5H602.302V38.5H566.462V41.5ZM600.802 40V56.8H603.802V40H600.802ZM602.302 55.3H566.462V58.3H602.302V55.3ZM567.962 56.8V40H564.962V56.8H567.962ZM637.126 80.32L636.504 81.6848L636.513 81.6889L637.126 80.32ZM624.806 71.528L623.713 72.5554L623.719 72.5611L624.806 71.528ZM616.518 58.592L615.126 59.1509L615.132 59.1637L616.518 58.592ZM616.518 27.008L615.13 26.44L615.128 26.4454L616.518 27.008ZM624.806 14.072L623.719 13.0389L623.719 13.0392L624.806 14.072ZM637.126 5.33599L637.74 6.70493L637.749 6.7008L637.126 5.33599ZM669.606 6.56799L668.881 7.88098L668.888 7.88484L669.606 6.56799ZM682.878 18.272L683.588 19.5933L685.093 18.785L684.097 17.3975L682.878 18.272ZM667.87 26.336L666.737 27.3184L667.523 28.2255L668.58 27.6573L667.87 26.336ZM660.87 20.96L661.534 19.6147L660.87 20.96ZM643.622 20.792L642.99 19.4317L642.983 19.4352L643.622 20.792ZM636.678 25.944L635.572 24.9313L635.571 24.9321L636.678 25.944ZM632.03 33.504L630.633 32.9594L632.03 33.504ZM632.03 52.04L630.633 52.5845L632.03 52.04ZM636.678 59.656L635.562 60.6584L635.571 60.6683L635.58 60.6781L636.678 59.656ZM643.622 64.808L642.967 66.1573L642.978 66.1629L642.99 66.1683L643.622 64.808ZM660.87 64.64L661.534 65.9853L661.541 65.9817L661.548 65.978L660.87 64.64ZM667.87 59.152L668.588 57.8348L667.519 57.2523L666.729 58.1789L667.87 59.152ZM682.878 67.328L684.094 68.2069L685.092 66.826L683.596 66.0108L682.878 67.328ZM669.606 79.032L670.332 80.345L669.606 79.032ZM652.078 81.956C646.98 81.956 642.206 80.9521 637.74 78.9511L636.513 81.6889C641.38 83.8692 646.574 84.956 652.078 84.956V81.956ZM637.749 78.9552C633.258 76.9073 629.309 74.0894 625.894 70.4949L623.719 72.5611C627.397 76.4332 631.662 79.4767 636.504 81.6848L637.749 78.9552ZM625.899 70.5006C622.519 66.9044 619.854 62.7481 617.905 58.0203L615.132 59.1637C617.215 64.2173 620.075 68.6849 623.713 72.5554L625.899 70.5006ZM617.91 58.0331C616.007 53.2924 615.05 48.2191 615.05 42.8H612.05C612.05 48.5809 613.072 54.0356 615.126 59.1509L617.91 58.0331ZM615.05 42.8C615.05 37.3421 616.007 32.2705 617.909 27.5706L615.128 26.4454C613.072 31.5268 612.05 36.9832 612.05 42.8H615.05ZM617.907 27.5759C619.855 22.8124 622.519 18.6599 625.894 15.1048L623.719 13.0392C620.075 16.8761 617.213 21.3476 615.13 26.44L617.907 27.5759ZM625.894 15.1051C629.307 11.5125 633.253 8.71505 637.74 6.7049L636.513 3.96709C631.667 6.13828 627.399 9.16479 623.719 13.0389L625.894 15.1051ZM637.749 6.7008C642.213 4.66491 646.984 3.64399 652.078 3.64399V0.643993C646.57 0.643993 641.373 1.75108 636.504 3.9712L637.749 6.7008ZM652.078 3.64399C658.182 3.64399 663.774 5.05938 668.881 7.88096L670.332 5.25503C664.762 2.17794 658.668 0.643993 652.078 0.643993V3.64399ZM668.888 7.88484C674.031 10.69 678.283 14.4409 681.66 19.1465L684.097 17.3975C680.455 12.3217 675.859 8.26997 670.325 5.25115L668.888 7.88484ZM682.168 16.9507L667.16 25.0147L668.58 27.6573L683.588 19.5933L682.168 16.9507ZM669.004 25.3536C666.928 22.9587 664.434 21.0448 661.534 19.6147L660.207 22.3053C662.758 23.5631 664.93 25.2333 666.737 27.3184L669.004 25.3536ZM661.534 19.6147C658.595 18.1656 655.437 17.444 652.078 17.444V20.444C654.992 20.444 657.695 21.0664 660.207 22.3053L661.534 19.6147ZM652.078 17.444C648.878 17.444 645.843 18.1056 642.99 19.4317L644.255 22.1522C646.703 21.0143 649.305 20.444 652.078 20.444V17.444ZM642.983 19.4352C640.187 20.7532 637.715 22.5896 635.572 24.9313L637.785 26.9567C639.674 24.8931 641.831 23.2948 644.262 22.1488L642.983 19.4352ZM635.571 24.9321C633.461 27.241 631.816 29.9215 630.633 32.9594L633.428 34.0485C634.484 31.3372 635.938 28.9777 637.786 26.9559L635.571 24.9321ZM630.633 32.9594C629.44 36.0207 628.85 39.3055 628.85 42.8H631.85C631.85 39.6492 632.381 36.7367 633.428 34.0485L630.633 32.9594ZM628.85 42.8C628.85 46.2594 629.441 49.5253 630.633 52.5845L633.428 51.4955C632.38 48.8054 631.85 45.9112 631.85 42.8H628.85ZM630.633 52.5845C631.815 55.6204 633.458 58.3157 635.562 60.6584L637.794 58.6536C635.941 56.5909 634.485 54.2089 633.428 51.4955L630.633 52.5845ZM635.58 60.6781C637.72 62.9763 640.184 64.8056 642.967 66.1573L644.278 63.4587C641.834 62.2717 639.668 60.6663 637.776 58.6339L635.58 60.6781ZM642.99 66.1683C645.843 67.4944 648.878 68.156 652.078 68.156V65.156C649.305 65.156 646.703 64.5856 644.255 63.4477L642.99 66.1683ZM652.078 68.156C655.437 68.156 658.595 67.4344 661.534 65.9853L660.207 63.2947C657.695 64.5336 654.992 65.156 652.078 65.156V68.156ZM661.548 65.978C664.447 64.5088 666.939 62.5567 669.012 60.1251L666.729 58.1789C664.919 60.3019 662.744 62.0085 660.192 63.302L661.548 65.978ZM667.153 60.4692L682.161 68.6452L683.596 66.0108L668.588 57.8348L667.153 60.4692ZM681.663 66.4491C678.285 71.12 674.03 74.8745 668.881 77.719L670.332 80.345C675.86 77.2908 680.453 73.2426 684.094 68.2069L681.663 66.4491ZM668.881 77.719C663.774 80.5406 658.182 81.956 652.078 81.956V84.956C658.668 84.956 664.762 83.4221 670.332 80.345L668.881 77.719ZM737.476 3.59999V2.09999H735.976V3.59999H737.476ZM754.276 3.59999H755.776V2.09999H754.276V3.59999ZM754.276 82V83.5H755.776V82H754.276ZM737.476 82H735.976V83.5H737.476V82ZM737.476 48.4H738.976V46.9H737.476V48.4ZM709.7 48.4V46.9H708.2V48.4H709.7ZM709.7 82V83.5H711.2V82H709.7ZM692.9 82H691.4V83.5H692.9V82ZM692.9 3.59999V2.09999H691.4V3.59999H692.9ZM709.7 3.59999H711.2V2.09999H709.7V3.59999ZM709.7 31.6H708.2V33.1H709.7V31.6ZM737.476 31.6V33.1H738.976V31.6H737.476ZM737.476 5.09999H754.276V2.09999H737.476V5.09999ZM752.776 3.59999V82H755.776V3.59999H752.776ZM754.276 80.5H737.476V83.5H754.276V80.5ZM738.976 82V48.4H735.976V82H738.976ZM737.476 46.9H709.7V49.9H737.476V46.9ZM708.2 48.4V82H711.2V48.4H708.2ZM709.7 80.5H692.9V83.5H709.7V80.5ZM694.4 82V3.59999H691.4V82H694.4ZM692.9 5.09999H709.7V2.09999H692.9V5.09999ZM708.2 3.59999V31.6H711.2V3.59999H708.2ZM709.7 33.1H737.476V30.1H709.7V33.1ZM738.976 31.6V3.59999H735.976V31.6H738.976ZM793.92 3.59999V2.09999H792.869L792.51 3.08835L793.92 3.59999ZM812.848 3.59999L814.258 3.08835L813.9 2.09999H812.848V3.59999ZM841.296 82V83.5H843.436L842.706 81.4884L841.296 82ZM823.488 82L822.078 82.5126L822.438 83.5H823.488V82ZM819.008 69.68L820.418 69.1674L820.059 68.18H819.008V69.68ZM787.76 69.68V68.18H786.71L786.351 69.1674L787.76 69.68ZM783.28 82V83.5H784.331L784.69 82.5126L783.28 82ZM765.472 82L764.062 81.4884L763.332 83.5H765.472V82ZM793.92 52.88L792.51 52.3693L791.782 54.38H793.92V52.88ZM812.848 52.88V54.38H814.995L814.257 52.364L812.848 52.88ZM803.328 26.896L804.737 26.38L803.32 22.513L801.918 26.3853L803.328 26.896ZM793.92 5.09999H812.848V2.09999H793.92V5.09999ZM811.438 4.11164L839.886 82.5116L842.706 81.4884L814.258 3.08835L811.438 4.11164ZM841.296 80.5H823.488V83.5H841.296V80.5ZM824.898 81.4874L820.418 69.1674L817.599 70.1926L822.078 82.5126L824.898 81.4874ZM819.008 68.18H787.76V71.18H819.008V68.18ZM786.351 69.1674L781.87 81.4874L784.69 82.5126L789.17 70.1926L786.351 69.1674ZM783.28 80.5H765.472V83.5H783.28V80.5ZM766.882 82.5116L795.33 4.11164L792.51 3.08835L764.062 81.4884L766.882 82.5116ZM793.92 54.38H812.848V51.38H793.92V54.38ZM814.257 52.364L804.737 26.38L801.92 27.412L811.44 53.396L814.257 52.364ZM801.918 26.3853L792.51 52.3693L795.331 53.3907L804.739 27.4067L801.918 26.3853ZM850.181 82H848.681V83.5H850.181V82ZM850.181 3.59999V2.09999H848.681V3.59999H850.181ZM868.325 3.59999L869.613 2.83134L869.177 2.09999H868.325V3.59999ZM896.997 51.648L895.709 52.4166L898.497 57.0889V51.648H896.997ZM896.997 3.59999V2.09999H895.497V3.59999H896.997ZM913.797 3.59999H915.297V2.09999H913.797V3.59999ZM913.797 82V83.5H915.297V82H913.797ZM895.653 82L894.365 82.7687L894.801 83.5H895.653V82ZM866.981 33.952L868.269 33.1833L865.481 28.5111V33.952H866.981ZM866.981 82V83.5H868.481V82H866.981ZM851.681 82V3.59999H848.681V82H851.681ZM850.181 5.09999H868.325V2.09999H850.181V5.09999ZM867.037 4.36864L895.709 52.4166L898.285 50.8793L869.613 2.83134L867.037 4.36864ZM898.497 51.648V3.59999H895.497V51.648H898.497ZM896.997 5.09999H913.797V2.09999H896.997V5.09999ZM912.297 3.59999V82H915.297V3.59999H912.297ZM913.797 80.5H895.653V83.5H913.797V80.5ZM896.941 81.2313L868.269 33.1833L865.693 34.7206L894.365 82.7687L896.941 81.2313ZM865.481 33.952V82H868.481V33.952H865.481ZM866.981 80.5H850.181V83.5H866.981V80.5ZM948.29 80.264L947.668 81.6288L947.672 81.6307L948.29 80.264ZM936.082 71.472L934.979 72.4881L934.984 72.4935L936.082 71.472ZM927.962 58.424L926.567 58.9738L927.962 58.424ZM928.242 26.28L926.869 25.6766L926.865 25.6853L928.242 26.28ZM936.978 13.512L938.028 14.5835L938.028 14.5834L936.978 13.512ZM949.466 5.168L948.89 3.78305L948.886 3.7847L949.466 5.168ZM980.042 6.064L979.394 7.41687L980.042 6.064ZM994.378 18.384L995.088 19.7053L996.625 18.8796L995.578 17.484L994.378 18.384ZM979.37 26.448L978.246 27.4415L979.034 28.3318L980.08 27.7693L979.37 26.448ZM971.866 20.792L971.241 22.1556L971.253 22.1608L971.264 22.1658L971.866 20.792ZM955.57 20.68L954.963 19.3085L955.57 20.68ZM948.57 25.608L947.491 24.5664L948.57 25.608ZM943.642 33.224L942.258 32.6458L942.255 32.6533L942.252 32.6609L943.642 33.224ZM943.53 52.264L942.133 52.8085L942.136 52.8164L942.139 52.8242L943.53 52.264ZM948.29 59.824L947.192 60.8462L947.201 60.8556L948.29 59.824ZM955.29 64.864L954.658 66.2243L954.666 66.2279L954.674 66.2315L955.29 64.864ZM968.898 65.984L969.285 67.4333L969.296 67.4305L969.306 67.4275L968.898 65.984ZM973.882 63.856L973.128 62.5592L973.882 63.856ZM978.418 60.272L977.344 59.2252L978.418 60.272ZM982.282 55.12L983.577 55.8773L984.897 53.62H982.282V55.12ZM971.754 55.12H970.254V56.62H971.754V55.12ZM971.754 40.56V39.06H970.254V40.56H971.754ZM1002.11 40.56L1003.6 40.4837L1003.53 39.06H1002.11V40.56ZM999.698 57.136L998.29 56.6193L998.288 56.625L999.698 57.136ZM991.578 70.8L990.461 69.7989L991.578 70.8ZM963.578 81.956C958.29 81.956 953.406 80.932 948.909 78.8973L947.672 81.6307C952.582 83.852 957.891 84.956 963.578 84.956V81.956ZM948.913 78.8992C944.425 76.8527 940.517 74.0383 937.181 70.4505L934.984 72.4935C938.591 76.3724 942.823 79.4193 947.668 81.6288L948.913 78.8992ZM937.186 70.4559C933.843 66.8259 931.234 62.6359 929.358 57.8742L926.567 58.9738C928.574 64.0681 931.377 68.5768 934.979 72.4881L937.186 70.4559ZM929.358 57.8742C927.489 53.13 926.55 48.0721 926.55 42.688H923.55C923.55 48.4293 924.553 53.862 926.567 58.9738L929.358 57.8742ZM926.55 42.688C926.55 36.8573 927.582 31.5936 929.619 26.8746L926.865 25.6853C924.647 30.8224 923.55 36.4973 923.55 42.688H926.55ZM929.616 26.8834C931.708 22.1216 934.513 18.0268 938.028 14.5835L935.929 12.4405C932.126 16.1652 929.107 20.5824 926.869 25.6766L929.616 26.8834ZM938.028 14.5834C941.593 11.0906 945.597 8.41702 950.046 6.55128L948.886 3.7847C944.077 5.80164 939.756 8.69069 935.929 12.4406L938.028 14.5834ZM950.042 6.55294C954.53 4.68616 959.15 3.756 963.914 3.756V0.755997C958.748 0.755997 953.736 1.76716 948.89 3.78305L950.042 6.55294ZM963.914 3.756C969.124 3.756 974.279 4.96733 979.394 7.41687L980.69 4.71112C975.203 2.08333 969.606 0.755997 963.914 0.755997V3.756ZM979.394 7.41687C984.437 9.83177 989.037 13.7629 993.178 19.284L995.578 17.484C991.207 11.6557 986.25 7.37355 980.69 4.71112L979.394 7.41687ZM993.668 17.0627L978.66 25.1267L980.08 27.7693L995.088 19.7053L993.668 17.0627ZM980.494 25.4545C978.095 22.7406 975.422 20.7129 972.469 19.4182L971.264 22.1658C973.761 23.2605 976.091 25.0034 978.246 27.4415L980.494 25.4545ZM972.491 19.4284C969.621 18.1129 966.684 17.444 963.69 17.444V20.444C966.222 20.444 968.735 21.007 971.241 22.1556L972.491 19.4284ZM963.69 17.444C960.677 17.444 957.763 18.0682 954.963 19.3085L956.178 22.0515C958.604 20.9771 961.104 20.444 963.69 20.444V17.444ZM954.963 19.3085C952.166 20.547 949.674 22.3039 947.491 24.5664L949.65 26.6496C951.573 24.6561 953.748 23.1277 956.178 22.0515L954.963 19.3085ZM947.491 24.5664C945.298 26.8391 943.556 29.5384 942.258 32.6458L945.026 33.8022C946.192 31.0109 947.736 28.6329 949.65 26.6495L947.491 24.5664ZM942.252 32.6609C940.976 35.8103 940.35 39.2712 940.35 43.024H943.35C943.35 39.6087 943.919 36.5364 945.033 33.7871L942.252 32.6609ZM940.35 43.024C940.35 46.4834 940.941 49.7493 942.133 52.8085L944.928 51.7195C943.88 49.0294 943.35 46.1352 943.35 43.024H940.35ZM942.139 52.8242C943.362 55.8613 945.045 58.5398 947.192 60.8461L949.388 58.8019C947.503 56.7775 946.014 54.416 944.922 51.7038L942.139 52.8242ZM947.201 60.8556C949.347 63.1206 951.835 64.9123 954.658 66.2243L955.923 63.5037C953.444 62.3517 951.266 60.7834 949.379 58.7924L947.201 60.8556ZM954.674 66.2315C957.526 67.517 960.575 68.156 963.802 68.156V65.156C960.982 65.156 958.356 64.6003 955.907 63.4965L954.674 66.2315ZM963.802 68.156C965.652 68.156 967.48 67.9146 969.285 67.4333L968.512 64.5346C966.956 64.9494 965.388 65.156 963.802 65.156V68.156ZM969.306 67.4275C971.149 66.9066 972.927 66.1467 974.636 65.1528L973.128 62.5592C971.627 63.4319 970.082 64.0908 968.49 64.5405L969.306 67.4275ZM974.636 65.1528C976.37 64.1449 977.988 62.8631 979.493 61.3188L977.344 59.2252C976.011 60.5929 974.606 61.7004 973.128 62.5592L974.636 65.1528ZM979.493 61.3188C981.006 59.7654 982.366 57.9479 983.577 55.8773L980.988 54.3627C979.884 56.2494 978.668 57.8666 977.344 59.2252L979.493 61.3188ZM982.282 53.62H971.754V56.62H982.282V53.62ZM973.254 55.12V40.56H970.254V55.12H973.254ZM971.754 42.06H1002.11V39.06H971.754V42.06ZM1000.61 40.6363C1000.9 46.3086 1000.12 51.6311 998.29 56.6193L1001.11 57.6527C1003.08 52.2622 1003.91 46.5341 1003.6 40.4837L1000.61 40.6363ZM998.288 56.625C996.485 61.6021 993.876 65.9891 990.461 69.7989L992.695 71.8011C996.374 67.6962 999.179 62.9739 1001.11 57.647L998.288 56.625ZM990.461 69.7989C987.048 73.6072 983.049 76.584 978.454 78.7378L979.727 81.4542C984.689 79.128 989.015 75.9075 992.695 71.8011L990.461 69.7989ZM978.454 78.7378C973.885 80.8794 968.933 81.956 963.578 81.956V84.956C969.349 84.956 974.738 83.7926 979.727 81.4542L978.454 78.7378ZM1011.73 82H1010.23V83.5H1011.73V82ZM1011.73 3.59999V2.09999H1010.23V3.59999H1011.73ZM1061.68 3.59999H1063.18V2.09999H1061.68V3.59999ZM1061.68 20.4V21.9H1063.18V20.4H1061.68ZM1028.53 20.4V18.9H1027.03V20.4H1028.53ZM1028.53 31.6H1027.03V33.1H1028.53V31.6ZM1054.06 31.6H1055.56V30.1H1054.06V31.6ZM1054.06 48.4V49.9H1055.56V48.4H1054.06ZM1028.53 48.4V46.9H1027.03V48.4H1028.53ZM1028.53 65.2H1027.03V66.7H1028.53V65.2ZM1061.68 65.2H1063.18V63.7H1061.68V65.2ZM1061.68 82V83.5H1063.18V82H1061.68ZM1013.23 82V3.59999H1010.23V82H1013.23ZM1011.73 5.09999H1061.68V2.09999H1011.73V5.09999ZM1060.18 3.59999V20.4H1063.18V3.59999H1060.18ZM1061.68 18.9H1028.53V21.9H1061.68V18.9ZM1027.03 20.4V31.6H1030.03V20.4H1027.03ZM1028.53 33.1H1054.06V30.1H1028.53V33.1ZM1052.56 31.6V48.4H1055.56V31.6H1052.56ZM1054.06 46.9H1028.53V49.9H1054.06V46.9ZM1027.03 48.4V65.2H1030.03V48.4H1027.03ZM1028.53 66.7H1061.68V63.7H1028.53V66.7ZM1060.18 65.2V82H1063.18V65.2H1060.18ZM1061.68 80.5H1011.73V83.5H1061.68V80.5ZM1073.96 82H1072.46V83.5H1073.96V82ZM1073.96 3.59999V2.09999H1072.46V3.59999H1073.96ZM1117.53 6.848L1116.74 8.12077L1117.53 6.848ZM1125.76 15.584L1124.45 16.3079L1124.45 16.3159L1124.46 16.3239L1125.76 15.584ZM1127.16 36.976L1128.56 37.5205L1128.56 37.5145L1127.16 36.976ZM1122.35 44.648L1121.25 43.6245L1121.25 43.6252L1122.35 44.648ZM1115.07 49.968L1114.42 48.6157L1112.95 49.3178L1113.77 50.721L1115.07 49.968ZM1133.66 82V83.5H1136.26L1134.96 81.247L1133.66 82ZM1114.28 82L1112.99 82.7534L1113.42 83.5H1114.28V82ZM1096.59 51.536L1097.88 50.7826L1097.45 50.036H1096.59V51.536ZM1090.76 51.536V50.036H1089.26V51.536H1090.76ZM1090.76 82V83.5H1092.26V82H1090.76ZM1090.76 34.736H1089.26V36.236H1090.76V34.736ZM1107.95 33.616L1108.73 34.8988L1108.75 34.8903L1108.76 34.8815L1107.95 33.616ZM1110.92 30.536L1112.22 31.2965V31.2965L1110.92 30.536ZM1110.92 22.136L1109.63 22.8965L1110.92 22.136ZM1107.95 19.112L1107.15 20.3775L1107.16 20.3863L1107.18 20.3948L1107.95 19.112ZM1090.76 17.936V16.436H1089.26V17.936H1090.76ZM1075.46 82V3.59999H1072.46V82H1075.46ZM1073.96 5.09999H1105.88V2.09999H1073.96V5.09999ZM1105.88 5.09999C1109.91 5.09999 1113.51 6.11142 1116.74 8.12077L1118.32 5.57523C1114.6 3.25391 1110.44 2.09999 1105.88 2.09999V5.09999ZM1116.74 8.12077C1119.99 10.1476 1122.55 12.8687 1124.45 16.3079L1127.08 14.8601C1124.94 10.982 1122.02 7.87905 1118.32 5.57523L1116.74 8.12077ZM1124.46 16.3239C1126.38 19.7083 1127.34 23.4461 1127.34 27.568H1130.34C1130.34 22.9539 1129.25 18.7023 1127.07 14.8441L1124.46 16.3239ZM1127.34 27.568C1127.34 30.7581 1126.81 33.7102 1125.76 36.4375L1128.56 37.5145C1129.75 34.4178 1130.34 31.0979 1130.34 27.568H1127.34ZM1125.76 36.4315C1124.71 39.1301 1123.21 41.5246 1121.25 43.6245L1123.44 45.6715C1125.66 43.2914 1127.37 40.5713 1128.56 37.5205L1125.76 36.4315ZM1121.25 43.6252C1119.33 45.6867 1117.05 47.3501 1114.42 48.6157L1115.72 51.3203C1118.68 49.8979 1121.26 48.0146 1123.44 45.6708L1121.25 43.6252ZM1113.77 50.721L1132.36 82.753L1134.96 81.247L1116.36 49.215L1113.77 50.721ZM1133.66 80.5H1114.28V83.5H1133.66V80.5ZM1115.58 81.2466L1097.88 50.7826L1095.29 52.2894L1112.99 82.7534L1115.58 81.2466ZM1096.59 50.036H1090.76V53.036H1096.59V50.036ZM1089.26 51.536V82H1092.26V51.536H1089.26ZM1090.76 80.5H1073.96V83.5H1090.76V80.5ZM1090.76 36.236H1103.87V33.236H1090.76V36.236ZM1103.87 36.236C1105.62 36.236 1107.26 35.7929 1108.73 34.8988L1107.18 32.3332C1106.19 32.9324 1105.1 33.236 1103.87 33.236V36.236ZM1108.76 34.8815C1110.19 33.969 1111.35 32.7686 1112.22 31.2965L1109.63 29.7755C1109 30.8421 1108.18 31.695 1107.15 32.3505L1108.76 34.8815ZM1112.22 31.2965C1113.1 29.7874 1113.54 28.1231 1113.54 26.336H1110.54C1110.54 27.6102 1110.23 28.746 1109.63 29.7755L1112.22 31.2965ZM1113.54 26.336C1113.54 24.5489 1113.1 22.8846 1112.22 21.3755L1109.63 22.8965C1110.23 23.926 1110.54 25.0618 1110.54 26.336H1113.54ZM1112.22 21.3755C1111.35 19.897 1110.18 18.7076 1108.73 17.8292L1107.18 20.3948C1108.19 21.0098 1109.01 21.8363 1109.63 22.8965L1112.22 21.3755ZM1108.76 17.8465C1107.28 16.9057 1105.64 16.436 1103.87 16.436V19.436C1105.08 19.436 1106.16 19.7503 1107.15 20.3775L1108.76 17.8465ZM1103.87 16.436H1090.76V19.436H1103.87V16.436ZM1089.26 17.936V34.736H1092.26V17.936H1089.26Z"
                fill="url(#paint0_linear_333_8175)"
                mask="url(#path-1-outside-1_333_8175)"
              />
              <defs>
                <linearGradient
                  id="paint0_linear_333_8175"
                  x1="-48"
                  y1="42.5"
                  x2="1184"
                  y2="42.5"
                  gradientUnits="userSpaceOnUse"
                >
                  <stop stop-color="#E45F23" />
                  <stop offset="1" stop-color="#0E00A1" />
                </linearGradient>
              </defs>
            </svg>