<svg width="189" height="24" viewBox="0 0 189 24" fill="none" xmlns="http://www.w3.org/2000/svg">
<path d="M11.736 23.384C10.2427 23.384 8.80267 23.1173 7.416 22.584C6.05067 22.0507 4.83467 21.2827 3.768 20.28C2.70133 19.2773 1.85867 18.0613 1.24 16.632C0.621333 15.2027 0.312 13.592 0.312 11.8C0.312 10.008 0.621333 8.39733 1.24 6.968C1.85867 5.53867 2.70133 4.32267 3.768 3.32C4.83467 2.31733 6.05067 1.54933 7.416 1.016C8.80267 0.482666 10.2427 0.216 11.736 0.216C13.2507 0.216 14.6907 0.482666 16.056 1.016C17.4427 1.54933 18.6693 2.31733 19.736 3.32C20.8027 4.32267 21.6453 5.53867 22.264 6.968C22.8827 8.39733 23.192 10.008 23.192 11.8C23.192 13.592 22.8827 15.2027 22.264 16.632C21.6453 18.0613 20.8027 19.2773 19.736 20.28C18.6693 21.2827 17.4427 22.0507 16.056 22.584C14.6907 23.1173 13.2507 23.384 11.736 23.384ZM11.736 19.672C12.9307 19.672 14.0827 19.3947 15.192 18.84C16.3013 18.264 17.208 17.3893 17.912 16.216C18.616 15.0427 18.968 13.5707 18.968 11.8C18.968 10.008 18.616 8.52533 17.912 7.352C17.208 6.17867 16.3013 5.31467 15.192 4.76C14.0827 4.184 12.9307 3.896 11.736 3.896C10.5627 3.896 9.42133 4.184 8.312 4.76C7.20267 5.31467 6.296 6.17867 5.592 7.352C4.888 8.52533 4.536 10.008 4.536 11.8C4.536 13.5707 4.888 15.0427 5.592 16.216C6.296 17.3893 7.20267 18.264 8.312 18.84C9.42133 19.3947 10.5627 19.672 11.736 19.672ZM32.148 23.384C30.7827 23.384 29.62 23.096 28.66 22.52C27.7 21.9227 26.964 21.112 26.452 20.088C25.94 19.0427 25.684 17.8587 25.684 16.536V7.128H29.748V15.928C29.748 17.1013 30.0467 18.0613 30.644 18.808C31.2627 19.5547 32.1587 19.928 33.332 19.928C34.548 19.928 35.4547 19.5653 36.052 18.84C36.6493 18.1147 36.948 17.144 36.948 15.928V7.128H41.044V23H36.948V21.144C36.4147 21.8693 35.7107 22.424 34.836 22.808C33.9827 23.192 33.0867 23.384 32.148 23.384ZM43.9088 23V7.128H47.9728V9.496C48.5274 8.6 49.2314 7.91733 50.0848 7.448C50.9381 6.97867 51.8874 6.744 52.9328 6.744V11.032H51.8448C50.5434 11.032 49.5728 11.3413 48.9328 11.96C48.2928 12.5787 47.9728 13.6133 47.9728 15.064V23H43.9088ZM62.8293 23V0.599998H71.1173C72.6746 0.599998 74.0399 0.866666 75.2133 1.4C76.4079 1.912 77.3466 2.66933 78.0293 3.672C78.7119 4.67467 79.0533 5.89067 79.0533 7.32C79.0533 8.74933 78.7119 9.976 78.0293 11C77.3466 12.0027 76.4079 12.7707 75.2133 13.304C74.0399 13.816 72.6746 14.072 71.1173 14.072H66.9253V23H62.8293ZM66.9253 10.584H71.0213C72.4506 10.584 73.4533 10.2853 74.0293 9.688C74.6053 9.06933 74.8933 8.28 74.8933 7.32C74.8933 6.38133 74.6053 5.61333 74.0293 5.016C73.4533 4.39733 72.4506 4.088 71.0213 4.088H66.9253V10.584ZM81.065 23V7.128H85.129V9.496C85.6837 8.6 86.3877 7.91733 87.241 7.448C88.0943 6.97867 89.0437 6.744 90.089 6.744V11.032H89.001C87.6997 11.032 86.729 11.3413 86.089 11.96C85.449 12.5787 85.129 13.6133 85.129 15.064V23H81.065ZM99.434 23.384C97.834 23.384 96.4047 23.0427 95.146 22.36C93.9087 21.656 92.938 20.6747 92.234 19.416C91.53 18.1573 91.178 16.7067 91.178 15.064C91.178 13.336 91.5513 11.8533 92.298 10.616C93.066 9.35733 94.0793 8.39733 95.338 7.736C96.618 7.07467 98.026 6.744 99.562 6.744C101.162 6.744 102.591 7.096 103.85 7.8C105.109 8.48267 106.101 9.44267 106.826 10.68C107.573 11.9173 107.946 13.3787 107.946 15.064C107.946 16.664 107.583 18.0933 106.858 19.352C106.133 20.6107 105.13 21.6027 103.85 22.328C102.591 23.032 101.119 23.384 99.434 23.384ZM99.498 19.832C100.351 19.832 101.087 19.6187 101.706 19.192C102.346 18.744 102.847 18.1573 103.21 17.432C103.573 16.6853 103.754 15.8747 103.754 15C103.754 13.9973 103.551 13.144 103.146 12.44C102.762 11.736 102.25 11.2027 101.61 10.84C100.97 10.4773 100.266 10.296 99.498 10.296C98.666 10.296 97.93 10.4987 97.29 10.904C96.6713 11.3093 96.1807 11.8747 95.818 12.6C95.4767 13.304 95.306 14.1253 95.306 15.064C95.306 16.0027 95.4873 16.8347 95.85 17.56C96.234 18.2853 96.746 18.8507 97.386 19.256C98.026 19.64 98.73 19.832 99.498 19.832ZM117.163 23.384C115.627 23.384 114.304 23.0107 113.195 22.264C112.107 21.496 111.264 20.4827 110.667 19.224C110.091 17.944 109.803 16.536 109.803 15C109.803 13.464 110.102 12.0773 110.699 10.84C111.296 9.58133 112.15 8.58933 113.259 7.864C114.368 7.11733 115.67 6.744 117.163 6.744C118.187 6.744 119.158 6.95733 120.075 7.384C121.014 7.81067 121.803 8.42933 122.443 9.24V0.599998H126.571V23H122.443V20.728C121.91 21.6027 121.163 22.264 120.203 22.712C119.243 23.16 118.23 23.384 117.163 23.384ZM118.219 19.8C119.072 19.8 119.808 19.5973 120.427 19.192C121.067 18.7867 121.568 18.232 121.931 17.528C122.294 16.8027 122.475 15.9813 122.475 15.064C122.475 13.9333 122.251 13.0267 121.803 12.344C121.355 11.64 120.8 11.128 120.139 10.808C119.478 10.488 118.827 10.328 118.187 10.328C117.355 10.328 116.619 10.5307 115.979 10.936C115.36 11.3413 114.87 11.896 114.507 12.6C114.144 13.2827 113.963 14.0827 113.963 15C113.963 15.896 114.144 16.7067 114.507 17.432C114.87 18.1573 115.371 18.7333 116.011 19.16C116.651 19.5867 117.387 19.8 118.219 19.8ZM135.648 23.384C134.283 23.384 133.12 23.096 132.16 22.52C131.2 21.9227 130.464 21.112 129.952 20.088C129.44 19.0427 129.184 17.8587 129.184 16.536V7.128H133.248V15.928C133.248 17.1013 133.547 18.0613 134.144 18.808C134.763 19.5547 135.659 19.928 136.832 19.928C138.048 19.928 138.955 19.5653 139.552 18.84C140.149 18.1147 140.448 17.144 140.448 15.928V7.128H144.544V23H140.448V21.144C139.915 21.8693 139.211 22.424 138.336 22.808C137.483 23.192 136.587 23.384 135.648 23.384ZM154.865 23.384C153.265 23.384 151.867 23.032 150.673 22.328C149.478 21.6027 148.55 20.6213 147.889 19.384C147.227 18.1253 146.897 16.6853 146.897 15.064C146.897 13.464 147.217 12.0347 147.857 10.776C148.518 9.51733 149.446 8.536 150.641 7.832C151.835 7.10667 153.243 6.744 154.865 6.744C156.785 6.744 158.406 7.224 159.729 8.184C161.073 9.144 161.979 10.5627 162.449 12.44H158.065C157.873 11.8213 157.499 11.2987 156.945 10.872C156.411 10.424 155.707 10.2 154.833 10.2C153.958 10.2 153.243 10.424 152.689 10.872C152.134 11.32 151.718 11.9173 151.441 12.664C151.185 13.3893 151.057 14.1893 151.057 15.064C151.057 15.9387 151.185 16.7493 151.441 17.496C151.718 18.2213 152.134 18.808 152.689 19.256C153.243 19.6827 153.958 19.896 154.833 19.896C155.665 19.896 156.347 19.7147 156.881 19.352C157.414 18.968 157.809 18.4133 158.065 17.688H162.449C162.171 18.8827 161.67 19.9067 160.945 20.76C160.241 21.6133 159.366 22.264 158.321 22.712C157.297 23.16 156.145 23.384 154.865 23.384ZM170.836 23C169.13 23 167.839 22.584 166.964 21.752C166.111 20.92 165.684 19.672 165.684 18.008V10.552H163.636V7.128H165.684V3.256H169.78V7.128H173.396V10.552H169.78V18.04C169.78 18.6373 169.94 19.0427 170.26 19.256C170.58 19.4693 170.996 19.576 171.508 19.576H173.396V23H170.836ZM182.311 23.384C181.116 23.384 179.996 23.1707 178.951 22.744C177.906 22.296 177.042 21.6667 176.359 20.856C175.698 20.0453 175.335 19.096 175.271 18.008H179.367C179.474 18.6907 179.804 19.224 180.359 19.608C180.935 19.992 181.575 20.184 182.279 20.184C182.876 20.184 183.431 20.056 183.943 19.8C184.476 19.5227 184.743 19.096 184.743 18.52C184.743 18.072 184.551 17.72 184.167 17.464C183.783 17.208 183.335 17.0053 182.823 16.856C182.311 16.7067 181.842 16.5787 181.415 16.472C180.348 16.216 179.378 15.9173 178.503 15.576C177.628 15.2133 176.935 14.7227 176.423 14.104C175.911 13.464 175.655 12.6213 175.655 11.576C175.655 10.552 175.943 9.67733 176.519 8.952C177.116 8.22667 177.895 7.68267 178.855 7.32C179.836 6.936 180.892 6.744 182.023 6.744C183.794 6.744 185.287 7.192 186.503 8.088C187.719 8.984 188.38 10.3067 188.487 12.056H184.615C184.551 11.3733 184.263 10.8613 183.751 10.52C183.26 10.1573 182.642 9.976 181.895 9.976C181.298 9.976 180.764 10.0827 180.295 10.296C179.826 10.5093 179.591 10.9147 179.591 11.512C179.591 11.9387 179.783 12.2907 180.167 12.568C180.551 12.824 181.01 13.0373 181.543 13.208C182.076 13.3573 182.546 13.4853 182.951 13.592C184.06 13.8693 185.031 14.1893 185.863 14.552C186.716 14.9147 187.388 15.4053 187.879 16.024C188.37 16.6427 188.626 17.4747 188.647 18.52C188.647 19.5653 188.348 20.4507 187.751 21.176C187.175 21.9013 186.407 22.456 185.447 22.84C184.487 23.2027 183.442 23.384 182.311 23.384Z" fill="url(#paint0_linear_337_9906)"/>
<defs>
<linearGradient id="paint0_linear_337_9906" x1="0.654791" y1="-9.36719" x2="77.3435" y2="109.35" gradientUnits="userSpaceOnUse">
<stop stop-color="#FF6F2D"/>
<stop offset="1" stop-color="#1001A0"/>
</linearGradient>
</defs>
</svg>
