<svg width="1440" height="845" viewBox="0 0 1440 845" fill="none" xmlns="http://www.w3.org/2000/svg">
<rect width="1440" height="845" fill="white"/>
<ellipse cx="1124.5" cy="164" rx="1.5" ry="2" fill="#F7F7F7"/>
<ellipse cx="1359" cy="74.5" rx="10" ry="6.5" fill="#F7F7F7"/>
<ellipse cx="1164.5" cy="118.5" rx="5.5" ry="3.5" fill="#F7F7F7"/>
<ellipse cx="1379.5" cy="118" rx="6.5" ry="7" fill="#F7F7F7"/>
<ellipse cx="496.5" cy="162" rx="11.5" ry="11" fill="#F7F7F7"/>
<ellipse cx="541" cy="160.5" rx="17" ry="17.5" fill="#F7F7F7"/>
<ellipse cx="583" cy="160.5" rx="17" ry="17.5" fill="#F7F7F7"/>
<ellipse cx="626.5" cy="160.5" rx="18.5" ry="17.5" fill="#F7F7F7"/>
<circle cx="670.5" cy="160.5" r="17.5" fill="#F7F7F7"/>
<ellipse cx="712.5" cy="160.5" rx="15.5" ry="17.5" fill="#F7F7F7"/>
<ellipse cx="754.5" cy="160.5" rx="18.5" ry="17.5" fill="#F7F7F7"/>
<ellipse cx="798" cy="160.5" rx="17" ry="17.5" fill="#F7F7F7"/>
<ellipse cx="843" cy="160.5" rx="18" ry="17.5" fill="#F7F7F7"/>
<ellipse cx="884.5" cy="160.5" rx="16.5" ry="17.5" fill="#F7F7F7"/>
<ellipse cx="926.5" cy="160.5" rx="16.5" ry="17.5" fill="#F7F7F7"/>
<ellipse cx="971" cy="160.5" rx="18" ry="17.5" fill="#F7F7F7"/>
<ellipse cx="1015.5" cy="160.5" rx="18.5" ry="17.5" fill="#F7F7F7"/>
<ellipse cx="1056.5" cy="160.5" rx="15.5" ry="17.5" fill="#F7F7F7"/>
<ellipse cx="1099" cy="160" rx="14" ry="13" fill="#F7F7F7"/>
<ellipse cx="1142.5" cy="160" rx="4.5" ry="4" fill="#F7F7F7"/>
<ellipse cx="1359" cy="160.5" rx="17" ry="17.5" fill="#F7F7F7"/>
<ellipse cx="1401" cy="160" rx="15" ry="13" fill="#F7F7F7"/>
<ellipse cx="473.5" cy="203" rx="1.5" ry="2" fill="#F7F7F7"/>
<ellipse cx="520.5" cy="205" rx="3.5" ry="4" fill="#F7F7F7"/>
<ellipse cx="562.5" cy="203.5" rx="16.5" ry="18.5" fill="#F7F7F7"/>
<ellipse cx="603.5" cy="203.5" rx="17.5" ry="18.5" fill="#F7F7F7"/>
<ellipse cx="649" cy="203.5" rx="17" ry="18.5" fill="#F7F7F7"/>
<circle cx="692.5" cy="203.5" r="18.5" fill="#F7F7F7"/>
<ellipse cx="734.5" cy="203.5" rx="15.5" ry="18.5" fill="#F7F7F7"/>
<path d="M790 203.5C790 211.72 783.749 218 776.5 218C769.251 218 763 211.72 763 203.5C763 195.28 769.251 189 776.5 189C783.749 189 790 195.28 790 203.5Z" fill="white" stroke="#E68A00" stroke-width="8"/>
<circle cx="820.5" cy="203.5" r="18.5" fill="#F7F7F7"/>
<ellipse cx="864.5" cy="203.5" rx="16.5" ry="18.5" fill="#F7F7F7"/>
<ellipse cx="907" cy="203.5" rx="16" ry="18.5" fill="#F7F7F7"/>
<circle cx="948.5" cy="203.5" r="18.5" fill="#F7F7F7"/>
<ellipse cx="992.5" cy="203.5" rx="17.5" ry="18.5" fill="#F7F7F7"/>
<ellipse cx="1036" cy="203.5" rx="18" ry="18.5" fill="#F7F7F7"/>
<ellipse cx="1078" cy="203.5" rx="14" ry="18.5" fill="#F7F7F7"/>
<ellipse cx="1123.5" cy="205" rx="10.5" ry="13" fill="#F7F7F7"/>
<ellipse cx="1164.5" cy="205" rx="13.5" ry="13" fill="#F7F7F7"/>
<ellipse cx="1336.5" cy="203.5" rx="17.5" ry="18.5" fill="#F7F7F7"/>
<ellipse cx="1380" cy="203.5" rx="18" ry="18.5" fill="#F7F7F7"/>
<circle cx="1423.5" cy="201.5" r="16.5" fill="#F7F7F7"/>
<circle cx="541.5" cy="247.5" r="4.5" fill="#F7F7F7"/>
<ellipse cx="585" cy="246.5" rx="15" ry="16.5" fill="#F7F7F7"/>
<circle cx="626.5" cy="248.5" r="18.5" fill="#F7F7F7"/>
<ellipse cx="670.5" cy="248.5" rx="17.5" ry="18.5" fill="#F7F7F7"/>
<ellipse cx="712.5" cy="248.5" rx="15.5" ry="18.5" fill="#F7F7F7"/>
<circle cx="754.5" cy="248.5" r="18.5" fill="#F7F7F7"/>
<ellipse cx="798" cy="248.5" rx="17" ry="18.5" fill="#F7F7F7"/>
<ellipse cx="843" cy="248.5" rx="18" ry="18.5" fill="#F7F7F7"/>
<ellipse cx="884.5" cy="248.5" rx="16.5" ry="18.5" fill="#F7F7F7"/>
<path d="M939 248.5C939 256.951 932.986 263 926.5 263C920.014 263 914 256.951 914 248.5C914 240.049 920.014 234 926.5 234C932.986 234 939 240.049 939 248.5Z" fill="white" stroke="#E68A00" stroke-width="8"/>
<ellipse cx="971" cy="248.5" rx="18" ry="18.5" fill="#F7F7F7"/>
<circle cx="1015.5" cy="248.5" r="18.5" fill="#F7F7F7"/>
<ellipse cx="1056.5" cy="246.5" rx="15.5" ry="16.5" fill="#F7F7F7"/>
<circle cx="1097.5" cy="248.5" r="18.5" fill="#F7F7F7"/>
<ellipse cx="1142" cy="248.5" rx="17" ry="18.5" fill="#F7F7F7"/>
<ellipse cx="1186.5" cy="248.5" rx="16.5" ry="18.5" fill="#F7F7F7"/>
<ellipse cx="1272.5" cy="246.5" rx="14.5" ry="16.5" fill="#F7F7F7"/>
<ellipse cx="1315.5" cy="249" rx="13.5" ry="14" fill="#F7F7F7"/>
<ellipse cx="1359" cy="249" rx="10" ry="9" fill="#F7F7F7"/>
<circle cx="606" cy="290" r="15" fill="#F7F7F7"/>
<ellipse cx="649" cy="290" rx="17" ry="15" fill="#F7F7F7"/>
<ellipse cx="843" cy="332.5" rx="18" ry="18.5" fill="#F7F7F7"/>
<ellipse cx="692.5" cy="290" rx="18.5" ry="15" fill="#F7F7F7"/>
<ellipse cx="734.5" cy="290" rx="15.5" ry="15" fill="#F7F7F7"/>
<ellipse cx="776.5" cy="290" rx="17.5" ry="15" fill="#F7F7F7"/>
<ellipse cx="820.5" cy="290" rx="18.5" ry="15" fill="#F7F7F7"/>
<ellipse cx="864.5" cy="290" rx="16.5" ry="15" fill="#F7F7F7"/>
<ellipse cx="907" cy="290" rx="16" ry="15" fill="#F7F7F7"/>
<ellipse cx="948.5" cy="290" rx="18.5" ry="15" fill="#F7F7F7"/>
<ellipse cx="992.5" cy="290" rx="12.5" ry="15" fill="#F7F7F7"/>
<ellipse cx="1037" cy="287.5" rx="10" ry="8.5" fill="#F7F7F7"/>
<ellipse cx="1076.5" cy="288.5" rx="12.5" ry="13.5" fill="#F7F7F7"/>
<path d="M1133 290C1133 295.619 1127.66 301 1120 301C1112.34 301 1107 295.619 1107 290C1107 284.381 1112.34 279 1120 279C1127.66 279 1133 284.381 1133 290Z" fill="white" stroke="#E68A00" stroke-width="8"/>
<ellipse cx="1165" cy="290" rx="18" ry="15" fill="#F7F7F7"/>
<ellipse cx="1207.5" cy="290" rx="17.5" ry="15" fill="#F7F7F7"/>
<ellipse cx="1250.5" cy="290" rx="14.5" ry="15" fill="#F7F7F7"/>
<ellipse cx="1293" cy="290" rx="18" ry="15" fill="#F7F7F7"/>
<ellipse cx="1337" cy="287.5" rx="8" ry="8.5" fill="#F7F7F7"/>
<ellipse cx="1378.5" cy="290.5" rx="2.5" ry="1.5" fill="#F7F7F7"/>
<circle cx="585" cy="335" r="6" fill="#F7F7F7"/>
<circle cx="626.5" cy="332.5" r="18.5" fill="#F7F7F7"/>
<ellipse cx="670.5" cy="332.5" rx="17.5" ry="18.5" fill="#F7F7F7"/>
<ellipse cx="712.5" cy="332.5" rx="15.5" ry="18.5" fill="#F7F7F7"/>
<circle cx="754.5" cy="332.5" r="18.5" fill="#F7F7F7"/>
<ellipse cx="798" cy="332.5" rx="17" ry="18.5" fill="#F7F7F7"/>
<ellipse cx="884.5" cy="332.5" rx="16.5" ry="18.5" fill="#F7F7F7"/>
<ellipse cx="926.5" cy="332.5" rx="16.5" ry="18.5" fill="#F7F7F7"/>
<ellipse cx="971" cy="332.5" rx="18" ry="18.5" fill="#F7F7F7"/>
<circle cx="1015.5" cy="332.5" r="18.5" fill="#F7F7F7"/>
<ellipse cx="1057" cy="332" rx="10" ry="14" fill="#F7F7F7"/>
<ellipse cx="1101" cy="332.5" rx="12" ry="8.5" fill="#F7F7F7"/>
<ellipse cx="1141.5" cy="332" rx="12.5" ry="14" fill="#F7F7F7"/>
<ellipse cx="1185" cy="334.5" rx="15" ry="16.5" fill="#F7F7F7"/>
<ellipse cx="1229" cy="332.5" rx="16" ry="18.5" fill="#F7F7F7"/>
<ellipse cx="1270.5" cy="332" rx="12.5" ry="14" fill="#F7F7F7"/>
<ellipse cx="1315.5" cy="335" rx="13.5" ry="11" fill="#F7F7F7"/>
<ellipse cx="1359" cy="332.5" rx="10" ry="8.5" fill="#F7F7F7"/>
<path d="M620.5 376.5C620.5 386.544 613.915 394.5 606 394.5C598.085 394.5 591.5 386.544 591.5 376.5C591.5 366.456 598.085 358.5 606 358.5C613.915 358.5 620.5 366.456 620.5 376.5Z" fill="#E68A00" stroke="#E68A00"/>
<path d="M665.5 376.5C665.5 386.482 658.074 394.5 649 394.5C639.926 394.5 632.5 386.482 632.5 376.5C632.5 366.518 639.926 358.5 649 358.5C658.074 358.5 665.5 366.518 665.5 376.5Z" fill="#E68A00" stroke="#E68A00"/>
<circle cx="692.5" cy="376.5" r="18.5" fill="#F7F7F7"/>
<ellipse cx="734.5" cy="376.5" rx="15.5" ry="18.5" fill="#F7F7F7"/>
<ellipse cx="776.5" cy="376.5" rx="17.5" ry="18.5" fill="#F7F7F7"/>
<circle cx="820.5" cy="376.5" r="18.5" fill="#F7F7F7"/>
<ellipse cx="864.5" cy="376.5" rx="16.5" ry="18.5" fill="#F7F7F7"/>
<ellipse cx="907" cy="376.5" rx="16" ry="18.5" fill="#F7F7F7"/>
<circle cx="948.5" cy="376.5" r="18.5" fill="#F7F7F7"/>
<ellipse cx="992.5" cy="376.5" rx="17.5" ry="18.5" fill="#F7F7F7"/>
<ellipse cx="1034.5" cy="376" rx="16.5" ry="13" fill="#F7F7F7"/>
<ellipse cx="1078" cy="376.5" rx="14" ry="18.5" fill="#F7F7F7"/>
<circle cx="1121" cy="376" r="13" fill="#F7F7F7"/>
<ellipse cx="1165" cy="376.5" rx="18" ry="18.5" fill="#F7F7F7"/>
<ellipse cx="1207.5" cy="376.5" rx="17.5" ry="18.5" fill="#F7F7F7"/>
<ellipse cx="1251" cy="376" rx="11" ry="9" fill="#F7F7F7"/>
<circle cx="585" cy="419" r="5.5" fill="#E68A00" stroke="#E68A00"/>
<path d="M644.5 420.5C644.5 429.863 636.468 437.5 626.5 437.5C616.532 437.5 608.5 429.863 608.5 420.5C608.5 411.137 616.532 403.5 626.5 403.5C636.468 403.5 644.5 411.137 644.5 420.5Z" fill="#E68A00" stroke="#E68A00"/>
<circle cx="670.5" cy="420.5" r="17" fill="#E68A00" stroke="#E68A00"/>
<ellipse cx="712.5" cy="420.5" rx="15.5" ry="17.5" fill="#F7F7F7"/>
<ellipse cx="754.5" cy="420.5" rx="18.5" ry="17.5" fill="#F7F7F7"/>
<ellipse cx="798" cy="420.5" rx="17" ry="17.5" fill="#F7F7F7"/>
<ellipse cx="843" cy="420.5" rx="18" ry="17.5" fill="#F7F7F7"/>
<ellipse cx="884.5" cy="420.5" rx="16.5" ry="17.5" fill="#F7F7F7"/>
<ellipse cx="926.5" cy="420.5" rx="16.5" ry="17.5" fill="#F7F7F7"/>
<ellipse cx="971" cy="420.5" rx="18" ry="17.5" fill="#F7F7F7"/>
<ellipse cx="1015.5" cy="420.5" rx="18.5" ry="17.5" fill="#F7F7F7"/>
<ellipse cx="1056.5" cy="420.5" rx="15.5" ry="17.5" fill="#F7F7F7"/>
<ellipse cx="1097.5" cy="420.5" rx="18.5" ry="17.5" fill="#F7F7F7"/>
<ellipse cx="1142" cy="420.5" rx="17" ry="17.5" fill="#F7F7F7"/>
<ellipse cx="1185" cy="418.5" rx="15" ry="15.5" fill="#F7F7F7"/>
<ellipse cx="1228" cy="418" rx="3" ry="2" fill="#F7F7F7"/>
<path d="M607.5 462C607.5 463.862 607.068 465.523 606.394 466.702C605.713 467.894 604.848 468.5 604 468.5C603.152 468.5 602.287 467.894 601.606 466.702C600.932 465.523 600.5 463.862 600.5 462C600.5 460.138 600.932 458.477 601.606 457.298C602.287 456.106 603.152 455.5 604 455.5C604.848 455.5 605.713 456.106 606.394 457.298C607.068 458.477 607.5 460.138 607.5 462Z" fill="#E68A00" stroke="#E68A00"/>
<path d="M665.5 461.5C665.5 470.323 658.127 477.5 649 477.5C639.873 477.5 632.5 470.323 632.5 461.5C632.5 452.677 639.873 445.5 649 445.5C658.127 445.5 665.5 452.677 665.5 461.5Z" fill="#E68A00" stroke="#E68A00"/>
<path d="M710.5 461.5C710.5 470.284 702.496 477.5 692.5 477.5C682.504 477.5 674.5 470.284 674.5 461.5C674.5 452.716 682.504 445.5 692.5 445.5C702.496 445.5 710.5 452.716 710.5 461.5Z" fill="#E68A00" stroke="#E68A00"/>
<ellipse cx="734.5" cy="461.5" rx="15.5" ry="16.5" fill="#F7F7F7"/>
<ellipse cx="776.5" cy="461.5" rx="17.5" ry="16.5" fill="#F7F7F7"/>
<ellipse cx="820.5" cy="461.5" rx="18.5" ry="16.5" fill="#F7F7F7"/>
<circle cx="864.5" cy="461.5" r="16.5" fill="#F7F7F7"/>
<ellipse cx="907" cy="461.5" rx="16" ry="16.5" fill="#F7F7F7"/>
<ellipse cx="948.5" cy="461.5" rx="18.5" ry="16.5" fill="#F7F7F7"/>
<ellipse cx="992.5" cy="461.5" rx="17.5" ry="16.5" fill="#F7F7F7"/>
<ellipse cx="1036" cy="461.5" rx="18" ry="16.5" fill="#F7F7F7"/>
<ellipse cx="1078" cy="461.5" rx="14" ry="16.5" fill="#F7F7F7"/>
<ellipse cx="1120.5" cy="461.5" rx="17.5" ry="16.5" fill="#F7F7F7"/>
<ellipse cx="1165" cy="461.5" rx="18" ry="16.5" fill="#F7F7F7"/>
<ellipse cx="1205.5" cy="463.5" rx="2.5" ry="1.5" fill="#F7F7F7"/>
<path d="M631.5 505.5C631.5 506.714 630.73 507.5 630 507.5C629.27 507.5 628.5 506.714 628.5 505.5C628.5 504.286 629.27 503.5 630 503.5C630.73 503.5 631.5 504.286 631.5 505.5Z" fill="#E68A00" stroke="#E68A00"/>
<path d="M682.5 503.5C682.5 510.717 677.092 516.5 670.5 516.5C663.908 516.5 658.5 510.717 658.5 503.5C658.5 496.283 663.908 490.5 670.5 490.5C677.092 490.5 682.5 496.283 682.5 503.5Z" fill="#E68A00" stroke="#E68A00"/>
<ellipse cx="712.5" cy="504" rx="15.5" ry="17" fill="#F7F7F7"/>
<ellipse cx="754.5" cy="504" rx="18.5" ry="17" fill="#F7F7F7"/>
<circle cx="798" cy="504" r="17" fill="#F7F7F7"/>
<ellipse cx="843" cy="504" rx="18" ry="17" fill="#F7F7F7"/>
<path d="M897 504C897 511.412 891.402 517 885 517C878.598 517 873 511.412 873 504C873 496.588 878.598 491 885 491C891.402 491 897 496.588 897 504Z" fill="white" stroke="#E68A00" stroke-width="8"/>
<ellipse cx="926.5" cy="504" rx="16.5" ry="17" fill="#F7F7F7"/>
<ellipse cx="971" cy="504" rx="18" ry="17" fill="#F7F7F7"/>
<path d="M1030 504C1030 510.868 1023.83 517 1015.5 517C1007.17 517 1001 510.868 1001 504C1001 497.132 1007.17 491 1015.5 491C1023.83 491 1030 497.132 1030 504Z" fill="white" stroke="#E68A00" stroke-width="8"/>
<ellipse cx="1056.5" cy="504" rx="15.5" ry="17" fill="#F7F7F7"/>
<ellipse cx="1097.5" cy="504" rx="18.5" ry="17" fill="#F7F7F7"/>
<ellipse cx="1141.5" cy="503.5" rx="12.5" ry="13.5" fill="#F7F7F7"/>
<ellipse cx="1185" cy="505.5" rx="2" ry="2.5" fill="#F7F7F7"/>
<ellipse cx="690.5" cy="549" rx="11.5" ry="9" fill="#F7F7F7"/>
<ellipse cx="734.5" cy="549" rx="15.5" ry="13" fill="#F7F7F7"/>
<circle cx="776.5" cy="548.5" r="17.5" fill="#F7F7F7"/>
<ellipse cx="820.5" cy="548.5" rx="18.5" ry="17.5" fill="#F7F7F7"/>
<ellipse cx="864.5" cy="548.5" rx="16.5" ry="17.5" fill="#F7F7F7"/>
<ellipse cx="907" cy="548.5" rx="16" ry="17.5" fill="#F7F7F7"/>
<ellipse cx="948.5" cy="548.5" rx="18.5" ry="17.5" fill="#F7F7F7"/>
<circle cx="992.5" cy="548.5" r="17.5" fill="#F7F7F7"/>
<ellipse cx="1034.5" cy="549" rx="16.5" ry="13" fill="#F7F7F7"/>
<ellipse cx="1078" cy="546.5" rx="14" ry="15.5" fill="#F7F7F7"/>
<ellipse cx="1123.5" cy="547" rx="10.5" ry="11" fill="#F7F7F7"/>
<circle cx="801" cy="590" r="11" fill="#F7F7F7"/>
<ellipse cx="884.5" cy="592.5" rx="16.5" ry="18.5" fill="#F7F7F7"/>
<circle cx="929" cy="590" r="11" fill="#F7F7F7"/>
<ellipse cx="1100" cy="590.5" rx="8" ry="7.5" fill="#F7F7F7"/>
<ellipse cx="1142.5" cy="590.5" rx="4.5" ry="7.5" fill="#F7F7F7"/>
<ellipse cx="907" cy="634" rx="16" ry="15" fill="#F7F7F7"/>
<ellipse cx="1129.5" cy="625.5" rx="4.5" ry="6.5" fill="#F7F7F7"/>
<ellipse cx="1152.5" cy="626" rx="1.5" ry="2" fill="#F7F7F7"/>
<path d="M696.869 457.889C711.215 441.921 734.353 438.012 754.825 440.976C767.459 442.786 779.524 446.949 791.34 451.649C803.156 456.35 814.872 461.266 826.189 467.042C838.797 473.419 850.705 481.302 860.247 491.748C861.289 492.885 863.452 492.451 864.432 491.467C865.562 490.161 865.193 488.42 864.151 487.282C846.383 467.785 820.864 457.376 797.009 447.61C773.908 438.194 748.946 430.53 724.006 436.348C711.983 439.138 700.742 445.037 692.41 454.25C689.835 456.978 694.352 460.776 696.869 457.889Z" fill="#04003B"/>
<path d="M846.606 448.132C852.62 461.389 856.694 475.445 858.711 489.985C859.848 488.943 860.986 487.902 862.173 486.753C849.384 483.3 836.361 480.916 823.111 479.866C821.462 479.754 820.001 480.646 819.732 482.353C819.456 483.794 820.571 485.62 822.22 485.731C835.47 486.781 848.544 489.058 861.283 492.618C863.155 493.094 864.957 491.184 864.746 489.386C862.663 474.423 858.574 459.836 852.279 446.057C851.652 444.589 850.087 443.732 848.511 444.308C846.936 444.884 845.871 446.614 846.606 448.132Z" fill="#04003B"/>
<path d="M655.019 367.678C665.41 347.057 679.822 328.475 697.155 313.153C714.596 297.697 734.823 285.392 756.588 277.229C768.769 272.644 781.455 269.358 794.304 267.652C798.182 267.126 797.55 261.047 793.672 261.573C769.809 264.916 746.816 273.084 725.809 284.978C705.045 296.847 686.413 312.673 671.258 331.209C662.761 341.679 655.459 353.008 649.34 365.074C647.749 368.681 653.294 371.176 655.019 367.678Z" fill="#04003B"/>
<path d="M750.115 249.267C767.985 249.743 785.778 255.389 800.706 265.389C801.015 263.636 801.202 261.896 801.512 260.143C787.562 266.633 774.557 275.114 763.213 285.389C761.976 286.5 761.546 288.266 762.548 289.636C763.417 290.898 765.56 291.412 766.796 290.3C777.813 280.429 790.223 272.132 803.699 265.815C805.569 264.883 806.615 261.947 804.506 260.569C788.139 249.736 769.08 243.73 749.361 243.2C747.755 243.122 746.486 245.097 746.638 246.556C746.949 248.367 748.387 249.201 750.115 249.267Z" fill="#04003B"/>
<path d="M957.983 377.998L968.867 380.719C977.372 382.222 984.139 384.333 990.092 385.617L998.255 387.794L1004.79 389.361C1008.61 390.303 1010.77 391.214 1012.95 391.603C1021.95 393.214 1019.93 391.231 1020.5 389.361C1021.06 387.49 1024.03 386.796 1015.38 382.762C1013.22 381.788 1010.33 380.588 1006.5 379.128L1000.03 376.67L991.833 374.236C985.872 372.487 978.571 370.251 969.835 368.493L955.663 365.451C950.505 364.486 945.039 363.744 939.121 362.765C911.357 358.688 883.276 357.275 855.262 358.547C824.912 359.975 794.812 364.644 765.474 372.475C742.129 378.57 719.459 386.992 697.805 397.615C691.307 400.72 684.989 404.189 678.881 408.005C674.517 410.654 678.041 413.01 678.257 413.372C679.351 415.591 712.976 390.803 768.052 379.086C797.016 372.708 826.548 368.888 856.215 368.202C883.509 367.617 912.1 370.184 939.121 374.188L954.173 376.909" fill="#04003B"/>
<path d="M1003.64 398.772C996.059 403.011 989.365 406.982 983.904 410.386C972.743 417.319 966.235 422.321 966.99 423.686C967.746 425.05 975.578 422.585 987.73 417.405C993.791 414.826 1000.88 411.595 1008.73 407.858C1012.68 405.926 1016.56 404.091 1021.09 401.735C1024.02 400.298 1026.51 398.09 1028.28 395.349C1029.45 393.347 1030 391.047 1029.87 388.739C1029.71 386.53 1029.07 384.385 1027.98 382.456C1026.4 379.91 1024.64 377.479 1022.71 375.184C1021.15 373.045 1019.39 371.062 1017.72 369.095C1014.37 365.185 1011.1 361.45 1007.85 358.018C1001.38 351.101 995.219 345.262 989.847 340.577C979.074 331.228 971.578 326.591 970.671 327.669C969.764 328.747 975.484 335.466 984.712 345.983C989.337 351.256 994.719 357.38 1000.69 364.571C1003.65 368.067 1006.7 371.823 1009.81 375.722L1014.49 381.655C1015.98 383.439 1017.34 385.317 1018.57 387.278C1019.28 388.77 1019.14 388.451 1018.87 389.166C1017.97 390.424 1016.78 391.447 1015.4 392.149C1011.35 394.39 1007.38 396.564 1003.68 398.644" fill="#04003B"/>
</svg>
