<svg width="467" height="95" viewBox="0 0 467 95" fill="none" xmlns="http://www.w3.org/2000/svg">
<path d="M21.376 57.768C17.28 57.768 13.9307 56.9573 11.328 55.336C8.768 53.672 6.86933 51.4747 5.632 48.744C4.43733 46.0133 3.84 43.048 3.84 39.848V12.2H12.032V39.912C12.032 43.4107 12.864 46.0133 14.528 47.72C16.2347 49.4267 18.5813 50.28 21.568 50.28C24.512 50.28 26.8373 49.4267 28.544 47.72C30.2507 46.0133 31.104 43.4107 31.104 39.912V12.2H39.296V39.848C39.296 43.2187 38.7627 46.056 37.696 48.36C36.6293 50.664 35.2 52.4987 33.408 53.864C31.6587 55.2293 29.7173 56.232 27.584 56.872C25.4933 57.4693 23.424 57.768 21.376 57.768ZM58.9345 57.768C56.5452 57.768 54.3052 57.3413 52.2145 56.488C50.1238 55.592 48.3958 54.3333 47.0305 52.712C45.7078 51.0907 44.9825 49.192 44.8545 47.016H53.0465C53.2598 48.3813 53.9212 49.448 55.0305 50.216C56.1825 50.984 57.4625 51.368 58.8705 51.368C60.0652 51.368 61.1745 51.112 62.1985 50.6C63.2652 50.0453 63.7985 49.192 63.7985 48.04C63.7985 47.144 63.4145 46.44 62.6465 45.928C61.8785 45.416 60.9825 45.0107 59.9585 44.712C58.9345 44.4133 57.9958 44.1573 57.1425 43.944C55.0092 43.432 53.0678 42.8347 51.3185 42.152C49.5692 41.4267 48.1825 40.4453 47.1585 39.208C46.1345 37.928 45.6225 36.2427 45.6225 34.152C45.6225 32.104 46.1985 30.3547 47.3505 28.904C48.5452 27.4533 50.1025 26.3653 52.0225 25.64C53.9852 24.872 56.0972 24.488 58.3585 24.488C61.8998 24.488 64.8865 25.384 67.3185 27.176C69.7505 28.968 71.0732 31.6133 71.2865 35.112H63.5425C63.4145 33.7467 62.8385 32.7227 61.8145 32.04C60.8332 31.3147 59.5958 30.952 58.1025 30.952C56.9078 30.952 55.8412 31.1653 54.9025 31.592C53.9638 32.0187 53.4945 32.8293 53.4945 34.024C53.4945 34.8773 53.8785 35.5813 54.6465 36.136C55.4145 36.648 56.3318 37.0747 57.3985 37.416C58.4652 37.7147 59.4038 37.9707 60.2145 38.184C62.4332 38.7387 64.3745 39.3787 66.0385 40.104C67.7452 40.8293 69.0892 41.8107 70.0705 43.048C71.0518 44.2853 71.5638 45.9493 71.6065 48.04C71.6065 50.1307 71.0092 51.9013 69.8145 53.352C68.6625 54.8027 67.1265 55.912 65.2065 56.68C63.2865 57.4053 61.1958 57.768 58.9345 57.768ZM91.423 57.768C88.095 57.768 85.215 57.0427 82.783 55.592C80.3937 54.1413 78.5377 52.1573 77.215 49.64C75.8923 47.1227 75.231 44.2853 75.231 41.128C75.231 37.7573 75.9137 34.8347 77.279 32.36C78.6443 29.8853 80.543 27.9653 82.975 26.6C85.407 25.192 88.223 24.488 91.423 24.488C94.5803 24.488 97.3323 25.1707 99.679 26.536C102.068 27.9013 103.924 29.7787 105.247 32.168C106.612 34.5573 107.295 37.3093 107.295 40.424C107.295 40.9787 107.274 41.5333 107.231 42.088C107.188 42.6 107.124 43.0907 107.039 43.56H83.487C83.615 45.0533 83.999 46.376 84.639 47.528C85.3217 48.6373 86.2177 49.512 87.327 50.152C88.479 50.7493 89.7803 51.048 91.231 51.048C92.7243 51.048 94.0043 50.728 95.071 50.088C96.1803 49.448 97.055 48.4667 97.695 47.144H106.463C105.866 49.0213 104.906 50.7707 103.583 52.392C102.26 54.0133 100.575 55.3147 98.527 56.296C96.5217 57.2773 94.1537 57.768 91.423 57.768ZM83.551 38.12H98.847C98.8043 35.9867 98.015 34.3013 96.479 33.064C94.9857 31.8267 93.215 31.208 91.167 31.208C89.4177 31.208 87.7963 31.7627 86.303 32.872C84.8097 33.9387 83.8923 35.688 83.551 38.12ZM141.868 57.768C138.668 57.768 135.809 57.0853 133.292 55.72C130.817 54.312 128.876 52.3493 127.468 49.832C126.06 47.3147 125.356 44.4133 125.356 41.128C125.356 37.672 126.103 34.7067 127.596 32.232C129.132 29.7147 131.159 27.7947 133.676 26.472C136.236 25.1493 139.052 24.488 142.124 24.488C145.324 24.488 148.183 25.192 150.7 26.6C153.217 27.9653 155.201 29.8853 156.652 32.36C158.145 34.8347 158.892 37.7573 158.892 41.128C158.892 44.328 158.167 47.1867 156.716 49.704C155.265 52.2213 153.26 54.2053 150.7 55.656C148.183 57.064 145.239 57.768 141.868 57.768ZM141.996 50.664C143.703 50.664 145.175 50.2373 146.412 49.384C147.692 48.488 148.695 47.3147 149.42 45.864C150.145 44.3707 150.508 42.7493 150.508 41C150.508 38.9947 150.103 37.288 149.292 35.88C148.524 34.472 147.5 33.4053 146.22 32.68C144.94 31.9547 143.532 31.592 141.996 31.592C140.332 31.592 138.86 31.9973 137.58 32.808C136.343 33.6187 135.361 34.7493 134.636 36.2C133.953 37.608 133.612 39.2507 133.612 41.128C133.612 43.0053 133.975 44.6693 134.7 46.12C135.468 47.5707 136.492 48.7013 137.772 49.512C139.052 50.28 140.46 50.664 141.996 50.664ZM164.462 57V32.104H160.75V25.256H164.462V22.824C164.462 18.984 165.422 16.2533 167.342 14.632C169.305 13.0107 171.95 12.2 175.278 12.2H177.966V19.176H176.558C175.15 19.176 174.147 19.4533 173.55 20.008C172.953 20.5627 172.654 21.5013 172.654 22.824V25.256H178.35V32.104H172.654V57H164.462ZM199.346 57V12.2H227.57V19.176H207.538V30.376H225.074V37.352H207.538V57H199.346ZM244.609 57.768C241.878 57.768 239.553 57.192 237.633 56.04C235.713 54.8453 234.241 53.224 233.217 51.176C232.193 49.0853 231.681 46.7173 231.681 44.072V25.256H239.809V42.856C239.809 45.2027 240.406 47.1227 241.601 48.616C242.838 50.1093 244.63 50.856 246.977 50.856C249.409 50.856 251.222 50.1307 252.417 48.68C253.611 47.2293 254.209 45.288 254.209 42.856V25.256H262.401V57H254.209V53.288C253.142 54.7387 251.734 55.848 249.985 56.616C248.278 57.384 246.486 57.768 244.609 57.768ZM268.13 57V25.256H276.258V28.968C277.367 27.4747 278.839 26.3653 280.674 25.64C282.551 24.872 284.429 24.488 286.306 24.488C289.975 24.488 292.983 25.6827 295.33 28.072C297.677 30.4187 298.85 33.832 298.85 38.312V57H290.722V39.4C290.722 37.0107 290.103 35.0907 288.866 33.64C287.671 32.1467 285.901 31.4 283.554 31.4C281.207 31.4 279.394 32.1467 278.114 33.64C276.877 35.0907 276.258 37.0107 276.258 39.4V57H268.13ZM317.764 57.768C314.692 57.768 312.046 57.0213 309.828 55.528C307.652 53.992 305.966 51.9653 304.772 49.448C303.62 46.888 303.044 44.072 303.044 41C303.044 37.928 303.641 35.1547 304.836 32.68C306.03 30.1627 307.737 28.1787 309.956 26.728C312.174 25.2347 314.777 24.488 317.764 24.488C319.812 24.488 321.753 24.9147 323.588 25.768C325.465 26.6213 327.044 27.8587 328.324 29.48V12.2H336.58V57H328.324V52.456C327.257 54.2053 325.764 55.528 323.844 56.424C321.924 57.32 319.897 57.768 317.764 57.768ZM319.876 50.6C321.582 50.6 323.054 50.1947 324.292 49.384C325.572 48.5733 326.574 47.464 327.3 46.056C328.025 44.6053 328.388 42.9627 328.388 41.128C328.388 38.8667 327.94 37.0533 327.044 35.688C326.148 34.28 325.038 33.256 323.716 32.616C322.393 31.976 321.092 31.656 319.812 31.656C318.148 31.656 316.676 32.0613 315.396 32.872C314.158 33.6827 313.177 34.792 312.452 36.2C311.726 37.5653 311.364 39.1653 311.364 41C311.364 42.792 311.726 44.4133 312.452 45.864C313.177 47.3147 314.18 48.4667 315.46 49.32C316.74 50.1733 318.212 50.6 319.876 50.6ZM355.31 57.768C352.92 57.768 350.68 57.3413 348.59 56.488C346.499 55.592 344.771 54.3333 343.406 52.712C342.083 51.0907 341.358 49.192 341.23 47.016H349.422C349.635 48.3813 350.296 49.448 351.406 50.216C352.558 50.984 353.838 51.368 355.246 51.368C356.44 51.368 357.55 51.112 358.574 50.6C359.64 50.0453 360.174 49.192 360.174 48.04C360.174 47.144 359.79 46.44 359.022 45.928C358.254 45.416 357.358 45.0107 356.333 44.712C355.31 44.4133 354.371 44.1573 353.518 43.944C351.384 43.432 349.443 42.8347 347.694 42.152C345.944 41.4267 344.558 40.4453 343.534 39.208C342.51 37.928 341.998 36.2427 341.998 34.152C341.998 32.104 342.574 30.3547 343.726 28.904C344.92 27.4533 346.478 26.3653 348.398 25.64C350.36 24.872 352.472 24.488 354.734 24.488C358.275 24.488 361.262 25.384 363.694 27.176C366.126 28.968 367.448 31.6133 367.662 35.112H359.918C359.79 33.7467 359.214 32.7227 358.19 32.04C357.208 31.3147 355.971 30.952 354.478 30.952C353.283 30.952 352.216 31.1653 351.278 31.592C350.339 32.0187 349.87 32.8293 349.87 34.024C349.87 34.8773 350.254 35.5813 351.022 36.136C351.79 36.648 352.707 37.0747 353.774 37.416C354.84 37.7147 355.779 37.9707 356.59 38.184C358.808 38.7387 360.75 39.3787 362.414 40.104C364.12 40.8293 365.464 41.8107 366.446 43.048C367.427 44.2853 367.939 45.9493 367.982 48.04C367.982 50.1307 367.384 51.9013 366.19 53.352C365.038 54.8027 363.502 55.912 361.582 56.68C359.662 57.4053 357.571 57.768 355.31 57.768Z" fill="url(#paint0_linear_354_1676)"/>
<path fill-rule="evenodd" clip-rule="evenodd" d="M184.875 41.0717C184.238 41.1125 182.154 41.2417 180.244 41.3585C141.872 43.7068 90.6172 54.2043 55.8097 66.844C26.0416 77.6537 -0.402474 90.6931 0.00463974 94.361C0.0975023 95.1964 1.03006 95.2098 3.97897 94.418C6.62845 93.7065 6.45292 93.6071 3.48039 94.1357C0.520362 94.6621 0.4099 94.5595 2.27642 93.0162C10.0639 86.5771 48.6892 70.8296 75.1659 63.2991C118.289 51.0343 160.944 44.2583 195.643 44.1605C208.919 44.1231 212.317 44.6219 212.317 46.6075C212.317 49.3002 198.907 56.8184 190.201 59.0063C163.849 65.6291 129.623 77.0783 125.842 80.5359C124.583 81.6874 125.204 83.2234 126.929 83.2234C130.324 83.2234 156.791 74.6142 178.275 66.5217C185.758 63.7033 186.79 63.4363 208.38 58.7353C241.138 51.6029 258.053 49.2539 279.243 48.8944C287.961 48.7467 288.833 48.9094 287.577 50.449C285.045 53.5522 266.207 61.5077 233.738 73.1861C228.002 75.2491 226.582 76.6663 228.539 78.3741L229.245 78.9904L231.723 78.8845C233.598 78.8045 235.714 78.4796 240.418 77.5492C256.402 74.3878 286.687 69.1627 301.359 67.0348C326.31 63.4157 353.638 60.8893 392.253 58.6315C398.009 58.295 402.537 57.9153 405.684 57.5055C408.295 57.1656 412.359 56.7281 414.716 56.5335L419 56.1794L416.105 56.0321C414.513 55.9511 411.126 55.6391 408.579 55.3388C397.097 53.9854 378.404 54.853 337.485 58.6381C311.111 61.0778 279.597 65.7885 250.918 71.5781C249.032 71.959 247.312 72.2676 247.097 72.264C246.882 72.2602 249.207 71.3215 252.264 70.1777C287.074 57.1532 294.984 52.6077 291.684 47.5229C290.354 45.475 288.094 44.9977 279.706 44.9943C259.492 44.9858 238.408 47.8422 209.666 54.4834C205.488 55.4487 205.5 55.4535 208.174 53.8551C218.214 47.8545 217.735 43.1204 206.916 41.4219C205.105 41.1378 188.067 40.8668 184.875 41.0717Z" fill="#EEEEEE" fill-opacity="0.76"/>
<defs>
<linearGradient id="paint0_linear_354_1676" x1="3.94279" y1="0.98437" x2="97.6569" y2="223.194" gradientUnits="userSpaceOnUse">
<stop stop-color="#FF6F2D"/>
<stop offset="1" stop-color="#1001A0"/>
</linearGradient>
</defs>
</svg>
