<svg width="968" height="581" viewBox="0 0 968 581" fill="none" xmlns="http://www.w3.org/2000/svg">
<ellipse cx="652.5" cy="96" rx="1.5" ry="2" fill="#F7F7F7"/>
<ellipse cx="887" cy="6.5" rx="10" ry="6.5" fill="#F7F7F7"/>
<ellipse cx="692.5" cy="50.5" rx="5.5" ry="3.5" fill="#F7F7F7"/>
<ellipse cx="907.5" cy="50" rx="6.5" ry="7" fill="#F7F7F7"/>
<ellipse cx="24.5" cy="94" rx="11.5" ry="11" fill="#F7F7F7"/>
<ellipse cx="69" cy="92.5" rx="17" ry="17.5" fill="#F7F7F7"/>
<ellipse cx="111" cy="92.5" rx="17" ry="17.5" fill="#F7F7F7"/>
<ellipse cx="154.5" cy="92.5" rx="18.5" ry="17.5" fill="#F7F7F7"/>
<circle cx="198.5" cy="92.5" r="17.5" fill="#F7F7F7"/>
<ellipse cx="240.5" cy="92.5" rx="15.5" ry="17.5" fill="#F7F7F7"/>
<ellipse cx="282.5" cy="92.5" rx="18.5" ry="17.5" fill="#F7F7F7"/>
<ellipse cx="326" cy="92.5" rx="17" ry="17.5" fill="#F7F7F7"/>
<ellipse cx="371" cy="92.5" rx="18" ry="17.5" fill="#F7F7F7"/>
<ellipse cx="412.5" cy="92.5" rx="16.5" ry="17.5" fill="#F7F7F7"/>
<ellipse cx="454.5" cy="92.5" rx="16.5" ry="17.5" fill="#F7F7F7"/>
<ellipse cx="499" cy="92.5" rx="18" ry="17.5" fill="#F7F7F7"/>
<ellipse cx="543.5" cy="92.5" rx="18.5" ry="17.5" fill="#F7F7F7"/>
<ellipse cx="584.5" cy="92.5" rx="15.5" ry="17.5" fill="#F7F7F7"/>
<ellipse cx="627" cy="92" rx="14" ry="13" fill="#F7F7F7"/>
<ellipse cx="670.5" cy="92" rx="4.5" ry="4" fill="#F7F7F7"/>
<ellipse cx="887" cy="92.5" rx="17" ry="17.5" fill="#F7F7F7"/>
<ellipse cx="929" cy="92" rx="15" ry="13" fill="#F7F7F7"/>
<ellipse cx="1.5" cy="135" rx="1.5" ry="2" fill="#F7F7F7"/>
<ellipse cx="48.5" cy="137" rx="3.5" ry="4" fill="#F7F7F7"/>
<ellipse cx="90.5" cy="135.5" rx="16.5" ry="18.5" fill="#F7F7F7"/>
<ellipse cx="131.5" cy="135.5" rx="17.5" ry="18.5" fill="#F7F7F7"/>
<ellipse cx="177" cy="135.5" rx="17" ry="18.5" fill="#F7F7F7"/>
<circle cx="220.5" cy="135.5" r="18.5" fill="#F7F7F7"/>
<ellipse cx="262.5" cy="135.5" rx="15.5" ry="18.5" fill="#F7F7F7"/>
<path d="M318 135.5C318 143.72 311.749 150 304.5 150C297.251 150 291 143.72 291 135.5C291 127.28 297.251 121 304.5 121C311.749 121 318 127.28 318 135.5Z" fill="white" stroke="#E68A00" stroke-width="8"/>
<circle cx="348.5" cy="135.5" r="18.5" fill="#F7F7F7"/>
<ellipse cx="392.5" cy="135.5" rx="16.5" ry="18.5" fill="#F7F7F7"/>
<ellipse cx="435" cy="135.5" rx="16" ry="18.5" fill="#F7F7F7"/>
<circle cx="476.5" cy="135.5" r="18.5" fill="#F7F7F7"/>
<ellipse cx="520.5" cy="135.5" rx="17.5" ry="18.5" fill="#F7F7F7"/>
<ellipse cx="564" cy="135.5" rx="18" ry="18.5" fill="#F7F7F7"/>
<ellipse cx="606" cy="135.5" rx="14" ry="18.5" fill="#F7F7F7"/>
<ellipse cx="651.5" cy="137" rx="10.5" ry="13" fill="#F7F7F7"/>
<ellipse cx="692.5" cy="137" rx="13.5" ry="13" fill="#F7F7F7"/>
<ellipse cx="864.5" cy="135.5" rx="17.5" ry="18.5" fill="#F7F7F7"/>
<ellipse cx="908" cy="135.5" rx="18" ry="18.5" fill="#F7F7F7"/>
<circle cx="951.5" cy="133.5" r="16.5" fill="#F7F7F7"/>
<circle cx="69.5" cy="179.5" r="4.5" fill="#F7F7F7"/>
<ellipse cx="113" cy="178.5" rx="15" ry="16.5" fill="#F7F7F7"/>
<circle cx="154.5" cy="180.5" r="18.5" fill="#F7F7F7"/>
<ellipse cx="198.5" cy="180.5" rx="17.5" ry="18.5" fill="#F7F7F7"/>
<ellipse cx="240.5" cy="180.5" rx="15.5" ry="18.5" fill="#F7F7F7"/>
<circle cx="282.5" cy="180.5" r="18.5" fill="#F7F7F7"/>
<ellipse cx="326" cy="180.5" rx="17" ry="18.5" fill="#F7F7F7"/>
<ellipse cx="371" cy="180.5" rx="18" ry="18.5" fill="#F7F7F7"/>
<ellipse cx="412.5" cy="180.5" rx="16.5" ry="18.5" fill="#F7F7F7"/>
<path d="M467 180.5C467 188.951 460.986 195 454.5 195C448.014 195 442 188.951 442 180.5C442 172.049 448.014 166 454.5 166C460.986 166 467 172.049 467 180.5Z" fill="white" stroke="#E68A00" stroke-width="8"/>
<ellipse cx="499" cy="180.5" rx="18" ry="18.5" fill="#F7F7F7"/>
<circle cx="543.5" cy="180.5" r="18.5" fill="#F7F7F7"/>
<ellipse cx="584.5" cy="178.5" rx="15.5" ry="16.5" fill="#F7F7F7"/>
<circle cx="625.5" cy="180.5" r="18.5" fill="#F7F7F7"/>
<ellipse cx="670" cy="180.5" rx="17" ry="18.5" fill="#F7F7F7"/>
<ellipse cx="714.5" cy="180.5" rx="16.5" ry="18.5" fill="#F7F7F7"/>
<ellipse cx="800.5" cy="178.5" rx="14.5" ry="16.5" fill="#F7F7F7"/>
<ellipse cx="843.5" cy="181" rx="13.5" ry="14" fill="#F7F7F7"/>
<ellipse cx="887" cy="181" rx="10" ry="9" fill="#F7F7F7"/>
<circle cx="134" cy="222" r="15" fill="#F7F7F7"/>
<ellipse cx="177" cy="222" rx="17" ry="15" fill="#F7F7F7"/>
<ellipse cx="371" cy="264.5" rx="18" ry="18.5" fill="#F7F7F7"/>
<ellipse cx="220.5" cy="222" rx="18.5" ry="15" fill="#F7F7F7"/>
<ellipse cx="262.5" cy="222" rx="15.5" ry="15" fill="#F7F7F7"/>
<ellipse cx="304.5" cy="222" rx="17.5" ry="15" fill="#F7F7F7"/>
<ellipse cx="348.5" cy="222" rx="18.5" ry="15" fill="#F7F7F7"/>
<ellipse cx="392.5" cy="222" rx="16.5" ry="15" fill="#F7F7F7"/>
<ellipse cx="435" cy="222" rx="16" ry="15" fill="#F7F7F7"/>
<ellipse cx="476.5" cy="222" rx="18.5" ry="15" fill="#F7F7F7"/>
<ellipse cx="520.5" cy="222" rx="12.5" ry="15" fill="#F7F7F7"/>
<ellipse cx="565" cy="219.5" rx="10" ry="8.5" fill="#F7F7F7"/>
<ellipse cx="604.5" cy="220.5" rx="12.5" ry="13.5" fill="#F7F7F7"/>
<path d="M661 222C661 227.619 655.665 233 648 233C640.335 233 635 227.619 635 222C635 216.381 640.335 211 648 211C655.665 211 661 216.381 661 222Z" fill="white" stroke="#E68A00" stroke-width="8"/>
<ellipse cx="693" cy="222" rx="18" ry="15" fill="#F7F7F7"/>
<ellipse cx="735.5" cy="222" rx="17.5" ry="15" fill="#F7F7F7"/>
<ellipse cx="778.5" cy="222" rx="14.5" ry="15" fill="#F7F7F7"/>
<ellipse cx="821" cy="222" rx="18" ry="15" fill="#F7F7F7"/>
<ellipse cx="865" cy="219.5" rx="8" ry="8.5" fill="#F7F7F7"/>
<ellipse cx="906.5" cy="222.5" rx="2.5" ry="1.5" fill="#F7F7F7"/>
<circle cx="113" cy="267" r="6" fill="#F7F7F7"/>
<circle cx="154.5" cy="264.5" r="18.5" fill="#F7F7F7"/>
<ellipse cx="198.5" cy="264.5" rx="17.5" ry="18.5" fill="#F7F7F7"/>
<ellipse cx="240.5" cy="264.5" rx="15.5" ry="18.5" fill="#F7F7F7"/>
<circle cx="282.5" cy="264.5" r="18.5" fill="#F7F7F7"/>
<ellipse cx="326" cy="264.5" rx="17" ry="18.5" fill="#F7F7F7"/>
<ellipse cx="412.5" cy="264.5" rx="16.5" ry="18.5" fill="#F7F7F7"/>
<ellipse cx="454.5" cy="264.5" rx="16.5" ry="18.5" fill="#F7F7F7"/>
<ellipse cx="499" cy="264.5" rx="18" ry="18.5" fill="#F7F7F7"/>
<circle cx="543.5" cy="264.5" r="18.5" fill="#F7F7F7"/>
<ellipse cx="585" cy="264" rx="10" ry="14" fill="#F7F7F7"/>
<ellipse cx="629" cy="264.5" rx="12" ry="8.5" fill="#F7F7F7"/>
<ellipse cx="669.5" cy="264" rx="12.5" ry="14" fill="#F7F7F7"/>
<ellipse cx="713" cy="266.5" rx="15" ry="16.5" fill="#F7F7F7"/>
<ellipse cx="757" cy="264.5" rx="16" ry="18.5" fill="#F7F7F7"/>
<ellipse cx="798.5" cy="264" rx="12.5" ry="14" fill="#F7F7F7"/>
<ellipse cx="843.5" cy="267" rx="13.5" ry="11" fill="#F7F7F7"/>
<ellipse cx="887" cy="264.5" rx="10" ry="8.5" fill="#F7F7F7"/>
<path d="M148.5 308.5C148.5 318.544 141.915 326.5 134 326.5C126.085 326.5 119.5 318.544 119.5 308.5C119.5 298.456 126.085 290.5 134 290.5C141.915 290.5 148.5 298.456 148.5 308.5Z" fill="#E68A00" stroke="#E68A00"/>
<path d="M193.5 308.5C193.5 318.482 186.074 326.5 177 326.5C167.926 326.5 160.5 318.482 160.5 308.5C160.5 298.518 167.926 290.5 177 290.5C186.074 290.5 193.5 298.518 193.5 308.5Z" fill="#E68A00" stroke="#E68A00"/>
<circle cx="220.5" cy="308.5" r="18.5" fill="#F7F7F7"/>
<ellipse cx="262.5" cy="308.5" rx="15.5" ry="18.5" fill="#F7F7F7"/>
<ellipse cx="304.5" cy="308.5" rx="17.5" ry="18.5" fill="#F7F7F7"/>
<circle cx="348.5" cy="308.5" r="18.5" fill="#F7F7F7"/>
<ellipse cx="392.5" cy="308.5" rx="16.5" ry="18.5" fill="#F7F7F7"/>
<ellipse cx="435" cy="308.5" rx="16" ry="18.5" fill="#F7F7F7"/>
<circle cx="476.5" cy="308.5" r="18.5" fill="#F7F7F7"/>
<ellipse cx="520.5" cy="308.5" rx="17.5" ry="18.5" fill="#F7F7F7"/>
<ellipse cx="562.5" cy="308" rx="16.5" ry="13" fill="#F7F7F7"/>
<ellipse cx="606" cy="308.5" rx="14" ry="18.5" fill="#F7F7F7"/>
<circle cx="649" cy="308" r="13" fill="#F7F7F7"/>
<ellipse cx="693" cy="308.5" rx="18" ry="18.5" fill="#F7F7F7"/>
<ellipse cx="735.5" cy="308.5" rx="17.5" ry="18.5" fill="#F7F7F7"/>
<ellipse cx="779" cy="308" rx="11" ry="9" fill="#F7F7F7"/>
<circle cx="113" cy="351" r="5.5" fill="#E68A00" stroke="#E68A00"/>
<path d="M172.5 352.5C172.5 361.863 164.468 369.5 154.5 369.5C144.532 369.5 136.5 361.863 136.5 352.5C136.5 343.137 144.532 335.5 154.5 335.5C164.468 335.5 172.5 343.137 172.5 352.5Z" fill="#E68A00" stroke="#E68A00"/>
<circle cx="198.5" cy="352.5" r="17" fill="#E68A00" stroke="#E68A00"/>
<ellipse cx="240.5" cy="352.5" rx="15.5" ry="17.5" fill="#F7F7F7"/>
<ellipse cx="282.5" cy="352.5" rx="18.5" ry="17.5" fill="#F7F7F7"/>
<ellipse cx="326" cy="352.5" rx="17" ry="17.5" fill="#F7F7F7"/>
<ellipse cx="371" cy="352.5" rx="18" ry="17.5" fill="#F7F7F7"/>
<ellipse cx="412.5" cy="352.5" rx="16.5" ry="17.5" fill="#F7F7F7"/>
<ellipse cx="454.5" cy="352.5" rx="16.5" ry="17.5" fill="#F7F7F7"/>
<ellipse cx="499" cy="352.5" rx="18" ry="17.5" fill="#F7F7F7"/>
<ellipse cx="543.5" cy="352.5" rx="18.5" ry="17.5" fill="#F7F7F7"/>
<ellipse cx="584.5" cy="352.5" rx="15.5" ry="17.5" fill="#F7F7F7"/>
<ellipse cx="625.5" cy="352.5" rx="18.5" ry="17.5" fill="#F7F7F7"/>
<ellipse cx="670" cy="352.5" rx="17" ry="17.5" fill="#F7F7F7"/>
<ellipse cx="713" cy="350.5" rx="15" ry="15.5" fill="#F7F7F7"/>
<ellipse cx="756" cy="350" rx="3" ry="2" fill="#F7F7F7"/>
<path d="M135.5 394C135.5 395.862 135.068 397.523 134.394 398.702C133.713 399.894 132.848 400.5 132 400.5C131.152 400.5 130.287 399.894 129.606 398.702C128.932 397.523 128.5 395.862 128.5 394C128.5 392.138 128.932 390.477 129.606 389.298C130.287 388.106 131.152 387.5 132 387.5C132.848 387.5 133.713 388.106 134.394 389.298C135.068 390.477 135.5 392.138 135.5 394Z" fill="#E68A00" stroke="#E68A00"/>
<path d="M193.5 393.5C193.5 402.323 186.127 409.5 177 409.5C167.873 409.5 160.5 402.323 160.5 393.5C160.5 384.677 167.873 377.5 177 377.5C186.127 377.5 193.5 384.677 193.5 393.5Z" fill="#E68A00" stroke="#E68A00"/>
<path d="M238.5 393.5C238.5 402.284 230.496 409.5 220.5 409.5C210.504 409.5 202.5 402.284 202.5 393.5C202.5 384.716 210.504 377.5 220.5 377.5C230.496 377.5 238.5 384.716 238.5 393.5Z" fill="#E68A00" stroke="#E68A00"/>
<ellipse cx="262.5" cy="393.5" rx="15.5" ry="16.5" fill="#F7F7F7"/>
<ellipse cx="304.5" cy="393.5" rx="17.5" ry="16.5" fill="#F7F7F7"/>
<ellipse cx="348.5" cy="393.5" rx="18.5" ry="16.5" fill="#F7F7F7"/>
<circle cx="392.5" cy="393.5" r="16.5" fill="#F7F7F7"/>
<ellipse cx="435" cy="393.5" rx="16" ry="16.5" fill="#F7F7F7"/>
<ellipse cx="476.5" cy="393.5" rx="18.5" ry="16.5" fill="#F7F7F7"/>
<ellipse cx="520.5" cy="393.5" rx="17.5" ry="16.5" fill="#F7F7F7"/>
<ellipse cx="564" cy="393.5" rx="18" ry="16.5" fill="#F7F7F7"/>
<ellipse cx="606" cy="393.5" rx="14" ry="16.5" fill="#F7F7F7"/>
<ellipse cx="648.5" cy="393.5" rx="17.5" ry="16.5" fill="#F7F7F7"/>
<ellipse cx="693" cy="393.5" rx="18" ry="16.5" fill="#F7F7F7"/>
<ellipse cx="733.5" cy="395.5" rx="2.5" ry="1.5" fill="#F7F7F7"/>
<path d="M159.5 437.5C159.5 438.714 158.73 439.5 158 439.5C157.27 439.5 156.5 438.714 156.5 437.5C156.5 436.286 157.27 435.5 158 435.5C158.73 435.5 159.5 436.286 159.5 437.5Z" fill="#E68A00" stroke="#E68A00"/>
<path d="M210.5 435.5C210.5 442.717 205.092 448.5 198.5 448.5C191.908 448.5 186.5 442.717 186.5 435.5C186.5 428.283 191.908 422.5 198.5 422.5C205.092 422.5 210.5 428.283 210.5 435.5Z" fill="#E68A00" stroke="#E68A00"/>
<ellipse cx="240.5" cy="436" rx="15.5" ry="17" fill="#F7F7F7"/>
<ellipse cx="282.5" cy="436" rx="18.5" ry="17" fill="#F7F7F7"/>
<circle cx="326" cy="436" r="17" fill="#F7F7F7"/>
<ellipse cx="371" cy="436" rx="18" ry="17" fill="#F7F7F7"/>
<path d="M425 436C425 443.412 419.402 449 413 449C406.598 449 401 443.412 401 436C401 428.588 406.598 423 413 423C419.402 423 425 428.588 425 436Z" fill="white" stroke="#E68A00" stroke-width="8"/>
<ellipse cx="454.5" cy="436" rx="16.5" ry="17" fill="#F7F7F7"/>
<ellipse cx="499" cy="436" rx="18" ry="17" fill="#F7F7F7"/>
<path d="M558 436C558 442.868 551.833 449 543.5 449C535.167 449 529 442.868 529 436C529 429.132 535.167 423 543.5 423C551.833 423 558 429.132 558 436Z" fill="white" stroke="#E68A00" stroke-width="8"/>
<ellipse cx="584.5" cy="436" rx="15.5" ry="17" fill="#F7F7F7"/>
<ellipse cx="625.5" cy="436" rx="18.5" ry="17" fill="#F7F7F7"/>
<ellipse cx="669.5" cy="435.5" rx="12.5" ry="13.5" fill="#F7F7F7"/>
<ellipse cx="713" cy="437.5" rx="2" ry="2.5" fill="#F7F7F7"/>
<ellipse cx="218.5" cy="481" rx="11.5" ry="9" fill="#F7F7F7"/>
<ellipse cx="262.5" cy="481" rx="15.5" ry="13" fill="#F7F7F7"/>
<circle cx="304.5" cy="480.5" r="17.5" fill="#F7F7F7"/>
<ellipse cx="348.5" cy="480.5" rx="18.5" ry="17.5" fill="#F7F7F7"/>
<ellipse cx="392.5" cy="480.5" rx="16.5" ry="17.5" fill="#F7F7F7"/>
<ellipse cx="435" cy="480.5" rx="16" ry="17.5" fill="#F7F7F7"/>
<ellipse cx="476.5" cy="480.5" rx="18.5" ry="17.5" fill="#F7F7F7"/>
<circle cx="520.5" cy="480.5" r="17.5" fill="#F7F7F7"/>
<ellipse cx="562.5" cy="481" rx="16.5" ry="13" fill="#F7F7F7"/>
<ellipse cx="606" cy="478.5" rx="14" ry="15.5" fill="#F7F7F7"/>
<ellipse cx="651.5" cy="479" rx="10.5" ry="11" fill="#F7F7F7"/>
<circle cx="329" cy="522" r="11" fill="#F7F7F7"/>
<ellipse cx="412.5" cy="524.5" rx="16.5" ry="18.5" fill="#F7F7F7"/>
<circle cx="457" cy="522" r="11" fill="#F7F7F7"/>
<ellipse cx="628" cy="522.5" rx="8" ry="7.5" fill="#F7F7F7"/>
<ellipse cx="670.5" cy="522.5" rx="4.5" ry="7.5" fill="#F7F7F7"/>
<ellipse cx="435" cy="566" rx="16" ry="15" fill="#F7F7F7"/>
<ellipse cx="657.5" cy="557.5" rx="4.5" ry="6.5" fill="#F7F7F7"/>
<ellipse cx="680.5" cy="558" rx="1.5" ry="2" fill="#F7F7F7"/>
<path d="M224.869 389.889C239.215 373.921 262.353 370.012 282.825 372.976C295.459 374.786 307.524 378.949 319.34 383.649C331.156 388.35 342.872 393.266 354.189 399.042C366.797 405.419 378.705 413.302 388.247 423.748C389.289 424.885 391.452 424.451 392.432 423.467C393.562 422.161 393.193 420.42 392.151 419.282C374.383 399.785 348.864 389.376 325.009 379.61C301.908 370.194 276.946 362.53 252.006 368.348C239.983 371.138 228.742 377.037 220.41 386.25C217.835 388.978 222.352 392.776 224.869 389.889Z" fill="#04003B"/>
<path d="M374.606 380.132C380.62 393.389 384.694 407.445 386.711 421.985C387.848 420.943 388.986 419.902 390.173 418.753C377.384 415.3 364.361 412.916 351.111 411.866C349.462 411.754 348.001 412.646 347.732 414.353C347.456 415.794 348.571 417.62 350.22 417.731C363.47 418.781 376.544 421.058 389.283 424.618C391.155 425.094 392.957 423.184 392.746 421.386C390.663 406.423 386.574 391.836 380.279 378.057C379.652 376.589 378.087 375.732 376.511 376.308C374.936 376.884 373.871 378.614 374.606 380.132Z" fill="#04003B"/>
<path d="M183.019 299.678C193.41 279.057 207.822 260.475 225.155 245.153C242.596 229.697 262.823 217.392 284.588 209.229C296.769 204.644 309.455 201.358 322.304 199.652C326.182 199.126 325.55 193.047 321.672 193.573C297.809 196.916 274.816 205.084 253.809 216.978C233.045 228.847 214.413 244.673 199.258 263.209C190.761 273.679 183.459 285.008 177.34 297.074C175.749 300.681 181.294 303.176 183.019 299.678Z" fill="#04003B"/>
<path d="M278.115 181.267C295.985 181.743 313.778 187.389 328.706 197.389C329.015 195.636 329.202 193.896 329.512 192.143C315.562 198.633 302.557 207.114 291.213 217.389C289.976 218.5 289.546 220.266 290.548 221.636C291.417 222.898 293.56 223.412 294.796 222.3C305.813 212.429 318.223 204.132 331.699 197.815C333.569 196.883 334.615 193.947 332.506 192.569C316.139 181.736 297.08 175.73 277.361 175.2C275.755 175.122 274.486 177.097 274.638 178.556C274.949 180.367 276.387 181.201 278.115 181.267Z" fill="#04003B"/>
<path d="M485.983 309.998L496.867 312.719C505.372 314.222 512.139 316.333 518.092 317.617L526.255 319.794L532.785 321.361C536.613 322.303 538.772 323.214 540.949 323.603C549.954 325.214 547.931 323.231 548.498 321.361C549.064 319.49 552.032 318.796 543.381 314.762C541.219 313.788 538.331 312.588 534.503 311.128L528.027 308.67L519.833 306.236C513.872 304.487 506.571 302.251 497.835 300.493L483.663 297.451C478.505 296.486 473.039 295.744 467.121 294.765C439.357 290.688 411.276 289.275 383.262 290.547C352.912 291.975 322.812 296.644 293.474 304.475C270.129 310.57 247.459 318.992 225.805 329.615C219.307 332.72 212.989 336.189 206.881 340.005C202.517 342.654 206.041 345.01 206.257 345.372C207.351 347.591 240.976 322.803 296.052 311.086C325.016 304.708 354.548 300.888 384.215 300.202C411.509 299.617 440.1 302.184 467.121 306.188L482.173 308.909" fill="#04003B"/>
<path d="M531.636 330.772C524.058 335.011 517.365 338.982 511.903 342.386C500.742 349.319 494.235 354.321 494.99 355.686C495.746 357.05 503.578 354.585 515.73 349.405C521.791 346.826 528.879 343.595 536.728 339.858C540.676 337.926 544.555 336.091 549.087 333.735C552.02 332.298 554.508 330.09 556.28 327.349C557.452 325.347 558.004 323.047 557.867 320.739C557.708 318.53 557.065 316.385 555.983 314.456C554.399 311.91 552.635 309.479 550.705 307.184C549.153 305.045 547.385 303.062 545.724 301.095C542.37 297.185 539.096 293.45 535.854 290.018C529.38 283.101 523.218 277.262 517.847 272.577C507.073 263.228 499.578 258.591 498.671 259.669C497.764 260.747 503.484 267.466 512.712 277.983C517.337 283.256 522.719 289.38 528.688 296.571C531.648 300.067 534.702 303.823 537.813 307.722L542.494 313.655C543.975 315.439 545.338 317.317 546.575 319.278C547.282 320.77 547.144 320.451 546.865 321.166C545.966 322.424 544.777 323.447 543.398 324.149C539.345 326.39 535.385 328.564 531.684 330.644" fill="#04003B"/>
</svg>
