<?xml version="1.0" encoding="UTF-8"?><svg id="Layer_1" xmlns="http://www.w3.org/2000/svg" viewBox="0 0 126.71 35.96"><defs><style>.cls-1{fill:#fff;}.cls-2{fill:#b75df6;}</style></defs><path class="cls-2" d="m15.98,35.88c-.18.1-.4.1-.58,0L1.71,27.81c-.39-.22-.38-.79,0-1.01l5.33-3.09c.09-.05.19-.08.29-.08h16.7c.1,0,.2.03.29.08l5.33,3.09c.39.22.39.78,0,1.01l-13.68,8.07Z"/><path class="cls-2" d="m25.18,22.19c-.09-.05-.15-.12-.21-.21l-8.34-14.02c-.05-.09-.09-.2-.09-.3V.61c0-.45.49-.73.87-.51l13.67,8.13c.18.1.28.3.28.51v16.04c0,.45-.48.73-.86.51l-5.33-3.1Z"/><path class="cls-2" d="m14.83.58c0-.45-.48-.73-.86-.51L.29,8.08c-.18.11-.29.3-.29.51v16.19c0,.45.48.73.86.51l5.33-3.09c.09-.05.15-.12.21-.21L14.74,7.96c.05-.09.09-.2.09-.3V.58Z"/><g><path class="cls-1" d="m49.07,16.7h7.69c.27,5.53-3.01,9.39-8.02,9.39s-8.74-3.75-8.74-8.54,3.82-8.54,8.7-8.54c3.19,0,5.93,1.58,7.11,4.09l-2.88,1.51c-.94-1.66-2.38-2.52-4.2-2.52-2.99,0-5.28,2.36-5.28,5.46s2.31,5.46,5.33,5.46c2.38,0,4.25-1.48,4.45-3.51h-4.14v-2.8h0Z"/><path class="cls-1" d="m58.55,9.35h2.97v16.4h-2.97V9.35Z"/><path class="cls-1" d="m69.65,26.09c-3.73,0-6.47-2.56-6.47-6.03s2.7-6.11,6.16-6.11,5.82,2.59,5.82,5.98c0,.33-.03.76-.07,1.19h-8.65c.29,1.4,1.44,2.29,3.14,2.29,1.17,0,2-.43,2.83-1.41l2.36,1.76c-1.17,1.51-3,2.34-5.13,2.34Zm2.34-7.33c-.18-1.3-1.22-2.18-2.67-2.18s-2.43.92-2.79,2.18h5.46Z"/><path class="cls-1" d="m88.86,25.75h-2.81v-1.01c-1.01.86-2.31,1.35-3.73,1.35-3.3,0-5.96-2.7-5.96-6.07s2.65-6.07,5.96-6.07c1.41,0,2.72.5,3.73,1.35v-1.01h2.81v11.46Zm-6.16-2.41c1.77,0,3.19-1.44,3.19-3.33s-1.41-3.33-3.19-3.33-3.21,1.44-3.21,3.33,1.41,3.33,3.21,3.33Z"/><path class="cls-1" d="m90.93,14.29h2.77v.81c.69-.76,1.8-1.19,3.1-1.19,2.67,0,4.54,1.89,4.54,4.61v7.23h-2.96v-6.75c0-1.35-.9-2.36-2.18-2.36s-2.29,1.01-2.29,2.27v6.83h-2.97v-11.46h0Z"/><path class="cls-1" d="m105.47,22.34c1.1,0,1.98.83,1.98,1.89s-.87,1.87-1.98,1.87-1.98-.81-1.98-1.87.86-1.89,1.98-1.89Z"/><path class="cls-1" d="m121.25,25.75h-2.81v-1.01c-1.01.86-2.31,1.35-3.73,1.35-3.3,0-5.96-2.7-5.96-6.07s2.65-6.07,5.96-6.07c1.41,0,2.72.5,3.73,1.35v-1.01h2.81v11.46Zm-6.16-2.41c1.77,0,3.19-1.44,3.19-3.33s-1.41-3.33-3.19-3.33-3.21,1.44-3.21,3.33c0,1.89,1.41,3.33,3.21,3.33Z"/><path class="cls-1" d="m124.78,9.1c1.08,0,1.93.76,1.93,1.8s-.86,1.8-1.93,1.8-1.88-.76-1.88-1.8.83-1.8,1.88-1.8Zm-1.46,5.19h2.97v11.46h-2.97v-11.46Z"/></g></svg>