<svg width="299" height="74" viewBox="0 0 299 74" fill="none" xmlns="http://www.w3.org/2000/svg">
<path d="M13.592 32.4014V71.7007H30.5263" stroke="#E45F23" stroke-width="3"/>
<path d="M1.84204 44.4132L45.9999 2.74854L82.8026 39.7221" stroke="#E45F23" stroke-width="3"/>
<path d="M57.3552 12.7517H69.4736V25.5828" stroke="#E45F23" stroke-width="3"/>
<path fill-rule="evenodd" clip-rule="evenodd" d="M63.1447 50.7429C62.1008 51.2186 61.171 51.9322 60.3552 52.8836V41.0701H55.3552V72.7844H60.3552V56.8347C60.864 55.9097 61.5087 55.2226 62.2894 54.7733C63.0262 54.3504 63.8771 54.139 64.842 54.139C66.1315 54.139 67.1052 54.4605 67.7631 55.1036C68.4341 55.7511 68.7631 56.8347 68.7631 58.3808V72.7844H73.7631V58.1958C73.7192 55.1124 72.9298 52.9013 71.3947 51.5622C70.2192 50.5491 68.6008 50.0426 66.5394 50.0426C65.3026 50.0426 64.171 50.276 63.1447 50.7429ZM43.4999 46.9372H52.8289V42.7219H29.092V46.9372H38.342V72.7844H43.4999V46.9372ZM118.789 72.7844H123.974V42.7219H118.789V55.2358H105.408V42.7219H100.197V72.7844H105.408V59.4247H118.789V72.7844ZM81.9868 71.7272C83.6184 72.7139 85.5438 73.2072 87.7631 73.2072C89.614 73.2072 91.285 72.8372 92.7763 72.0972C94.2631 71.3572 95.4473 70.3265 96.342 68.9919L93.6447 66.4151C92.2105 68.2651 90.342 69.2033 88.0526 69.2033C86.421 69.2033 85.0657 68.6615 83.9868 67.5911C82.921 66.5076 82.3026 65.054 82.1447 63.204H96.6841V61.1822C96.6841 57.6408 95.8552 54.8922 94.2105 52.9497C92.5526 51.0072 90.2236 50.0426 87.1841 50.0426C85.9824 50.0426 84.8508 50.2364 83.7894 50.624C83.1754 50.853 82.5833 51.1438 82.0131 51.4961C81.5482 51.7869 81.1184 52.1128 80.7236 52.474C79.7763 53.3197 78.9999 54.3636 78.3947 55.6058C77.5394 57.3501 77.1184 59.3454 77.1184 61.5786V62.1997C77.1184 65.5297 78.092 68.199 80.0657 70.1944C80.6534 70.7934 81.2938 71.3044 81.9868 71.7272ZM129.145 55.5001C128.285 57.2532 127.855 59.2221 127.855 61.4069V61.6579C127.855 65.1597 128.803 67.9611 130.684 70.049C132.566 72.1501 135.079 73.2072 138.224 73.2072C140.276 73.2072 142.092 72.7315 143.658 71.7801C145.224 70.8286 146.434 69.4808 147.276 67.7497C148.118 66.0186 148.539 64.0497 148.539 61.8429L148.513 60.6669C148.368 57.4558 147.355 54.8922 145.487 52.9497C144.882 52.3242 144.219 51.7957 143.5 51.364C141.982 50.483 140.206 50.0426 138.171 50.0426C136.145 50.0426 134.355 50.5051 132.789 51.4565C132.333 51.7296 131.908 52.0379 131.513 52.3815C130.548 53.2184 129.759 54.2579 129.145 55.5001ZM156.763 52.7779L156.618 50.4522H151.908V72.7844H156.908V56.5969C157.75 54.9583 159.158 54.139 161.158 54.139C163.763 54.139 165.105 55.4604 165.171 58.0901V72.7844H170.171L170.145 57.469C170.434 56.4779 170.934 55.6719 171.658 55.064C172.382 54.4561 173.303 54.139 174.447 54.139C175.868 54.139 176.895 54.4694 177.513 55.1301C178.118 55.7908 178.434 56.8347 178.434 58.2486V72.7844H183.434V58.1033C183.395 55.4472 182.789 53.4386 181.592 52.0776C180.395 50.7165 178.566 50.0426 176.105 50.0426C173.171 50.0426 170.895 51.179 169.289 53.4651C168.895 52.6458 168.382 51.9719 167.75 51.4433C166.61 50.5095 165.088 50.0426 163.184 50.0426C161.36 50.0426 159.794 50.4522 158.487 51.2715C157.846 51.6767 157.272 52.1789 156.763 52.7779ZM189.816 70.1944C191.776 72.2029 194.342 73.2072 197.513 73.2072C199.368 73.2072 201.026 72.8372 202.513 72.0972C204 71.3572 205.197 70.3265 206.092 68.9919L203.395 66.4151C201.947 68.2651 200.092 69.2033 197.803 69.2033C196.171 69.2033 194.816 68.6615 193.737 67.5911C192.658 66.5076 192.053 65.054 191.895 63.204H206.434V61.1822C206.434 57.6408 205.605 54.8922 203.96 52.9497C202.303 51.0072 199.96 50.0426 196.934 50.0426C195.732 50.0426 194.601 50.2364 193.539 50.624C192.917 50.853 192.32 51.1438 191.75 51.4961C191.294 51.7869 190.868 52.1128 190.474 52.474C189.526 53.3197 188.75 54.3636 188.145 55.6058C187.289 57.3501 186.868 59.3454 186.868 61.5786V62.1997C186.868 65.5297 187.842 68.199 189.816 70.1944ZM83.842 55.5133C84.6841 54.5486 85.8026 54.0597 87.171 54.0597C88.5526 54.0597 89.6315 54.4958 90.421 55.3547C91.1973 56.2136 91.6447 57.4822 91.7499 59.1604V59.5304H82.2368C82.4605 57.8126 82.9999 56.4647 83.842 55.5133ZM134.276 67.2476C133.329 65.9438 132.855 64.1422 132.855 61.8429C132.855 59.2529 133.329 57.3104 134.289 56.0154C134.754 55.3811 135.298 54.901 135.921 54.5751C136.588 54.2315 137.338 54.0597 138.171 54.0597C139.842 54.0597 141.145 54.7204 142.118 56.0419C143.079 57.3633 143.566 59.1604 143.566 61.4069C143.566 63.9572 143.092 65.8997 142.158 67.2211C141.21 68.5426 139.908 69.2033 138.224 69.2033C137.276 69.2033 136.447 68.9963 135.737 68.5822C135.175 68.2651 134.689 67.8202 134.276 67.2476ZM193.592 55.5133C194.434 54.5486 195.539 54.0597 196.921 54.0597C198.303 54.0597 199.382 54.4958 200.171 55.3547C200.947 56.2136 201.395 57.4822 201.5 59.1604V59.5304H191.987C192.21 57.8126 192.75 56.4647 193.592 55.5133Z" fill="#192C39"/>
<path fill-rule="evenodd" clip-rule="evenodd" d="M239.461 54.1654V72.7844H244.447V54.1654H248.974V50.4522H244.447V48.4701C244.447 47.2015 244.763 46.2589 245.395 45.6422C245.991 45.0608 246.868 44.7701 248.026 44.7701C248.754 44.7701 249.39 44.8273 249.934 44.9419L250.066 41.0172C249.079 40.7661 248.145 40.6472 247.263 40.6472C244.803 40.6472 242.882 41.3211 241.513 42.669C240.145 44.0169 239.461 45.9329 239.461 48.404V50.4522H236.066V54.1654H239.461ZM253.539 54.1654V72.7844H258.539V54.1654H263.053V50.4522H258.539V48.4701C258.539 47.2015 258.855 46.2589 259.487 45.6422C260.075 45.0608 260.952 44.7701 262.118 44.7701C262.838 44.7701 263.474 44.8273 264.026 44.9419L264.145 41.0172C263.158 40.7661 262.224 40.6472 261.355 40.6472C258.882 40.6472 256.961 41.3211 255.592 42.669C254.224 44.0169 253.539 45.9329 253.539 48.404V50.4522H250.145V54.1654H253.539ZM232.316 66.2961C233.329 64.0761 233.842 61.4861 233.842 58.5394V56.8744C233.829 53.9408 233.303 51.364 232.276 49.1572C231.25 46.9504 229.789 45.259 227.908 44.0829C226.026 42.9069 223.868 42.3122 221.421 42.3122C218.987 42.3122 216.816 42.9069 214.934 44.0961C213.053 45.2854 211.592 47.0033 210.553 49.2497C209.526 51.4961 209 54.0861 209 57.0197V58.7111C209.018 61.583 209.544 64.1202 210.579 66.3226C211.618 68.5294 213.079 70.2208 214.974 71.4101C216.882 72.6126 219.039 73.2072 221.461 73.2072C223.443 73.2072 225.241 72.8196 226.855 72.0444C227.232 71.8594 227.605 71.6479 227.974 71.4101C229.855 70.2208 231.303 68.5161 232.316 66.2961ZM226.763 49.3158C228.018 51.0865 228.645 53.6413 228.645 56.9801V58.5394C228.645 61.9354 228.026 64.499 226.776 66.2697C225.539 68.0272 223.763 68.9126 221.461 68.9126C220.241 68.9126 219.162 68.6527 218.224 68.1329C217.425 67.6836 216.728 67.0406 216.132 66.2036C214.842 64.3933 214.211 61.8429 214.211 58.5394V56.8083C214.237 53.5752 214.882 51.0733 216.145 49.3026C216.732 48.4921 217.417 47.8666 218.197 47.4261C219.127 46.9064 220.202 46.6465 221.421 46.6465C222.737 46.6465 223.882 46.9372 224.855 47.5186C225.583 47.9503 226.219 48.5494 226.763 49.3158ZM267.474 70.1944C269.434 72.2029 272 73.2072 275.171 73.2072C277.013 73.2072 278.684 72.8372 280.171 72.0972C281.658 71.3572 282.855 70.3265 283.737 68.9919L281.053 66.4151C279.605 68.2651 277.75 69.2033 275.461 69.2033C273.829 69.2033 272.474 68.6615 271.395 67.5911C270.316 66.5076 269.711 65.054 269.553 63.204H284.092V61.1822C284.092 57.6408 283.263 54.8922 281.618 52.9497C279.961 51.0072 277.618 50.0426 274.592 50.0426C273.39 50.0426 272.259 50.2364 271.197 50.624C270.575 50.8531 269.978 51.1438 269.408 51.4961C268.952 51.7869 268.526 52.1128 268.132 52.474C267.184 53.3197 266.408 54.3636 265.803 55.6058C264.947 57.3501 264.513 59.3454 264.513 61.5786V62.1997C264.513 65.5297 265.5 68.199 267.474 70.1944ZM296.737 54.8658C297.434 54.8658 298.118 54.9186 298.776 55.0376L298.789 50.3201C298.329 50.1351 297.737 50.0426 297.026 50.0426C294.882 50.0426 293.211 51.0072 292.013 52.9497L291.882 50.4522H287.118V72.7844H292.105V57.5086C292.908 55.7511 294.447 54.8658 296.737 54.8658ZM271.25 55.5133C272.092 54.5486 273.197 54.0597 274.566 54.0597C275.961 54.0597 277.039 54.4958 277.816 55.3547C278.605 56.2136 279.053 57.4822 279.158 59.1604V59.5304H269.632C269.868 57.8126 270.408 56.4647 271.25 55.5133Z" fill="#E45F23"/>
</svg>
