<svg width="1440" height="1270" viewBox="0 0 1440 1270" fill="none" xmlns="http://www.w3.org/2000/svg">
<g clip-path="url(#clip0_358_1993)">
<rect width="1440" height="1270" fill="white"/>
<path d="M-26.4224 211.677L-22.9508 211.361C21.7066 207.33 66.7368 211.524 109.831 223.727V223.727" stroke="#F3F3F3" stroke-miterlimit="10"/>
<path d="M-24.4033 196.137H-20.9317C23.9233 196.056 68.4002 204.203 110.217 220.161V220.161" stroke="#F3F3F3" stroke-miterlimit="10"/>
<path d="M-20.9956 180.837L-17.524 181.14C27.15 185.014 70.6977 197.046 110.886 216.62V216.62" stroke="#F3F3F3" stroke-miterlimit="10"/>
<path d="M-16.1865 165.905L-12.7664 166.512C31.3954 174.303 73.692 190.126 111.953 213.169V213.169" stroke="#F3F3F3" stroke-miterlimit="10"/>
<path d="M-10.0542 151.453L-6.69834 152.35C36.5521 164.012 77.2128 183.501 113.2 209.818V209.818" stroke="#F3F3F3" stroke-miterlimit="10"/>
<path d="M-2.62061 137.595L0.645252 138.859C42.6579 154.284 81.3782 177.276 114.822 206.657V206.657" stroke="#F3F3F3" stroke-miterlimit="10"/>
<path d="M6.04346 124.458L9.18074 125.975C49.6219 145.041 86.0927 171.356 116.723 203.571V203.571" stroke="#F3F3F3" stroke-miterlimit="10"/>
<path d="M15.8804 112.13L18.8634 113.875C57.4013 136.431 91.3252 165.855 118.896 200.638V200.638" stroke="#F3F3F3" stroke-miterlimit="10"/>
<path d="M26.7842 100.687L29.6 102.685C65.929 128.548 97.0361 160.844 121.327 197.92V197.92" stroke="#F3F3F3" stroke-miterlimit="10"/>
<path d="M38.6899 90.3193L41.2615 92.57C75.0887 121.523 103.127 156.428 123.937 195.493V195.493" stroke="#F3F3F3" stroke-miterlimit="10"/>
<path d="M51.5098 81.0132L53.8884 83.4788C84.9363 115.301 109.677 152.538 126.843 193.28V193.28" stroke="#F3F3F3" stroke-miterlimit="10"/>
<path d="M65.1133 72.8701L67.2862 75.538C95.3074 109.972 116.556 149.241 129.942 191.332V191.332" stroke="#F3F3F3" stroke-miterlimit="10"/>
<path d="M79.4102 65.9536L81.326 68.8112C106.096 105.576 123.677 146.56 133.168 189.663V189.663" stroke="#F3F3F3" stroke-miterlimit="10"/>
<path d="M94.2739 60.3262L95.9197 63.3355C117.24 102.135 131.015 144.505 136.537 188.271" stroke="#F3F3F3" stroke-miterlimit="10"/>
<path d="M109.588 56.0405L110.964 59.1889C128.658 99.7116 138.517 143.122 140.035 187.197V187.197" stroke="#F3F3F3" stroke-miterlimit="10"/>
<path d="M125.236 53.1201L126.316 56.4329C140.248 98.3516 146.109 142.458 143.597 186.49V186.49" stroke="#F3F3F3" stroke-miterlimit="10"/>
<path d="M141.089 51.5908L141.861 54.9162C151.919 97.8979 153.737 142.347 147.222 185.985V185.985" stroke="#F3F3F3" stroke-miterlimit="10"/>
<path d="M157.019 51.4629L157.482 54.8515C163.578 98.5443 161.337 142.972 150.873 185.857V185.857" stroke="#F3F3F3" stroke-miterlimit="10"/>
<path d="M172.886 52.7402L173.053 56.1541C175.14 100.208 168.857 144.258 154.525 186.047V186.047" stroke="#F3F3F3" stroke-miterlimit="10"/>
<path d="M188.585 55.4087L188.431 58.8226C186.497 102.873 176.224 146.182 158.138 186.528V186.528" stroke="#F3F3F3" stroke-miterlimit="10"/>
<path d="M203.975 59.4551L203.512 62.8437C197.564 106.556 183.385 148.796 161.699 187.4V187.4" stroke="#F3F3F3" stroke-miterlimit="10"/>
<path d="M218.928 64.8398L218.157 68.1652C208.254 111.18 190.28 152.002 165.157 188.537V188.537" stroke="#F3F3F3" stroke-miterlimit="10"/>
<path d="M233.33 71.5171L232.263 74.7666C218.476 116.732 196.857 155.803 168.515 189.979V189.979" stroke="#F3F3F3" stroke-miterlimit="10"/>
<path d="M247.076 79.4448L245.713 82.5806C228.163 123.17 203.069 160.184 171.717 191.724V191.724" stroke="#F3F3F3" stroke-miterlimit="10"/>
<path d="M260.036 88.5356L258.39 91.5576C237.21 130.428 208.845 165.075 174.751 193.722V193.722" stroke="#F3F3F3" stroke-miterlimit="10"/>
<path d="M272.11 98.752L270.207 101.61C245.575 138.448 214.181 170.452 177.631 195.985V195.985" stroke="#F3F3F3" stroke-miterlimit="10"/>
<path d="M283.219 109.98L281.046 112.661C253.148 147.189 218.944 176.297 180.19 198.488V198.488" stroke="#F3F3F3" stroke-miterlimit="10"/>
<path d="M293.247 122.182L290.843 124.71C259.909 156.642 223.19 182.619 182.568 201.308V201.308" stroke="#F3F3F3" stroke-miterlimit="10"/>
<path d="M302.13 135.141L299.469 137.354C265.748 166.426 226.809 189.058 184.649 204.089V204.089" stroke="#F3F3F3" stroke-miterlimit="10"/>
<path d="M309.757 148.873L306.942 150.896C270.705 176.877 229.862 195.988 186.503 207.251V207.251" stroke="#F3F3F3" stroke-miterlimit="10"/>
<path d="M316.186 163.238L313.203 164.995C274.744 187.679 232.322 203.116 188.11 210.514V210.514" stroke="#F3F3F3" stroke-miterlimit="10"/>
<path d="M321.212 178.081L318.087 179.573C277.714 198.778 234.053 210.411 189.343 213.876V213.876" stroke="#F3F3F3" stroke-miterlimit="10"/>
<path d="M324.89 193.33L321.637 194.594C279.674 210.158 235.129 217.898 190.283 217.417V217.417" stroke="#F3F3F3" stroke-miterlimit="10"/>
<path d="M327.154 208.831L323.81 209.741C280.597 221.55 235.524 225.332 190.9 220.894V220.894" stroke="#F3F3F3" stroke-miterlimit="10"/>
<path d="M328 224.473L324.58 225.092C280.465 233.037 235.231 232.827 191.194 224.473" stroke="#F3F3F3" stroke-miterlimit="10"/>
<path d="M327.409 240.125L323.95 240.442C279.292 244.462 234.263 240.265 191.169 228.063V228.063" stroke="#F3F3F3" stroke-miterlimit="10"/>
<path d="M325.405 255.665H321.934C277.079 255.747 232.602 247.6 190.785 231.642V231.642" stroke="#F3F3F3" stroke-miterlimit="10"/>
<path d="M321.984 270.964L318.525 270.66C273.874 266.769 230.35 254.733 190.18 235.168V235.168" stroke="#F3F3F3" stroke-miterlimit="10"/>
<path d="M317.187 285.896L313.767 285.289C269.603 277.5 227.305 261.673 189.047 238.62V238.62" stroke="#F3F3F3" stroke-miterlimit="10"/>
<path d="M311.043 300.349L307.687 299.439C264.437 287.781 223.777 268.297 187.789 241.984V241.984" stroke="#F3F3F3" stroke-miterlimit="10"/>
<path d="M303.624 314.206L300.358 312.942C258.348 297.512 219.629 274.521 186.182 245.145V245.145" stroke="#F3F3F3" stroke-miterlimit="10"/>
<path d="M294.957 327.344L291.82 325.865C251.379 306.799 214.908 280.483 184.278 248.268V248.268" stroke="#F3F3F3" stroke-miterlimit="10"/>
<path d="M285.122 339.66L282.139 337.903C243.602 315.351 209.678 285.932 182.106 251.152V251.152" stroke="#F3F3F3" stroke-miterlimit="10"/>
<path d="M274.205 351.04L271.389 349.029C235.065 323.17 203.962 290.878 179.675 253.807V253.807" stroke="#F3F3F3" stroke-miterlimit="10"/>
<path d="M262.3 361.483L259.728 359.232C225.905 330.273 197.872 295.365 177.066 256.297V256.297" stroke="#F3F3F3" stroke-miterlimit="10"/>
<path d="M249.492 370.79L247.087 368.261C216.036 336.436 191.295 299.195 174.133 258.447V258.447" stroke="#F3F3F3" stroke-miterlimit="10"/>
<path d="M235.888 378.932L233.715 376.328C205.694 341.894 184.445 302.625 171.059 260.533V260.533" stroke="#F3F3F3" stroke-miterlimit="10"/>
<path d="M221.59 385.835L219.674 382.99C194.901 346.227 177.32 305.242 167.832 262.138V262.138" stroke="#F3F3F3" stroke-miterlimit="10"/>
<path d="M206.728 391.5L205.082 388.491C183.754 349.681 169.979 307.297 164.465 263.517V263.517" stroke="#F3F3F3" stroke-miterlimit="10"/>
<path d="M191.466 395.761L190.09 392.613C172.396 352.09 162.537 308.68 161.019 264.604V264.604" stroke="#F3F3F3" stroke-miterlimit="10"/>
<path d="M175.767 398.681L174.687 395.432C160.748 353.51 154.888 309.398 157.406 265.362V265.362" stroke="#F3F3F3" stroke-miterlimit="10"/>
<path d="M159.913 400.212L159.129 396.874C149.075 353.895 147.261 309.45 153.78 265.818V265.818" stroke="#F3F3F3" stroke-miterlimit="10"/>
<path d="M143.983 400.35L143.507 396.961C137.415 353.268 139.66 308.84 150.129 265.956V265.956" stroke="#F3F3F3" stroke-miterlimit="10"/>
<path d="M128.114 399.087L127.947 395.673C125.852 351.612 132.131 307.553 146.462 265.755V265.755" stroke="#F3F3F3" stroke-miterlimit="10"/>
<path d="M112.416 396.393L112.57 392.979C114.504 348.928 124.777 305.619 142.863 265.274V265.274" stroke="#F3F3F3" stroke-miterlimit="10"/>
<path d="M97.0269 392.347L97.4897 388.958C103.432 345.244 117.612 303.003 139.303 264.401V264.401" stroke="#F3F3F3" stroke-miterlimit="10"/>
<path d="M82.0723 386.962L82.8437 383.623C92.7465 340.612 110.72 299.795 135.843 263.265V263.265" stroke="#F3F3F3" stroke-miterlimit="10"/>
<path d="M67.6724 380.285L68.7396 377.023C82.519 335.058 104.138 295.99 132.488 261.823V261.823" stroke="#F3F3F3" stroke-miterlimit="10"/>
<path d="M53.8882 372.357L55.2511 369.209C72.8057 328.63 97.8998 291.625 129.247 260.091V260.091" stroke="#F3F3F3" stroke-miterlimit="10"/>
<path d="M41.0303 363.254L42.6761 360.245C63.8602 321.376 92.2242 286.73 126.315 258.081V258.081" stroke="#F3F3F3" stroke-miterlimit="10"/>
<path d="M28.8809 353.05L30.7452 350.192C55.3701 313.349 86.7651 281.343 123.321 255.817V255.817" stroke="#F3F3F3" stroke-miterlimit="10"/>
<path d="M17.7837 341.822L19.9438 339.141C47.8296 304.617 82.0148 275.506 120.748 253.301V253.301" stroke="#F3F3F3" stroke-miterlimit="10"/>
<path d="M7.75342 329.645L10.1449 327.116C41.0776 295.183 77.7975 269.206 118.42 250.519V250.519" stroke="#F3F3F3" stroke-miterlimit="10"/>
<path d="M-1.13135 316.648L1.44019 314.397C35.1626 285.324 74.1008 262.688 116.259 247.649V247.649" stroke="#F3F3F3" stroke-miterlimit="10"/>
<path d="M-8.79346 302.915L-5.97762 300.905C30.2559 274.919 71.1004 255.808 114.461 244.55V244.55" stroke="#F3F3F3" stroke-miterlimit="10"/>
<path d="M-15.1719 288.565L-12.1889 286.807C26.2669 264.116 68.6903 248.679 112.904 241.289V241.289" stroke="#F3F3F3" stroke-miterlimit="10"/>
<path d="M-20.2124 273.708L-17.088 272.217C23.2875 253.019 66.9477 241.391 111.656 237.926V237.926" stroke="#F3F3F3" stroke-miterlimit="10"/>
<path d="M-23.8882 258.472L-20.6352 257.208C21.3304 241.658 65.8764 233.94 110.719 234.448V234.448" stroke="#F3F3F3" stroke-miterlimit="10"/>
<path d="M-26.1509 242.97L-22.8079 242.047C20.4039 230.253 65.472 226.48 110.089 230.921V230.921" stroke="#F3F3F3" stroke-miterlimit="10"/>
<path d="M-27 227.329L-23.5799 226.709C20.5302 218.758 65.7614 218.969 109.793 227.329V227.329" stroke="#F3F3F3" stroke-miterlimit="10"/>
<path d="M1291 350C1409.19 350 1505 254.189 1505 136C1505 17.8111 1409.19 -78 1291 -78C1172.81 -78 1077 17.8111 1077 136C1077 254.189 1172.81 350 1291 350Z" stroke="#F2F2F2" stroke-linecap="round" stroke-linejoin="round"/>
<path d="M1291 332.969C1399.78 332.969 1487.97 244.783 1487.97 136C1487.97 27.2168 1399.78 -60.9692 1291 -60.9692C1182.22 -60.9692 1094.03 27.2168 1094.03 136C1094.03 244.783 1182.22 332.969 1291 332.969Z" stroke="#F2F2F2" stroke-linecap="round" stroke-linejoin="round"/>
<path d="M1291 315.932C1390.37 315.932 1470.93 235.374 1470.93 136C1470.93 36.6265 1390.37 -43.9316 1291 -43.9316C1191.63 -43.9316 1111.07 36.6265 1111.07 136C1111.07 235.374 1191.63 315.932 1291 315.932Z" stroke="#F2F2F2" stroke-linecap="round" stroke-linejoin="round"/>
<path d="M1291 298.901C1380.97 298.901 1453.9 225.967 1453.9 136C1453.9 46.0323 1380.97 -26.9009 1291 -26.9009C1201.03 -26.9009 1128.1 46.0323 1128.1 136C1128.1 225.967 1201.03 298.901 1291 298.901Z" stroke="#F2F2F2" stroke-linecap="round" stroke-linejoin="round"/>
<path d="M1291 281.864C1371.56 281.864 1436.86 216.558 1436.86 136C1436.86 55.442 1371.56 -9.86328 1291 -9.86328C1210.44 -9.86328 1145.14 55.442 1145.14 136C1145.14 216.558 1210.44 281.864 1291 281.864Z" stroke="#F2F2F2" stroke-linecap="round" stroke-linejoin="round"/>
<path d="M1291 264.832C1362.15 264.832 1419.83 207.152 1419.83 136C1419.83 64.8477 1362.15 7.16748 1291 7.16748C1219.85 7.16748 1162.17 64.8477 1162.17 136C1162.17 207.152 1219.85 264.832 1291 264.832Z" stroke="#F2F2F2" stroke-linecap="round" stroke-linejoin="round"/>
<path d="M1291 247.795C1352.74 247.795 1402.8 197.742 1402.8 136C1402.8 74.257 1352.74 24.2046 1291 24.2046C1229.26 24.2046 1179.21 74.257 1179.21 136C1179.21 197.742 1229.26 247.795 1291 247.795Z" stroke="#F2F2F2" stroke-linecap="round" stroke-linejoin="round"/>
<path d="M1291 230.764C1343.34 230.764 1385.76 188.337 1385.76 136C1385.76 83.6632 1343.34 41.2358 1291 41.2358C1238.66 41.2358 1196.24 83.6632 1196.24 136C1196.24 188.337 1238.66 230.764 1291 230.764Z" stroke="#F2F2F2" stroke-linecap="round" stroke-linejoin="round"/>
<path d="M1291 213.727C1333.93 213.727 1368.73 178.927 1368.73 136C1368.73 93.0724 1333.93 58.2729 1291 58.2729C1248.07 58.2729 1213.27 93.0724 1213.27 136C1213.27 178.927 1248.07 213.727 1291 213.727Z" stroke="#F2F2F2" stroke-linecap="round" stroke-linejoin="round"/>
<path d="M1291 196.696C1324.52 196.696 1351.7 169.521 1351.7 136C1351.7 102.479 1324.52 75.3042 1291 75.3042C1257.48 75.3042 1230.3 102.479 1230.3 136C1230.3 169.521 1257.48 196.696 1291 196.696Z" stroke="#F2F2F2" stroke-linecap="round" stroke-linejoin="round"/>
<path d="M1291 179.658C1315.11 179.658 1334.66 160.112 1334.66 136C1334.66 111.888 1315.11 92.3413 1291 92.3413C1266.89 92.3413 1247.34 111.888 1247.34 136C1247.34 160.112 1266.89 179.658 1291 179.658Z" stroke="#F2F2F2" stroke-linecap="round" stroke-linejoin="round"/>
<path d="M1291 162.628C1305.71 162.628 1317.63 150.706 1317.63 136C1317.63 121.294 1305.71 109.373 1291 109.373C1276.29 109.373 1264.37 121.294 1264.37 136C1264.37 150.706 1276.29 162.628 1291 162.628Z" stroke="#F2F2F2" stroke-linecap="round" stroke-linejoin="round"/>
<path d="M186.56 1066.5L166.24 1010.5H176.6L192.8 1055.1L209.04 1010.5H219.36L199.04 1066.5H186.56ZM250.694 1026.5H260.454V1066.5H250.694L250.254 1061.54C249.161 1063.33 247.708 1064.78 245.894 1065.9C244.108 1066.99 241.988 1067.54 239.534 1067.54C236.574 1067.54 233.801 1066.98 231.214 1065.86C228.628 1064.74 226.348 1063.19 224.374 1061.22C222.428 1059.25 220.894 1056.97 219.774 1054.38C218.681 1051.79 218.134 1049.02 218.134 1046.06C218.134 1043.21 218.654 1040.53 219.694 1038.02C220.761 1035.51 222.241 1033.31 224.134 1031.42C226.028 1029.53 228.214 1028.05 230.694 1026.98C233.174 1025.91 235.841 1025.38 238.694 1025.38C241.334 1025.38 243.694 1025.97 245.774 1027.14C247.881 1028.31 249.668 1029.81 251.134 1031.62L250.694 1026.5ZM239.294 1058.14C241.374 1058.14 243.214 1057.62 244.814 1056.58C246.414 1055.54 247.668 1054.14 248.574 1052.38C249.481 1050.59 249.934 1048.63 249.934 1046.5C249.934 1044.34 249.481 1042.38 248.574 1040.62C247.668 1038.83 246.401 1037.42 244.774 1036.38C243.174 1035.34 241.348 1034.82 239.294 1034.82C237.241 1034.82 235.361 1035.35 233.654 1036.42C231.974 1037.46 230.628 1038.86 229.614 1040.62C228.628 1042.38 228.134 1044.34 228.134 1046.5C228.134 1048.66 228.641 1050.62 229.654 1052.38C230.668 1054.14 232.014 1055.54 233.694 1056.58C235.401 1057.62 237.268 1058.14 239.294 1058.14ZM304.379 1066.5H293.139L284.019 1050.78L278.419 1057.46V1066.5H268.659V1006.5H278.419V1042.3L291.659 1026.5H304.419L290.699 1042.86L304.379 1066.5ZM350.851 1067.54C347.757 1067.54 344.784 1067.06 341.931 1066.1C339.104 1065.11 336.624 1063.71 334.491 1061.9C332.357 1060.06 330.824 1057.86 329.891 1055.3L339.051 1051.94C339.424 1053.01 340.184 1053.98 341.331 1054.86C342.477 1055.74 343.877 1056.45 345.531 1056.98C347.184 1057.51 348.957 1057.78 350.851 1057.78C352.797 1057.78 354.611 1057.49 356.291 1056.9C357.997 1056.29 359.371 1055.45 360.411 1054.38C361.451 1053.29 361.971 1052.02 361.971 1050.58C361.971 1049.11 361.424 1047.91 360.331 1046.98C359.237 1046.02 357.837 1045.26 356.131 1044.7C354.424 1044.14 352.664 1043.71 350.851 1043.42C346.877 1042.81 343.317 1041.86 340.171 1040.58C337.024 1039.3 334.531 1037.53 332.691 1035.26C330.877 1032.99 329.971 1030.06 329.971 1026.46C329.971 1023.07 330.944 1020.11 332.891 1017.58C334.837 1015.05 337.397 1013.07 340.571 1011.66C343.744 1010.25 347.171 1009.54 350.851 1009.54C353.917 1009.54 356.877 1010.02 359.731 1010.98C362.584 1011.94 365.077 1013.34 367.211 1015.18C369.371 1017.02 370.917 1019.23 371.851 1021.82L362.651 1025.14C362.277 1024.07 361.517 1023.1 360.371 1022.22C359.224 1021.34 357.824 1020.65 356.171 1020.14C354.517 1019.61 352.744 1019.34 350.851 1019.34C348.957 1019.31 347.157 1019.62 345.451 1020.26C343.771 1020.87 342.397 1021.71 341.331 1022.78C340.264 1023.85 339.731 1025.07 339.731 1026.46C339.731 1028.25 340.224 1029.59 341.211 1030.5C342.224 1031.41 343.571 1032.07 345.251 1032.5C346.931 1032.9 348.797 1033.27 350.851 1033.62C354.584 1034.21 358.037 1035.19 361.211 1036.58C364.384 1037.97 366.931 1039.82 368.851 1042.14C370.771 1044.43 371.731 1047.25 371.731 1050.58C371.731 1053.97 370.771 1056.94 368.851 1059.5C366.931 1062.03 364.384 1064.01 361.211 1065.42C358.037 1066.83 354.584 1067.54 350.851 1067.54ZM409.523 1026.5H419.283V1066.5H409.523L409.083 1061.54C407.989 1063.33 406.536 1064.78 404.723 1065.9C402.936 1066.99 400.816 1067.54 398.363 1067.54C395.403 1067.54 392.629 1066.98 390.043 1065.86C387.456 1064.74 385.176 1063.19 383.203 1061.22C381.256 1059.25 379.723 1056.97 378.603 1054.38C377.509 1051.79 376.963 1049.02 376.963 1046.06C376.963 1043.21 377.483 1040.53 378.523 1038.02C379.589 1035.51 381.069 1033.31 382.963 1031.42C384.856 1029.53 387.043 1028.05 389.523 1026.98C392.003 1025.91 394.669 1025.38 397.523 1025.38C400.163 1025.38 402.523 1025.97 404.603 1027.14C406.709 1028.31 408.496 1029.81 409.963 1031.62L409.523 1026.5ZM398.123 1058.14C400.203 1058.14 402.043 1057.62 403.643 1056.58C405.243 1055.54 406.496 1054.14 407.403 1052.38C408.309 1050.59 408.763 1048.63 408.763 1046.5C408.763 1044.34 408.309 1042.38 407.403 1040.62C406.496 1038.83 405.229 1037.42 403.603 1036.38C402.003 1035.34 400.176 1034.82 398.123 1034.82C396.069 1034.82 394.189 1035.35 392.483 1036.42C390.803 1037.46 389.456 1038.86 388.443 1040.62C387.456 1042.38 386.963 1044.34 386.963 1046.5C386.963 1048.66 387.469 1050.62 388.483 1052.38C389.496 1054.14 390.843 1055.54 392.523 1056.58C394.229 1057.62 396.096 1058.14 398.123 1058.14ZM427.253 1066.5V1026.5H437.013V1030.06C438.373 1028.62 440 1027.49 441.893 1026.66C443.786 1025.81 445.826 1025.38 448.013 1025.38C450.786 1025.38 453.333 1026.03 455.653 1027.34C458 1028.65 459.866 1030.39 461.253 1032.58C462.666 1030.39 464.533 1028.65 466.853 1027.34C469.173 1026.03 471.72 1025.38 474.493 1025.38C477.426 1025.38 480.08 1026.1 482.453 1027.54C484.853 1028.95 486.76 1030.86 488.173 1033.26C489.613 1035.63 490.333 1038.29 490.333 1041.22V1066.5H480.573V1043.82C480.573 1042.27 480.186 1040.86 479.413 1039.58C478.666 1038.27 477.653 1037.23 476.373 1036.46C475.12 1035.66 473.706 1035.26 472.133 1035.26C470.56 1035.26 469.133 1035.65 467.853 1036.42C466.6 1037.17 465.586 1038.18 464.813 1039.46C464.04 1040.74 463.653 1042.19 463.653 1043.82V1066.5H453.893V1043.82C453.893 1042.19 453.52 1040.74 452.773 1039.46C452.026 1038.18 451.013 1037.17 449.733 1036.42C448.453 1035.65 447.026 1035.26 445.453 1035.26C443.906 1035.26 442.493 1035.66 441.213 1036.46C439.933 1037.23 438.906 1038.27 438.133 1039.58C437.386 1040.86 437.013 1042.27 437.013 1043.82V1066.5H427.253ZM519.861 1025.38C523.755 1025.38 527.301 1026.33 530.501 1028.22C533.701 1030.11 536.248 1032.66 538.141 1035.86C540.035 1039.03 540.981 1042.55 540.981 1046.42C540.981 1049.33 540.435 1052.06 539.341 1054.62C538.248 1057.18 536.728 1059.43 534.781 1061.38C532.861 1063.3 530.621 1064.81 528.061 1065.9C525.528 1066.99 522.795 1067.54 519.861 1067.54C517.355 1067.54 515.128 1066.98 513.181 1065.86C511.261 1064.71 509.648 1063.23 508.341 1061.42V1066.5H498.581V1006.5H508.341V1031.5C509.648 1029.69 511.261 1028.22 513.181 1027.1C515.128 1025.95 517.355 1025.38 519.861 1025.38ZM519.741 1058.1C521.821 1058.1 523.701 1057.58 525.381 1056.54C527.088 1055.47 528.448 1054.06 529.461 1052.3C530.475 1050.54 530.981 1048.58 530.981 1046.42C530.981 1044.29 530.475 1042.34 529.461 1040.58C528.448 1038.79 527.088 1037.38 525.381 1036.34C523.675 1035.3 521.795 1034.78 519.741 1034.78C517.715 1034.78 515.901 1035.31 514.301 1036.38C512.701 1037.42 511.448 1038.83 510.541 1040.62C509.635 1042.38 509.181 1044.31 509.181 1046.42C509.181 1048.58 509.635 1050.55 510.541 1052.34C511.448 1054.1 512.701 1055.5 514.301 1056.54C515.901 1057.58 517.715 1058.1 519.741 1058.1ZM577.569 1026.5H587.329V1066.5H577.569L577.129 1061.54C576.036 1063.33 574.583 1064.78 572.769 1065.9C570.983 1066.99 568.863 1067.54 566.409 1067.54C563.449 1067.54 560.676 1066.98 558.089 1065.86C555.503 1064.74 553.223 1063.19 551.249 1061.22C549.303 1059.25 547.769 1056.97 546.649 1054.38C545.556 1051.79 545.009 1049.02 545.009 1046.06C545.009 1043.21 545.529 1040.53 546.569 1038.02C547.636 1035.51 549.116 1033.31 551.009 1031.42C552.903 1029.53 555.089 1028.05 557.569 1026.98C560.049 1025.91 562.716 1025.38 565.569 1025.38C568.209 1025.38 570.569 1025.97 572.649 1027.14C574.756 1028.31 576.543 1029.81 578.009 1031.62L577.569 1026.5ZM566.169 1058.14C568.249 1058.14 570.089 1057.62 571.689 1056.58C573.289 1055.54 574.543 1054.14 575.449 1052.38C576.356 1050.59 576.809 1048.63 576.809 1046.5C576.809 1044.34 576.356 1042.38 575.449 1040.62C574.543 1038.83 573.276 1037.42 571.649 1036.38C570.049 1035.34 568.223 1034.82 566.169 1034.82C564.116 1034.82 562.236 1035.35 560.529 1036.42C558.849 1037.46 557.503 1038.86 556.489 1040.62C555.503 1042.38 555.009 1044.34 555.009 1046.5C555.009 1048.66 555.516 1050.62 556.529 1052.38C557.543 1054.14 558.889 1055.54 560.569 1056.58C562.276 1057.62 564.143 1058.14 566.169 1058.14ZM616.74 1036.26H608.98V1066.5H599.22V1036.26H593.3V1026.5H599.22V1013.94H608.98V1026.5H616.74V1036.26ZM660.612 1041.22V1066.5H650.852V1043.78C650.852 1042.21 650.465 1040.78 649.692 1039.5C648.919 1038.19 647.879 1037.17 646.572 1036.42C645.292 1035.65 643.865 1035.26 642.292 1035.26C640.719 1035.26 639.279 1035.65 637.972 1036.42C636.692 1037.17 635.665 1038.19 634.892 1039.5C634.145 1040.78 633.772 1042.21 633.772 1043.78V1066.5H624.012L623.972 1006.5H633.732L633.772 1030.06C635.132 1028.62 636.759 1027.49 638.652 1026.66C640.545 1025.81 642.585 1025.38 644.772 1025.38C647.679 1025.38 650.332 1026.1 652.732 1027.54C655.132 1028.95 657.039 1030.86 658.452 1033.26C659.892 1035.63 660.612 1038.29 660.612 1041.22ZM163.96 1144.5V1143.01C164.616 1142.4 165.336 1141.74 166.12 1141.02C166.904 1140.29 167.68 1139.54 168.448 1138.78C169.224 1138 169.932 1137.24 170.572 1136.48C171.212 1135.72 171.724 1135.01 172.108 1134.34C172.5 1133.66 172.696 1133.06 172.696 1132.54C172.696 1131.9 172.54 1131.33 172.228 1130.81C171.924 1130.28 171.512 1129.86 170.992 1129.55C170.48 1129.23 169.908 1129.07 169.276 1129.07C168.644 1129.07 168.064 1129.23 167.536 1129.55C167.016 1129.86 166.6 1130.28 166.288 1130.81C165.976 1131.33 165.82 1131.9 165.82 1132.54H164.14C164.14 1131.58 164.372 1130.71 164.836 1129.93C165.308 1129.16 165.932 1128.54 166.708 1128.08C167.484 1127.62 168.34 1127.39 169.276 1127.39C170.212 1127.39 171.064 1127.62 171.832 1128.08C172.608 1128.55 173.224 1129.17 173.68 1129.94C174.144 1130.72 174.376 1131.58 174.376 1132.54C174.376 1133.1 174.224 1133.73 173.92 1134.41C173.624 1135.08 173.22 1135.78 172.708 1136.51C172.196 1137.23 171.62 1137.96 170.98 1138.69C170.34 1139.43 169.672 1140.15 168.976 1140.85C168.28 1141.55 167.604 1142.2 166.948 1142.82H174.628V1144.5H163.96ZM182.633 1144.81C181.625 1144.81 180.725 1144.59 179.933 1144.14C179.141 1143.68 178.465 1143.06 177.905 1142.26C177.345 1141.46 176.917 1140.53 176.621 1139.48C176.333 1138.43 176.189 1137.3 176.189 1136.1C176.189 1134.9 176.333 1133.77 176.621 1132.72C176.917 1131.66 177.345 1130.74 177.905 1129.94C178.465 1129.14 179.141 1128.52 179.933 1128.07C180.725 1127.62 181.625 1127.39 182.633 1127.39C183.633 1127.39 184.529 1127.62 185.321 1128.07C186.113 1128.52 186.785 1129.14 187.337 1129.94C187.889 1130.74 188.309 1131.66 188.597 1132.72C188.893 1133.77 189.041 1134.9 189.041 1136.1C189.041 1137.3 188.893 1138.43 188.597 1139.48C188.309 1140.53 187.889 1141.46 187.337 1142.26C186.785 1143.06 186.113 1143.68 185.321 1144.14C184.529 1144.59 183.633 1144.81 182.633 1144.81ZM182.633 1143.13C183.689 1143.13 184.573 1142.81 185.285 1142.16C186.005 1141.51 186.545 1140.66 186.905 1139.59C187.265 1138.52 187.445 1137.36 187.445 1136.1C187.445 1134.77 187.257 1133.58 186.881 1132.52C186.513 1131.46 185.969 1130.62 185.249 1130C184.537 1129.38 183.665 1129.07 182.633 1129.07C181.817 1129.07 181.105 1129.26 180.497 1129.63C179.889 1130.01 179.385 1130.52 178.985 1131.18C178.585 1131.84 178.285 1132.59 178.085 1133.44C177.885 1134.28 177.785 1135.16 177.785 1136.1C177.785 1137.36 177.969 1138.53 178.337 1139.6C178.705 1140.67 179.249 1141.52 179.969 1142.17C180.689 1142.81 181.577 1143.13 182.633 1143.13ZM195.886 1143.3V1138.14H190.726V1136.46H195.886V1131.3H197.566V1136.46H202.726V1138.14H197.566V1143.3H195.886ZM219.113 1132.5H220.889L214.325 1150.5H212.537L214.721 1144.5L210.413 1132.5H212.249L215.561 1142.18L219.113 1132.5ZM227.845 1144.81C226.741 1144.81 225.733 1144.53 224.821 1143.96C223.917 1143.39 223.193 1142.63 222.649 1141.68C222.113 1140.72 221.845 1139.66 221.845 1138.5C221.845 1137.62 222.001 1136.8 222.313 1136.04C222.625 1135.27 223.053 1134.6 223.597 1134.02C224.149 1133.44 224.789 1132.98 225.517 1132.66C226.245 1132.33 227.021 1132.16 227.845 1132.16C228.733 1132.16 229.549 1132.34 230.293 1132.69C231.045 1133.04 231.689 1133.54 232.225 1134.17C232.769 1134.8 233.177 1135.54 233.449 1136.39C233.729 1137.24 233.845 1138.15 233.797 1139.14H223.621C223.717 1139.9 223.957 1140.58 224.341 1141.18C224.733 1141.78 225.229 1142.25 225.829 1142.6C226.437 1142.95 227.109 1143.12 227.845 1143.13C228.645 1143.13 229.365 1142.92 230.005 1142.51C230.653 1142.09 231.173 1141.52 231.565 1140.79L233.269 1141.19C232.789 1142.25 232.065 1143.12 231.097 1143.8C230.129 1144.48 229.045 1144.81 227.845 1144.81ZM223.573 1137.78H232.105C232.049 1137.04 231.821 1136.36 231.421 1135.74C231.029 1135.12 230.521 1134.62 229.897 1134.25C229.273 1133.88 228.589 1133.69 227.845 1133.69C227.101 1133.69 226.421 1133.87 225.805 1134.24C225.189 1134.6 224.685 1135.09 224.293 1135.72C223.901 1136.33 223.661 1137.02 223.573 1137.78ZM245.601 1132.5H247.281V1144.5H245.601L245.541 1142.27C245.149 1143.03 244.601 1143.64 243.897 1144.12C243.193 1144.58 242.353 1144.81 241.377 1144.81C240.497 1144.81 239.673 1144.65 238.905 1144.32C238.137 1143.98 237.461 1143.52 236.877 1142.94C236.293 1142.36 235.837 1141.68 235.509 1140.91C235.181 1140.14 235.017 1139.32 235.017 1138.44C235.017 1137.58 235.177 1136.76 235.497 1136C235.825 1135.24 236.273 1134.58 236.841 1134C237.417 1133.42 238.081 1132.98 238.833 1132.66C239.593 1132.33 240.405 1132.16 241.269 1132.16C242.269 1132.16 243.141 1132.4 243.885 1132.88C244.629 1133.36 245.221 1133.98 245.661 1134.74L245.601 1132.5ZM241.341 1143.18C242.197 1143.18 242.933 1142.97 243.549 1142.56C244.165 1142.13 244.637 1141.56 244.965 1140.85C245.301 1140.14 245.469 1139.36 245.469 1138.5C245.469 1137.62 245.301 1136.83 244.965 1136.12C244.629 1135.41 244.153 1134.85 243.537 1134.43C242.921 1134.02 242.189 1133.81 241.341 1133.81C240.493 1133.81 239.717 1134.02 239.013 1134.44C238.317 1134.86 237.761 1135.42 237.345 1136.14C236.937 1136.85 236.733 1137.64 236.733 1138.5C236.733 1139.37 236.945 1140.16 237.369 1140.88C237.793 1141.58 238.353 1142.14 239.049 1142.56C239.753 1142.97 240.517 1143.18 241.341 1143.18ZM249.682 1144.5V1132.5H251.362V1134.16C251.786 1133.55 252.338 1133.06 253.018 1132.7C253.698 1132.34 254.438 1132.16 255.238 1132.16C255.702 1132.16 256.15 1132.22 256.582 1132.34L255.898 1134.01C255.562 1133.91 255.234 1133.86 254.914 1133.86C254.266 1133.86 253.67 1134.02 253.126 1134.34C252.59 1134.66 252.162 1135.08 251.842 1135.62C251.522 1136.16 251.362 1136.75 251.362 1137.41V1144.5H249.682ZM261.804 1144.73C261.148 1144.71 260.508 1144.59 259.884 1144.37C259.26 1144.14 258.716 1143.84 258.252 1143.46C257.788 1143.07 257.456 1142.64 257.256 1142.15L258.708 1141.52C258.836 1141.84 259.072 1142.12 259.416 1142.39C259.768 1142.64 260.168 1142.85 260.616 1143.01C261.064 1143.16 261.508 1143.24 261.948 1143.24C262.436 1143.24 262.892 1143.16 263.316 1143C263.74 1142.84 264.084 1142.61 264.348 1142.32C264.62 1142.01 264.756 1141.66 264.756 1141.25C264.756 1140.81 264.612 1140.46 264.324 1140.22C264.036 1139.96 263.672 1139.76 263.232 1139.62C262.792 1139.46 262.34 1139.32 261.876 1139.18C261.028 1138.95 260.28 1138.7 259.632 1138.42C258.984 1138.14 258.476 1137.78 258.108 1137.35C257.748 1136.91 257.568 1136.34 257.568 1135.66C257.568 1134.93 257.772 1134.3 258.18 1133.77C258.596 1133.24 259.136 1132.82 259.8 1132.54C260.472 1132.24 261.188 1132.09 261.948 1132.09C262.924 1132.09 263.812 1132.3 264.612 1132.73C265.42 1133.15 266.004 1133.72 266.364 1134.42L265.008 1135.22C264.864 1134.9 264.636 1134.61 264.324 1134.37C264.012 1134.13 263.656 1133.94 263.256 1133.81C262.864 1133.67 262.464 1133.6 262.056 1133.59C261.544 1133.58 261.068 1133.66 260.628 1133.82C260.188 1133.97 259.832 1134.2 259.56 1134.5C259.296 1134.81 259.164 1135.18 259.164 1135.62C259.164 1136.06 259.296 1136.4 259.56 1136.63C259.824 1136.85 260.18 1137.04 260.628 1137.18C261.084 1137.32 261.596 1137.48 262.164 1137.66C262.892 1137.89 263.576 1138.16 264.216 1138.45C264.856 1138.75 265.372 1139.12 265.764 1139.56C266.156 1140 266.348 1140.55 266.34 1141.22C266.34 1141.94 266.124 1142.57 265.692 1143.11C265.26 1143.64 264.7 1144.06 264.012 1144.34C263.324 1144.62 262.588 1144.75 261.804 1144.73ZM274.174 1132.5H275.854V1144.5H274.174V1132.5ZM275.026 1130.4C274.754 1130.4 274.522 1130.31 274.33 1130.14C274.146 1129.95 274.054 1129.72 274.054 1129.45C274.054 1129.18 274.146 1128.96 274.33 1128.78C274.522 1128.6 274.754 1128.5 275.026 1128.5C275.29 1128.5 275.514 1128.6 275.698 1128.78C275.89 1128.96 275.986 1129.18 275.986 1129.45C275.986 1129.72 275.894 1129.95 275.71 1130.14C275.526 1130.31 275.298 1130.4 275.026 1130.4ZM289.162 1137.07V1144.5H287.482V1137.41C287.482 1136.75 287.322 1136.16 287.002 1135.62C286.682 1135.08 286.254 1134.66 285.718 1134.34C285.182 1134.02 284.586 1133.86 283.93 1133.86C283.282 1133.86 282.686 1134.02 282.142 1134.34C281.606 1134.66 281.178 1135.08 280.858 1135.62C280.538 1136.16 280.378 1136.75 280.378 1137.41V1144.5H278.698V1132.5H280.378V1134.16C280.802 1133.55 281.354 1133.06 282.034 1132.7C282.714 1132.34 283.454 1132.16 284.254 1132.16C285.158 1132.16 285.982 1132.38 286.726 1132.82C287.47 1133.26 288.062 1133.86 288.502 1134.6C288.942 1135.34 289.162 1136.17 289.162 1137.07ZM303.463 1134.18H300.595L300.583 1144.5H298.903L298.915 1134.18H296.743V1132.5H298.915L298.903 1128.73H300.583L300.595 1132.5H303.463V1134.18ZM310.556 1144.81C309.452 1144.81 308.444 1144.53 307.532 1143.96C306.628 1143.39 305.904 1142.63 305.36 1141.68C304.824 1140.72 304.556 1139.66 304.556 1138.5C304.556 1137.62 304.712 1136.8 305.024 1136.04C305.336 1135.27 305.764 1134.6 306.308 1134.02C306.86 1133.44 307.5 1132.98 308.228 1132.66C308.956 1132.33 309.732 1132.16 310.556 1132.16C311.444 1132.16 312.26 1132.34 313.004 1132.69C313.756 1133.04 314.4 1133.54 314.936 1134.17C315.48 1134.8 315.888 1135.54 316.16 1136.39C316.44 1137.24 316.556 1138.15 316.508 1139.14H306.332C306.428 1139.9 306.668 1140.58 307.052 1141.18C307.444 1141.78 307.94 1142.25 308.54 1142.6C309.148 1142.95 309.82 1143.12 310.556 1143.13C311.356 1143.13 312.076 1142.92 312.716 1142.51C313.364 1142.09 313.884 1141.52 314.276 1140.79L315.98 1141.19C315.5 1142.25 314.776 1143.12 313.808 1143.8C312.84 1144.48 311.756 1144.81 310.556 1144.81ZM306.284 1137.78H314.816C314.76 1137.04 314.532 1136.36 314.132 1135.74C313.74 1135.12 313.232 1134.62 312.608 1134.25C311.984 1133.88 311.3 1133.69 310.556 1133.69C309.812 1133.69 309.132 1133.87 308.516 1134.24C307.9 1134.6 307.396 1135.09 307.004 1135.72C306.612 1136.33 306.372 1137.02 306.284 1137.78ZM327.016 1141.49L328.516 1142.3C327.972 1143.06 327.28 1143.67 326.44 1144.13C325.608 1144.58 324.704 1144.81 323.728 1144.81C322.624 1144.81 321.616 1144.53 320.704 1143.96C319.8 1143.39 319.076 1142.63 318.532 1141.68C317.996 1140.72 317.728 1139.66 317.728 1138.5C317.728 1137.62 317.884 1136.8 318.196 1136.04C318.508 1135.27 318.936 1134.6 319.48 1134.02C320.032 1133.44 320.672 1132.98 321.4 1132.66C322.128 1132.33 322.904 1132.16 323.728 1132.16C324.704 1132.16 325.608 1132.39 326.44 1132.85C327.28 1133.3 327.972 1133.92 328.516 1134.68L327.016 1135.49C326.6 1134.96 326.1 1134.56 325.516 1134.28C324.932 1133.99 324.336 1133.84 323.728 1133.84C322.92 1133.84 322.188 1134.06 321.532 1134.49C320.876 1134.92 320.356 1135.48 319.972 1136.18C319.596 1136.89 319.408 1137.66 319.408 1138.5C319.408 1139.34 319.6 1140.11 319.984 1140.82C320.376 1141.52 320.9 1142.08 321.556 1142.51C322.212 1142.92 322.936 1143.13 323.728 1143.13C324.384 1143.13 325 1142.98 325.576 1142.68C326.152 1142.37 326.632 1141.98 327.016 1141.49ZM340.982 1137.07V1144.5H339.302V1137.41C339.302 1136.75 339.142 1136.16 338.822 1135.62C338.502 1135.08 338.074 1134.66 337.538 1134.34C337.002 1134.02 336.406 1133.86 335.75 1133.86C335.102 1133.86 334.506 1134.02 333.962 1134.34C333.426 1134.66 332.998 1135.08 332.678 1135.62C332.358 1136.16 332.198 1136.75 332.198 1137.41V1144.5H330.518V1126.5H332.198V1134.16C332.622 1133.55 333.174 1133.06 333.854 1132.7C334.534 1132.34 335.274 1132.16 336.074 1132.16C336.978 1132.16 337.802 1132.38 338.546 1132.82C339.29 1133.26 339.882 1133.86 340.322 1134.6C340.762 1135.34 340.982 1136.17 340.982 1137.07ZM342.905 1145.84L343.649 1141.79H345.329L344.021 1145.84H342.905ZM357.687 1144.73C357.031 1144.71 356.391 1144.59 355.767 1144.37C355.143 1144.14 354.599 1143.84 354.135 1143.46C353.671 1143.07 353.339 1142.64 353.139 1142.15L354.591 1141.52C354.719 1141.84 354.955 1142.12 355.299 1142.39C355.651 1142.64 356.051 1142.85 356.499 1143.01C356.947 1143.16 357.391 1143.24 357.831 1143.24C358.319 1143.24 358.775 1143.16 359.199 1143C359.623 1142.84 359.967 1142.61 360.231 1142.32C360.503 1142.01 360.639 1141.66 360.639 1141.25C360.639 1140.81 360.495 1140.46 360.207 1140.22C359.919 1139.96 359.555 1139.76 359.115 1139.62C358.675 1139.46 358.223 1139.32 357.759 1139.18C356.911 1138.95 356.163 1138.7 355.515 1138.42C354.867 1138.14 354.359 1137.78 353.991 1137.35C353.631 1136.91 353.451 1136.34 353.451 1135.66C353.451 1134.93 353.655 1134.3 354.063 1133.77C354.479 1133.24 355.019 1132.82 355.683 1132.54C356.355 1132.24 357.071 1132.09 357.831 1132.09C358.807 1132.09 359.695 1132.3 360.495 1132.73C361.303 1133.15 361.887 1133.72 362.247 1134.42L360.891 1135.22C360.747 1134.9 360.519 1134.61 360.207 1134.37C359.895 1134.13 359.539 1133.94 359.139 1133.81C358.747 1133.67 358.347 1133.6 357.939 1133.59C357.427 1133.58 356.951 1133.66 356.511 1133.82C356.071 1133.97 355.715 1134.2 355.443 1134.5C355.179 1134.81 355.047 1135.18 355.047 1135.62C355.047 1136.06 355.179 1136.4 355.443 1136.63C355.707 1136.85 356.063 1137.04 356.511 1137.18C356.967 1137.32 357.479 1137.48 358.047 1137.66C358.775 1137.89 359.459 1138.16 360.099 1138.45C360.739 1138.75 361.255 1139.12 361.647 1139.56C362.039 1140 362.231 1140.55 362.223 1141.22C362.223 1141.94 362.007 1142.57 361.575 1143.11C361.143 1143.64 360.583 1144.06 359.895 1144.34C359.207 1144.62 358.471 1144.75 357.687 1144.73ZM369.478 1144.81C368.374 1144.81 367.366 1144.53 366.454 1143.96C365.55 1143.39 364.826 1142.63 364.282 1141.68C363.746 1140.72 363.478 1139.66 363.478 1138.5C363.478 1137.62 363.634 1136.8 363.946 1136.04C364.258 1135.27 364.686 1134.6 365.23 1134.02C365.782 1133.44 366.422 1132.98 367.15 1132.66C367.878 1132.33 368.654 1132.16 369.478 1132.16C370.366 1132.16 371.182 1132.34 371.926 1132.69C372.678 1133.04 373.322 1133.54 373.858 1134.17C374.402 1134.8 374.81 1135.54 375.082 1136.39C375.362 1137.24 375.478 1138.15 375.43 1139.14H365.254C365.35 1139.9 365.59 1140.58 365.974 1141.18C366.366 1141.78 366.862 1142.25 367.462 1142.6C368.07 1142.95 368.742 1143.12 369.478 1143.13C370.278 1143.13 370.998 1142.92 371.638 1142.51C372.286 1142.09 372.806 1141.52 373.198 1140.79L374.902 1141.19C374.422 1142.25 373.698 1143.12 372.73 1143.8C371.762 1144.48 370.678 1144.81 369.478 1144.81ZM365.206 1137.78H373.738C373.682 1137.04 373.454 1136.36 373.054 1135.74C372.662 1135.12 372.154 1134.62 371.53 1134.25C370.906 1133.88 370.222 1133.69 369.478 1133.69C368.734 1133.69 368.054 1133.87 367.438 1134.24C366.822 1134.6 366.318 1135.09 365.926 1135.72C365.534 1136.33 365.294 1137.02 365.206 1137.78ZM377.487 1144.5V1132.5H379.167V1134.16C379.591 1133.55 380.143 1133.06 380.823 1132.7C381.503 1132.34 382.243 1132.16 383.043 1132.16C383.507 1132.16 383.955 1132.22 384.387 1132.34L383.703 1134.01C383.367 1133.91 383.039 1133.86 382.719 1133.86C382.071 1133.86 381.475 1134.02 380.931 1134.34C380.395 1134.66 379.967 1135.08 379.647 1135.62C379.327 1136.16 379.167 1136.75 379.167 1137.41V1144.5H377.487ZM385.901 1132.5H387.581V1144.5H385.901V1132.5ZM386.753 1130.4C386.481 1130.4 386.249 1130.31 386.057 1130.14C385.873 1129.95 385.781 1129.72 385.781 1129.45C385.781 1129.18 385.873 1128.96 386.057 1128.78C386.249 1128.6 386.481 1128.5 386.753 1128.5C387.017 1128.5 387.241 1128.6 387.425 1128.78C387.617 1128.96 387.713 1129.18 387.713 1129.45C387.713 1129.72 387.621 1129.95 387.437 1130.14C387.253 1130.31 387.025 1130.4 386.753 1130.4ZM400.218 1132.5H401.898V1144.5H400.218L400.158 1142.27C399.766 1143.03 399.218 1143.64 398.514 1144.12C397.81 1144.58 396.97 1144.81 395.994 1144.81C395.114 1144.81 394.29 1144.65 393.522 1144.32C392.754 1143.98 392.078 1143.52 391.494 1142.94C390.91 1142.36 390.454 1141.68 390.126 1140.91C389.798 1140.14 389.634 1139.32 389.634 1138.44C389.634 1137.58 389.794 1136.76 390.114 1136C390.442 1135.24 390.89 1134.58 391.458 1134C392.034 1133.42 392.698 1132.98 393.45 1132.66C394.21 1132.33 395.022 1132.16 395.886 1132.16C396.886 1132.16 397.758 1132.4 398.502 1132.88C399.246 1133.36 399.838 1133.98 400.278 1134.74L400.218 1132.5ZM395.958 1143.18C396.814 1143.18 397.55 1142.97 398.166 1142.56C398.782 1142.13 399.254 1141.56 399.582 1140.85C399.918 1140.14 400.086 1139.36 400.086 1138.5C400.086 1137.62 399.918 1136.83 399.582 1136.12C399.246 1135.41 398.77 1134.85 398.154 1134.43C397.538 1134.02 396.806 1133.81 395.958 1133.81C395.11 1133.81 394.334 1134.02 393.63 1134.44C392.934 1134.86 392.378 1135.42 391.962 1136.14C391.554 1136.85 391.35 1137.64 391.35 1138.5C391.35 1139.37 391.562 1140.16 391.986 1140.88C392.41 1141.58 392.97 1142.14 393.666 1142.56C394.37 1142.97 395.134 1143.18 395.958 1143.18ZM404.463 1144.5V1126.5H406.143V1144.5H404.463ZM420.079 1144.81C418.975 1144.81 417.967 1144.53 417.055 1143.96C416.151 1143.39 415.427 1142.63 414.883 1141.68C414.347 1140.72 414.079 1139.66 414.079 1138.5C414.079 1137.62 414.235 1136.8 414.547 1136.04C414.859 1135.27 415.287 1134.6 415.831 1134.02C416.383 1133.44 417.023 1132.98 417.751 1132.66C418.479 1132.33 419.255 1132.16 420.079 1132.16C420.967 1132.16 421.783 1132.34 422.527 1132.69C423.279 1133.04 423.923 1133.54 424.459 1134.17C425.003 1134.8 425.411 1135.54 425.683 1136.39C425.963 1137.24 426.079 1138.15 426.031 1139.14H415.855C415.951 1139.9 416.191 1140.58 416.575 1141.18C416.967 1141.78 417.463 1142.25 418.063 1142.6C418.671 1142.95 419.343 1143.12 420.079 1143.13C420.879 1143.13 421.599 1142.92 422.239 1142.51C422.887 1142.09 423.407 1141.52 423.799 1140.79L425.503 1141.19C425.023 1142.25 424.299 1143.12 423.331 1143.8C422.363 1144.48 421.279 1144.81 420.079 1144.81ZM415.807 1137.78H424.339C424.283 1137.04 424.055 1136.36 423.655 1135.74C423.263 1135.12 422.755 1134.62 422.131 1134.25C421.507 1133.88 420.823 1133.69 420.079 1133.69C419.335 1133.69 418.655 1133.87 418.039 1134.24C417.423 1134.6 416.919 1135.09 416.527 1135.72C416.135 1136.33 415.895 1137.02 415.807 1137.78ZM438.552 1137.07V1144.5H436.872V1137.41C436.872 1136.75 436.712 1136.16 436.392 1135.62C436.072 1135.08 435.644 1134.66 435.108 1134.34C434.572 1134.02 433.976 1133.86 433.32 1133.86C432.672 1133.86 432.076 1134.02 431.532 1134.34C430.996 1134.66 430.568 1135.08 430.248 1135.62C429.928 1136.16 429.768 1136.75 429.768 1137.41V1144.5H428.088V1132.5H429.768V1134.16C430.192 1133.55 430.744 1133.06 431.424 1132.7C432.104 1132.34 432.844 1132.16 433.644 1132.16C434.548 1132.16 435.372 1132.38 436.116 1132.82C436.86 1133.26 437.452 1133.86 437.892 1134.6C438.332 1135.34 438.552 1136.17 438.552 1137.07ZM447.088 1134.18H444.22L444.208 1144.5H442.528L442.54 1134.18H440.368V1132.5H442.54L442.528 1128.73H444.208L444.22 1132.5H447.088V1134.18ZM449.229 1144.5V1132.5H450.909V1134.16C451.333 1133.55 451.885 1133.06 452.565 1132.7C453.245 1132.34 453.985 1132.16 454.785 1132.16C455.249 1132.16 455.697 1132.22 456.129 1132.34L455.445 1134.01C455.109 1133.91 454.781 1133.86 454.461 1133.86C453.813 1133.86 453.217 1134.02 452.673 1134.34C452.137 1134.66 451.709 1135.08 451.389 1135.62C451.069 1136.16 450.909 1136.75 450.909 1137.41V1144.5H449.229ZM462.29 1144.81C461.186 1144.81 460.178 1144.53 459.266 1143.96C458.362 1143.39 457.638 1142.63 457.094 1141.68C456.558 1140.72 456.29 1139.66 456.29 1138.5C456.29 1137.62 456.446 1136.8 456.758 1136.04C457.07 1135.27 457.498 1134.6 458.042 1134.02C458.594 1133.44 459.234 1132.98 459.962 1132.66C460.69 1132.33 461.466 1132.16 462.29 1132.16C463.178 1132.16 463.994 1132.34 464.738 1132.69C465.49 1133.04 466.134 1133.54 466.67 1134.17C467.214 1134.8 467.622 1135.54 467.894 1136.39C468.174 1137.24 468.29 1138.15 468.242 1139.14H458.066C458.162 1139.9 458.402 1140.58 458.786 1141.18C459.178 1141.78 459.674 1142.25 460.274 1142.6C460.882 1142.95 461.554 1143.12 462.29 1143.13C463.09 1143.13 463.81 1142.92 464.45 1142.51C465.098 1142.09 465.618 1141.52 466.01 1140.79L467.714 1141.19C467.234 1142.25 466.51 1143.12 465.542 1143.8C464.574 1144.48 463.49 1144.81 462.29 1144.81ZM458.018 1137.78H466.55C466.494 1137.04 466.266 1136.36 465.866 1135.74C465.474 1135.12 464.966 1134.62 464.342 1134.25C463.718 1133.88 463.034 1133.69 462.29 1133.69C461.546 1133.69 460.866 1133.87 460.25 1134.24C459.634 1134.6 459.13 1135.09 458.738 1135.72C458.346 1136.33 458.106 1137.02 458.018 1137.78ZM471.979 1150.5H470.299V1132.5H471.979V1134.74C472.395 1133.98 472.963 1133.37 473.683 1132.9C474.403 1132.42 475.259 1132.19 476.251 1132.19C477.123 1132.19 477.939 1132.35 478.699 1132.68C479.467 1133.01 480.139 1133.46 480.715 1134.05C481.291 1134.62 481.743 1135.29 482.071 1136.05C482.399 1136.81 482.563 1137.63 482.563 1138.5C482.563 1139.37 482.399 1140.19 482.071 1140.96C481.743 1141.73 481.291 1142.4 480.715 1142.99C480.139 1143.56 479.467 1144.02 478.699 1144.34C477.939 1144.67 477.123 1144.84 476.251 1144.84C475.259 1144.84 474.403 1144.6 473.683 1144.13C472.963 1143.66 472.395 1143.04 471.979 1142.28V1150.5ZM476.239 1133.82C475.399 1133.82 474.667 1134.03 474.043 1134.46C473.427 1134.87 472.951 1135.43 472.615 1136.14C472.279 1136.84 472.111 1137.63 472.111 1138.5C472.111 1139.36 472.275 1140.14 472.603 1140.85C472.939 1141.56 473.415 1142.13 474.031 1142.56C474.655 1142.98 475.391 1143.19 476.239 1143.19C477.071 1143.19 477.835 1142.98 478.531 1142.57C479.235 1142.15 479.799 1141.59 480.223 1140.89C480.647 1140.18 480.859 1139.38 480.859 1138.5C480.859 1137.64 480.651 1136.86 480.235 1136.16C479.819 1135.45 479.263 1134.88 478.567 1134.46C477.871 1134.03 477.095 1133.82 476.239 1133.82ZM484.596 1144.5V1132.5H486.276V1134.16C486.7 1133.55 487.252 1133.06 487.932 1132.7C488.612 1132.34 489.352 1132.16 490.152 1132.16C490.616 1132.16 491.064 1132.22 491.496 1132.34L490.812 1134.01C490.476 1133.91 490.148 1133.86 489.828 1133.86C489.18 1133.86 488.584 1134.02 488.04 1134.34C487.504 1134.66 487.076 1135.08 486.756 1135.62C486.436 1136.16 486.276 1136.75 486.276 1137.41V1144.5H484.596ZM497.658 1144.81C496.554 1144.81 495.546 1144.53 494.634 1143.96C493.73 1143.39 493.006 1142.63 492.462 1141.68C491.926 1140.72 491.658 1139.66 491.658 1138.5C491.658 1137.62 491.814 1136.8 492.126 1136.04C492.438 1135.27 492.866 1134.6 493.41 1134.02C493.962 1133.44 494.602 1132.98 495.33 1132.66C496.058 1132.33 496.834 1132.16 497.658 1132.16C498.546 1132.16 499.362 1132.34 500.106 1132.69C500.858 1133.04 501.502 1133.54 502.038 1134.17C502.582 1134.8 502.99 1135.54 503.262 1136.39C503.542 1137.24 503.658 1138.15 503.609 1139.14H493.434C493.53 1139.9 493.77 1140.58 494.154 1141.18C494.546 1141.78 495.042 1142.25 495.642 1142.6C496.25 1142.95 496.922 1143.12 497.658 1143.13C498.458 1143.13 499.178 1142.92 499.818 1142.51C500.466 1142.09 500.986 1141.52 501.378 1140.79L503.082 1141.19C502.602 1142.25 501.878 1143.12 500.91 1143.8C499.942 1144.48 498.858 1144.81 497.658 1144.81ZM493.386 1137.78H501.918C501.862 1137.04 501.634 1136.36 501.234 1135.74C500.842 1135.12 500.334 1134.62 499.71 1134.25C499.086 1133.88 498.402 1133.69 497.658 1133.69C496.914 1133.69 496.234 1133.87 495.618 1134.24C495.002 1134.6 494.498 1135.09 494.105 1135.72C493.714 1136.33 493.474 1137.02 493.386 1137.78ZM516.131 1137.07V1144.5H514.451V1137.41C514.451 1136.75 514.291 1136.16 513.971 1135.62C513.651 1135.08 513.223 1134.66 512.687 1134.34C512.151 1134.02 511.555 1133.86 510.899 1133.86C510.251 1133.86 509.655 1134.02 509.111 1134.34C508.575 1134.66 508.147 1135.08 507.827 1135.62C507.507 1136.16 507.347 1136.75 507.347 1137.41V1144.5H505.667V1132.5H507.347V1134.16C507.771 1133.55 508.323 1133.06 509.003 1132.7C509.683 1132.34 510.423 1132.16 511.223 1132.16C512.127 1132.16 512.951 1132.38 513.695 1132.82C514.439 1133.26 515.031 1133.86 515.471 1134.6C515.911 1135.34 516.131 1136.17 516.131 1137.07ZM523.579 1144.81C522.475 1144.81 521.467 1144.53 520.555 1143.96C519.651 1143.39 518.927 1142.63 518.383 1141.68C517.847 1140.72 517.579 1139.66 517.579 1138.5C517.579 1137.62 517.735 1136.8 518.047 1136.04C518.359 1135.27 518.787 1134.6 519.331 1134.02C519.883 1133.44 520.523 1132.98 521.251 1132.66C521.979 1132.33 522.755 1132.16 523.579 1132.16C524.467 1132.16 525.283 1132.34 526.027 1132.69C526.779 1133.04 527.423 1133.54 527.959 1134.17C528.503 1134.8 528.911 1135.54 529.183 1136.39C529.463 1137.24 529.579 1138.15 529.531 1139.14H519.355C519.451 1139.9 519.691 1140.58 520.075 1141.18C520.467 1141.78 520.963 1142.25 521.563 1142.6C522.171 1142.95 522.843 1143.12 523.579 1143.13C524.379 1143.13 525.099 1142.92 525.739 1142.51C526.387 1142.09 526.907 1141.52 527.299 1140.79L529.003 1141.19C528.523 1142.25 527.799 1143.12 526.831 1143.8C525.863 1144.48 524.779 1144.81 523.579 1144.81ZM519.307 1137.78H527.839C527.783 1137.04 527.555 1136.36 527.155 1135.74C526.763 1135.12 526.255 1134.62 525.631 1134.25C525.007 1133.88 524.323 1133.69 523.579 1133.69C522.835 1133.69 522.155 1133.87 521.539 1134.24C520.923 1134.6 520.419 1135.09 520.027 1135.72C519.635 1136.33 519.395 1137.02 519.307 1137.78ZM530.991 1139.9V1132.5H532.671V1139.57C532.671 1140.22 532.831 1140.82 533.151 1141.36C533.471 1141.89 533.899 1142.32 534.435 1142.64C534.979 1142.96 535.575 1143.12 536.223 1143.12C536.879 1143.12 537.471 1142.96 537.999 1142.64C538.535 1142.32 538.963 1141.89 539.283 1141.36C539.603 1140.82 539.763 1140.22 539.763 1139.57V1132.5H541.443L541.455 1144.5H539.775L539.763 1142.82C539.339 1143.43 538.787 1143.91 538.107 1144.27C537.435 1144.63 536.699 1144.81 535.899 1144.81C534.995 1144.81 534.171 1144.59 533.427 1144.15C532.683 1143.71 532.091 1143.12 531.651 1142.38C531.211 1141.63 530.991 1140.81 530.991 1139.9ZM543.846 1144.5V1132.5H545.526V1134.16C545.95 1133.55 546.502 1133.06 547.182 1132.7C547.862 1132.34 548.602 1132.16 549.402 1132.16C549.866 1132.16 550.314 1132.22 550.746 1132.34L550.062 1134.01C549.726 1133.91 549.398 1133.86 549.078 1133.86C548.43 1133.86 547.834 1134.02 547.29 1134.34C546.754 1134.66 546.326 1135.08 546.006 1135.62C545.686 1136.16 545.526 1136.75 545.526 1137.41V1144.5H543.846ZM164.44 1182.5V1165.7H170.116C170.932 1165.7 171.672 1165.87 172.336 1166.2C173.008 1166.53 173.54 1167.02 173.932 1167.66C174.332 1168.29 174.532 1169.06 174.532 1169.96C174.532 1170.47 174.44 1170.96 174.256 1171.42C174.072 1171.89 173.832 1172.28 173.536 1172.61C173.24 1172.93 172.92 1173.14 172.576 1173.24C173.072 1173.36 173.5 1173.59 173.86 1173.91C174.22 1174.22 174.516 1174.59 174.748 1175.02C174.98 1175.45 175.148 1175.9 175.252 1176.37C175.364 1176.84 175.42 1177.3 175.42 1177.76C175.42 1178.7 175.212 1179.53 174.796 1180.24C174.388 1180.96 173.84 1181.51 173.152 1181.91C172.464 1182.3 171.7 1182.5 170.86 1182.5H164.44ZM166.12 1181H170.728C171.312 1181 171.84 1180.85 172.312 1180.54C172.792 1180.24 173.172 1179.82 173.452 1179.3C173.74 1178.77 173.884 1178.17 173.884 1177.51C173.884 1176.92 173.74 1176.36 173.452 1175.84C173.172 1175.31 172.792 1174.89 172.312 1174.57C171.84 1174.24 171.312 1174.08 170.728 1174.08H166.12V1181ZM166.12 1172.6H169.972C170.764 1172.6 171.44 1172.37 172 1171.92C172.568 1171.45 172.852 1170.8 172.852 1169.95C172.852 1169.02 172.568 1168.33 172 1167.88C171.44 1167.43 170.764 1167.2 169.972 1167.2H166.12V1172.6ZM182.634 1182.81C181.53 1182.81 180.522 1182.53 179.61 1181.96C178.706 1181.39 177.982 1180.63 177.438 1179.68C176.902 1178.72 176.634 1177.66 176.634 1176.5C176.634 1175.62 176.79 1174.8 177.102 1174.04C177.414 1173.27 177.842 1172.6 178.386 1172.02C178.938 1171.44 179.578 1170.98 180.306 1170.66C181.034 1170.33 181.81 1170.16 182.634 1170.16C183.522 1170.16 184.338 1170.34 185.082 1170.69C185.834 1171.04 186.478 1171.54 187.014 1172.17C187.558 1172.8 187.966 1173.54 188.238 1174.39C188.518 1175.24 188.634 1176.15 188.586 1177.14H178.41C178.506 1177.9 178.746 1178.58 179.13 1179.18C179.522 1179.78 180.018 1180.25 180.618 1180.6C181.226 1180.95 181.898 1181.12 182.634 1181.13C183.434 1181.13 184.154 1180.92 184.794 1180.51C185.442 1180.09 185.962 1179.52 186.354 1178.79L188.058 1179.19C187.578 1180.25 186.854 1181.12 185.886 1181.8C184.918 1182.48 183.834 1182.81 182.634 1182.81ZM178.362 1175.78H186.894C186.838 1175.04 186.61 1174.36 186.21 1173.74C185.818 1173.12 185.31 1172.62 184.686 1172.25C184.062 1171.88 183.378 1171.69 182.634 1171.69C181.89 1171.69 181.21 1171.87 180.594 1172.24C179.978 1172.6 179.474 1173.09 179.082 1173.72C178.69 1174.33 178.45 1175.02 178.362 1175.78ZM194.375 1182.73C193.719 1182.71 193.079 1182.59 192.455 1182.37C191.831 1182.14 191.287 1181.84 190.823 1181.46C190.359 1181.07 190.027 1180.64 189.827 1180.15L191.279 1179.52C191.407 1179.84 191.643 1180.12 191.987 1180.39C192.339 1180.64 192.739 1180.85 193.187 1181.01C193.635 1181.16 194.079 1181.24 194.519 1181.24C195.007 1181.24 195.463 1181.16 195.887 1181C196.311 1180.84 196.655 1180.61 196.919 1180.32C197.191 1180.01 197.327 1179.66 197.327 1179.25C197.327 1178.81 197.183 1178.46 196.895 1178.22C196.607 1177.96 196.243 1177.76 195.803 1177.62C195.363 1177.46 194.911 1177.32 194.447 1177.18C193.599 1176.95 192.851 1176.7 192.203 1176.42C191.555 1176.14 191.047 1175.78 190.679 1175.35C190.319 1174.91 190.139 1174.34 190.139 1173.66C190.139 1172.93 190.343 1172.3 190.751 1171.77C191.167 1171.24 191.707 1170.82 192.371 1170.54C193.043 1170.24 193.759 1170.09 194.519 1170.09C195.495 1170.09 196.383 1170.3 197.183 1170.73C197.991 1171.15 198.575 1171.72 198.935 1172.42L197.579 1173.22C197.435 1172.9 197.207 1172.61 196.895 1172.37C196.583 1172.13 196.227 1171.94 195.827 1171.81C195.435 1171.67 195.035 1171.6 194.627 1171.59C194.115 1171.58 193.639 1171.66 193.199 1171.82C192.759 1171.97 192.403 1172.2 192.131 1172.5C191.867 1172.81 191.735 1173.18 191.735 1173.62C191.735 1174.06 191.867 1174.4 192.131 1174.63C192.395 1174.85 192.751 1175.04 193.199 1175.18C193.655 1175.32 194.167 1175.48 194.735 1175.66C195.463 1175.89 196.147 1176.16 196.787 1176.45C197.427 1176.75 197.943 1177.12 198.335 1177.56C198.727 1178 198.919 1178.55 198.911 1179.22C198.911 1179.94 198.695 1180.57 198.263 1181.11C197.831 1181.64 197.271 1182.06 196.583 1182.34C195.895 1182.62 195.159 1182.75 194.375 1182.73ZM207.111 1172.18H204.243L204.231 1182.5H202.551L202.563 1172.18H200.391V1170.5H202.563L202.551 1166.73H204.231L204.243 1170.5H207.111V1172.18ZM209.159 1170.5H210.839V1182.5H209.159V1170.5ZM210.011 1168.4C209.739 1168.4 209.507 1168.31 209.315 1168.14C209.131 1167.95 209.039 1167.72 209.039 1167.45C209.039 1167.18 209.131 1166.96 209.315 1166.78C209.507 1166.6 209.739 1166.5 210.011 1166.5C210.275 1166.5 210.499 1166.6 210.683 1166.78C210.875 1166.96 210.971 1167.18 210.971 1167.45C210.971 1167.72 210.879 1167.95 210.695 1168.14C210.511 1168.31 210.283 1168.4 210.011 1168.4ZM223.476 1170.5H225.156V1182.5H223.476L223.416 1180.27C223.024 1181.03 222.476 1181.64 221.772 1182.12C221.068 1182.58 220.228 1182.81 219.252 1182.81C218.372 1182.81 217.548 1182.65 216.78 1182.32C216.012 1181.98 215.336 1181.52 214.752 1180.94C214.168 1180.36 213.712 1179.68 213.384 1178.91C213.056 1178.14 212.892 1177.32 212.892 1176.44C212.892 1175.58 213.052 1174.76 213.372 1174C213.7 1173.24 214.148 1172.58 214.716 1172C215.292 1171.42 215.956 1170.98 216.708 1170.66C217.468 1170.33 218.28 1170.16 219.144 1170.16C220.144 1170.16 221.016 1170.4 221.76 1170.88C222.504 1171.36 223.096 1171.98 223.536 1172.74L223.476 1170.5ZM219.216 1181.18C220.072 1181.18 220.808 1180.97 221.424 1180.56C222.04 1180.13 222.512 1179.56 222.84 1178.85C223.176 1178.14 223.344 1177.36 223.344 1176.5C223.344 1175.62 223.176 1174.83 222.84 1174.12C222.504 1173.41 222.028 1172.85 221.412 1172.43C220.796 1172.02 220.064 1171.81 219.216 1171.81C218.368 1171.81 217.592 1172.02 216.888 1172.44C216.192 1172.86 215.636 1173.42 215.22 1174.14C214.812 1174.85 214.608 1175.64 214.608 1176.5C214.608 1177.37 214.82 1178.16 215.244 1178.88C215.668 1179.58 216.228 1180.14 216.924 1180.56C217.628 1180.97 218.392 1181.18 219.216 1181.18ZM241.099 1182.81C239.963 1182.81 238.895 1182.59 237.895 1182.14C236.895 1181.68 236.015 1181.06 235.255 1180.27C234.503 1179.47 233.911 1178.54 233.479 1177.48C233.055 1176.43 232.843 1175.3 232.843 1174.1C232.843 1172.9 233.055 1171.77 233.479 1170.72C233.911 1169.66 234.503 1168.74 235.255 1167.94C236.015 1167.14 236.895 1166.52 237.895 1166.07C238.895 1165.62 239.963 1165.39 241.099 1165.39C242.459 1165.39 243.711 1165.7 244.855 1166.34C245.999 1166.97 246.947 1167.81 247.699 1168.86L246.211 1169.66C245.619 1168.87 244.867 1168.24 243.955 1167.78C243.051 1167.3 242.099 1167.07 241.099 1167.07C240.179 1167.07 239.319 1167.26 238.519 1167.63C237.727 1168 237.031 1168.51 236.431 1169.16C235.831 1169.8 235.363 1170.55 235.027 1171.4C234.691 1172.25 234.523 1173.15 234.523 1174.1C234.523 1175.07 234.691 1175.98 235.027 1176.82C235.371 1177.67 235.843 1178.42 236.443 1179.07C237.051 1179.72 237.751 1180.22 238.543 1180.59C239.343 1180.95 240.195 1181.13 241.099 1181.13C242.139 1181.13 243.103 1180.9 243.991 1180.42C244.887 1179.94 245.627 1179.32 246.211 1178.55L247.699 1179.36C246.947 1180.4 245.999 1181.24 244.855 1181.88C243.711 1182.5 242.459 1182.81 241.099 1182.81ZM254.775 1182.81C253.671 1182.81 252.663 1182.53 251.751 1181.96C250.847 1181.39 250.123 1180.63 249.579 1179.68C249.043 1178.72 248.775 1177.66 248.775 1176.5C248.775 1175.62 248.931 1174.8 249.243 1174.04C249.555 1173.27 249.983 1172.6 250.527 1172.02C251.079 1171.44 251.719 1170.98 252.447 1170.66C253.175 1170.33 253.951 1170.16 254.775 1170.16C255.879 1170.16 256.883 1170.45 257.787 1171.02C258.699 1171.58 259.423 1172.35 259.959 1173.31C260.503 1174.27 260.775 1175.33 260.775 1176.5C260.775 1177.37 260.619 1178.19 260.307 1178.95C259.995 1179.71 259.563 1180.38 259.011 1180.96C258.467 1181.54 257.831 1181.99 257.103 1182.32C256.383 1182.65 255.607 1182.81 254.775 1182.81ZM254.775 1181.13C255.591 1181.13 256.323 1180.92 256.971 1180.5C257.627 1180.06 258.143 1179.5 258.519 1178.79C258.903 1178.09 259.095 1177.32 259.095 1176.5C259.095 1175.66 258.903 1174.89 258.519 1174.18C258.135 1173.47 257.615 1172.9 256.959 1172.48C256.311 1172.06 255.583 1171.84 254.775 1171.84C253.959 1171.84 253.223 1172.06 252.567 1172.49C251.919 1172.92 251.403 1173.48 251.019 1174.18C250.643 1174.89 250.455 1175.66 250.455 1176.5C250.455 1177.36 250.651 1178.15 251.043 1178.85C251.435 1179.55 251.959 1180.1 252.615 1180.52C253.271 1180.93 253.991 1181.13 254.775 1181.13ZM262.924 1174.46H270.604V1176.14H262.924V1174.46ZM273.495 1182.5V1165.7H283.323V1167.38H275.175V1172.66H282.171V1174.34H275.175V1182.5H273.495ZM289.087 1182.81C287.983 1182.81 286.975 1182.53 286.063 1181.96C285.159 1181.39 284.435 1180.63 283.891 1179.68C283.355 1178.72 283.087 1177.66 283.087 1176.5C283.087 1175.62 283.243 1174.8 283.555 1174.04C283.867 1173.27 284.295 1172.6 284.839 1172.02C285.391 1171.44 286.031 1170.98 286.759 1170.66C287.487 1170.33 288.263 1170.16 289.087 1170.16C290.191 1170.16 291.195 1170.45 292.099 1171.02C293.011 1171.58 293.735 1172.35 294.271 1173.31C294.815 1174.27 295.087 1175.33 295.087 1176.5C295.087 1177.37 294.931 1178.19 294.619 1178.95C294.307 1179.71 293.875 1180.38 293.323 1180.96C292.779 1181.54 292.143 1181.99 291.415 1182.32C290.695 1182.65 289.919 1182.81 289.087 1182.81ZM289.087 1181.13C289.903 1181.13 290.635 1180.92 291.283 1180.5C291.939 1180.06 292.455 1179.5 292.831 1178.79C293.215 1178.09 293.407 1177.32 293.407 1176.5C293.407 1175.66 293.215 1174.89 292.831 1174.18C292.447 1173.47 291.927 1172.9 291.271 1172.48C290.623 1172.06 289.895 1171.84 289.087 1171.84C288.271 1171.84 287.535 1172.06 286.879 1172.49C286.231 1172.92 285.715 1173.48 285.331 1174.18C284.955 1174.89 284.767 1175.66 284.767 1176.5C284.767 1177.36 284.963 1178.15 285.355 1178.85C285.747 1179.55 286.271 1180.1 286.927 1180.52C287.583 1180.93 288.303 1181.13 289.087 1181.13ZM296.523 1177.9V1170.5H298.203V1177.57C298.203 1178.22 298.363 1178.82 298.683 1179.36C299.003 1179.89 299.431 1180.32 299.967 1180.64C300.511 1180.96 301.107 1181.12 301.755 1181.12C302.411 1181.12 303.003 1180.96 303.531 1180.64C304.067 1180.32 304.495 1179.89 304.815 1179.36C305.135 1178.82 305.295 1178.22 305.295 1177.57V1170.5H306.975L306.987 1182.5H305.307L305.295 1180.82C304.871 1181.43 304.319 1181.91 303.639 1182.27C302.967 1182.63 302.231 1182.81 301.431 1182.81C300.527 1182.81 299.703 1182.59 298.959 1182.15C298.215 1181.71 297.623 1181.12 297.183 1180.38C296.743 1179.63 296.523 1178.81 296.523 1177.9ZM319.842 1175.07V1182.5H318.162V1175.41C318.162 1174.75 318.002 1174.16 317.682 1173.62C317.362 1173.08 316.934 1172.66 316.398 1172.34C315.862 1172.02 315.266 1171.86 314.61 1171.86C313.962 1171.86 313.366 1172.02 312.822 1172.34C312.286 1172.66 311.858 1173.08 311.538 1173.62C311.218 1174.16 311.058 1174.75 311.058 1175.41V1182.5H309.378V1170.5H311.058V1172.16C311.482 1171.55 312.034 1171.06 312.714 1170.7C313.394 1170.34 314.134 1170.16 314.934 1170.16C315.838 1170.16 316.662 1170.38 317.406 1170.82C318.15 1171.26 318.742 1171.86 319.182 1172.6C319.622 1173.34 319.842 1174.17 319.842 1175.07ZM331.886 1164.5H333.566V1182.5H331.886V1180.26C331.47 1181.02 330.898 1181.64 330.17 1182.12C329.45 1182.58 328.594 1182.81 327.602 1182.81C326.73 1182.81 325.914 1182.65 325.154 1182.32C324.394 1181.99 323.722 1181.54 323.138 1180.96C322.562 1180.38 322.11 1179.71 321.782 1178.95C321.454 1178.19 321.29 1177.37 321.29 1176.5C321.29 1175.63 321.454 1174.81 321.782 1174.05C322.11 1173.28 322.562 1172.61 323.138 1172.04C323.722 1171.45 324.394 1171 325.154 1170.67C325.914 1170.34 326.73 1170.18 327.602 1170.18C328.594 1170.18 329.45 1170.41 330.17 1170.88C330.898 1171.35 331.47 1171.96 331.886 1172.72V1164.5ZM327.614 1181.18C328.47 1181.18 329.206 1180.97 329.822 1180.56C330.438 1180.13 330.91 1179.56 331.238 1178.85C331.574 1178.14 331.742 1177.36 331.742 1176.5C331.742 1175.62 331.574 1174.83 331.238 1174.12C330.902 1173.41 330.426 1172.85 329.81 1172.43C329.194 1172.02 328.462 1171.81 327.614 1171.81C326.766 1171.81 325.994 1172.02 325.298 1172.44C324.602 1172.86 324.046 1173.42 323.63 1174.14C323.214 1174.85 323.006 1175.64 323.006 1176.5C323.006 1177.37 323.218 1178.16 323.642 1178.88C324.066 1179.58 324.626 1180.14 325.322 1180.56C326.026 1180.97 326.79 1181.18 327.614 1181.18ZM341.634 1182.81C340.53 1182.81 339.522 1182.53 338.61 1181.96C337.706 1181.39 336.982 1180.63 336.438 1179.68C335.902 1178.72 335.634 1177.66 335.634 1176.5C335.634 1175.62 335.79 1174.8 336.102 1174.04C336.414 1173.27 336.842 1172.6 337.386 1172.02C337.938 1171.44 338.578 1170.98 339.306 1170.66C340.034 1170.33 340.81 1170.16 341.634 1170.16C342.522 1170.16 343.338 1170.34 344.082 1170.69C344.834 1171.04 345.478 1171.54 346.014 1172.17C346.558 1172.8 346.966 1173.54 347.238 1174.39C347.518 1175.24 347.634 1176.15 347.586 1177.14H337.41C337.506 1177.9 337.746 1178.58 338.13 1179.18C338.522 1179.78 339.018 1180.25 339.618 1180.6C340.226 1180.95 340.898 1181.12 341.634 1181.13C342.434 1181.13 343.154 1180.92 343.794 1180.51C344.442 1180.09 344.962 1179.52 345.354 1178.79L347.058 1179.19C346.578 1180.25 345.854 1181.12 344.886 1181.8C343.918 1182.48 342.834 1182.81 341.634 1182.81ZM337.362 1175.78H345.894C345.838 1175.04 345.61 1174.36 345.21 1173.74C344.818 1173.12 344.31 1172.62 343.686 1172.25C343.062 1171.88 342.378 1171.69 341.634 1171.69C340.89 1171.69 340.21 1171.87 339.594 1172.24C338.978 1172.6 338.474 1173.09 338.082 1173.72C337.69 1174.33 337.45 1175.02 337.362 1175.78ZM349.643 1182.5V1170.5H351.323V1172.16C351.747 1171.55 352.299 1171.06 352.979 1170.7C353.659 1170.34 354.399 1170.16 355.199 1170.16C355.663 1170.16 356.111 1170.22 356.543 1170.34L355.859 1172.01C355.523 1171.91 355.195 1171.86 354.875 1171.86C354.227 1171.86 353.631 1172.02 353.087 1172.34C352.551 1172.66 352.123 1173.08 351.803 1173.62C351.483 1174.16 351.323 1174.75 351.323 1175.41V1182.5H349.643Z" fill="white"/>
<path d="M409.911 897C319.437 910.919 193.976 1069.12 205.554 1124.13C213.147 1160.2 302.096 1159.39 326.397 1165.89C359.537 1174.75 296.787 1141.59 284.007 1103.25C268.823 1057.7 291.871 937.947 218.752 959.003C154.94 977.389 141.122 1036.94 95.3789 1035.56C54.0077 1034.29 21.7788 984.31 1.109 942.553" stroke="#F2F2F2" stroke-opacity="0.14" stroke-miterlimit="10"/>
<path d="M409.917 900.65C323.239 916.17 202.542 1069.38 212.191 1122.09C218.518 1156.62 302.759 1155.47 325.245 1161.32C356.417 1169.41 296.344 1137.54 283.671 1100.76C268.487 1056.66 289.441 942.06 218.853 962.362C155.882 980.425 143.171 1041.36 97.0169 1041.45C55.5698 1041.37 22.0692 992.472 0.48839 951.607" stroke="#F2F2F2" stroke-opacity="0.14" stroke-miterlimit="10"/>
<path d="M409.925 904.282C327.043 921.403 211.11 1069.61 218.823 1120.03C223.884 1153.03 303.425 1151.53 324.095 1156.72C353.306 1164.02 295.903 1133.47 283.337 1098.24C268.153 1055.6 287.007 946.16 218.956 965.703C156.826 983.45 145.223 1045.93 98.6508 1047.32C57.1341 1048.58 22.3618 1000.62 -0.136404 960.642" stroke="#F2F2F2" stroke-opacity="0.14" stroke-miterlimit="10"/>
<path d="M409.925 907.939C330.839 926.667 219.671 1069.84 225.453 1117.99C229.249 1149.44 304.089 1147.63 322.943 1152.16C350.206 1158.62 295.453 1129.4 283.002 1095.73C267.773 1054.54 284.571 950.26 219.05 969.038C157.769 986.474 147.285 1050.43 100.296 1053.18C58.7095 1055.65 22.6592 1008.78 -0.756422 969.67" stroke="#F2F2F2" stroke-opacity="0.14" stroke-miterlimit="10"/>
<path d="M409.931 911.583C334.603 931.911 228.237 1070.04 232.083 1115.94C234.614 1145.83 304.747 1143.7 321.785 1147.54C347.093 1153.23 294.997 1125.34 282.666 1093.22C267.412 1053.48 282.135 954.365 219.151 972.378C158.711 989.498 149.341 1054.87 101.921 1059.06C60.278 1062.73 22.937 1016.92 -1.38336 978.704" stroke="#F2F2F2" stroke-opacity="0.14" stroke-miterlimit="10"/>
<path d="M409.937 915.228C338.393 937.163 236.803 1070.24 238.72 1113.89C239.986 1142.21 305.405 1139.77 320.634 1142.95C343.967 1147.82 294.529 1121.27 282.331 1090.71C267.045 1052.42 279.699 958.478 219.246 975.725C159.66 992.535 151.404 1059.33 103.56 1064.93C61.8472 1069.82 23.2092 1025.07 -2.00958 987.746" stroke="#F2F2F2" stroke-opacity="0.14" stroke-miterlimit="10"/>
<path d="M409.937 918.878C342.183 942.414 245.376 1070.33 245.351 1111.85C245.351 1138.56 306.088 1135.83 319.482 1138.36C340.854 1142.39 294.061 1117.21 281.996 1088.2C266.672 1051.36 277.27 962.571 219.36 979.071C160.615 995.559 153.485 1063.79 105.205 1070.81C63.4478 1076.88 23.5318 1033.25 -2.62331 996.787" stroke="#F2F2F2" stroke-opacity="0.14" stroke-miterlimit="10"/>
<path d="M409.943 922.522C345.979 947.658 253.962 1070.42 251.981 1109.8C250.716 1134.9 306.708 1131.88 318.324 1133.77C337.741 1136.93 293.574 1113.15 281.629 1085.68C266.255 1050.25 274.834 966.791 219.417 982.405C161.552 998.71 155.516 1068.22 106.799 1076.68C64.9599 1083.94 23.7786 1041.4 -3.28764 1005.81" stroke="#F2F2F2" stroke-opacity="0.14" stroke-miterlimit="10"/>
<path d="M409.949 926.167C349.768 952.911 262.572 1070.48 258.618 1107.75C256.125 1131.21 307.334 1127.92 317.172 1129.18C334.616 1131.4 293.086 1109.09 281.318 1083.19C265.9 1049.22 272.461 970.917 219.543 985.753C162.526 1001.75 157.597 1072.65 108.463 1082.55C66.5665 1090.99 24.0945 1049.56 -3.8828 1014.86" stroke="#F2F2F2" stroke-opacity="0.14" stroke-miterlimit="10"/>
<path d="M409.949 929.811C353.558 958.155 271.208 1070.49 265.248 1105.7C261.553 1127.51 307.954 1123.95 316.021 1124.59C331.484 1125.81 292.612 1105.03 280.983 1080.67C265.495 1048.16 270 975.016 219.613 989.106C163.443 1004.8 159.628 1077.08 110.07 1088.44C68.1103 1098.05 24.3538 1057.72 -4.54081 1023.9" stroke="#F2F2F2" stroke-opacity="0.14" stroke-miterlimit="10"/>
<path d="M409.956 933.456C357.348 963.407 279.895 1070.46 271.879 1103.65C267.02 1123.78 308.524 1119.96 314.901 1120C328.339 1120.08 292.125 1100.97 280.679 1078.16C265.115 1047.09 267.602 979.135 219.771 992.447C164.455 1007.85 161.754 1081.49 111.765 1094.31C69.7426 1105.06 24.7082 1065.88 -5.09752 1032.94" stroke="#F2F2F2" stroke-opacity="0.14" stroke-miterlimit="10"/>
<path d="M409.962 937.106C361.138 968.652 288.638 1070.39 278.509 1101.6C272.53 1120.03 309.232 1117 313.712 1115.41C325.024 1116.67 291.568 1096.92 280.312 1075.66C264.66 1046.03 265.128 983.242 219.84 995.794C165.366 1010.88 163.778 1085.89 113.372 1100.19C71.28 1112.11 24.9676 1074.04 -5.75557 1041.98" stroke="#F2F2F2" stroke-opacity="0.14" stroke-miterlimit="10"/>
<path d="M409.962 940.75C364.934 973.902 297.471 1070.29 285.146 1099.55C278.098 1116.28 309.878 1113.14 312.56 1110.82C321.886 1111.4 291.005 1092.87 279.977 1073.14C264.217 1044.97 262.698 987.347 219.942 999.121C166.315 1013.91 165.835 1090.28 115.005 1106.04C72.8427 1119.12 25.2586 1082.18 -6.38192 1051" stroke="#F2F2F2" stroke-opacity="0.14" stroke-miterlimit="10"/>
<path d="M409.968 944.395C368.723 979.148 306.397 1070.2 291.776 1097.5C283.728 1112.54 310.529 1109.29 311.389 1106.23C318.735 1106.12 290.429 1088.82 279.622 1070.64C263.736 1043.9 260.243 991.448 220.017 1002.48C167.239 1016.96 167.865 1094.68 116.618 1111.94C74.3861 1126.15 25.5113 1090.36 -7.02133 1060.06" stroke="#F2F2F2" stroke-opacity="0.14" stroke-miterlimit="10"/>
<path d="M409.975 948.039C372.514 984.399 315.433 1070.15 298.408 1095.45C289.424 1108.81 311.175 1105.44 310.258 1101.64C315.617 1100.84 289.873 1084.78 279.307 1068.11C263.268 1042.8 257.827 995.528 220.138 1005.8C168.201 1019.97 169.935 1099.04 118.276 1117.79C75.9688 1133.15 25.8349 1098.49 -7.62773 1069.07" stroke="#F2F2F2" stroke-opacity="0.14" stroke-miterlimit="10"/>
<path d="M409.975 951.684C376.304 989.645 324.563 1070.18 305.045 1093.4C295.181 1105.13 311.827 1101.59 309.1 1097.06C312.479 1095.56 289.278 1080.75 278.972 1065.62C262.756 1041.82 255.391 999.641 220.24 1009.17C169.144 1023.01 171.978 1103.44 119.909 1123.68C77.5188 1140.17 26.126 1106.67 -8.25408 1078.13" stroke="#F2F2F2" stroke-opacity="0.14" stroke-miterlimit="10"/>
<path d="M409.981 955.327C380.093 994.895 333.832 1070.34 311.675 1091.35C300.976 1101.51 312.472 1097.73 307.949 1092.46C309.34 1090.28 288.664 1076.74 278.636 1063.11C262.218 1040.8 252.956 1003.73 220.335 1012.5C170.087 1026.02 174.016 1107.78 121.547 1129.54C79.0752 1147.16 26.417 1114.81 -8.87408 1087.15" stroke="#F2F2F2" stroke-opacity="0.14" stroke-miterlimit="10"/>
<path d="M409.988 958.978C383.89 1000.14 343.132 1070.67 318.306 1089.31C306.784 1097.96 313.124 1093.88 306.797 1087.87C306.202 1085 288.025 1072.74 278.326 1060.6C261.661 1039.82 250.539 1007.83 220.461 1015.86C171.055 1029.05 176.072 1112.16 123.205 1135.43C80.6506 1154.17 26.727 1122.98 -9.4752 1096.21" stroke="#F2F2F2" stroke-opacity="0.14" stroke-miterlimit="10"/>
<path d="M409.988 962.622C387.679 1005.39 352.445 1071.17 324.936 1087.26C312.586 1094.49 312.858 1090.99 305.646 1083.29C302.64 1080.07 287.367 1068.74 277.959 1058.09C261.016 1038.87 248.071 1011.91 220.531 1019.2C171.966 1032.06 178.078 1116.52 124.818 1141.31C82.1691 1161.16 26.9927 1131.14 -10.1268 1105.25" stroke="#F2F2F2" stroke-opacity="0.14" stroke-miterlimit="10"/>
<path d="M409.994 966.285C391.469 1010.66 361.707 1071.85 331.541 1085.23C318.311 1091.1 313.978 1086.7 304.456 1078.71C299.679 1074.7 286.658 1064.84 277.592 1055.6C260.313 1038.01 245.603 1016.01 220.6 1022.56C172.87 1035.07 180.07 1120.89 126.419 1147.2C83.6745 1168.17 27.2517 1139.32 -10.7789 1114.3" stroke="#F2F2F2" stroke-opacity="0.14" stroke-miterlimit="10"/>
<path d="M410 969.911C395.258 1015.89 370.881 1072.63 338.203 1083.16C324.05 1087.72 314.914 1082.53 303.336 1074.11C296.705 1069.28 286 1060.91 277.288 1053.08C259.624 1037.19 243.18 1020.04 220.733 1025.87C173.813 1037.96 182.082 1125.13 128.089 1153.04C85.2182 1175.06 27.5744 1147.44 -11.3736 1123.3" stroke="#F2F2F2" stroke-opacity="0.14" stroke-miterlimit="10"/>
<path d="M410 973.555C399.048 1021.13 379.941 1073.52 344.834 1081.11C299.489 1090.95 264.527 1018.07 220.828 1029.23C174.756 1041.01 184.132 1129.56 129.721 1158.93C86.7809 1182.13 27.8591 1155.62 -12 1132.36" stroke="#F2F2F2" stroke-opacity="0.14" stroke-miterlimit="10"/>
</g>
<defs>
<clipPath id="clip0_358_1993">
<rect width="1440" height="1270" fill="white"/>
</clipPath>
</defs>
</svg>
