<svg width="1440" height="398" viewBox="0 0 1440 398" fill="none" xmlns="http://www.w3.org/2000/svg">
<rect y="25" width="1440" height="373" fill="url(#paint0_linear_355_1184)"/>
<path d="M1444.5 56.1149C1352.18 93.3543 1302.41 142.469 1273.71 182.647C1249.79 216.145 1250.21 229.847 1224.81 254.839C1169.68 309.07 1064.07 346.468 1012.89 299.863C987.676 276.906 997.003 247.813 984.943 192.738C974.094 143.194 946.043 75.0542 867.727 1" stroke="#F2F2F2" stroke-opacity="0.14" stroke-miterlimit="10"/>
<path d="M1444.31 68.1299C1354.52 100.134 1305.25 146.339 1276.57 183.941C1252.43 215.589 1250.47 228.245 1223.48 252.807C1166.88 304.333 1067.7 340.206 1016.44 296.721C990.042 274.324 996.047 245.729 981.917 190.816C969.476 142.47 940.852 75.4955 863.887 2.10547" stroke="#F2F2F2" stroke-opacity="0.14" stroke-miterlimit="10"/>
<path d="M1444.13 80.1421C1356.86 106.913 1308.05 150.22 1279.41 185.234C1255.01 215.062 1250.76 226.643 1222.15 250.774C1164.19 299.655 1071.17 334.026 1019.99 293.579C992.342 271.727 995.13 243.673 978.884 188.894C964.902 141.759 935.656 75.9408 860.035 3.21826" stroke="#F2F2F2" stroke-opacity="0.14" stroke-miterlimit="10"/>
<path d="M1443.94 92.1572C1359.2 113.695 1310.8 154.113 1282.26 186.537C1257.57 214.568 1251.11 225.053 1220.81 248.74C1161.62 295.044 1074.48 327.941 1023.53 290.437C994.581 269.131 994.255 241.641 975.847 186.972C960.388 141.058 930.455 76.3872 856.191 4.32715" stroke="#F2F2F2" stroke-opacity="0.14" stroke-miterlimit="10"/>
<path d="M1443.76 104.17C1361.53 120.47 1313.5 158.006 1285.1 187.822C1260.08 214.1 1251.48 223.478 1219.49 246.707C1159.16 290.501 1077.68 321.954 1027.09 287.293C996.776 266.528 993.442 239.621 972.823 185.048C955.938 140.36 925.265 76.8309 852.355 5.44336" stroke="#F2F2F2" stroke-opacity="0.14" stroke-miterlimit="10"/>
<path d="M1443.57 116.183C1363.88 127.251 1316.13 161.902 1287.95 189.116C1262.54 213.661 1251.91 221.927 1218.16 244.673C1156.79 286.034 1080.75 316.071 1030.64 284.153C998.909 263.942 992.685 237.612 969.792 183.127C951.537 139.662 920.071 77.2779 848.51 6.54443" stroke="#F2F2F2" stroke-opacity="0.14" stroke-miterlimit="10"/>
<path d="M1443.39 128.196C1366.22 134.022 1318.69 165.78 1290.8 190.409C1264.94 213.245 1252.37 220.402 1216.83 242.641C1154.49 281.639 1083.7 310.293 1034.19 281.01C1000.99 261.378 991.962 235.603 966.761 181.205C947.187 138.956 914.869 77.7236 844.666 7.6543" stroke="#F2F2F2" stroke-opacity="0.14" stroke-miterlimit="10"/>
<path d="M1443.2 140.211C1368.55 140.809 1321.16 169.64 1293.64 191.702C1267.26 212.842 1252.86 218.911 1215.49 240.609C1152.26 277.32 1086.55 304.62 1037.73 277.868C1003.01 258.847 991.299 233.591 963.724 179.283C942.892 138.242 909.681 78.175 840.822 8.76318" stroke="#F2F2F2" stroke-opacity="0.14" stroke-miterlimit="10"/>
<path d="M1443.02 152.224C1370.9 147.588 1323.56 173.464 1296.49 192.997C1269.53 212.446 1253.39 217.466 1214.17 238.574C1150.08 273.074 1089.33 299.054 1041.28 274.727C1005 256.357 990.703 231.561 960.699 177.36C938.641 137.513 904.486 78.6142 836.968 9.87158" stroke="#F2F2F2" stroke-opacity="0.14" stroke-miterlimit="10"/>
<path d="M1442.83 164.232C1373.24 154.363 1325.87 177.232 1299.34 194.285C1271.72 212.036 1253.94 216.038 1212.84 236.537C1147.96 268.892 1092.03 293.584 1044.83 271.579C1006.94 253.913 990.153 229.507 957.668 175.433C934.434 136.76 899.289 79.0552 833.133 10.9751" stroke="#F2F2F2" stroke-opacity="0.14" stroke-miterlimit="10"/>
<path d="M1442.65 176.251C1375.57 161.147 1328.08 180.947 1302.18 195.584C1273.82 211.61 1254.51 214.671 1211.51 234.507C1145.86 264.789 1094.67 288.226 1048.38 268.443C1008.84 251.542 989.658 227.435 954.636 173.515C930.269 135.998 894.093 79.5061 829.287 12.0918" stroke="#F2F2F2" stroke-opacity="0.14" stroke-miterlimit="10"/>
<path d="M1442.46 188.266C1377.92 167.926 1330.22 184.579 1305.03 196.878C1275.84 211.13 1255.09 213.347 1210.18 232.476C1143.79 260.747 1097.27 282.958 1051.93 265.301C1010.7 249.243 989.214 225.325 951.605 171.595C926.138 135.208 888.898 79.9515 825.444 13.1997" stroke="#F2F2F2" stroke-opacity="0.14" stroke-miterlimit="10"/>
<path d="M1442.28 200.28C1380.26 174.705 1332.27 188.115 1307.87 198.172C1277.79 210.572 1255.7 212.066 1208.85 230.443C1141.73 256.764 1099.83 277.783 1055.48 262.158C1012.53 247.027 988.818 223.175 948.574 169.672C922.038 134.392 883.704 80.397 821.599 14.3076" stroke="#F2F2F2" stroke-opacity="0.14" stroke-miterlimit="10"/>
<path d="M1442.1 212.293C1382.6 181.485 1334.27 191.549 1310.72 199.466C1279.67 209.904 1256.31 210.835 1207.52 228.409C1139.69 252.838 1102.37 272.686 1059.03 259.017C1014.33 244.91 988.472 220.98 945.547 167.749C917.963 133.548 878.508 80.8382 817.756 15.4214" stroke="#F2F2F2" stroke-opacity="0.14" stroke-miterlimit="10"/>
<path d="M1441.91 224.306C1384.94 188.264 1336.22 194.872 1313.57 200.76C1281.51 209.092 1256.94 209.65 1206.19 226.377C1137.65 248.967 1104.9 267.688 1062.58 255.875C1016.12 242.903 988.166 218.737 942.519 165.822C913.918 132.671 873.318 81.2832 813.917 16.5205" stroke="#F2F2F2" stroke-opacity="0.14" stroke-miterlimit="10"/>
<path d="M1441.73 236.321C1387.27 195.044 1338.16 198.081 1316.41 202.053C1283.31 208.099 1257.56 208.513 1204.85 224.343C1135.61 245.15 1107.42 262.759 1066.12 252.734C1017.88 241.017 987.89 216.446 939.481 163.906C909.875 131.774 868.117 81.7343 810.067 17.6357" stroke="#F2F2F2" stroke-opacity="0.14" stroke-miterlimit="10"/>
<path d="M1441.53 248.333C1389.61 201.822 1339.88 207.198 1319.25 203.347C1285.51 197.045 1258.17 207.423 1203.51 222.309C1133.55 241.367 1109.95 257.902 1069.67 249.589C1019.64 239.269 987.652 214.086 936.45 161.982C905.854 130.845 862.922 82.1789 806.222 18.7495" stroke="#F2F2F2" stroke-opacity="0.14" stroke-miterlimit="10"/>
<path d="M1441.36 260.346C1391.96 208.602 1341.63 209.146 1322.11 204.64C1287.88 196.744 1258.8 206.38 1202.19 220.277C1131.49 237.638 1112.52 253.119 1073.22 246.447C1021.4 237.662 987.441 211.678 933.418 160.057C901.839 129.884 857.726 82.6205 802.378 19.8486" stroke="#F2F2F2" stroke-opacity="0.14" stroke-miterlimit="10"/>
<path d="M1441.17 272.361C1394.3 215.38 1343.62 210.902 1324.95 205.934C1290.11 196.66 1259.43 205.383 1200.86 218.251C1129.42 233.941 1115.12 248.39 1076.77 243.314C1023.18 236.222 987.255 209.218 930.388 158.146C897.831 128.908 852.53 83.0748 798.534 20.9688" stroke="#F2F2F2" stroke-opacity="0.14" stroke-miterlimit="10"/>
<path d="M1440.99 284.374C1396.64 222.16 1346.43 209.968 1327.8 207.227C1291.09 201.839 1260.04 204.427 1199.53 216.215C1127.32 230.276 1117.76 243.709 1080.32 240.168C1024.99 234.932 987.089 206.678 927.353 156.215C893.819 127.884 847.331 83.5157 794.688 22.0688" stroke="#F2F2F2" stroke-opacity="0.14" stroke-miterlimit="10"/>
<path d="M1440.8 296.388C1398.98 228.941 1348.75 212.796 1330.65 208.524C1293.42 199.74 1260.64 203.517 1198.2 214.183C1125.21 226.645 1120.47 239.081 1083.87 237.027C1026.84 233.828 986.936 204.102 924.325 154.299C889.813 126.846 842.14 83.9668 790.845 23.1841" stroke="#F2F2F2" stroke-opacity="0.14" stroke-miterlimit="10"/>
<path d="M1440.62 308.402C1401.32 235.72 1351.23 215.625 1333.49 209.816C1295.96 197.518 1261.24 202.644 1196.87 212.146C1123.08 223.039 1123.23 234.488 1087.41 233.882C1028.74 232.883 986.794 201.455 921.293 152.374C885.8 125.781 836.945 84.4072 787 24.2886" stroke="#F2F2F2" stroke-opacity="0.14" stroke-miterlimit="10"/>
<defs>
<linearGradient id="paint0_linear_355_1184" x1="0" y1="211.5" x2="1440" y2="211.5" gradientUnits="userSpaceOnUse">
<stop stop-color="#D8D8D8"/>
<stop offset="0.22" stop-color="#4F4D6A"/>
<stop offset="1"/>
</linearGradient>
</defs>
</svg>
