<svg width="1440" height="374" viewBox="0 0 1440 374" fill="none" xmlns="http://www.w3.org/2000/svg">
<rect y="1" width="1440" height="373" fill="url(#paint0_linear_355_1185)"/>
<path d="M409.911 1C319.437 14.919 193.976 173.122 205.554 228.133C213.147 264.196 302.096 263.387 326.397 269.891C359.537 278.748 296.787 245.589 284.007 207.255C268.823 161.702 291.871 41.9473 218.752 63.003C154.94 81.3888 141.122 140.937 95.3789 139.558C54.0077 138.292 21.7788 88.3103 1.109 46.5532" stroke="#F2F2F2" stroke-opacity="0.14" stroke-miterlimit="10"/>
<path d="M409.917 4.65039C323.24 20.1701 202.542 173.381 212.191 226.09C218.518 260.622 302.76 259.47 325.245 265.316C356.418 273.408 296.344 241.54 283.672 204.762C268.487 160.664 289.442 46.0595 218.853 66.3624C155.882 84.4255 143.171 145.359 97.0172 145.448C55.5701 145.372 22.0695 96.4718 0.488634 55.6067" stroke="#F2F2F2" stroke-opacity="0.14" stroke-miterlimit="10"/>
<path d="M409.925 8.28223C327.043 25.4026 211.11 173.609 218.823 224.027C223.884 257.028 303.425 255.535 324.095 260.723C353.306 268.024 295.903 237.472 283.337 202.244C268.153 159.601 287.007 50.1596 218.956 69.7032C156.826 87.4499 145.223 149.927 98.6508 151.319C57.1341 152.585 22.3618 104.621 -0.136404 64.6417" stroke="#F2F2F2" stroke-opacity="0.14" stroke-miterlimit="10"/>
<path d="M409.925 11.9395C330.839 30.6669 219.671 173.843 225.453 221.99C229.249 253.441 304.089 251.625 322.943 256.155C350.206 262.621 295.453 233.404 283.002 199.733C267.773 158.539 284.571 54.2597 219.05 73.0377C157.769 90.4745 147.285 154.432 100.296 157.185C58.7095 159.646 22.6592 112.777 -0.756422 73.6704" stroke="#F2F2F2" stroke-opacity="0.14" stroke-miterlimit="10"/>
<path d="M409.931 15.583C334.603 35.9111 228.237 174.045 232.083 219.94C234.614 249.834 304.747 247.696 321.785 251.536C347.093 257.23 294.997 229.341 282.666 197.22C267.412 157.481 282.135 58.3651 219.151 76.3776C158.711 93.498 149.341 158.867 101.921 163.055C60.278 166.731 22.937 120.925 -1.38336 82.7044" stroke="#F2F2F2" stroke-opacity="0.14" stroke-miterlimit="10"/>
<path d="M409.937 19.2275C338.393 41.1627 236.803 174.235 238.72 217.89C239.986 246.209 305.405 243.767 320.634 246.949C343.967 251.821 294.529 225.274 282.331 194.709C267.045 156.419 279.699 62.4778 219.246 79.7247C159.66 96.5351 151.404 163.334 103.56 168.933C61.8472 173.817 23.2092 129.074 -2.00958 91.7457" stroke="#F2F2F2" stroke-opacity="0.14" stroke-miterlimit="10"/>
<path d="M409.937 22.8779C342.183 46.4138 245.376 174.33 245.351 215.846C245.351 242.565 306.088 239.825 319.482 242.356C340.854 246.386 294.061 221.212 281.996 192.203C266.672 155.356 277.27 66.5711 219.36 83.0715C160.615 99.5592 153.485 167.788 105.205 174.811C63.4478 180.884 23.5318 137.248 -2.62331 100.787" stroke="#F2F2F2" stroke-opacity="0.14" stroke-miterlimit="10"/>
<path d="M409.943 26.522C345.979 51.6585 253.962 174.424 251.981 213.796C250.716 238.901 306.708 235.877 318.324 237.769C337.741 240.932 293.574 217.15 281.629 189.685C266.255 154.255 274.834 70.7909 219.417 86.4055C161.552 102.71 155.516 172.223 106.799 180.675C64.9599 187.939 23.7786 145.397 -3.28764 109.815" stroke="#F2F2F2" stroke-opacity="0.14" stroke-miterlimit="10"/>
<path d="M409.949 30.167C349.768 56.9105 262.572 174.482 258.618 211.747C256.125 235.213 307.334 231.923 317.172 233.176C334.616 235.403 293.086 213.088 281.318 187.186C265.9 153.224 272.461 74.9167 219.543 89.7531C162.526 105.754 157.597 176.652 108.463 186.554C66.5665 194.994 24.0945 153.559 -3.8828 118.857" stroke="#F2F2F2" stroke-opacity="0.14" stroke-miterlimit="10"/>
<path d="M409.949 33.811C353.558 62.1553 271.208 174.488 265.248 209.697C261.553 231.506 307.954 227.95 316.021 228.589C331.484 229.81 292.612 209.026 280.983 184.674C265.495 152.161 270 79.0163 219.613 93.1062C163.443 108.803 159.628 181.081 110.07 192.437C68.1103 202.048 24.3538 161.721 -4.54081 127.904" stroke="#F2F2F2" stroke-opacity="0.14" stroke-miterlimit="10"/>
<path d="M409.956 37.4556C357.348 67.4068 279.895 174.457 271.879 207.647C267.02 227.779 308.524 223.964 314.901 224.002C328.339 224.078 292.125 204.971 280.679 182.163C265.115 151.092 267.602 83.1353 219.771 96.447C164.455 111.847 161.754 185.491 111.765 198.309C69.7426 209.065 24.7082 169.876 -5.09752 136.939" stroke="#F2F2F2" stroke-opacity="0.14" stroke-miterlimit="10"/>
<path d="M409.962 41.1064C361.137 72.652 288.638 174.388 278.509 205.604C272.53 224.034 309.232 220.997 313.712 219.409C325.024 220.675 291.568 200.916 280.312 179.658C264.66 150.029 265.128 87.2417 219.84 99.7942C165.366 114.884 163.778 189.895 113.372 204.187C71.2798 216.113 24.9673 178.038 -5.75581 145.98" stroke="#F2F2F2" stroke-opacity="0.14" stroke-miterlimit="10"/>
<path d="M409.962 44.7495C364.934 77.9021 297.471 174.292 285.146 203.553C278.098 220.281 309.877 217.143 312.56 214.821C321.886 215.403 291.004 196.866 279.977 177.145C264.217 148.965 262.698 91.3467 219.941 103.121C166.315 117.907 165.834 194.278 115.005 210.044C72.8425 223.122 25.2584 186.18 -6.38216 155.001" stroke="#F2F2F2" stroke-opacity="0.14" stroke-miterlimit="10"/>
<path d="M409.968 48.395C368.723 83.1483 306.397 174.204 291.776 201.504C283.728 216.537 310.529 213.291 311.389 210.229C318.735 210.122 290.429 192.818 279.622 174.641C263.736 147.903 260.243 95.4477 220.017 106.482C167.239 120.958 167.865 198.683 116.618 215.936C74.3861 230.152 25.5113 194.355 -7.02133 164.056" stroke="#F2F2F2" stroke-opacity="0.14" stroke-miterlimit="10"/>
<path d="M409.975 52.0386C372.514 88.3989 315.433 174.147 298.408 199.454C289.424 212.81 311.175 209.438 310.258 205.642C315.617 204.838 289.873 188.78 279.307 172.109C263.268 146.802 257.827 99.5278 220.138 109.803C168.201 123.968 169.935 203.041 118.276 221.788C75.9688 237.149 25.8349 202.491 -7.62773 173.071" stroke="#F2F2F2" stroke-opacity="0.14" stroke-miterlimit="10"/>
<path d="M409.975 55.6836C376.304 93.6446 324.563 174.179 305.045 197.405C295.181 209.128 311.827 205.585 309.1 201.055C312.479 199.562 289.278 184.751 278.972 169.624C262.756 145.822 255.391 103.641 220.24 113.169C169.144 127.012 171.978 207.439 119.909 227.685C77.5188 244.173 26.126 210.666 -8.25408 182.132" stroke="#F2F2F2" stroke-opacity="0.14" stroke-miterlimit="10"/>
<path d="M409.981 59.3271C380.093 98.8952 333.832 174.336 311.675 195.354C300.976 205.509 312.472 201.732 307.949 196.461C309.34 194.279 288.664 180.739 278.636 167.111C262.218 144.803 252.956 107.734 220.335 116.496C170.087 130.017 174.016 211.779 121.547 233.543C79.0752 251.157 26.417 218.808 -8.87408 191.153" stroke="#F2F2F2" stroke-opacity="0.14" stroke-miterlimit="10"/>
<path d="M409.988 62.978C383.89 104.14 343.132 174.666 318.306 193.311C306.784 201.96 313.124 197.879 306.797 191.875C306.202 189.002 288.025 176.741 278.326 164.6C261.661 143.816 250.539 111.828 220.461 119.856C171.055 133.048 176.072 216.163 123.205 239.434C80.6506 258.167 26.727 226.982 -9.4752 200.207" stroke="#F2F2F2" stroke-opacity="0.14" stroke-miterlimit="10"/>
<path d="M409.988 66.6221C387.679 109.391 352.445 175.165 324.936 191.261C312.586 198.486 312.858 194.994 305.646 187.288C302.64 184.073 287.367 172.736 277.959 162.094C261.016 142.873 248.071 115.908 220.531 123.203C171.966 136.059 178.078 220.516 124.818 245.311C82.1691 265.165 26.9927 235.137 -10.1268 209.248" stroke="#F2F2F2" stroke-opacity="0.14" stroke-miterlimit="10"/>
<path d="M409.994 70.2852C391.469 114.655 361.707 175.855 331.541 189.23C318.311 195.101 313.978 190.704 304.456 182.713C299.679 178.702 286.658 168.838 277.592 159.601C260.313 142.006 245.603 120.014 220.6 126.562C172.87 139.071 180.07 224.888 126.419 251.201C83.6745 272.168 27.2517 243.318 -10.7789 218.302" stroke="#F2F2F2" stroke-opacity="0.14" stroke-miterlimit="10"/>
<path d="M410 73.9106C395.258 119.888 370.881 176.633 338.203 187.161C324.05 191.723 314.914 186.528 303.336 178.107C296.705 173.28 286 164.91 277.288 157.077C259.624 141.19 243.18 124.038 220.733 129.872C173.813 141.956 182.082 229.127 128.089 257.041C85.2182 279.065 27.5744 251.435 -11.3736 227.305" stroke="#F2F2F2" stroke-opacity="0.14" stroke-miterlimit="10"/>
<path d="M410 77.5552C399.048 125.133 379.941 177.519 344.834 185.111C299.489 194.95 264.527 122.071 220.828 133.231C174.756 145.006 184.132 233.556 129.721 262.931C86.7809 286.126 27.8591 259.616 -12 236.359" stroke="#F2F2F2" stroke-opacity="0.14" stroke-miterlimit="10"/>
<defs>
<linearGradient id="paint0_linear_355_1185" x1="0" y1="187.5" x2="1440" y2="187.5" gradientUnits="userSpaceOnUse">
<stop/>
<stop offset="0.78" stop-color="#4F4D6A"/>
<stop offset="1" stop-color="#D8D8D8"/>
</linearGradient>
</defs>
</svg>
