<svg width="1137" height="86" viewBox="0 0 1137 86" fill="none" xmlns="http://www.w3.org/2000/svg">
<mask id="path-1-outside-1_337_8673" maskUnits="userSpaceOnUse" x="0" y="0" width="1137" height="86" fill="black">
<rect fill="white" width="1137" height="86"/>
<path d="M1.91531 83V4.59999H51.8673V21.4H18.7153V32.6H44.2513V49.4H18.7153V66.2H51.8673V83H1.91531ZM60.7897 83L89.4617 43.576L61.1257 4.59999H81.8457L99.8777 29.352L117.91 4.59999H138.63L110.294 43.576L138.966 83H118.134L99.8777 57.912L81.6217 83H60.7897ZM149.025 83V4.59999H178.593C182.886 4.59999 186.769 5.70133 190.241 7.904C193.75 10.0693 196.531 12.9813 198.585 16.64C200.638 20.2613 201.665 24.2373 201.665 28.568C201.665 32.9733 200.601 36.9867 198.473 40.608C196.382 44.2293 193.582 47.1227 190.073 49.288C186.563 51.4533 182.737 52.536 178.593 52.536H165.825V83H149.025ZM165.825 35.736H176.689C178.182 35.736 179.545 35.3627 180.777 34.616C182.009 33.832 182.998 32.8053 183.745 31.536C184.491 30.2667 184.865 28.8667 184.865 27.336C184.865 25.8053 184.491 24.4053 183.745 23.136C182.998 21.8667 182.009 20.8587 180.777 20.112C179.545 19.328 178.182 18.936 176.689 18.936H165.825V35.736ZM211.259 83V4.59999H261.211V21.4H228.059V32.6H253.595V49.4H228.059V66.2H261.211V83H211.259ZM273.493 83V4.59999H305.413C309.707 4.59999 313.589 5.68266 317.061 7.848C320.533 10.0133 323.277 12.9253 325.293 16.584C327.347 20.2053 328.373 24.2 328.373 28.568C328.373 31.928 327.813 35.064 326.693 37.976C325.573 40.8507 323.968 43.408 321.877 45.648C319.824 47.8507 317.397 49.624 314.597 50.968L333.189 83H313.813L296.117 52.536H290.293V83H273.493ZM290.293 35.736H303.397C304.891 35.736 306.253 35.3627 307.485 34.616C308.717 33.832 309.707 32.8053 310.453 31.536C311.2 30.2667 311.573 28.8667 311.573 27.336C311.573 25.8053 311.2 24.4053 310.453 23.136C309.707 21.8667 308.717 20.8587 307.485 20.112C306.253 19.328 304.891 18.936 303.397 18.936H290.293V35.736ZM343.861 83V4.59999H360.661V83H343.861ZM375.759 83V4.59999H425.711V21.4H392.559V32.6H418.095V49.4H392.559V66.2H425.711V83H375.759ZM437.993 83V4.59999H456.137L484.809 52.648V4.59999H501.609V83H483.465L454.793 34.952V83H437.993ZM551.391 84.456C546.089 84.456 541.105 83.4107 536.439 81.32C531.772 79.192 527.665 76.2613 524.119 72.528C520.609 68.7947 517.847 64.4827 515.831 59.592C513.852 54.664 512.863 49.4 512.863 43.8C512.863 38.1627 513.852 32.8987 515.831 28.008C517.847 23.08 520.609 18.768 524.119 15.072C527.665 11.3387 531.772 8.42666 536.439 6.336C541.105 4.20799 546.089 3.14399 551.391 3.14399C557.737 3.14399 563.58 4.61866 568.919 7.56799C574.257 10.48 578.681 14.3813 582.191 19.272L567.183 27.336C565.241 25.096 562.908 23.304 560.183 21.96C557.457 20.616 554.527 19.944 551.391 19.944C548.404 19.944 545.585 20.56 542.935 21.792C540.321 23.024 538.007 24.7413 535.991 26.944C534.012 29.1093 532.463 31.6293 531.343 34.504C530.223 37.3787 529.663 40.4773 529.663 43.8C529.663 47.0853 530.223 50.1653 531.343 53.04C532.463 55.9147 534.012 58.4533 535.991 60.656C538.007 62.8213 540.321 64.5387 542.935 65.808C545.585 67.04 548.404 67.656 551.391 67.656C554.527 67.656 557.457 66.984 560.183 65.64C562.908 64.2587 565.241 62.4293 567.183 60.152L582.191 68.328C578.681 73.1813 574.257 77.0827 568.919 80.032C563.58 82.9813 557.737 84.456 551.391 84.456ZM592.212 83V4.59999H642.164V21.4H609.012V32.6H634.548V49.4H609.012V66.2H642.164V83H592.212ZM703.977 84.456C699.31 84.456 695.091 83.3173 691.321 81.04C687.587 78.7253 684.619 75.6827 682.417 71.912C680.214 68.1413 679.113 64.0347 679.113 59.592C679.113 57.24 679.318 55.168 679.729 53.376C680.177 51.5467 680.886 49.8107 681.857 48.168C682.865 46.488 684.19 44.7147 685.833 42.848C687.513 40.9813 689.603 38.7973 692.105 36.296C690.835 34.9893 689.734 33.776 688.801 32.656C687.905 31.4987 687.158 30.3413 686.561 29.184C686.001 27.9893 685.59 26.7573 685.329 25.488C685.067 24.1813 684.937 22.744 684.937 21.176C684.937 17.48 685.814 14.1947 687.569 11.32C689.323 8.44533 691.638 6.18666 694.513 4.544C697.425 2.864 700.579 2.02399 703.977 2.02399C707.486 2.02399 710.678 2.88266 713.553 4.59999C716.465 6.28 718.779 8.576 720.497 11.488C722.251 14.3627 723.129 17.592 723.129 21.176C723.129 22.7813 722.979 24.2373 722.681 25.544C722.419 26.8507 721.99 28.0827 721.393 29.24C720.795 30.3973 720.03 31.5547 719.097 32.712C718.201 33.832 717.118 35.0267 715.849 36.296L727.273 47.72L742.393 32.6V56.344L739.145 59.592L750.681 71.128L738.809 83L727.273 71.464C724.734 74.0027 722.513 76.112 720.609 77.792C718.705 79.472 716.913 80.7973 715.233 81.768C713.59 82.7387 711.873 83.4293 710.081 83.84C708.326 84.2507 706.291 84.456 703.977 84.456ZM703.977 67.656C704.985 67.656 705.862 67.5253 706.609 67.264C707.393 66.9653 708.177 66.4987 708.961 65.864C709.745 65.2293 710.641 64.408 711.649 63.4C712.657 62.3547 713.907 61.0853 715.401 59.592L703.977 48.168C702.409 49.736 701.102 51.0427 700.057 52.088C699.011 53.096 698.19 53.9733 697.593 54.72C696.995 55.4667 696.566 56.2133 696.305 56.96C696.043 57.7067 695.913 58.584 695.913 59.592C695.913 61.1973 696.305 62.616 697.089 63.848C697.873 65.0427 698.881 65.976 700.113 66.648C701.345 67.32 702.633 67.656 703.977 67.656ZM703.977 27C705.209 25.8053 706.142 24.9093 706.777 24.312C707.449 23.7147 707.897 23.192 708.121 22.744C708.345 22.2587 708.457 21.624 708.457 20.84C708.457 19.3093 707.953 18.1893 706.945 17.48C705.937 16.7333 704.947 16.36 703.977 16.36C702.857 16.36 701.83 16.7893 700.897 17.648C699.963 18.4693 699.497 19.5333 699.497 20.84C699.497 21.624 699.646 22.2773 699.945 22.8C700.243 23.3227 700.71 23.9013 701.345 24.536C702.017 25.1333 702.894 25.9547 703.977 27ZM848.119 4.59999V21.4H825.719V83H808.919V21.4H786.519V4.59999H848.119ZM859.306 83V4.59999H891.226C895.519 4.59999 899.402 5.68266 902.874 7.848C906.346 10.0133 909.09 12.9253 911.106 16.584C913.159 20.2053 914.186 24.2 914.186 28.568C914.186 31.928 913.626 35.064 912.506 37.976C911.386 40.8507 909.781 43.408 907.69 45.648C905.637 47.8507 903.21 49.624 900.41 50.968L919.002 83H899.626L881.93 52.536H876.106V83H859.306ZM876.106 35.736H889.21C890.703 35.736 892.066 35.3627 893.298 34.616C894.53 33.832 895.519 32.8053 896.266 31.536C897.013 30.2667 897.386 28.8667 897.386 27.336C897.386 25.8053 897.013 24.4053 896.266 23.136C895.519 21.8667 894.53 20.8587 893.298 20.112C892.066 19.328 890.703 18.936 889.21 18.936H876.106V35.736ZM962.101 84.456C955.829 84.456 950.285 82.9253 945.469 79.864C940.69 76.8027 936.938 72.696 934.213 67.544C931.525 62.3547 930.181 56.6053 930.181 50.296V4.59999H946.981V50.296C946.981 53.4693 947.578 56.3813 948.773 59.032C949.968 61.6453 951.685 63.736 953.925 65.304C956.202 66.872 958.928 67.656 962.101 67.656C965.312 67.656 968.037 66.8907 970.277 65.36C972.517 63.792 974.216 61.7013 975.373 59.088C976.53 56.4373 977.109 53.5067 977.109 50.296V4.59999H993.909V50.296C993.909 55.0373 993.144 59.48 991.613 63.624C990.082 67.7307 987.898 71.352 985.061 74.488C982.224 77.624 978.864 80.0693 974.981 81.824C971.098 83.5787 966.805 84.456 962.101 84.456ZM1036.07 84.456C1031.67 84.456 1027.45 83.7653 1023.42 82.384C1019.38 80.9653 1015.86 78.9493 1012.83 76.336C1009.81 73.6853 1007.62 70.5307 1006.28 66.872L1022.07 61.048C1022.45 62.1307 1023.27 63.176 1024.54 64.184C1025.84 65.192 1027.49 66.032 1029.46 66.704C1031.44 67.3387 1033.65 67.656 1036.07 67.656C1038.31 67.656 1040.42 67.3387 1042.4 66.704C1044.38 66.032 1045.98 65.1173 1047.22 63.96C1048.45 62.8027 1049.06 61.4587 1049.06 59.928C1049.06 58.36 1048.41 57.072 1047.1 56.064C1045.83 55.0187 1044.19 54.1973 1042.18 53.6C1040.2 52.9653 1038.16 52.4987 1036.07 52.2C1030.4 51.3787 1025.3 50.0347 1020.78 48.168C1016.3 46.264 1012.76 43.6507 1010.14 40.328C1007.57 37.0053 1006.28 32.7867 1006.28 27.672C1006.28 22.7813 1007.66 18.5067 1010.42 14.848C1013.19 11.152 1016.83 8.27733 1021.34 6.224C1025.9 4.17066 1030.81 3.14399 1036.07 3.14399C1040.48 3.14399 1044.7 3.85333 1048.73 5.272C1052.8 6.65333 1056.34 8.66933 1059.37 11.32C1062.39 13.9707 1064.56 17.144 1065.86 20.84L1050.07 26.552C1049.7 25.4693 1048.86 24.4427 1047.55 23.472C1046.28 22.464 1044.66 21.6427 1042.68 21.008C1040.7 20.3733 1038.5 20.056 1036.07 20.056C1033.91 20.0187 1031.83 20.336 1029.86 21.008C1027.88 21.68 1026.25 22.5947 1024.98 23.752C1023.71 24.9093 1023.08 26.216 1023.08 27.672C1023.08 29.688 1023.68 31.2 1024.87 32.208C1026.07 33.1787 1027.63 33.8693 1029.58 34.28C1031.55 34.6907 1033.72 35.064 1036.07 35.4C1041.45 36.184 1046.39 37.584 1050.91 39.6C1055.43 41.616 1059.05 44.304 1061.78 47.664C1064.5 51.024 1065.86 55.112 1065.86 59.928C1065.86 64.8187 1064.48 69.112 1061.72 72.808C1058.99 76.4667 1055.37 79.3227 1050.86 81.376C1046.34 83.4293 1041.41 84.456 1036.07 84.456ZM1135.34 4.59999V21.4H1112.94V83H1096.14V21.4H1073.74V4.59999H1135.34Z"/>
</mask>
<path d="M1.91531 83H0.415314V84.5H1.91531V83ZM1.91531 4.59999V3.09999H0.415314V4.59999H1.91531ZM51.8673 4.59999H53.3673V3.09999H51.8673V4.59999ZM51.8673 21.4V22.9H53.3673V21.4H51.8673ZM18.7153 21.4V19.9H17.2153V21.4H18.7153ZM18.7153 32.6H17.2153V34.1H18.7153V32.6ZM44.2513 32.6H45.7513V31.1H44.2513V32.6ZM44.2513 49.4V50.9H45.7513V49.4H44.2513ZM18.7153 49.4V47.9H17.2153V49.4H18.7153ZM18.7153 66.2H17.2153V67.7H18.7153V66.2ZM51.8673 66.2H53.3673V64.7H51.8673V66.2ZM51.8673 83V84.5H53.3673V83H51.8673ZM3.41531 83V4.59999H0.415314V83H3.41531ZM1.91531 6.09999H51.8673V3.09999H1.91531V6.09999ZM50.3673 4.59999V21.4H53.3673V4.59999H50.3673ZM51.8673 19.9H18.7153V22.9H51.8673V19.9ZM17.2153 21.4V32.6H20.2153V21.4H17.2153ZM18.7153 34.1H44.2513V31.1H18.7153V34.1ZM42.7513 32.6V49.4H45.7513V32.6H42.7513ZM44.2513 47.9H18.7153V50.9H44.2513V47.9ZM17.2153 49.4V66.2H20.2153V49.4H17.2153ZM18.7153 67.7H51.8673V64.7H18.7153V67.7ZM50.3673 66.2V83H53.3673V66.2H50.3673ZM51.8673 81.5H1.91531V84.5H51.8673V81.5ZM60.7897 83L59.5766 82.1177L57.844 84.5H60.7897V83ZM89.4617 43.576L90.6748 44.4583L91.3163 43.5762L90.6749 42.6939L89.4617 43.576ZM61.1257 4.59999V3.09999H58.1807L59.9124 5.48204L61.1257 4.59999ZM81.8457 4.59999L83.0581 3.71676L82.6088 3.09999H81.8457V4.59999ZM99.8777 29.352L98.6653 30.2352L99.8777 31.8994L101.09 30.2352L99.8777 29.352ZM117.91 4.59999V3.09999H117.147L116.697 3.71676L117.91 4.59999ZM138.63 4.59999L139.843 5.48204L141.575 3.09999H138.63V4.59999ZM110.294 43.576L109.08 42.6939L108.439 43.5762L109.081 44.4583L110.294 43.576ZM138.966 83V84.5H141.911L140.179 82.1177L138.966 83ZM118.134 83L116.921 83.8826L117.37 84.5H118.134V83ZM99.8777 57.912L101.091 57.0294L99.8777 55.3627L98.6648 57.0294L99.8777 57.912ZM81.6217 83V84.5H82.3853L82.8346 83.8826L81.6217 83ZM62.0028 83.8823L90.6748 44.4583L88.2486 42.6937L59.5766 82.1177L62.0028 83.8823ZM90.6749 42.6939L62.3389 3.71795L59.9124 5.48204L88.2484 44.458L90.6749 42.6939ZM61.1257 6.09999H81.8457V3.09999H61.1257V6.09999ZM80.6333 5.48323L98.6653 30.2352L101.09 28.4688L83.0581 3.71676L80.6333 5.48323ZM101.09 30.2352L119.122 5.48323L116.697 3.71676L98.6653 28.4688L101.09 30.2352ZM117.91 6.09999H138.63V3.09999H117.91V6.09999ZM137.416 3.71795L109.08 42.6939L111.507 44.458L139.843 5.48204L137.416 3.71795ZM109.081 44.4583L137.753 83.8823L140.179 82.1177L111.507 42.6937L109.081 44.4583ZM138.966 81.5H118.134V84.5H138.966V81.5ZM119.347 82.1174L101.091 57.0294L98.6648 58.7946L116.921 83.8826L119.347 82.1174ZM98.6648 57.0294L80.4088 82.1174L82.8346 83.8826L101.091 58.7946L98.6648 57.0294ZM81.6217 81.5H60.7897V84.5H81.6217V81.5ZM149.025 83H147.525V84.5H149.025V83ZM149.025 4.59999V3.09999H147.525V4.59999H149.025ZM190.241 7.904L189.437 9.17061L189.445 9.17563L189.453 9.18055L190.241 7.904ZM198.585 16.64L197.277 17.3741L197.28 17.3799L198.585 16.64ZM198.473 40.608L197.179 39.848L197.174 39.858L198.473 40.608ZM190.073 49.288L189.285 48.0114L190.073 49.288ZM165.825 52.536V51.036H164.325V52.536H165.825ZM165.825 83V84.5H167.325V83H165.825ZM165.825 35.736H164.325V37.236H165.825V35.736ZM180.777 34.616L181.554 35.8988L181.568 35.8903L181.582 35.8815L180.777 34.616ZM183.745 31.536L182.452 30.7755L183.745 31.536ZM183.745 23.136L182.452 23.8965V23.8965L183.745 23.136ZM180.777 20.112L179.971 21.3775L179.985 21.3863L179.999 21.3948L180.777 20.112ZM165.825 18.936V17.436H164.325V18.936H165.825ZM150.525 83V4.59999H147.525V83H150.525ZM149.025 6.09999H178.593V3.09999H149.025V6.09999ZM178.593 6.09999C182.615 6.09999 186.216 7.12731 189.437 9.17061L191.044 6.63738C187.321 4.27535 183.157 3.09999 178.593 3.09999V6.09999ZM189.453 9.18055C192.742 11.2098 195.346 13.9335 197.277 17.3741L199.893 15.9059C197.717 12.0292 194.758 8.9289 191.028 6.62744L189.453 9.18055ZM197.28 17.3799C199.2 20.7663 200.165 24.4858 200.165 28.568H203.165C203.165 23.9889 202.076 19.7564 199.89 15.9001L197.28 17.3799ZM200.165 28.568C200.165 32.7197 199.165 36.4685 197.179 39.8481L199.766 41.3679C202.036 37.5048 203.165 33.2269 203.165 28.568H200.165ZM197.174 39.858C195.205 43.2673 192.58 45.9785 189.285 48.0114L190.86 50.5646C194.584 48.2669 197.559 45.1913 199.772 41.358L197.174 39.858ZM189.285 48.0114C186.014 50.0299 182.46 51.036 178.593 51.036V54.036C183.013 54.036 187.113 52.8767 190.86 50.5646L189.285 48.0114ZM178.593 51.036H165.825V54.036H178.593V51.036ZM164.325 52.536V83H167.325V52.536H164.325ZM165.825 81.5H149.025V84.5H165.825V81.5ZM165.825 37.236H176.689V34.236H165.825V37.236ZM176.689 37.236C178.446 37.236 180.079 36.7929 181.554 35.8988L179.999 33.3332C179.011 33.9324 177.918 34.236 176.689 34.236V37.236ZM181.582 35.8815C183.016 34.969 184.172 33.7686 185.038 32.2965L182.452 30.7755C181.824 31.8421 181.001 32.695 179.971 33.3505L181.582 35.8815ZM185.038 32.2965C185.925 30.7874 186.365 29.1231 186.365 27.336H183.365C183.365 28.6102 183.057 29.746 182.452 30.7755L185.038 32.2965ZM186.365 27.336C186.365 25.5489 185.925 23.8846 185.038 22.3755L182.452 23.8965C183.057 24.926 183.365 26.0618 183.365 27.336H186.365ZM185.038 22.3755C184.168 20.897 183.003 19.7076 181.554 18.8292L179.999 21.3948C181.014 22.0098 181.828 22.8363 182.452 23.8965L185.038 22.3755ZM181.582 18.8465C180.104 17.9057 178.46 17.436 176.689 17.436V20.436C177.904 20.436 178.986 20.7503 179.971 21.3775L181.582 18.8465ZM176.689 17.436H165.825V20.436H176.689V17.436ZM164.325 18.936V35.736H167.325V18.936H164.325ZM211.259 83H209.759V84.5H211.259V83ZM211.259 4.59999V3.09999H209.759V4.59999H211.259ZM261.211 4.59999H262.711V3.09999H261.211V4.59999ZM261.211 21.4V22.9H262.711V21.4H261.211ZM228.059 21.4V19.9H226.559V21.4H228.059ZM228.059 32.6H226.559V34.1H228.059V32.6ZM253.595 32.6H255.095V31.1H253.595V32.6ZM253.595 49.4V50.9H255.095V49.4H253.595ZM228.059 49.4V47.9H226.559V49.4H228.059ZM228.059 66.2H226.559V67.7H228.059V66.2ZM261.211 66.2H262.711V64.7H261.211V66.2ZM261.211 83V84.5H262.711V83H261.211ZM212.759 83V4.59999H209.759V83H212.759ZM211.259 6.09999H261.211V3.09999H211.259V6.09999ZM259.711 4.59999V21.4H262.711V4.59999H259.711ZM261.211 19.9H228.059V22.9H261.211V19.9ZM226.559 21.4V32.6H229.559V21.4H226.559ZM228.059 34.1H253.595V31.1H228.059V34.1ZM252.095 32.6V49.4H255.095V32.6H252.095ZM253.595 47.9H228.059V50.9H253.595V47.9ZM226.559 49.4V66.2H229.559V49.4H226.559ZM228.059 67.7H261.211V64.7H228.059V67.7ZM259.711 66.2V83H262.711V66.2H259.711ZM261.211 81.5H211.259V84.5H261.211V81.5ZM273.493 83H271.993V84.5H273.493V83ZM273.493 4.59999V3.09999H271.993V4.59999H273.493ZM317.061 7.848L316.268 9.12077L317.061 7.848ZM325.293 16.584L323.98 17.3079L323.984 17.3159L323.989 17.3239L325.293 16.584ZM326.693 37.976L328.091 38.5205L328.093 38.5145L326.693 37.976ZM321.877 45.648L320.781 44.6245L320.78 44.6252L321.877 45.648ZM314.597 50.968L313.948 49.6157L312.486 50.3178L313.3 51.721L314.597 50.968ZM333.189 83V84.5H335.794L334.487 82.247L333.189 83ZM313.813 83L312.516 83.7534L312.95 84.5H313.813V83ZM296.117 52.536L297.414 51.7826L296.981 51.036H296.117V52.536ZM290.293 52.536V51.036H288.793V52.536H290.293ZM290.293 83V84.5H291.793V83H290.293ZM290.293 35.736H288.793V37.236H290.293V35.736ZM307.485 34.616L308.263 35.8988L308.277 35.8903L308.291 35.8815L307.485 34.616ZM310.453 31.536L311.746 32.2965V32.2965L310.453 31.536ZM310.453 23.136L309.161 23.8965H309.161L310.453 23.136ZM307.485 20.112L306.68 21.3775L306.694 21.3863L306.708 21.3948L307.485 20.112ZM290.293 18.936V17.436H288.793V18.936H290.293ZM274.993 83V4.59999H271.993V83H274.993ZM273.493 6.09999H305.413V3.09999H273.493V6.09999ZM305.413 6.09999C309.441 6.09999 313.046 7.11142 316.268 9.12077L317.855 6.57523C314.133 4.25391 309.973 3.09999 305.413 3.09999V6.09999ZM316.268 9.12077C319.518 11.1476 322.085 13.8687 323.98 17.3079L326.607 15.8601C324.47 11.982 321.549 8.87905 317.855 6.57523L316.268 9.12077ZM323.989 17.3239C325.908 20.7083 326.873 24.4461 326.873 28.568H329.873C329.873 23.9539 328.786 19.7023 326.598 15.8441L323.989 17.3239ZM326.873 28.568C326.873 31.7581 326.342 34.7102 325.293 37.4375L328.093 38.5145C329.284 35.4178 329.873 32.0979 329.873 28.568H326.873ZM325.296 37.4315C324.244 40.1301 322.741 42.5246 320.781 44.6245L322.974 46.6715C325.195 44.2914 326.903 41.5713 328.091 38.5205L325.296 37.4315ZM320.78 44.6252C318.858 46.6867 316.585 48.3501 313.948 49.6157L315.247 52.3203C318.21 50.8979 320.79 49.0146 322.975 46.6708L320.78 44.6252ZM313.3 51.721L331.892 83.753L334.487 82.247L315.895 50.215L313.3 51.721ZM333.189 81.5H313.813V84.5H333.189V81.5ZM315.111 82.2466L297.414 51.7826L294.82 53.2894L312.516 83.7534L315.111 82.2466ZM296.117 51.036H290.293V54.036H296.117V51.036ZM288.793 52.536V83H291.793V52.536H288.793ZM290.293 81.5H273.493V84.5H290.293V81.5ZM290.293 37.236H303.397V34.236H290.293V37.236ZM303.397 37.236C305.154 37.236 306.788 36.7929 308.263 35.8988L306.708 33.3332C305.719 33.9324 304.627 34.236 303.397 34.236V37.236ZM308.291 35.8815C309.725 34.969 310.88 33.7686 311.746 32.2965L309.161 30.7755C308.533 31.8421 307.71 32.695 306.68 33.3505L308.291 35.8815ZM311.746 32.2965C312.634 30.7874 313.073 29.1231 313.073 27.336H310.073C310.073 28.6102 309.766 29.746 309.161 30.7755L311.746 32.2965ZM313.073 27.336C313.073 25.5489 312.634 23.8846 311.746 22.3755L309.161 23.8965C309.766 24.926 310.073 26.0618 310.073 27.336H313.073ZM311.746 22.3755C310.877 20.897 309.712 19.7076 308.263 18.8292L306.708 21.3948C307.723 22.0098 308.537 22.8363 309.161 23.8965L311.746 22.3755ZM308.291 18.8465C306.812 17.9057 305.169 17.436 303.397 17.436V20.436C304.612 20.436 305.694 20.7503 306.68 21.3775L308.291 18.8465ZM303.397 17.436H290.293V20.436H303.397V17.436ZM288.793 18.936V35.736H291.793V18.936H288.793ZM343.861 83H342.361V84.5H343.861V83ZM343.861 4.59999V3.09999H342.361V4.59999H343.861ZM360.661 4.59999H362.161V3.09999H360.661V4.59999ZM360.661 83V84.5H362.161V83H360.661ZM345.361 83V4.59999H342.361V83H345.361ZM343.861 6.09999H360.661V3.09999H343.861V6.09999ZM359.161 4.59999V83H362.161V4.59999H359.161ZM360.661 81.5H343.861V84.5H360.661V81.5ZM375.759 83H374.259V84.5H375.759V83ZM375.759 4.59999V3.09999H374.259V4.59999H375.759ZM425.711 4.59999H427.211V3.09999H425.711V4.59999ZM425.711 21.4V22.9H427.211V21.4H425.711ZM392.559 21.4V19.9H391.059V21.4H392.559ZM392.559 32.6H391.059V34.1H392.559V32.6ZM418.095 32.6H419.595V31.1H418.095V32.6ZM418.095 49.4V50.9H419.595V49.4H418.095ZM392.559 49.4V47.9H391.059V49.4H392.559ZM392.559 66.2H391.059V67.7H392.559V66.2ZM425.711 66.2H427.211V64.7H425.711V66.2ZM425.711 83V84.5H427.211V83H425.711ZM377.259 83V4.59999H374.259V83H377.259ZM375.759 6.09999H425.711V3.09999H375.759V6.09999ZM424.211 4.59999V21.4H427.211V4.59999H424.211ZM425.711 19.9H392.559V22.9H425.711V19.9ZM391.059 21.4V32.6H394.059V21.4H391.059ZM392.559 34.1H418.095V31.1H392.559V34.1ZM416.595 32.6V49.4H419.595V32.6H416.595ZM418.095 47.9H392.559V50.9H418.095V47.9ZM391.059 49.4V66.2H394.059V49.4H391.059ZM392.559 67.7H425.711V64.7H392.559V67.7ZM424.211 66.2V83H427.211V66.2H424.211ZM425.711 81.5H375.759V84.5H425.711V81.5ZM437.993 83H436.493V84.5H437.993V83ZM437.993 4.59999V3.09999H436.493V4.59999H437.993ZM456.137 4.59999L457.426 3.83134L456.989 3.09999H456.137V4.59999ZM484.809 52.648L483.521 53.4166L486.309 58.0889V52.648H484.809ZM484.809 4.59999V3.09999H483.309V4.59999H484.809ZM501.609 4.59999H503.109V3.09999H501.609V4.59999ZM501.609 83V84.5H503.109V83H501.609ZM483.465 83L482.177 83.7687L482.614 84.5H483.465V83ZM454.793 34.952L456.082 34.1833L453.293 29.5111V34.952H454.793ZM454.793 83V84.5H456.293V83H454.793ZM439.493 83V4.59999H436.493V83H439.493ZM437.993 6.09999H456.137V3.09999H437.993V6.09999ZM454.849 5.36864L483.521 53.4166L486.098 51.8793L457.426 3.83134L454.849 5.36864ZM486.309 52.648V4.59999H483.309V52.648H486.309ZM484.809 6.09999H501.609V3.09999H484.809V6.09999ZM500.109 4.59999V83H503.109V4.59999H500.109ZM501.609 81.5H483.465V84.5H501.609V81.5ZM484.754 82.2313L456.082 34.1833L453.505 35.7206L482.177 83.7687L484.754 82.2313ZM453.293 34.952V83H456.293V34.952H453.293ZM454.793 81.5H437.993V84.5H454.793V81.5ZM536.439 81.32L535.816 82.6848L535.826 82.6889L536.439 81.32ZM524.119 72.528L523.026 73.5554L523.031 73.5611L524.119 72.528ZM515.831 59.592L514.439 60.1509L514.444 60.1637L515.831 59.592ZM515.831 28.008L514.443 27.44L514.44 27.4454L515.831 28.008ZM524.119 15.072L523.031 14.0389L523.031 14.0392L524.119 15.072ZM536.439 6.33599L537.052 7.70493L537.061 7.7008L536.439 6.33599ZM568.919 7.56799L568.193 8.88098L568.201 8.88484L568.919 7.56799ZM582.191 19.272L582.901 20.5933L584.405 19.785L583.41 18.3975L582.191 19.272ZM567.183 27.336L566.049 28.3184L566.835 29.2255L567.893 28.6573L567.183 27.336ZM560.183 21.96L560.846 20.6147L560.183 21.96ZM542.935 21.792L542.303 20.4317L542.295 20.4352L542.935 21.792ZM535.991 26.944L534.884 25.9313L534.883 25.9321L535.991 26.944ZM531.343 34.504L529.945 33.9594L531.343 34.504ZM531.343 53.04L529.945 53.5845L531.343 53.04ZM535.991 60.656L534.875 61.6584L534.884 61.6683L534.893 61.6781L535.991 60.656ZM542.935 65.808L542.279 67.1573L542.291 67.1629L542.303 67.1683L542.935 65.808ZM560.183 65.64L560.846 66.9853L560.854 66.9817L560.861 66.978L560.183 65.64ZM567.183 60.152L567.9 58.8348L566.831 58.2523L566.041 59.1789L567.183 60.152ZM582.191 68.328L583.406 69.2069L584.405 67.826L582.908 67.0108L582.191 68.328ZM568.919 80.032L569.644 81.345L568.919 80.032ZM551.391 82.956C546.293 82.956 541.519 81.9521 537.052 79.9511L535.826 82.6889C540.692 84.8692 545.886 85.956 551.391 85.956V82.956ZM537.061 79.9552C532.57 77.9073 528.621 75.0894 525.206 71.4949L523.031 73.5611C526.71 77.4332 530.974 80.4767 535.816 82.6848L537.061 79.9552ZM525.212 71.5006C521.831 67.9044 519.166 63.7481 517.218 59.0203L514.444 60.1637C516.527 65.2173 519.388 69.6849 523.026 73.5554L525.212 71.5006ZM517.223 59.0331C515.319 54.2924 514.363 49.2191 514.363 43.8H511.363C511.363 49.5809 512.385 55.0356 514.439 60.1509L517.223 59.0331ZM514.363 43.8C514.363 38.3421 515.32 33.2705 517.221 28.5706L514.44 27.4454C512.384 32.5268 511.363 37.9832 511.363 43.8H514.363ZM517.219 28.5759C519.168 23.8124 521.831 19.6599 525.207 16.1048L523.031 14.0392C519.388 17.8761 516.526 22.3476 514.443 27.44L517.219 28.5759ZM525.206 16.1051C528.619 12.5125 532.565 9.71505 537.052 7.7049L535.826 4.96709C530.979 7.13828 526.712 10.1648 523.031 14.0389L525.206 16.1051ZM537.061 7.7008C541.526 5.66491 546.297 4.64399 551.391 4.64399V1.64399C545.882 1.64399 540.685 2.75108 535.816 4.9712L537.061 7.7008ZM551.391 4.64399C557.494 4.64399 563.086 6.05938 568.193 8.88096L569.644 6.25503C564.074 3.17794 557.98 1.64399 551.391 1.64399V4.64399ZM568.201 8.88484C573.343 11.69 577.596 15.4409 580.972 20.1465L583.41 18.3975C579.767 13.3217 575.172 9.26997 569.637 6.25115L568.201 8.88484ZM581.481 17.9507L566.473 26.0147L567.893 28.6573L582.901 20.5933L581.481 17.9507ZM568.316 26.3536C566.241 23.9587 563.746 22.0448 560.846 20.6147L559.519 23.3053C562.07 24.5631 564.242 26.2333 566.049 28.3184L568.316 26.3536ZM560.846 20.6147C557.908 19.1656 554.749 18.444 551.391 18.444V21.444C554.304 21.444 557.007 22.0664 559.519 23.3053L560.846 20.6147ZM551.391 18.444C548.191 18.444 545.156 19.1056 542.303 20.4317L543.567 23.1522C546.015 22.0143 548.618 21.444 551.391 21.444V18.444ZM542.295 20.4352C539.499 21.7532 537.028 23.5896 534.884 25.9313L537.097 27.9567C538.986 25.8931 541.144 24.2948 543.574 23.1488L542.295 20.4352ZM534.883 25.9321C532.774 28.241 531.129 30.9215 529.945 33.9594L532.74 35.0485C533.797 32.3372 535.251 29.9777 537.098 27.9559L534.883 25.9321ZM529.945 33.9594C528.752 37.0207 528.163 40.3055 528.163 43.8H531.163C531.163 40.6492 531.693 37.7367 532.74 35.0485L529.945 33.9594ZM528.163 43.8C528.163 47.2594 528.753 50.5253 529.945 53.5845L532.74 52.4955C531.692 49.8054 531.163 46.9112 531.163 43.8H528.163ZM529.945 53.5845C531.128 56.6204 532.771 59.3157 534.875 61.6584L537.107 59.6536C535.254 57.5909 533.798 55.2089 532.74 52.4955L529.945 53.5845ZM534.893 61.6781C537.033 63.9763 539.497 65.8056 542.279 67.1573L543.59 64.4587C541.146 63.2717 538.981 61.6663 537.089 59.6339L534.893 61.6781ZM542.303 67.1683C545.156 68.4944 548.191 69.156 551.391 69.156V66.156C548.618 66.156 546.015 65.5856 543.567 64.4477L542.303 67.1683ZM551.391 69.156C554.749 69.156 557.908 68.4344 560.846 66.9853L559.519 64.2947C557.007 65.5336 554.304 66.156 551.391 66.156V69.156ZM560.861 66.978C563.76 65.5088 566.251 63.5567 568.324 61.1251L566.041 59.1789C564.232 61.3019 562.057 63.0085 559.505 64.302L560.861 66.978ZM566.465 61.4692L581.473 69.6452L582.908 67.0108L567.9 58.8348L566.465 61.4692ZM580.975 67.4491C577.598 72.12 573.342 75.8745 568.193 78.719L569.644 81.345C575.173 78.2908 579.765 74.2426 583.406 69.2069L580.975 67.4491ZM568.193 78.719C563.086 81.5406 557.494 82.956 551.391 82.956V85.956C557.98 85.956 564.074 84.4221 569.644 81.345L568.193 78.719ZM592.212 83H590.712V84.5H592.212V83ZM592.212 4.59999V3.09999H590.712V4.59999H592.212ZM642.164 4.59999H643.664V3.09999H642.164V4.59999ZM642.164 21.4V22.9H643.664V21.4H642.164ZM609.012 21.4V19.9H607.512V21.4H609.012ZM609.012 32.6H607.512V34.1H609.012V32.6ZM634.548 32.6H636.048V31.1H634.548V32.6ZM634.548 49.4V50.9H636.048V49.4H634.548ZM609.012 49.4V47.9H607.512V49.4H609.012ZM609.012 66.2H607.512V67.7H609.012V66.2ZM642.164 66.2H643.664V64.7H642.164V66.2ZM642.164 83V84.5H643.664V83H642.164ZM593.712 83V4.59999H590.712V83H593.712ZM592.212 6.09999H642.164V3.09999H592.212V6.09999ZM640.664 4.59999V21.4H643.664V4.59999H640.664ZM642.164 19.9H609.012V22.9H642.164V19.9ZM607.512 21.4V32.6H610.512V21.4H607.512ZM609.012 34.1H634.548V31.1H609.012V34.1ZM633.048 32.6V49.4H636.048V32.6H633.048ZM634.548 47.9H609.012V50.9H634.548V47.9ZM607.512 49.4V66.2H610.512V49.4H607.512ZM609.012 67.7H642.164V64.7H609.012V67.7ZM640.664 66.2V83H643.664V66.2H640.664ZM642.164 81.5H592.212V84.5H642.164V81.5ZM691.321 81.04L690.53 82.3149L690.538 82.3195L690.545 82.324L691.321 81.04ZM682.417 71.912L683.712 71.1554L682.417 71.912ZM679.729 53.376L678.272 53.0192L678.269 53.03L678.267 53.0409L679.729 53.376ZM681.857 48.168L680.571 47.3962L680.565 47.4049L681.857 48.168ZM685.833 42.848L684.718 41.8446L684.712 41.8508L684.707 41.8571L685.833 42.848ZM692.105 36.296L693.165 37.3567L694.211 36.3113L693.181 35.2508L692.105 36.296ZM688.801 32.656L687.615 33.5743L687.631 33.5956L687.648 33.6163L688.801 32.656ZM686.561 29.184L685.203 29.8206L685.215 29.8465L685.228 29.872L686.561 29.184ZM685.329 25.488L683.858 25.7822L683.86 25.7905L685.329 25.488ZM687.569 11.32L686.288 10.5385L687.569 11.32ZM694.513 4.544L695.257 5.84637L695.262 5.84328L694.513 4.544ZM713.553 4.59999L712.784 5.88771L712.793 5.89357L712.803 5.89927L713.553 4.59999ZM720.497 11.488L719.205 12.25L719.211 12.2598L719.216 12.2695L720.497 11.488ZM722.681 25.544L721.219 25.2098L721.214 25.2297L721.21 25.2498L722.681 25.544ZM719.097 32.712L717.929 31.7704L717.926 31.775L719.097 32.712ZM715.849 36.296L714.788 35.2353L713.727 36.296L714.788 37.3567L715.849 36.296ZM727.273 47.72L726.212 48.7807L727.273 49.8413L728.333 48.7807L727.273 47.72ZM742.393 32.6H743.893V28.9787L741.332 31.5393L742.393 32.6ZM742.393 56.344L743.453 57.4047L743.893 56.9653V56.344H742.393ZM739.145 59.592L738.084 58.5313L737.023 59.592L738.084 60.6527L739.145 59.592ZM750.681 71.128L751.741 72.1887L752.802 71.128L751.741 70.0673L750.681 71.128ZM738.809 83L737.748 84.0607L738.809 85.1213L739.869 84.0607L738.809 83ZM727.273 71.464L728.333 70.4033L727.273 69.3427L726.212 70.4033L727.273 71.464ZM720.609 77.792L721.601 78.9168L720.609 77.792ZM715.233 81.768L714.482 80.4692L714.476 80.4729L714.47 80.4766L715.233 81.768ZM710.081 83.84L709.746 82.3779L709.739 82.3795L710.081 83.84ZM706.609 67.264L707.104 68.6798L707.124 68.673L707.143 68.6657L706.609 67.264ZM708.961 65.864L709.905 67.0299L708.961 65.864ZM711.649 63.4L712.709 64.4607L712.719 64.451L712.729 64.4412L711.649 63.4ZM715.401 59.592L716.461 60.6527L717.522 59.592L716.461 58.5313L715.401 59.592ZM703.977 48.168L705.037 47.1073L703.977 46.0467L702.916 47.1073L703.977 48.168ZM700.057 52.088L701.098 53.1678L701.108 53.1583L701.117 53.1487L700.057 52.088ZM697.593 54.72L698.764 55.657L697.593 54.72ZM696.305 56.96L694.889 56.4645L696.305 56.96ZM697.089 63.848L695.823 64.6533L695.829 64.6622L695.835 64.671L697.089 63.848ZM700.113 66.648L700.831 65.3312L700.113 66.648ZM703.977 27L702.935 28.0791L703.979 29.0872L705.021 28.0769L703.977 27ZM706.777 24.312L705.78 23.1909L705.764 23.2051L705.749 23.2197L706.777 24.312ZM708.121 22.744L709.462 23.4148L709.473 23.3939L709.483 23.3726L708.121 22.744ZM706.945 17.48L706.052 18.6853L706.067 18.6962L706.082 18.7067L706.945 17.48ZM700.897 17.648L701.888 18.7741L701.9 18.7631L701.912 18.7519L700.897 17.648ZM699.945 22.8L698.642 23.5442V23.5442L699.945 22.8ZM701.345 24.536L700.284 25.5967L700.315 25.6278L700.348 25.6571L701.345 24.536ZM703.977 82.956C699.567 82.956 695.619 81.8835 692.096 79.756L690.545 82.324C694.564 84.7511 699.054 85.956 703.977 85.956V82.956ZM692.111 79.7651C688.585 77.5787 685.79 74.7134 683.712 71.1554L681.122 72.6686C683.448 76.6519 686.59 79.872 690.53 82.3149L692.111 79.7651ZM683.712 71.1554C681.646 67.6185 680.613 63.7736 680.613 59.592H677.613C677.613 64.2957 678.782 68.6642 681.122 72.6686L683.712 71.1554ZM680.613 59.592C680.613 57.3232 680.811 55.3676 681.191 53.7111L678.267 53.0409C677.825 54.9684 677.613 57.1569 677.613 59.592H680.613ZM681.186 53.7328C681.598 52.0482 682.251 50.4489 683.148 48.9311L680.565 47.4049C679.521 49.1725 678.755 51.0452 678.272 53.0192L681.186 53.7328ZM683.143 48.9397C684.094 47.355 685.361 45.6547 686.959 43.8389L684.707 41.8571C683.019 43.7746 681.636 45.621 680.571 47.3963L683.143 48.9397ZM686.948 43.8514C688.605 42.0104 690.676 39.8462 693.165 37.3567L691.044 35.2353C688.531 37.7484 686.421 39.9523 684.718 41.8446L686.948 43.8514ZM693.181 35.2508C691.932 33.9651 690.857 32.7803 689.953 31.6957L687.648 33.6163C688.611 34.7717 689.739 36.0136 691.029 37.3412L693.181 35.2508ZM689.987 31.7377C689.14 30.6438 688.444 29.5631 687.894 28.496L685.228 29.872C685.872 31.1196 686.67 32.3535 687.615 33.5743L689.987 31.7377ZM687.919 28.5473C687.408 27.4574 687.035 26.3374 686.798 25.1855L683.86 25.7905C684.145 27.1773 684.594 28.5213 685.203 29.8206L687.919 28.5473ZM686.8 25.1938C686.561 23.9992 686.437 22.662 686.437 21.176H683.437C683.437 22.826 683.574 24.3634 683.858 25.7822L686.8 25.1938ZM686.437 21.176C686.437 17.728 687.252 14.7182 688.849 12.1015L686.288 10.5385C684.376 13.6711 683.437 17.232 683.437 21.176H686.437ZM688.849 12.1015C690.474 9.43903 692.606 7.36119 695.257 5.84636L693.769 3.24163C690.67 5.01213 688.173 7.45163 686.288 10.5385L688.849 12.1015ZM695.262 5.84328C697.944 4.29622 700.84 3.52399 703.977 3.52399V0.523994C700.319 0.523994 696.906 1.43177 693.763 3.24472L695.262 5.84328ZM703.977 3.52399C707.229 3.52399 710.153 4.3161 712.784 5.88771L714.322 3.31228C711.203 1.44922 707.743 0.523994 703.977 0.523994V3.52399ZM712.803 5.89927C715.49 7.44921 717.618 9.55956 719.205 12.25L721.789 10.726C719.941 7.59244 717.44 5.11079 714.302 3.30072L712.803 5.89927ZM719.216 12.2695C720.818 14.8936 721.629 17.8493 721.629 21.176H724.629C724.629 17.3347 723.685 13.8318 721.777 10.7065L719.216 12.2695ZM721.629 21.176C721.629 22.6902 721.488 24.0318 721.219 25.2098L724.143 25.8782C724.471 24.4429 724.629 22.8725 724.629 21.176H721.629ZM721.21 25.2498C720.975 26.4226 720.592 27.5218 720.06 28.552L722.726 29.928C723.389 28.6436 723.864 27.2787 724.152 25.8382L721.21 25.2498ZM720.06 28.552C719.515 29.6079 718.808 30.681 717.929 31.7704L720.264 33.6536C721.253 32.4284 722.076 31.1868 722.726 29.928L720.06 28.552ZM717.926 31.775C717.071 32.8426 716.028 33.9959 714.788 35.2353L716.909 37.3567C718.209 36.0574 719.33 34.8214 720.268 33.649L717.926 31.775ZM714.788 37.3567L726.212 48.7807L728.333 46.6593L716.909 35.2353L714.788 37.3567ZM728.333 48.7807L743.453 33.6607L741.332 31.5393L726.212 46.6593L728.333 48.7807ZM740.893 32.6V56.344H743.893V32.6H740.893ZM741.332 55.2833L738.084 58.5313L740.206 60.6527L743.453 57.4047L741.332 55.2833ZM738.084 60.6527L749.62 72.1887L751.741 70.0673L740.206 58.5313L738.084 60.6527ZM749.62 70.0673L737.748 81.9393L739.869 84.0607L751.741 72.1887L749.62 70.0673ZM739.869 81.9393L728.333 70.4033L726.212 72.5247L737.748 84.0607L739.869 81.9393ZM726.212 70.4033C723.687 72.9282 721.49 75.0144 719.616 76.6672L721.601 78.9168C723.536 77.2096 725.781 75.0772 728.333 72.5247L726.212 70.4033ZM719.616 76.6672C717.766 78.3003 716.054 79.5609 714.482 80.4692L715.983 83.0668C717.771 82.0338 719.644 80.6437 721.601 78.9168L719.616 76.6672ZM714.47 80.4766C712.955 81.3717 711.381 82.003 709.746 82.3779L710.416 85.3021C712.364 84.8556 714.225 84.1057 715.996 83.0594L714.47 80.4766ZM709.739 82.3795C708.123 82.7577 706.207 82.956 703.977 82.956V85.956C706.376 85.956 708.529 85.7436 710.423 85.3005L709.739 82.3795ZM703.977 69.156C705.109 69.156 706.162 69.0098 707.104 68.6798L706.113 65.8482C705.563 66.0409 704.86 66.156 703.977 66.156V69.156ZM707.143 68.6657C708.102 68.3005 709.021 67.7448 709.905 67.0299L708.017 64.6981C707.332 65.2525 706.684 65.6301 706.075 65.8623L707.143 68.6657ZM709.905 67.0299C710.742 66.3518 711.678 65.4919 712.709 64.4607L710.588 62.3393C709.603 63.3241 708.747 64.1068 708.017 64.6981L709.905 67.0299ZM712.729 64.4412C713.728 63.4046 714.972 62.1422 716.461 60.6527L714.34 58.5313C712.843 60.0285 711.585 61.3047 710.569 62.3588L712.729 64.4412ZM716.461 58.5313L705.037 47.1073L702.916 49.2287L714.34 60.6527L716.461 58.5313ZM702.916 47.1073C701.348 48.6753 700.042 49.982 698.996 51.0273L701.117 53.1487C702.163 52.1033 703.469 50.7967 705.037 49.2287L702.916 47.1073ZM699.016 51.0082C697.945 52.0406 697.074 52.9673 696.422 53.783L698.764 55.657C699.306 54.9793 700.078 54.1514 701.098 53.1678L699.016 51.0082ZM696.422 53.783C695.74 54.6352 695.217 55.5285 694.889 56.4645L697.721 57.4555C697.916 56.8982 698.251 56.2982 698.764 55.657L696.422 53.783ZM694.889 56.4645C694.559 57.4073 694.413 58.4593 694.413 59.592H697.413C697.413 58.7087 697.528 58.0061 697.721 57.4555L694.889 56.4645ZM694.413 59.592C694.413 61.4532 694.871 63.157 695.823 64.6533L698.354 63.0427C697.739 62.075 697.413 60.9414 697.413 59.592H694.413ZM695.835 64.671C696.751 66.0679 697.942 67.1725 699.395 67.9648L700.831 65.3312C699.82 64.7795 698.994 64.0174 698.343 63.025L695.835 64.671ZM699.395 67.9648C700.837 68.7515 702.371 69.156 703.977 69.156V66.156C702.895 66.156 701.853 65.8885 700.831 65.3312L699.395 67.9648ZM705.021 28.0769C706.252 26.8834 707.179 25.9937 707.805 25.4043L705.749 23.2197C705.106 23.8249 704.166 24.7272 702.933 25.9231L705.021 28.0769ZM707.773 25.4331C708.493 24.7935 709.11 24.119 709.462 23.4148L706.779 22.0732C706.683 22.265 706.405 22.6358 705.78 23.1909L707.773 25.4331ZM709.483 23.3726C709.83 22.6203 709.957 21.748 709.957 20.84H706.957C706.957 21.5 706.86 21.897 706.759 22.1154L709.483 23.3726ZM709.957 20.84C709.957 18.954 709.313 17.3122 707.808 16.2533L706.082 18.7067C706.593 19.0665 706.957 19.6647 706.957 20.84H709.957ZM707.838 16.2747C706.647 15.3927 705.352 14.86 703.977 14.86V17.86C704.543 17.86 705.227 18.074 706.052 18.6853L707.838 16.2747ZM703.977 14.86C702.43 14.86 701.052 15.467 699.881 16.5441L701.912 18.7519C702.608 18.1117 703.283 17.86 703.977 17.86V14.86ZM699.906 16.5219C698.631 17.6441 697.997 19.1272 697.997 20.84H700.997C700.997 19.9394 701.296 19.2945 701.888 18.7741L699.906 16.5219ZM697.997 20.84C697.997 21.8082 698.181 22.7364 698.642 23.5442L701.247 22.0558C701.111 21.8183 700.997 21.4398 700.997 20.84H697.997ZM698.642 23.5442C699.031 24.2243 699.597 24.9091 700.284 25.5967L702.405 23.4753C701.824 22.8936 701.456 22.421 701.247 22.0558L698.642 23.5442ZM700.348 25.6571C700.998 26.2347 701.859 27.04 702.935 28.0791L705.019 25.9209C703.93 24.8694 703.036 24.0319 702.341 23.4149L700.348 25.6571ZM848.119 4.59999H849.619V3.09999H848.119V4.59999ZM848.119 21.4V22.9H849.619V21.4H848.119ZM825.719 21.4V19.9H824.219V21.4H825.719ZM825.719 83V84.5H827.219V83H825.719ZM808.919 83H807.419V84.5H808.919V83ZM808.919 21.4H810.419V19.9H808.919V21.4ZM786.519 21.4H785.019V22.9H786.519V21.4ZM786.519 4.59999V3.09999H785.019V4.59999H786.519ZM846.619 4.59999V21.4H849.619V4.59999H846.619ZM848.119 19.9H825.719V22.9H848.119V19.9ZM824.219 21.4V83H827.219V21.4H824.219ZM825.719 81.5H808.919V84.5H825.719V81.5ZM810.419 83V21.4H807.419V83H810.419ZM808.919 19.9H786.519V22.9H808.919V19.9ZM788.019 21.4V4.59999H785.019V21.4H788.019ZM786.519 6.09999H848.119V3.09999H786.519V6.09999ZM859.306 83H857.806V84.5H859.306V83ZM859.306 4.59999V3.09999H857.806V4.59999H859.306ZM902.874 7.848L902.08 9.12077L902.874 7.848ZM911.106 16.584L909.792 17.3079L909.797 17.3159L909.801 17.3239L911.106 16.584ZM912.506 37.976L913.904 38.5205L913.906 38.5145L912.506 37.976ZM907.69 45.648L906.593 44.6245L906.593 44.6252L907.69 45.648ZM900.41 50.968L899.761 49.6157L898.298 50.3178L899.113 51.721L900.41 50.968ZM919.002 83V84.5H921.607L920.299 82.247L919.002 83ZM899.626 83L898.329 83.7534L898.763 84.5H899.626V83ZM881.93 52.536L883.227 51.7826L882.793 51.036H881.93V52.536ZM876.106 52.536V51.036H874.606V52.536H876.106ZM876.106 83V84.5H877.606V83H876.106ZM876.106 35.736H874.606V37.236H876.106V35.736ZM893.298 34.616L894.075 35.8988L894.089 35.8903L894.103 35.8815L893.298 34.616ZM896.266 31.536L897.559 32.2965V32.2965L896.266 31.536ZM896.266 23.136L894.973 23.8965L896.266 23.136ZM893.298 20.112L892.493 21.3775L892.506 21.3863L892.521 21.3948L893.298 20.112ZM876.106 18.936V17.436H874.606V18.936H876.106ZM860.806 83V4.59999H857.806V83H860.806ZM859.306 6.09999H891.226V3.09999H859.306V6.09999ZM891.226 6.09999C895.253 6.09999 898.858 7.11142 902.08 9.12077L903.668 6.57523C899.946 4.25391 895.785 3.09999 891.226 3.09999V6.09999ZM902.08 9.12077C905.33 11.1476 907.897 13.8687 909.792 17.3079L912.42 15.8601C910.283 11.982 907.362 8.87905 903.668 6.57523L902.08 9.12077ZM909.801 17.3239C911.72 20.7083 912.686 24.4461 912.686 28.568H915.686C915.686 23.9539 914.598 19.7023 912.411 15.8441L909.801 17.3239ZM912.686 28.568C912.686 31.7581 912.155 34.7102 911.106 37.4375L913.906 38.5145C915.097 35.4178 915.686 32.0979 915.686 28.568H912.686ZM911.108 37.4315C910.057 40.1301 908.553 42.5246 906.593 44.6245L908.786 46.6715C911.008 44.2914 912.715 41.5713 913.904 38.5205L911.108 37.4315ZM906.593 44.6252C904.671 46.6867 902.398 48.3501 899.761 49.6157L901.059 52.3203C904.022 50.8979 906.602 49.0146 908.787 46.6708L906.593 44.6252ZM899.113 51.721L917.705 83.753L920.299 82.247L901.707 50.215L899.113 51.721ZM919.002 81.5H899.626V84.5H919.002V81.5ZM900.923 82.2466L883.227 51.7826L880.633 53.2894L898.329 83.7534L900.923 82.2466ZM881.93 51.036H876.106V54.036H881.93V51.036ZM874.606 52.536V83H877.606V52.536H874.606ZM876.106 81.5H859.306V84.5H876.106V81.5ZM876.106 37.236H889.21V34.236H876.106V37.236ZM889.21 37.236C890.967 37.236 892.6 36.7929 894.075 35.8988L892.521 33.3332C891.532 33.9324 890.44 34.236 889.21 34.236V37.236ZM894.103 35.8815C895.537 34.969 896.693 33.7686 897.559 32.2965L894.973 30.7755C894.346 31.8421 893.523 32.695 892.493 33.3505L894.103 35.8815ZM897.559 32.2965C898.447 30.7874 898.886 29.1231 898.886 27.336H895.886C895.886 28.6102 895.579 29.746 894.973 30.7755L897.559 32.2965ZM898.886 27.336C898.886 25.5489 898.447 23.8846 897.559 22.3755L894.973 23.8965C895.579 24.926 895.886 26.0618 895.886 27.336H898.886ZM897.559 22.3755C896.689 20.897 895.525 19.7076 894.075 18.8292L892.521 21.3948C893.535 22.0098 894.349 22.8363 894.973 23.8965L897.559 22.3755ZM894.103 18.8465C892.625 17.9057 890.982 17.436 889.21 17.436V20.436C890.425 20.436 891.507 20.7503 892.493 21.3775L894.103 18.8465ZM889.21 17.436H876.106V20.436H889.21V17.436ZM874.606 18.936V35.736H877.606V18.936H874.606ZM945.469 79.864L944.66 81.1271L944.664 81.1299L945.469 79.864ZM934.213 67.544L932.881 68.2339L932.887 68.2454L934.213 67.544ZM930.181 4.59999V3.09999H928.681V4.59999H930.181ZM946.981 4.59999H948.481V3.09999H946.981V4.59999ZM948.773 59.032L947.405 59.6484L947.409 59.6556L948.773 59.032ZM953.925 65.304L953.065 66.5329L953.074 66.5395L953.925 65.304ZM970.277 65.36L971.123 66.5985L971.13 66.5937L971.137 66.5888L970.277 65.36ZM975.373 59.088L976.745 59.6954L976.748 59.6882L975.373 59.088ZM977.109 4.59999V3.09999H975.609V4.59999H977.109ZM993.909 4.59999H995.409V3.09999H993.909V4.59999ZM991.613 63.624L993.018 64.1479L993.02 64.1437L991.613 63.624ZM985.061 74.488L986.173 75.4944L985.061 74.488ZM974.981 81.824L974.363 80.4571L974.981 81.824ZM962.101 82.956C956.085 82.956 950.826 81.4916 946.274 78.5981L944.664 81.1299C949.744 84.3591 955.573 85.956 962.101 85.956V82.956ZM946.278 78.601C941.723 75.683 938.147 71.7724 935.539 66.8426L932.887 68.2454C935.73 73.6196 939.657 77.9223 944.66 81.127L946.278 78.601ZM935.545 66.8541C932.976 61.8947 931.681 56.3848 931.681 50.296H928.681C928.681 56.8259 930.074 62.8147 932.881 68.2339L935.545 66.8541ZM931.681 50.296V4.59999H928.681V50.296H931.681ZM930.181 6.09999H946.981V3.09999H930.181V6.09999ZM945.481 4.59999V50.296H948.481V4.59999H945.481ZM945.481 50.296C945.481 53.6622 946.116 56.7868 947.405 59.6483L950.14 58.4156C949.041 55.9759 948.481 53.2765 948.481 50.296H945.481ZM947.409 59.6556C948.709 62.4991 950.594 64.8037 953.065 66.5328L954.785 64.0751C952.775 62.6683 951.227 60.7915 950.137 58.4084L947.409 59.6556ZM953.074 66.5395C955.637 68.3043 958.67 69.156 962.101 69.156V66.156C959.185 66.156 956.767 65.4397 954.776 64.0685L953.074 66.5395ZM962.101 69.156C965.557 69.156 968.591 68.3289 971.123 66.5985L969.431 64.1215C967.483 65.4525 965.066 66.156 962.101 66.156V69.156ZM971.137 66.5888C973.611 64.8569 975.482 62.5467 976.744 59.6954L974.001 58.4806C972.949 60.8559 971.422 62.7271 969.417 64.1311L971.137 66.5888ZM976.748 59.6882C977.996 56.8284 978.609 53.6904 978.609 50.296H975.609C975.609 53.3229 975.064 56.0463 973.998 58.4878L976.748 59.6882ZM978.609 50.296V4.59999H975.609V50.296H978.609ZM977.109 6.09999H993.909V3.09999H977.109V6.09999ZM992.409 4.59999V50.296H995.409V4.59999H992.409ZM992.409 50.296C992.409 54.873 991.671 59.1385 990.206 63.1043L993.02 64.1437C994.616 59.8215 995.409 55.2016 995.409 50.296H992.409ZM990.207 63.1001C988.741 67.0354 986.654 70.4916 983.949 73.4816L986.173 75.4944C989.143 72.2124 991.424 68.4259 993.018 64.1479L990.207 63.1001ZM983.949 73.4816C981.251 76.4636 978.059 78.7867 974.363 80.4571L975.599 83.1909C979.668 81.352 983.197 78.7844 986.173 75.4944L983.949 73.4816ZM974.363 80.4571C970.694 82.1153 966.614 82.956 962.101 82.956V85.956C966.996 85.956 971.503 85.042 975.599 83.1909L974.363 80.4571ZM1023.42 82.384L1022.92 83.799L1022.93 83.803L1023.42 82.384ZM1012.83 76.336L1011.84 77.464L1011.85 77.4709L1012.83 76.336ZM1006.28 66.872L1005.76 65.4647L1004.36 65.983L1004.87 67.3892L1006.28 66.872ZM1022.07 61.048L1023.49 60.559L1022.99 59.1105L1021.55 59.6407L1022.07 61.048ZM1024.54 64.184L1023.6 65.3587L1023.61 65.3652L1023.62 65.3717L1024.54 64.184ZM1029.46 66.704L1028.98 68.1243L1028.99 68.1284L1029.01 68.1323L1029.46 66.704ZM1042.4 66.704L1042.86 68.1323L1042.87 68.1284L1042.88 68.1243L1042.4 66.704ZM1047.22 63.96L1048.24 65.0533L1047.22 63.96ZM1047.1 56.064L1046.15 57.2219L1046.17 57.2371L1046.19 57.2517L1047.1 56.064ZM1042.18 53.6L1041.72 55.0283L1041.73 55.0334L1041.75 55.0382L1042.18 53.6ZM1036.07 52.2L1035.86 53.6845L1035.86 53.6849L1036.07 52.2ZM1020.78 48.168L1020.2 49.5485L1020.2 49.5514L1020.21 49.5543L1020.78 48.168ZM1010.14 40.328L1008.96 41.2471L1008.96 41.2553L1010.14 40.328ZM1010.42 14.848L1011.62 15.7519L1011.63 15.7461L1010.42 14.848ZM1021.34 6.224L1020.73 4.85653L1020.72 4.85845L1021.34 6.224ZM1048.73 5.272L1048.23 6.68697L1048.24 6.68972L1048.25 6.6924L1048.73 5.272ZM1059.37 11.32L1060.36 10.192L1059.37 11.32ZM1065.86 20.84L1066.37 22.2506L1067.77 21.744L1067.28 20.34L1065.86 20.84ZM1050.07 26.552L1048.65 27.041L1049.15 28.4805L1050.58 27.9626L1050.07 26.552ZM1047.55 23.472L1046.62 24.6467L1046.64 24.6617L1046.66 24.6761L1047.55 23.472ZM1042.68 21.008L1042.22 22.4363V22.4363L1042.68 21.008ZM1036.07 20.056L1036.05 21.5558L1036.06 21.556H1036.07V20.056ZM1029.86 21.008L1030.34 22.4283L1029.86 21.008ZM1024.87 32.208L1023.9 33.3544L1023.92 33.3634L1023.93 33.3722L1024.87 32.208ZM1029.58 34.28L1029.27 35.7475L1029.27 35.7487L1029.58 34.28ZM1036.07 35.4L1036.29 33.9157L1036.28 33.9151L1036.07 35.4ZM1061.78 47.664L1062.94 46.7191L1061.78 47.664ZM1061.72 72.808L1060.52 71.9099L1060.52 71.9119L1061.72 72.808ZM1050.86 81.376L1050.23 80.0105L1050.86 81.376ZM1036.07 82.956C1031.83 82.956 1027.77 82.2909 1023.9 80.965L1022.93 83.803C1027.12 85.2398 1031.51 85.956 1036.07 85.956V82.956ZM1023.91 80.969C1020.05 79.6083 1016.68 77.6833 1013.81 75.2011L1011.85 77.4709C1015.03 80.2153 1018.72 82.3224 1022.92 83.799L1023.91 80.969ZM1013.82 75.208C1010.98 72.7172 1008.94 69.7704 1007.69 66.3548L1004.87 67.3892C1006.3 71.291 1008.64 74.6535 1011.84 77.464L1013.82 75.208ZM1006.8 68.2793L1022.59 62.4553L1021.55 59.6407L1005.76 65.4647L1006.8 68.2793ZM1020.65 61.537C1021.15 62.9799 1022.2 64.2435 1023.6 65.3587L1025.47 63.0093C1024.33 62.1085 1023.74 61.2814 1023.49 60.559L1020.65 61.537ZM1023.62 65.3717C1025.09 66.5034 1026.89 67.4127 1028.98 68.1243L1029.95 65.2837C1028.08 64.6513 1026.6 63.8806 1025.45 62.9963L1023.62 65.3717ZM1029.01 68.1323C1031.15 68.8217 1033.52 69.156 1036.07 69.156V66.156C1033.78 66.156 1031.73 65.8557 1029.92 65.2757L1029.01 68.1323ZM1036.07 69.156C1038.46 69.156 1040.72 68.818 1042.86 68.1323L1041.94 65.2757C1040.12 65.8593 1038.17 66.156 1036.07 66.156V69.156ZM1042.88 68.1243C1045.02 67.3993 1046.82 66.3876 1048.24 65.0533L1046.19 62.8667C1045.15 63.847 1043.74 64.6647 1041.92 65.2837L1042.88 68.1243ZM1048.24 65.0533C1049.74 63.6452 1050.56 61.9183 1050.56 59.928H1047.56C1047.56 60.999 1047.15 61.9601 1046.19 62.8667L1048.24 65.0533ZM1050.56 59.928C1050.56 57.8674 1049.67 56.151 1048.02 54.8763L1046.19 57.2517C1047.15 57.993 1047.56 58.8526 1047.56 59.928H1050.56ZM1048.06 54.9061C1046.6 53.7027 1044.76 52.801 1042.6 52.1618L1041.75 55.0382C1043.62 55.5937 1045.07 56.3347 1046.15 57.2219L1048.06 54.9061ZM1042.63 52.1717C1040.57 51.5108 1038.46 51.0255 1036.28 50.7151L1035.86 53.6849C1037.87 53.9719 1039.82 54.4198 1041.72 55.0283L1042.63 52.1717ZM1036.29 50.7155C1030.71 49.9089 1025.74 48.5936 1021.36 46.7817L1020.21 49.5543C1024.86 51.4757 1030.08 52.8484 1035.86 53.6845L1036.29 50.7155ZM1021.37 46.7875C1017.09 44.9672 1013.76 42.4965 1011.32 39.4007L1008.96 41.2553C1011.76 44.8048 1015.52 47.5608 1020.2 49.5485L1021.37 46.7875ZM1011.33 39.4089C1009 36.4024 1007.78 32.528 1007.78 27.672H1004.78C1004.78 33.0453 1006.14 37.6083 1008.96 41.2471L1011.33 39.4089ZM1007.78 27.672C1007.78 23.0844 1009.07 19.1323 1011.62 15.7519L1009.23 13.9441C1006.25 17.881 1004.78 22.4783 1004.78 27.672H1007.78ZM1011.63 15.7461C1014.23 12.2674 1017.66 9.54651 1021.96 7.58955L1020.72 4.85845C1015.99 7.00815 1012.15 10.0366 1009.22 13.9499L1011.63 15.7461ZM1021.96 7.59146C1026.31 5.63014 1031.01 4.64399 1036.07 4.64399V1.64399C1030.61 1.64399 1025.49 2.71118 1020.73 4.85653L1021.96 7.59146ZM1036.07 4.64399C1040.31 4.64399 1044.36 5.3263 1048.23 6.68697L1049.23 3.85703C1045.03 2.38036 1040.64 1.64399 1036.07 1.64399V4.64399ZM1048.25 6.6924C1052.14 8.01485 1055.51 9.93582 1058.38 12.448L1060.36 10.192C1057.17 7.40284 1053.45 5.29181 1049.21 3.8516L1048.25 6.6924ZM1058.38 12.448C1061.21 14.9338 1063.23 17.8928 1064.45 21.34L1067.28 20.34C1065.88 16.3952 1063.57 13.0075 1060.36 10.192L1058.38 12.448ZM1065.35 19.4294L1049.56 25.1414L1050.58 27.9626L1066.37 22.2506L1065.35 19.4294ZM1051.49 26.063C1050.98 24.5976 1049.9 23.3458 1048.45 22.2679L1046.66 24.6761C1047.82 25.5395 1048.41 26.3411 1048.65 27.041L1051.49 26.063ZM1048.48 22.2973C1047.04 21.1501 1045.24 20.2547 1043.14 19.5797L1042.22 22.4363C1044.07 23.0306 1045.52 23.7779 1046.62 24.6467L1048.48 22.2973ZM1043.14 19.5797C1040.99 18.8903 1038.63 18.556 1036.07 18.556V21.556C1038.37 21.556 1040.41 21.8563 1042.22 22.4363L1043.14 19.5797ZM1036.1 18.5562C1033.77 18.516 1031.52 18.8581 1029.37 19.5877L1030.34 22.4283C1032.15 21.8139 1034.05 21.5213 1036.05 21.5558L1036.1 18.5562ZM1029.37 19.5877C1027.24 20.3121 1025.42 21.3203 1023.97 22.6436L1025.99 24.8604C1027.08 23.8691 1028.51 23.0479 1030.34 22.4283L1029.37 19.5877ZM1023.97 22.6436C1022.45 24.0293 1021.58 25.7179 1021.58 27.672H1024.58C1024.58 26.7141 1024.98 25.7893 1025.99 24.8604L1023.97 22.6436ZM1021.58 27.672C1021.58 29.9923 1022.28 31.9832 1023.9 33.3544L1025.84 31.0616C1025.07 30.4168 1024.58 29.3837 1024.58 27.672H1021.58ZM1023.93 33.3722C1025.35 34.53 1027.16 35.3014 1029.27 35.7475L1029.89 32.8125C1028.11 32.4373 1026.78 31.8273 1025.82 31.0438L1023.93 33.3722ZM1029.27 35.7487C1031.29 36.1667 1033.48 36.5452 1035.86 36.8849L1036.28 33.9151C1033.96 33.5828 1031.82 33.2146 1029.88 32.8113L1029.27 35.7487ZM1035.86 36.8843C1041.11 37.6504 1045.92 39.0151 1050.3 40.9698L1051.52 38.2302C1046.87 36.1529 1041.79 34.7176 1036.29 33.9157L1035.86 36.8843ZM1050.3 40.9698C1054.63 42.9035 1058.05 45.4568 1060.61 48.6089L1062.94 46.7191C1060.05 43.1512 1056.22 40.3285 1051.52 38.2302L1050.3 40.9698ZM1060.61 48.6089C1063.09 51.6712 1064.36 55.4147 1064.36 59.928H1067.36C1067.36 54.8093 1065.91 50.3768 1062.94 46.7191L1060.61 48.6089ZM1064.36 59.928C1064.36 64.5156 1063.08 68.4893 1060.52 71.9099L1062.92 73.7061C1065.89 69.7347 1067.36 65.1217 1067.36 59.928H1064.36ZM1060.52 71.9119C1057.96 75.3499 1054.54 78.0525 1050.23 80.0105L1051.48 82.7415C1056.2 80.5928 1060.03 77.5834 1062.92 73.7041L1060.52 71.9119ZM1050.23 80.0105C1045.93 81.9686 1041.21 82.956 1036.07 82.956V85.956C1041.61 85.956 1046.75 84.8901 1051.48 82.7415L1050.23 80.0105ZM1135.34 4.59999H1136.84V3.09999H1135.34V4.59999ZM1135.34 21.4V22.9H1136.84V21.4H1135.34ZM1112.94 21.4V19.9H1111.44V21.4H1112.94ZM1112.94 83V84.5H1114.44V83H1112.94ZM1096.14 83H1094.64V84.5H1096.14V83ZM1096.14 21.4H1097.64V19.9H1096.14V21.4ZM1073.74 21.4H1072.24V22.9H1073.74V21.4ZM1073.74 4.59999V3.09999H1072.24V4.59999H1073.74ZM1133.84 4.59999V21.4H1136.84V4.59999H1133.84ZM1135.34 19.9H1112.94V22.9H1135.34V19.9ZM1111.44 21.4V83H1114.44V21.4H1111.44ZM1112.94 81.5H1096.14V84.5H1112.94V81.5ZM1097.64 83V21.4H1094.64V83H1097.64ZM1096.14 19.9H1073.74V22.9H1096.14V19.9ZM1075.24 21.4V4.59999H1072.24V21.4H1075.24ZM1073.74 6.09999H1135.34V3.09999H1073.74V6.09999Z" fill="url(#paint0_linear_337_8673)" mask="url(#path-1-outside-1_337_8673)"/>
<defs>
<linearGradient id="paint0_linear_337_8673" x1="-41" y1="43.5" x2="1176" y2="43.5" gradientUnits="userSpaceOnUse">
<stop stop-color="#E45F23"/>
<stop offset="1" stop-color="#0E00A1"/>
</linearGradient>
</defs>
</svg>
